<svg width="23" height="25" viewBox="0 0 23 25" fill="none" xmlns="http://www.w3.org/2000/svg">
<path fill-rule="evenodd" clip-rule="evenodd" d="M21 21H22.05C22.5747 21 23 20.5523 23 20C23 19.4477 22.5747 19 22.05 19H21V11.5556C21 7.38274 17.6421 4 13.5 4C9.35786 4 6 7.38274 6 11.5556V19H4.95C4.42533 19 4 19.4477 4 20C4 20.5523 4.42533 21 4.95 21H6H7H10V21.1667C10 22.0507 10.3687 22.8986 11.0251 23.5237C11.6815 24.1488 12.5717 24.5 13.5 24.5C14.4283 24.5 15.3185 24.1488 15.9749 23.5237C16.6313 22.8986 17 22.0507 17 21.1667V21H20.3H21Z" fill="black"/>
<circle cx="3" cy="3" r="3" fill="#FF4163"/>
</svg>
