<svg width="20" height="21" viewBox="0 0 20 21" fill="none" xmlns="http://www.w3.org/2000/svg">
<path d="M2.93311 7.84358C2.93311 4.06398 5.99708 1 9.77668 1C13.5563 1 16.6203 4.06398 16.6203 7.84358V17H2.93311V7.84358Z" fill="black"/>
<ellipse cx="9.77663" cy="17.5" rx="2.57277" ry="2.5" fill="black"/>
<path fill-rule="evenodd" clip-rule="evenodd" d="M15.5653 7.55556V15H3.9878V7.55555C3.9878 4.42594 6.57951 1.88889 9.77654 1.88889C12.9736 1.88889 15.5653 4.42594 15.5653 7.55556ZM18.5754 17H17.4949H13.3784V17.1667C13.3784 18.0507 12.9989 18.8986 12.3235 19.5237C11.648 20.1488 10.7318 20.5 9.77654 20.5C8.82126 20.5 7.90511 20.1488 7.22963 19.5237C6.55414 18.8986 6.17466 18.0507 6.17466 17.1667V17H2.05822H0.977654C0.437711 17 0 16.5523 0 16C0 15.4477 0.437711 15 0.977654 15H2.05822V7.55555C2.05822 3.38274 5.51383 0 9.77654 0C14.0393 0 17.4949 3.38274 17.4949 7.55556V15H18.5754C19.1154 15 19.5531 15.4477 19.5531 16C19.5531 16.5523 19.1154 17 18.5754 17ZM11.05 18.3452C11.3877 18.0326 11.5775 17.6087 11.5775 17.1667H7.9756C7.9756 17.6087 8.16534 18.0326 8.50308 18.3452C8.84083 18.6577 9.2989 18.8333 9.77654 18.8333C10.2542 18.8333 10.7123 18.6577 11.05 18.3452Z" fill="black"/>
</svg>
