<svg width="50" height="59" viewBox="0 0 50 59" fill="none" xmlns="http://www.w3.org/2000/svg">
  <mask id="path-1-inside-1_1477_23325" fill="white">
    <path fill-rule="evenodd" clip-rule="evenodd"
      d="M30.4174 48.6499C41.2623 46.0576 49.3249 36.3016 49.3249 24.6625C49.3249 11.0418 38.2832 0 24.6625 0C11.0418 0 0 11.0418 0 24.6625C0 36.3016 8.06275 46.0577 18.9077 48.6499L24.6625 58.6176L30.4174 48.6499Z" />
  </mask>
  <path fill-rule="evenodd" clip-rule="evenodd"
    d="M30.4174 48.6499C41.2623 46.0576 49.3249 36.3016 49.3249 24.6625C49.3249 11.0418 38.2832 0 24.6625 0C11.0418 0 0 11.0418 0 24.6625C0 36.3016 8.06275 46.0577 18.9077 48.6499L24.6625 58.6176L30.4174 48.6499Z"
    fill="#3B84C8" />
  <path
    d="M30.4174 48.6499L30.1849 47.6773L29.7665 47.7773L29.5514 48.1499L30.4174 48.6499ZM18.9077 48.6499L19.7737 48.1499L19.5586 47.7773L19.1402 47.6773L18.9077 48.6499ZM24.6625 58.6176L23.7965 59.1176L24.6625 60.6176L25.5286 59.1176L24.6625 58.6176ZM48.3249 24.6625C48.3249 35.8283 40.59 45.1901 30.1849 47.6773L30.6499 49.6225C41.9345 46.925 50.3249 36.7748 50.3249 24.6625H48.3249ZM24.6625 1C37.7309 1 48.3249 11.594 48.3249 24.6625H50.3249C50.3249 10.4895 38.8355 -1 24.6625 -1V1ZM1 24.6625C1 11.594 11.594 1 24.6625 1V-1C10.4895 -1 -1 10.4895 -1 24.6625H1ZM19.1402 47.6773C8.73498 45.1902 1 35.8284 1 24.6625H-1C-1 36.7749 7.39053 46.9251 18.6752 49.6225L19.1402 47.6773ZM25.5286 58.1176L19.7737 48.1499L18.0416 49.1499L23.7965 59.1176L25.5286 58.1176ZM29.5514 48.1499L23.7965 58.1176L25.5286 59.1176L31.2835 49.1499L29.5514 48.1499Z"
    fill="white" mask="url(#path-1-inside-1_1477_23325)" />
  <ellipse cx="4.68733" cy="4.73867" rx="4.68733" ry="4.73867"
    transform="matrix(-0.861243 -0.508193 0.491851 -0.870679 29.0334 40.5029)" fill="white" />
  <path fill-rule="evenodd" clip-rule="evenodd"
    d="M26.6298 25.8747C28.2588 24.4761 29.2857 22.3724 29.2632 20.0292C29.2619 19.8935 29.2572 19.7586 29.249 19.6247C29.4461 19.5917 29.6482 19.5736 29.854 19.5716C32.0343 19.5497 33.8193 21.3373 33.8407 23.5641C33.8621 25.7911 32.1117 27.614 29.9314 27.6358C28.5617 27.6495 27.3483 26.9493 26.6298 25.8747Z"
    fill="#7EC3F5" />
  <path fill-rule="evenodd" clip-rule="evenodd"
    d="M24.7797 13.2764C21.2478 11.1924 16.7316 12.4291 14.6925 16.0388C12.6533 19.6485 13.8634 24.2642 17.3953 26.3483C20.9272 28.4324 25.4434 27.1956 27.4826 23.5859C29.5217 19.9762 28.3116 15.3605 24.7797 13.2764ZM26.0971 17.5862C26.2478 16.9513 25.911 15.8478 24.7208 14.807C23.6971 13.9119 22.533 13.703 21.8045 13.8326C21.8045 13.8326 23.3308 14.7734 24.1741 15.5117C25.0095 16.243 26.0971 17.5862 26.0971 17.5862Z"
    fill="white" />
</svg>
  