<svg width="50" height="59" viewBox="0 0 50 59" fill="none" xmlns="http://www.w3.org/2000/svg">
<mask id="path-1-inside-1_1477_23325" fill="white">
<path fill-rule="evenodd" clip-rule="evenodd" d="M30.4174 48.6499C41.2623 46.0576 49.3249 36.3016 49.3249 24.6625C49.3249 11.0418 38.2832 0 24.6625 0C11.0418 0 0 11.0418 0 24.6625C0 36.3016 8.06275 46.0577 18.9077 48.6499L24.6625 58.6176L30.4174 48.6499Z"/>
</mask>
<path fill-rule="evenodd" clip-rule="evenodd" d="M30.4174 48.6499C41.2623 46.0576 49.3249 36.3016 49.3249 24.6625C49.3249 11.0418 38.2832 0 24.6625 0C11.0418 0 0 11.0418 0 24.6625C0 36.3016 8.06275 46.0577 18.9077 48.6499L24.6625 58.6176L30.4174 48.6499Z" fill="#9FD7FF"/>
<path d="M30.4174 48.6499L30.1849 47.6773L29.7665 47.7773L29.5514 48.1499L30.4174 48.6499ZM18.9077 48.6499L19.7737 48.1499L19.5586 47.7773L19.1402 47.6773L18.9077 48.6499ZM24.6625 58.6176L23.7965 59.1176L24.6625 60.6176L25.5286 59.1176L24.6625 58.6176ZM48.3249 24.6625C48.3249 35.8283 40.59 45.1901 30.1849 47.6773L30.6499 49.6225C41.9345 46.925 50.3249 36.7748 50.3249 24.6625H48.3249ZM24.6625 1C37.7309 1 48.3249 11.594 48.3249 24.6625H50.3249C50.3249 10.4895 38.8355 -1 24.6625 -1V1ZM1 24.6625C1 11.594 11.594 1 24.6625 1V-1C10.4895 -1 -1 10.4895 -1 24.6625H1ZM19.1402 47.6773C8.73498 45.1902 1 35.8284 1 24.6625H-1C-1 36.7749 7.39053 46.9251 18.6752 49.6225L19.1402 47.6773ZM25.5286 58.1176L19.7737 48.1499L18.0416 49.1499L23.7965 59.1176L25.5286 58.1176ZM29.5514 48.1499L23.7965 58.1176L25.5286 59.1176L31.2835 49.1499L29.5514 48.1499Z" fill="white" mask="url(#path-1-inside-1_1477_23325)"/>
<g filter="url(#filter0_d_1477_23325)">
<ellipse rx="8.27147" ry="8.27134" transform="matrix(-0.866032 -0.499988 0.500012 -0.866018 22.2602 19.1281)" fill="url(#paint0_linear_1477_23325)" fill-opacity="0.8" shape-rendering="crispEdges"/>
</g>
<ellipse cx="22.2603" cy="16.0245" rx="6.29293" ry="4.71417" fill="url(#paint1_linear_1477_23325)"/>
<ellipse rx="3.20044" ry="1.43995" transform="matrix(0.928486 -0.371366 0.371387 0.928478 19.9192 13.185)" fill="url(#paint2_linear_1477_23325)"/>
<ellipse rx="7.75808" ry="7.84578" transform="matrix(-0.965928 0.258811 -0.258827 -0.965924 22.2603 19.1281)" fill="url(#paint3_linear_1477_23325)"/>
<g filter="url(#filter1_f_1477_23325)">
<path fill-rule="evenodd" clip-rule="evenodd" d="M24.739 16.6686C23.0958 15.0255 20.4316 15.0255 18.7884 16.6686C17.1451 18.3118 17.1451 20.9759 18.7884 22.619C20.4316 24.2622 23.0958 24.2622 24.739 22.619C26.3822 20.9759 26.3822 18.3118 24.739 16.6686ZM27.1649 14.2428C24.1819 11.2599 19.3455 11.2599 16.3625 14.2428C13.3794 17.2257 13.3794 22.062 16.3625 25.0449C19.3455 28.0278 24.1819 28.0278 27.1649 25.0449C30.1479 22.062 30.1479 17.2257 27.1649 14.2428Z" fill="url(#paint4_linear_1477_23325)"/>
</g>
<ellipse cx="22.2603" cy="19.1281" rx="8.27154" ry="8.27127" fill="url(#paint5_radial_1477_23325)" fill-opacity="0.2"/>
<g filter="url(#filter2_f_1477_23325)">
<path fill-rule="evenodd" clip-rule="evenodd" d="M23.0205 19.9775C22.1247 20.8733 22.1247 22.3258 23.0205 23.2216C23.9164 24.1174 25.3688 24.1174 26.2647 23.2216C27.1605 22.3258 27.1605 20.8733 26.2647 19.9775C25.3688 19.0817 23.9164 19.0817 23.0205 19.9775ZM21.698 18.655C20.0717 20.2812 20.0717 22.9179 21.698 24.5441C23.3243 26.1703 25.961 26.1703 27.5872 24.5441C29.2135 22.9179 29.2135 20.2812 27.5872 18.655C25.961 17.0288 23.3243 17.0288 21.698 18.655Z" fill="url(#paint6_linear_1477_23325)"/>
</g>
<g filter="url(#filter3_f_1477_23325)">
<path fill-rule="evenodd" clip-rule="evenodd" d="M22.1847 17.4149C23.2075 16.909 23.6266 15.6699 23.1208 14.6471C22.6149 13.6243 21.3757 13.2052 20.3529 13.7111C19.3301 14.2169 18.911 15.4561 19.4168 16.4789C19.9227 17.5016 21.1619 17.9207 22.1847 17.4149ZM22.9315 18.9248C24.7883 18.0066 25.549 15.757 24.6308 13.9003C23.7125 12.0436 21.4629 11.2829 19.6061 12.2011C17.7493 13.1194 16.9886 15.3689 17.9068 17.2256C18.8251 19.0823 21.0748 19.8431 22.9315 18.9248Z" fill="url(#paint7_linear_1477_23325)"/>
</g>
<g filter="url(#filter4_d_1477_23325)">
<ellipse rx="4.04131" ry="4.04125" transform="matrix(-0.866032 -0.499988 0.500012 -0.866018 32.0604 22.9527)" fill="url(#paint8_linear_1477_23325)" fill-opacity="0.8" shape-rendering="crispEdges"/>
</g>
<ellipse cx="32.0605" cy="21.4364" rx="3.07463" ry="2.30327" fill="url(#paint9_linear_1477_23325)"/>
<ellipse rx="1.56369" ry="0.703536" transform="matrix(0.928486 -0.371366 0.371387 0.928478 30.9165 20.049)" fill="url(#paint10_linear_1477_23325)"/>
<ellipse rx="3.79048" ry="3.83332" transform="matrix(-0.965928 0.258811 -0.258827 -0.965924 32.0604 22.9528)" fill="url(#paint11_linear_1477_23325)"/>
<g filter="url(#filter5_f_1477_23325)">
<path fill-rule="evenodd" clip-rule="evenodd" d="M33.2714 21.751C32.4686 20.9482 31.1669 20.9482 30.3641 21.751C29.5612 22.5539 29.5612 23.8555 30.3641 24.6583C31.1669 25.4612 32.4686 25.4612 33.2714 24.6583C34.0743 23.8555 34.0743 22.5539 33.2714 21.751ZM34.4567 20.5658C32.9992 19.1084 30.6362 19.1084 29.1788 20.5658C27.7213 22.0232 27.7213 24.3861 29.1788 25.8436C30.6362 27.301 32.9992 27.301 34.4567 25.8436C35.9142 24.3861 35.9142 22.0232 34.4567 20.5658Z" fill="url(#paint12_linear_1477_23325)"/>
</g>
<ellipse cx="32.0604" cy="22.9527" rx="4.04135" ry="4.04121" fill="url(#paint13_radial_1477_23325)" fill-opacity="0.2"/>
<g filter="url(#filter6_f_1477_23325)">
<path fill-rule="evenodd" clip-rule="evenodd" d="M32.4318 23.3677C31.9941 23.8054 31.9941 24.515 32.4318 24.9527C32.8695 25.3904 33.5791 25.3904 34.0168 24.9527C34.4545 24.515 34.4545 23.8054 34.0168 23.3677C33.5791 22.93 32.8695 22.93 32.4318 23.3677ZM31.7856 22.7216C30.991 23.5161 30.991 24.8043 31.7856 25.5989C32.5802 26.3934 33.8684 26.3934 34.663 25.5989C35.4576 24.8043 35.4576 23.5161 34.663 22.7216C33.8684 21.927 32.5802 21.927 31.7856 22.7216Z" fill="url(#paint14_linear_1477_23325)"/>
</g>
<g filter="url(#filter7_f_1477_23325)">
<path fill-rule="evenodd" clip-rule="evenodd" d="M32.0234 22.1157C32.5232 21.8685 32.7279 21.2631 32.4808 20.7634C32.2336 20.2637 31.6282 20.0589 31.1284 20.3061C30.6287 20.5532 30.424 21.1587 30.6711 21.6584C30.9183 22.1581 31.5237 22.3628 32.0234 22.1157ZM32.3883 22.8534C33.2955 22.4048 33.6672 21.3057 33.2185 20.3985C32.7699 19.4914 31.6708 19.1197 30.7636 19.5683C29.8564 20.017 29.4847 21.1161 29.9333 22.0232C30.382 22.9304 31.4811 23.3021 32.3883 22.8534Z" fill="url(#paint15_linear_1477_23325)"/>
</g>
<g filter="url(#filter8_d_1477_23325)">
<ellipse rx="5.22143" ry="5.22135" transform="matrix(-0.866032 -0.499988 0.500012 -0.866018 29.0458 34.3511)" fill="url(#paint16_linear_1477_23325)" fill-opacity="0.8" shape-rendering="crispEdges"/>
</g>
<ellipse cx="29.0458" cy="32.3919" rx="3.97246" ry="2.97586" fill="url(#paint17_linear_1477_23325)"/>
<ellipse rx="2.0203" ry="0.908978" transform="matrix(0.928486 -0.371366 0.371387 0.928478 27.5679 30.5995)" fill="url(#paint18_linear_1477_23325)"/>
<ellipse rx="4.89735" ry="4.95271" transform="matrix(-0.965928 0.258811 -0.258827 -0.965924 29.0457 34.351)" fill="url(#paint19_linear_1477_23325)"/>
<g filter="url(#filter9_f_1477_23325)">
<path fill-rule="evenodd" clip-rule="evenodd" d="M30.6105 32.7985C29.5732 31.7613 27.8914 31.7613 26.8541 32.7985C25.8168 33.8358 25.8168 35.5175 26.8541 36.5548C27.8914 37.592 29.5732 37.592 30.6105 36.5548C31.6478 35.5175 31.6478 33.8358 30.6105 32.7985ZM32.1419 31.2672C30.2588 29.3842 27.2058 29.3842 25.3227 31.2672C23.4397 33.1502 23.4397 36.2031 25.3227 38.0861C27.2058 39.9691 30.2588 39.9691 32.1419 38.0861C34.0249 36.2031 34.0249 33.1502 32.1419 31.2672Z" fill="url(#paint20_linear_1477_23325)"/>
</g>
<ellipse cx="29.0457" cy="34.3511" rx="5.22147" ry="5.2213" fill="url(#paint21_radial_1477_23325)" fill-opacity="0.2"/>
<g filter="url(#filter10_f_1477_23325)">
<path fill-rule="evenodd" clip-rule="evenodd" d="M29.5258 34.8873C28.9603 35.4528 28.9603 36.3697 29.5258 36.9352C30.0913 37.5007 31.0081 37.5007 31.5736 36.9352C32.1392 36.3697 32.1392 35.4528 31.5736 34.8873C31.0081 34.3219 30.0913 34.3219 29.5258 34.8873ZM28.6909 34.0525C27.6643 35.0791 27.6643 36.7434 28.6909 37.77C29.7175 38.7966 31.3819 38.7966 32.4085 37.77C33.4351 36.7434 33.4351 35.0791 32.4085 34.0525C31.3819 33.0259 29.7175 33.0259 28.6909 34.0525Z" fill="url(#paint22_linear_1477_23325)"/>
</g>
<g filter="url(#filter11_f_1477_23325)">
<path fill-rule="evenodd" clip-rule="evenodd" d="M28.9981 33.2696C29.6437 32.9503 29.9083 32.1681 29.589 31.5224C29.2697 30.8768 28.4874 30.6122 27.8417 30.9316C27.1961 31.2509 26.9315 32.0331 27.2508 32.6787C27.5702 33.3244 28.3524 33.5889 28.9981 33.2696ZM29.4695 34.2228C30.6416 33.6431 31.1218 32.2231 30.5422 31.051C29.9625 29.879 28.5424 29.3987 27.3703 29.9784C26.1982 30.558 25.718 31.9781 26.2976 33.1501C26.8773 34.3222 28.2974 34.8024 29.4695 34.2228Z" fill="url(#paint23_linear_1477_23325)"/>
</g>
<defs>
<filter id="filter0_d_1477_23325" x="11.6385" y="10.8555" width="21.2435" height="21.2429" filterUnits="userSpaceOnUse" color-interpolation-filters="sRGB">
<feFlood flood-opacity="0" result="BackgroundImageFix"/>
<feColorMatrix in="SourceAlpha" type="matrix" values="0 0 0 0 0 0 0 0 0 0 0 0 0 0 0 0 0 0 127 0" result="hardAlpha"/>
<feOffset dy="2.34881"/>
<feGaussianBlur stdDeviation="1.1744"/>
<feComposite in2="hardAlpha" operator="out"/>
<feColorMatrix type="matrix" values="0 0 0 0 0 0 0 0 0 0 0 0 0 0 0 0 0 0 0.25 0"/>
<feBlend mode="normal" in2="BackgroundImageFix" result="effect1_dropShadow_1477_23325"/>
<feBlend mode="normal" in="SourceGraphic" in2="effect1_dropShadow_1477_23325" result="shape"/>
</filter>
<filter id="filter1_f_1477_23325" x="10.9935" y="8.87387" width="21.5403" height="21.5399" filterUnits="userSpaceOnUse" color-interpolation-filters="sRGB">
<feFlood flood-opacity="0" result="BackgroundImageFix"/>
<feBlend mode="normal" in="SourceGraphic" in2="BackgroundImageFix" result="shape"/>
<feGaussianBlur stdDeviation="1.56587" result="effect1_foregroundBlur_1477_23325"/>
</filter>
<filter id="filter2_f_1477_23325" x="18.9124" y="15.8695" width="11.4604" height="11.4601" filterUnits="userSpaceOnUse" color-interpolation-filters="sRGB">
<feFlood flood-opacity="0" result="BackgroundImageFix"/>
<feBlend mode="normal" in="SourceGraphic" in2="BackgroundImageFix" result="shape"/>
<feGaussianBlur stdDeviation="0.782935" result="effect1_foregroundBlur_1477_23325"/>
</filter>
<filter id="filter3_f_1477_23325" x="15.9515" y="10.2457" width="10.6347" height="10.6345" filterUnits="userSpaceOnUse" color-interpolation-filters="sRGB">
<feFlood flood-opacity="0" result="BackgroundImageFix"/>
<feBlend mode="normal" in="SourceGraphic" in2="BackgroundImageFix" result="shape"/>
<feGaussianBlur stdDeviation="0.782935" result="effect1_foregroundBlur_1477_23325"/>
</filter>
<filter id="filter4_d_1477_23325" x="25.6696" y="18.9108" width="12.7816" height="12.7814" filterUnits="userSpaceOnUse" color-interpolation-filters="sRGB">
<feFlood flood-opacity="0" result="BackgroundImageFix"/>
<feColorMatrix in="SourceAlpha" type="matrix" values="0 0 0 0 0 0 0 0 0 0 0 0 0 0 0 0 0 0 127 0" result="hardAlpha"/>
<feOffset dy="2.34881"/>
<feGaussianBlur stdDeviation="1.1744"/>
<feComposite in2="hardAlpha" operator="out"/>
<feColorMatrix type="matrix" values="0 0 0 0 0 0 0 0 0 0 0 0 0 0 0 0 0 0 0.25 0"/>
<feBlend mode="normal" in2="BackgroundImageFix" result="effect1_dropShadow_1477_23325"/>
<feBlend mode="normal" in="SourceGraphic" in2="effect1_dropShadow_1477_23325" result="shape"/>
</filter>
<filter id="filter5_f_1477_23325" x="24.954" y="16.341" width="13.7276" height="13.7273" filterUnits="userSpaceOnUse" color-interpolation-filters="sRGB">
<feFlood flood-opacity="0" result="BackgroundImageFix"/>
<feBlend mode="normal" in="SourceGraphic" in2="BackgroundImageFix" result="shape"/>
<feGaussianBlur stdDeviation="1.56587" result="effect1_foregroundBlur_1477_23325"/>
</filter>
<filter id="filter6_f_1477_23325" x="29.6238" y="20.5598" width="7.20096" height="7.20083" filterUnits="userSpaceOnUse" color-interpolation-filters="sRGB">
<feFlood flood-opacity="0" result="BackgroundImageFix"/>
<feBlend mode="normal" in="SourceGraphic" in2="BackgroundImageFix" result="shape"/>
<feGaussianBlur stdDeviation="0.782935" result="effect1_foregroundBlur_1477_23325"/>
</filter>
<filter id="filter7_f_1477_23325" x="28.1772" y="17.8121" width="6.79751" height="6.79751" filterUnits="userSpaceOnUse" color-interpolation-filters="sRGB">
<feFlood flood-opacity="0" result="BackgroundImageFix"/>
<feBlend mode="normal" in="SourceGraphic" in2="BackgroundImageFix" result="shape"/>
<feGaussianBlur stdDeviation="0.782935" result="effect1_foregroundBlur_1477_23325"/>
</filter>
<filter id="filter8_d_1477_23325" x="21.4747" y="29.1289" width="15.1423" height="15.1419" filterUnits="userSpaceOnUse" color-interpolation-filters="sRGB">
<feFlood flood-opacity="0" result="BackgroundImageFix"/>
<feColorMatrix in="SourceAlpha" type="matrix" values="0 0 0 0 0 0 0 0 0 0 0 0 0 0 0 0 0 0 127 0" result="hardAlpha"/>
<feOffset dy="2.34881"/>
<feGaussianBlur stdDeviation="1.1744"/>
<feComposite in2="hardAlpha" operator="out"/>
<feColorMatrix type="matrix" values="0 0 0 0 0 0 0 0 0 0 0 0 0 0 0 0 0 0 0.25 0"/>
<feBlend mode="normal" in2="BackgroundImageFix" result="effect1_dropShadow_1477_23325"/>
<feBlend mode="normal" in="SourceGraphic" in2="effect1_dropShadow_1477_23325" result="shape"/>
</filter>
<filter id="filter9_f_1477_23325" x="20.7787" y="26.7232" width="15.9073" height="15.9069" filterUnits="userSpaceOnUse" color-interpolation-filters="sRGB">
<feFlood flood-opacity="0" result="BackgroundImageFix"/>
<feBlend mode="normal" in="SourceGraphic" in2="BackgroundImageFix" result="shape"/>
<feGaussianBlur stdDeviation="1.56587" result="effect1_foregroundBlur_1477_23325"/>
</filter>
<filter id="filter10_f_1477_23325" x="26.355" y="31.7167" width="8.38931" height="8.38907" filterUnits="userSpaceOnUse" color-interpolation-filters="sRGB">
<feFlood flood-opacity="0" result="BackgroundImageFix"/>
<feBlend mode="normal" in="SourceGraphic" in2="BackgroundImageFix" result="shape"/>
<feGaussianBlur stdDeviation="0.782935" result="effect1_foregroundBlur_1477_23325"/>
</filter>
<filter id="filter11_f_1477_23325" x="24.4859" y="28.1666" width="7.86807" height="7.86789" filterUnits="userSpaceOnUse" color-interpolation-filters="sRGB">
<feFlood flood-opacity="0" result="BackgroundImageFix"/>
<feBlend mode="normal" in="SourceGraphic" in2="BackgroundImageFix" result="shape"/>
<feGaussianBlur stdDeviation="0.782935" result="effect1_foregroundBlur_1477_23325"/>
</filter>
<linearGradient id="paint0_linear_1477_23325" x1="3.79452" y1="1.22086" x2="12.7071" y2="15.222" gradientUnits="userSpaceOnUse">
<stop offset="0.10546" stop-color="white"/>
<stop offset="1" stop-color="white" stop-opacity="0"/>
</linearGradient>
<linearGradient id="paint1_linear_1477_23325" x1="22.2603" y1="11.3103" x2="22.2603" y2="20.7387" gradientUnits="userSpaceOnUse">
<stop stop-color="white" stop-opacity="0.36"/>
<stop offset="0.65625" stop-color="white" stop-opacity="0"/>
</linearGradient>
<linearGradient id="paint2_linear_1477_23325" x1="3.20044" y1="0" x2="3.20044" y2="2.8799" gradientUnits="userSpaceOnUse">
<stop stop-color="white" stop-opacity="0.36"/>
<stop offset="0.65625" stop-color="white" stop-opacity="0"/>
</linearGradient>
<linearGradient id="paint3_linear_1477_23325" x1="7.75808" y1="0" x2="7.75808" y2="15.6916" gradientUnits="userSpaceOnUse">
<stop stop-color="white" stop-opacity="0.74"/>
<stop offset="0.317708" stop-color="white" stop-opacity="0"/>
</linearGradient>
<linearGradient id="paint4_linear_1477_23325" x1="16.3625" y1="25.0449" x2="27.1645" y2="14.2424" gradientUnits="userSpaceOnUse">
<stop stop-color="#5599FF" stop-opacity="0.64"/>
<stop offset="0.620979" stop-color="#9069FF" stop-opacity="0"/>
</linearGradient>
<radialGradient id="paint5_radial_1477_23325" cx="0" cy="0" r="1" gradientUnits="userSpaceOnUse" gradientTransform="translate(22.2603 19.1281) rotate(90) scale(8.27127 8.27154)">
<stop offset="0.489583" stop-color="#9585F8" stop-opacity="0"/>
<stop offset="1" stop-color="#89E3FF"/>
</radialGradient>
<linearGradient id="paint6_linear_1477_23325" x1="27.5872" y1="24.5441" x2="21.6982" y2="18.6548" gradientUnits="userSpaceOnUse">
<stop stop-color="white"/>
<stop offset="0.208333" stop-color="white" stop-opacity="0"/>
</linearGradient>
<linearGradient id="paint7_linear_1477_23325" x1="19.6061" y1="12.2011" x2="22.9313" y2="18.9249" gradientUnits="userSpaceOnUse">
<stop stop-color="white"/>
<stop offset="0.208333" stop-color="white" stop-opacity="0"/>
</linearGradient>
<linearGradient id="paint8_linear_1477_23325" x1="1.85394" y1="0.596491" x2="6.2085" y2="7.43721" gradientUnits="userSpaceOnUse">
<stop offset="0.10546" stop-color="white"/>
<stop offset="1" stop-color="white" stop-opacity="0"/>
</linearGradient>
<linearGradient id="paint9_linear_1477_23325" x1="32.0605" y1="19.1331" x2="32.0605" y2="23.7397" gradientUnits="userSpaceOnUse">
<stop stop-color="white" stop-opacity="0.36"/>
<stop offset="0.65625" stop-color="white" stop-opacity="0"/>
</linearGradient>
<linearGradient id="paint10_linear_1477_23325" x1="1.56369" y1="0" x2="1.56369" y2="1.40707" gradientUnits="userSpaceOnUse">
<stop stop-color="white" stop-opacity="0.36"/>
<stop offset="0.65625" stop-color="white" stop-opacity="0"/>
</linearGradient>
<linearGradient id="paint11_linear_1477_23325" x1="3.79048" y1="0" x2="3.79048" y2="7.66665" gradientUnits="userSpaceOnUse">
<stop stop-color="white" stop-opacity="0.74"/>
<stop offset="0.317708" stop-color="white" stop-opacity="0"/>
</linearGradient>
<linearGradient id="paint12_linear_1477_23325" x1="29.1788" y1="25.8436" x2="34.4565" y2="20.5657" gradientUnits="userSpaceOnUse">
<stop stop-color="#5599FF" stop-opacity="0.64"/>
<stop offset="0.620979" stop-color="#9069FF" stop-opacity="0"/>
</linearGradient>
<radialGradient id="paint13_radial_1477_23325" cx="0" cy="0" r="1" gradientUnits="userSpaceOnUse" gradientTransform="translate(32.0604 22.9527) rotate(90) scale(4.04121 4.04135)">
<stop offset="0.489583" stop-color="#9585F8" stop-opacity="0"/>
<stop offset="1" stop-color="#89E3FF"/>
</radialGradient>
<linearGradient id="paint14_linear_1477_23325" x1="34.663" y1="25.5989" x2="31.7857" y2="22.7215" gradientUnits="userSpaceOnUse">
<stop stop-color="white"/>
<stop offset="0.208333" stop-color="white" stop-opacity="0"/>
</linearGradient>
<linearGradient id="paint15_linear_1477_23325" x1="30.7636" y1="19.5683" x2="32.3882" y2="22.8535" gradientUnits="userSpaceOnUse">
<stop stop-color="white"/>
<stop offset="0.208333" stop-color="white" stop-opacity="0"/>
</linearGradient>
<linearGradient id="paint16_linear_1477_23325" x1="2.39532" y1="0.770674" x2="8.02147" y2="9.60898" gradientUnits="userSpaceOnUse">
<stop offset="0.10546" stop-color="white"/>
<stop offset="1" stop-color="white" stop-opacity="0"/>
</linearGradient>
<linearGradient id="paint17_linear_1477_23325" x1="29.0458" y1="29.4161" x2="29.0458" y2="35.3678" gradientUnits="userSpaceOnUse">
<stop stop-color="white" stop-opacity="0.36"/>
<stop offset="0.65625" stop-color="white" stop-opacity="0"/>
</linearGradient>
<linearGradient id="paint18_linear_1477_23325" x1="2.0203" y1="0" x2="2.0203" y2="1.81796" gradientUnits="userSpaceOnUse">
<stop stop-color="white" stop-opacity="0.36"/>
<stop offset="0.65625" stop-color="white" stop-opacity="0"/>
</linearGradient>
<linearGradient id="paint19_linear_1477_23325" x1="4.89735" y1="0" x2="4.89735" y2="9.90542" gradientUnits="userSpaceOnUse">
<stop stop-color="white" stop-opacity="0.74"/>
<stop offset="0.317708" stop-color="white" stop-opacity="0"/>
</linearGradient>
<linearGradient id="paint20_linear_1477_23325" x1="25.3227" y1="38.0861" x2="32.1416" y2="31.267" gradientUnits="userSpaceOnUse">
<stop stop-color="#5599FF" stop-opacity="0.64"/>
<stop offset="0.620979" stop-color="#9069FF" stop-opacity="0"/>
</linearGradient>
<radialGradient id="paint21_radial_1477_23325" cx="0" cy="0" r="1" gradientUnits="userSpaceOnUse" gradientTransform="translate(29.0457 34.3511) rotate(90) scale(5.2213 5.22147)">
<stop offset="0.489583" stop-color="#9585F8" stop-opacity="0"/>
<stop offset="1" stop-color="#89E3FF"/>
</radialGradient>
<linearGradient id="paint22_linear_1477_23325" x1="32.4085" y1="37.77" x2="28.691" y2="34.0524" gradientUnits="userSpaceOnUse">
<stop stop-color="white"/>
<stop offset="0.208333" stop-color="white" stop-opacity="0"/>
</linearGradient>
<linearGradient id="paint23_linear_1477_23325" x1="27.3703" y1="29.9784" x2="29.4694" y2="34.2228" gradientUnits="userSpaceOnUse">
<stop stop-color="white"/>
<stop offset="0.208333" stop-color="white" stop-opacity="0"/>
</linearGradient>
</defs>
</svg>
