<svg width="23" height="23" viewBox="0 0 23 23" fill="none" xmlns="http://www.w3.org/2000/svg">
  <circle cx="11.5" cy="11.5" r="11" fill="#7EC3F5" stroke="#3B84C8" />
  <ellipse cx="2.63516" cy="2.63608" rx="2.63516" ry="2.63608"
    transform="matrix(-0.865875 -0.50026 0.49974 -0.866176 14.1929 20.0779)" fill="white" />
  <path fill-rule="evenodd" clip-rule="evenodd"
    d="M12.8342 11.9825C13.7549 11.2085 14.3353 10.0442 14.3226 8.74753C14.3219 8.6724 14.3192 8.59776 14.3145 8.52366C14.426 8.50538 14.5402 8.49538 14.6565 8.49424C15.8888 8.48216 16.8978 9.47141 16.9098 10.7038C16.9219 11.9362 15.9326 12.945 14.7003 12.9571C13.9261 12.9647 13.2403 12.5772 12.8342 11.9825Z"
    fill="white" />
  <path fill-rule="evenodd" clip-rule="evenodd"
    d="M11.7884 5.01046C9.79214 3.85711 7.23952 4.54156 6.08697 6.53921C4.93443 8.53687 5.6184 11.0913 7.61467 12.2446C9.61094 13.398 12.1636 12.7135 13.3161 10.7158C14.4686 8.71819 13.7847 6.1638 11.7884 5.01046ZM12.533 7.39557C12.6182 7.04421 12.4278 6.43349 11.7551 5.8575C11.1765 5.36212 10.5186 5.24655 10.1068 5.31828C10.1068 5.31828 10.9695 5.83891 11.4461 6.24748C11.9183 6.6522 12.533 7.39557 12.533 7.39557Z"
    fill="white" />
</svg>
  