<svg width="53" height="63" viewBox="0 0 53 63" fill="none" xmlns="http://www.w3.org/2000/svg">
  <mask id="path-1-outside-1_1477_24671" maskUnits="userSpaceOnUse" x="0.971436" y="0.971313" width="52" height="62" fill="black">
  <rect fill="white" x="0.971436" y="0.971313" width="52" height="62"/>
  <path fill-rule="evenodd" clip-rule="evenodd" d="M32.3027 50.4834C43.1168 47.8984 51.1567 38.1701 51.1567 26.5639C51.1567 12.9818 40.1462 1.97131 26.5641 1.97131C12.9819 1.97131 1.97144 12.9818 1.97144 26.5639C1.97144 38.1701 10.0114 47.8985 20.8255 50.4834L26.5641 60.423L32.3027 50.4834Z"/>
  </mask>
  <path fill-rule="evenodd" clip-rule="evenodd" d="M32.3027 50.4834C43.1168 47.8984 51.1567 38.1701 51.1567 26.5639C51.1567 12.9818 40.1462 1.97131 26.5641 1.97131C12.9819 1.97131 1.97144 12.9818 1.97144 26.5639C1.97144 38.1701 10.0114 47.8985 20.8255 50.4834L26.5641 60.423L32.3027 50.4834Z" fill="#9FD7FF"/>
  <path d="M32.3027 50.4834L32.0702 49.5108L31.6518 49.6108L31.4367 49.9834L32.3027 50.4834ZM20.8255 50.4834L21.6916 49.9834L21.4765 49.6109L21.058 49.5108L20.8255 50.4834ZM26.5641 60.423L25.6981 60.923L26.5641 62.423L27.4302 60.923L26.5641 60.423ZM50.1567 26.5639C50.1567 37.6968 42.4446 47.0309 32.0702 49.5108L32.5352 51.456C43.7891 48.7659 52.1567 38.6433 52.1567 26.5639H50.1567ZM26.5641 2.97131C39.5939 2.97131 50.1567 13.5341 50.1567 26.5639H52.1567C52.1567 12.4295 40.6985 0.971313 26.5641 0.971313V2.97131ZM2.97144 26.5639C2.97144 13.5341 13.5342 2.97131 26.5641 2.97131V0.971313C12.4296 0.971313 0.971436 12.4295 0.971436 26.5639H2.97144ZM21.058 49.5108C10.6836 47.031 2.97144 37.6969 2.97144 26.5639H0.971436C0.971436 38.6434 9.33913 48.766 20.5931 51.456L21.058 49.5108ZM27.4302 59.923L21.6916 49.9834L19.9595 50.9834L25.6981 60.923L27.4302 59.923ZM31.4367 49.9834L25.6981 59.923L27.4302 60.923L33.1688 50.9834L31.4367 49.9834Z" fill="white" mask="url(#path-1-outside-1_1477_24671)"/>
  </svg>
  