<svg width="50" height="59" viewBox="0 0 50 59" fill="none" xmlns="http://www.w3.org/2000/svg">
  <mask id="path-1-inside-1_1477_23330" fill="white">
    <path fill-rule="evenodd" clip-rule="evenodd"
      d="M30.6873 48.6499C41.5322 46.0576 49.595 36.3016 49.595 24.6625C49.595 11.0418 38.5532 0 24.9325 0C11.3118 0 0.27002 11.0418 0.27002 24.6625C0.27002 36.3016 8.3327 46.0576 19.1775 48.6499L24.9324 58.6176L30.6873 48.6499Z" />
  </mask>
  <path fill-rule="evenodd" clip-rule="evenodd"
    d="M30.6873 48.6499C41.5322 46.0576 49.595 36.3016 49.595 24.6625C49.595 11.0418 38.5532 0 24.9325 0C11.3118 0 0.27002 11.0418 0.27002 24.6625C0.27002 36.3016 8.3327 46.0576 19.1775 48.6499L24.9324 58.6176L30.6873 48.6499Z"
    fill="#FFA2C3" />
  <path
    d="M30.6873 48.6499L30.4548 47.6773L30.0364 47.7773L29.8213 48.1499L30.6873 48.6499ZM19.1775 48.6499L20.0436 48.1499L19.8285 47.7773L19.41 47.6773L19.1775 48.6499ZM24.9324 58.6176L24.0664 59.1176L24.9324 60.6176L25.7985 59.1176L24.9324 58.6176ZM48.595 24.6625C48.595 35.8284 40.86 45.1902 30.4548 47.6773L30.9198 49.6225C42.2044 46.9251 50.595 36.7749 50.595 24.6625H48.595ZM24.9325 1C38.0009 1 48.595 11.594 48.595 24.6625H50.595C50.595 10.4895 39.1055 -1 24.9325 -1V1ZM1.27002 24.6625C1.27002 11.594 11.8641 1 24.9325 1V-1C10.7595 -1 -0.72998 10.4895 -0.72998 24.6625H1.27002ZM19.41 47.6773C9.00493 45.1901 1.27002 35.8283 1.27002 24.6625H-0.72998C-0.72998 36.7748 7.66048 46.9251 18.9451 49.6225L19.41 47.6773ZM25.7985 58.1176L20.0436 48.1499L18.3115 49.1499L24.0664 59.1176L25.7985 58.1176ZM29.8213 48.1499L24.0664 58.1176L25.7985 59.1176L31.5533 49.1499L29.8213 48.1499Z"
    fill="white" mask="url(#path-1-inside-1_1477_23330)" />
  <path fill-rule="evenodd" clip-rule="evenodd"
    d="M19.1889 31.3627C19.4034 31.3627 19.6065 31.3754 19.7987 31.4001C20.2437 30.4081 21.3238 27.9807 22.0409 26.369L22.2691 25.8564L29.2733 9.37237C29.5371 8.80014 30.3703 8.23889 31.2824 8.63692C31.6127 8.78105 31.7394 9.30668 31.5806 10.3937C31.4218 11.4807 27.6711 24.0694 27.1608 25.011C26.6936 25.8729 25.2052 27.7805 24.1522 29.1301C23.7674 29.6234 23.4406 30.0422 23.2432 30.3081C22.8636 30.8193 22.5648 31.8887 22.305 32.8188C22.2816 32.9023 22.2586 32.9847 22.2359 33.0655C22.7082 33.961 22.8851 35.1404 22.8851 36.4328C22.8851 39.233 22.0546 41.5029 19.1889 41.5029C16.3231 41.5029 14 39.233 14 36.4328C14 33.6327 16.3231 31.3627 19.1889 31.3627ZM20.0572 38.8083C20.2854 38.4383 20.4865 37.6871 20.4865 36.4328C20.4865 35.1786 20.2854 34.4274 20.0572 34.0573C19.9662 33.9097 19.8893 33.852 19.8259 33.8181C19.7565 33.7811 19.5766 33.7064 19.1889 33.7064C17.6478 33.7064 16.3986 34.9271 16.3986 36.4328C16.3986 37.9386 17.6478 39.1593 19.1889 39.1593C19.5766 39.1593 19.7565 39.0845 19.8259 39.0475C19.8893 39.0137 19.9662 38.956 20.0572 38.8083ZM24.9261 26.0804C25.6396 26.0804 26.218 25.5152 26.218 24.8181C26.218 24.1209 25.6396 23.5558 24.9261 23.5558C24.2126 23.5558 23.6342 24.1209 23.6342 24.8181C23.6342 25.5152 24.2126 26.0804 24.9261 26.0804Z"
    fill="white" />
  <path fill-rule="evenodd" clip-rule="evenodd"
    d="M27.6949 32.8188L27.764 33.0655C27.2918 33.961 27.1149 35.1404 27.1149 36.4328C27.1149 39.2329 27.9453 41.5029 30.8111 41.5029C33.677 41.5029 36 39.2329 36 36.4328C36 33.6327 33.677 31.3627 30.8111 31.3627C30.7619 31.3627 30.7133 31.3634 30.6653 31.3647C30.6229 31.3659 30.5807 31.3676 30.5391 31.3699L30.4361 31.3764C30.3561 31.3825 30.278 31.3903 30.2012 31.4002L27.731 25.8563L24.5152 18.2879L23.7337 18.5683C23.4228 18.6799 23.0785 18.5241 22.9643 18.2203C22.8501 17.9164 23.0097 17.5799 23.3206 17.4683L24.0549 17.2048L23.6152 16.1697L22.9028 16.4253C22.5918 16.5369 22.2475 16.3811 22.1333 16.0773C22.0891 15.9594 22.0859 15.8367 22.1166 15.7241C22.1655 15.5463 22.2993 15.3937 22.4897 15.3253L23.1549 15.0867L22.7151 14.0515L22.0716 14.2824C21.7606 14.394 21.4163 14.2382 21.3021 13.9343C21.1879 13.6305 21.3475 13.2939 21.6584 13.1824L22.2548 12.9684L21.8151 11.9334L21.2406 12.1394C21.0436 12.2101 20.833 12.1735 20.6761 12.0597C20.5856 11.9941 20.513 11.9027 20.4711 11.7914C20.357 11.4876 20.5165 11.151 20.8275 11.0394L21.3548 10.8503L20.7268 9.37234C20.4629 8.80016 19.6297 8.23885 18.7176 8.63695C18.3873 8.78099 18.2606 9.30669 18.4195 10.3937C18.5782 11.4807 22.3289 24.0694 22.8393 25.0109C23.3066 25.8729 24.7948 27.7806 25.8477 29.1301L25.8486 29.1312C26.2332 29.6241 26.5596 30.0423 26.7568 30.308C27.1363 30.8193 27.4352 31.8887 27.6949 32.8188ZM29.9427 38.8082C29.7146 38.4383 29.5135 37.687 29.5135 36.4328C29.5135 35.1786 29.7146 34.4273 29.9427 34.0573C30.0338 33.9096 30.1108 33.852 30.174 33.8181C30.2127 33.7973 30.2862 33.7649 30.4112 33.7403C30.5096 33.7208 30.6401 33.7064 30.8111 33.7064C32.3521 33.7064 33.6015 34.927 33.6015 36.4328C33.6015 37.9387 32.3521 39.1593 30.8111 39.1593C30.7622 39.1593 30.7166 39.1581 30.6741 39.156C30.6041 39.1524 30.5426 39.1462 30.4885 39.1385L30.4589 39.1339L30.4132 39.1258C30.3655 39.1163 30.3251 39.1059 30.2914 39.0952C30.2361 39.0779 30.1983 39.0604 30.174 39.0475C30.1108 39.0136 30.0338 38.956 29.9427 38.8082ZM24.9261 26.0804C25.6396 26.0804 26.218 25.5152 26.218 24.8181C26.218 24.1209 25.6396 23.5558 24.9261 23.5558C24.2126 23.5558 23.6342 24.1209 23.6342 24.8181C23.6342 25.5152 24.2126 26.0804 24.9261 26.0804Z"
    fill="#FF4163" />
</svg>
  