<svg width="23" height="22" viewBox="0 0 23 22" fill="none" xmlns="http://www.w3.org/2000/svg">
  <path
    d="M11.5 20.5909C17.0247 20.5909 21.5455 16.3196 21.5455 11C21.5455 5.68035 17.0247 1.40906 11.5 1.40906C5.97536 1.40906 1.45459 5.68035 1.45459 11C1.45459 16.3196 5.97536 20.5909 11.5 20.5909Z"
    fill="#B4588F" stroke="#FFCCE8" />
  <path fill-rule="evenodd" clip-rule="evenodd"
    d="M9.51602 16.5371L9.75624 16.1618L7.7799 15.1324C7.66501 15.0726 7.62564 14.94 7.69198 14.8364C7.75831 14.7328 7.90523 14.6972 8.02012 14.7571L9.99646 15.7864L10.2367 15.4111L8.26034 14.3817C8.14545 14.3219 8.10608 14.1894 8.17241 14.0857C8.23875 13.9821 8.38566 13.9466 8.50056 14.0064L10.4769 15.0357L10.7171 14.6604L8.74077 13.6311C8.62588 13.5712 8.58651 13.4387 8.65285 13.335C8.71918 13.2314 8.8661 13.1959 8.98099 13.2557L10.9573 14.2851L11.1976 13.9097L9.22122 12.8804C9.10632 12.8205 9.06695 12.688 9.13329 12.5843C9.19962 12.4807 9.34654 12.4452 9.46143 12.505L11.4378 13.5344L11.678 13.159L9.70165 12.1297C9.58676 12.0698 9.54739 11.9373 9.61373 11.8337C9.68006 11.73 9.82698 11.6945 9.94187 11.7543L11.9182 12.7837L12.1584 12.4083L10.1821 11.379C10.0672 11.3192 10.0278 11.1866 10.0942 11.083C10.1605 10.9793 10.3074 10.9438 10.4223 11.0037L12.3987 12.033L12.6389 11.6577L10.6625 10.6283C10.5476 10.5685 10.5083 10.436 10.5746 10.3323C10.6409 10.2287 10.7879 10.1931 10.9028 10.253L12.8791 11.2823L13.1193 10.907L11.143 9.87764C11.0281 9.8178 10.9887 9.68526 11.0551 9.58162C11.1214 9.47797 11.2683 9.44246 11.3832 9.5023L13.3595 10.5316L13.5997 10.1563L11.6234 9.12696C11.5085 9.06712 11.4691 8.93459 11.5355 8.83094C11.6018 8.72729 11.7487 8.69178 11.8636 8.75162L13.84 9.78096L14.0802 9.40561L12.1039 8.37628C11.989 8.31644 11.9496 8.1839 12.0159 8.08025C12.0823 7.97661 12.2292 7.94109 12.3441 8.00094L14.3204 9.03027L14.5606 8.65493L12.5843 7.62559C12.4694 7.56575 12.43 7.43322 12.4964 7.32957C12.5627 7.22592 12.7096 7.19041 12.8245 7.25025L14.8008 8.27959L15.0411 7.90425L13.0647 6.87491C12.9498 6.81507 12.9105 6.68254 12.9768 6.57889C13.0431 6.47524 13.19 6.43973 13.3049 6.49957L15.2813 7.52891L15.5215 7.15357L13.5452 6.12423C13.4303 6.06439 13.3909 5.93186 13.4572 5.82821C13.5236 5.72456 13.6705 5.68905 13.7854 5.74889L15.7617 6.77823L16.0019 6.40288L14.0256 5.37354C13.9107 5.3137 13.8713 5.18116 13.9377 5.07752C14.004 4.97387 14.1509 4.93836 14.2658 4.9982L16.2091 6.01033C16.4047 5.43113 16.1407 4.78609 15.5345 4.47038L14.2792 3.8166C13.9263 3.63276 13.4749 3.74186 13.2712 4.06026L5.8717 15.6219C5.66791 15.9403 5.78885 16.3474 6.14181 16.5313L7.39708 17.1851C8.02166 17.5104 8.80026 17.377 9.25368 16.9009L7.29947 15.8831C7.18457 15.8233 7.1452 15.6907 7.21154 15.5871C7.27787 15.4834 7.42479 15.4479 7.53968 15.5078L9.51602 16.5371Z"
    fill="white" />
  <path fill-rule="evenodd" clip-rule="evenodd"
    d="M14.0294 3.73726L6.00765 16.4422C5.76263 16.2355 5.69828 15.8967 5.87321 15.6234L13.2727 4.06179C13.4302 3.8156 13.7358 3.69455 14.0294 3.73726Z"
    fill="white" />
  <path fill-rule="evenodd" clip-rule="evenodd"
    d="M9.70573 16.242L9.75723 16.1615L7.78089 15.1322C7.666 15.0724 7.62663 14.9398 7.69297 14.8362C7.70746 14.8135 7.7258 14.7941 7.74681 14.7783C7.69954 14.8008 7.65861 14.8354 7.63029 14.8805C7.55136 15.0061 7.60029 15.1657 7.73957 15.2369L9.70573 16.242Z"
    fill="white" />
  <path fill-rule="evenodd" clip-rule="evenodd"
    d="M7.23407 15.5623C7.24454 15.5502 7.25625 15.5394 7.26892 15.5298C7.22164 15.5523 7.18071 15.5869 7.1524 15.632C7.07347 15.7577 7.1224 15.9172 7.26168 15.9884L9.18542 16.9719C9.20987 16.9496 9.23355 16.9265 9.2564 16.9025L7.30219 15.8847C7.18729 15.8248 7.14793 15.6923 7.21426 15.5886C7.22024 15.5793 7.22687 15.5705 7.23407 15.5623Z"
    fill="white" />
  <path fill-rule="evenodd" clip-rule="evenodd"
    d="M10.186 15.4907L10.2375 15.4103L8.26114 14.3809C8.14625 14.3211 8.10688 14.1886 8.17321 14.0849C8.18771 14.0623 8.20605 14.0429 8.22706 14.027C8.17978 14.0496 8.13885 14.0841 8.11054 14.1292C8.03161 14.2549 8.08054 14.4145 8.21982 14.4857L10.186 15.4907Z"
    fill="white" />
  <path fill-rule="evenodd" clip-rule="evenodd"
    d="M10.6669 14.74L10.7184 14.6596L8.74202 13.6302C8.62712 13.5704 8.58776 13.4379 8.65409 13.3342C8.66859 13.3116 8.68693 13.2922 8.70794 13.2763C8.66066 13.2988 8.61973 13.3334 8.59142 13.3785C8.51249 13.5042 8.56142 13.6637 8.7007 13.7349L10.6669 14.74Z"
    fill="white" />
  <path fill-rule="evenodd" clip-rule="evenodd"
    d="M11.1478 13.9895L11.1993 13.909L9.22301 12.8797C9.10812 12.8198 9.06875 12.6873 9.13509 12.5836C9.14958 12.561 9.16792 12.5416 9.18893 12.5257C9.14166 12.5483 9.10073 12.5829 9.07241 12.6279C8.99348 12.7536 9.04241 12.9132 9.18169 12.9844L11.1478 13.9895Z"
    fill="white" />
  <path fill-rule="evenodd" clip-rule="evenodd"
    d="M11.628 13.2381L11.6795 13.1576L9.70315 12.1283C9.58825 12.0685 9.54888 11.9359 9.61522 11.8323C9.62971 11.8096 9.64805 11.7902 9.66907 11.7744C9.62179 11.7969 9.58086 11.8315 9.55254 11.8766C9.47362 12.0022 9.52254 12.1618 9.66182 12.233L11.628 13.2381Z"
    fill="white" />
  <path fill-rule="evenodd" clip-rule="evenodd"
    d="M12.1095 12.4882L12.161 12.4078L10.1847 11.3784C10.0698 11.3186 10.0305 11.186 10.0968 11.0824C10.1113 11.0598 10.1296 11.0404 10.1506 11.0245C10.1034 11.047 10.0624 11.0816 10.0341 11.1267C9.95518 11.2523 10.0041 11.4119 10.1434 11.4831L12.1095 12.4882Z"
    fill="white" />
  <path fill-rule="evenodd" clip-rule="evenodd"
    d="M12.5921 11.7391L12.6436 11.6587L10.6673 10.6293C10.5524 10.5695 10.513 10.4369 10.5793 10.3333C10.5938 10.3106 10.6122 10.2913 10.6332 10.2754C10.5859 10.2979 10.545 10.3325 10.5167 10.3776C10.4377 10.5032 10.4867 10.6628 10.6259 10.734L12.5921 11.7391Z"
    fill="white" />
  <path fill-rule="evenodd" clip-rule="evenodd"
    d="M13.0703 10.9859L13.1218 10.9054L11.1454 9.87605C11.0305 9.81621 10.9912 9.68368 11.0575 9.58003C11.072 9.55738 11.0903 9.53799 11.1114 9.52213C11.0641 9.54467 11.0232 9.57925 10.9948 9.62433C10.9159 9.74998 10.9648 9.90955 11.1041 9.98076L13.0703 10.9859Z"
    fill="white" />
  <path fill-rule="evenodd" clip-rule="evenodd"
    d="M13.5507 10.2346L13.6022 10.1541L11.6259 9.12478C11.511 9.06494 11.4716 8.93241 11.5379 8.82876C11.5524 8.80611 11.5708 8.78672 11.5918 8.77086C11.5445 8.7934 11.5036 8.82798 11.4753 8.87306C11.3963 8.99871 11.4453 9.15829 11.5845 9.22949L13.5507 10.2346Z"
    fill="white" />
  <path fill-rule="evenodd" clip-rule="evenodd"
    d="M14.035 9.48395L14.0865 9.40348L12.1101 8.37415C11.9952 8.31431 11.9559 8.18177 12.0222 8.07813C12.0367 8.05548 12.055 8.03609 12.076 8.02023C12.0288 8.04276 11.9878 8.07735 11.9595 8.12243C11.8806 8.24808 11.9295 8.40765 12.0688 8.47885L14.035 9.48395Z"
    fill="white" />
  <path fill-rule="evenodd" clip-rule="evenodd"
    d="M14.5137 8.73422L14.5652 8.65376L12.5889 7.62442C12.474 7.56458 12.4346 7.43205 12.501 7.3284C12.5154 7.30575 12.5338 7.28636 12.5548 7.2705C12.5075 7.29303 12.4666 7.32762 12.4383 7.3727C12.3593 7.49835 12.4083 7.65792 12.5476 7.72912L14.5137 8.73422Z"
    fill="white" />
  <path fill-rule="evenodd" clip-rule="evenodd"
    d="M14.9917 7.98106L15.0432 7.9006L13.0668 6.87126C12.9519 6.81142 12.9126 6.67889 12.9789 6.57524C12.9934 6.55259 13.0117 6.5332 13.0328 6.51734C12.9855 6.53987 12.9445 6.57446 12.9162 6.61954C12.8373 6.74519 12.8862 6.90476 13.0255 6.97596L14.9917 7.98106Z"
    fill="white" />
  <path fill-rule="evenodd" clip-rule="evenodd"
    d="M15.4743 7.23197L15.5258 7.1515L13.5494 6.12217C13.4345 6.06233 13.3952 5.92979 13.4615 5.82614C13.476 5.8035 13.4943 5.7841 13.5154 5.76825C13.4681 5.79078 13.4271 5.82537 13.3988 5.87045C13.3199 5.99609 13.3688 6.15567 13.5081 6.22687L15.4743 7.23197Z"
    fill="white" />
  <path fill-rule="evenodd" clip-rule="evenodd"
    d="M15.9546 6.4808L16.0061 6.40034L14.0297 5.371C13.9148 5.31116 13.8755 5.17863 13.9418 5.07498C13.9563 5.05233 13.9746 5.03294 13.9957 5.01708C13.9484 5.03961 13.9075 5.0742 13.8791 5.11928C13.8002 5.24493 13.8491 5.4045 13.9884 5.4757L15.9546 6.4808Z"
    fill="white" />
</svg>
  