<svg width="23" height="23" viewBox="0 0 23 23" fill="none" xmlns="http://www.w3.org/2000/svg">
  <circle cx="11.5" cy="11.5" r="11" fill="#FF7C9C" stroke="#DF3390" />
  <path fill-rule="evenodd" clip-rule="evenodd"
    d="M8.98652 13.8647C9.07961 13.8684 9.16714 13.8773 9.24937 13.8913C9.46317 13.4966 9.93756 12.6154 10.2558 12.0241L10.3604 11.8299L13.5815 5.59058C13.7017 5.37431 14.0537 5.17145 14.4164 5.3395C14.5478 5.40036 14.5877 5.60495 14.4987 6.02128C14.4098 6.43761 12.6011 11.2283 12.3722 11.5829C12.1626 11.9075 11.5137 12.6187 11.0546 13.1218C10.8868 13.3057 10.7444 13.4618 10.658 13.5611C10.492 13.752 10.3464 14.1592 10.2198 14.5135L10.1981 14.5742C10.3703 14.9271 10.416 15.3842 10.3871 15.8817C10.3244 16.9628 9.93328 17.8258 8.75924 17.7796C7.5852 17.7334 6.68434 16.8195 6.7471 15.7385C6.80986 14.6574 7.81248 13.8185 8.98652 13.8647ZM9.2205 14.8421L9.19193 14.8226C9.16397 14.8071 9.09184 14.7757 8.93399 14.7695C8.30265 14.7447 7.76349 15.1958 7.72974 15.7771C7.69599 16.3585 8.18043 16.8499 8.81177 16.8748C8.9706 16.881 9.04598 16.8551 9.07523 16.8419C9.10198 16.8298 9.13476 16.8088 9.17538 16.7533C9.27717 16.6141 9.37638 16.3273 9.40449 15.8431C9.4326 15.3588 9.36707 15.0656 9.28187 14.919C9.25968 14.8809 9.23912 14.8576 9.2205 14.8421ZM11.4456 11.954C11.7391 11.9663 11.989 11.7584 12.0037 11.4897C12.0184 11.2211 11.7924 10.9934 11.4989 10.9812C11.2054 10.9689 10.9555 11.1768 10.9408 11.4454C10.926 11.7141 11.152 11.9418 11.4456 11.954Z"
    fill="white" />
  <path fill-rule="evenodd" clip-rule="evenodd"
    d="M12.8563 14.4821L12.8924 14.5747C12.7257 14.9318 12.6895 15.3892 12.7297 15.8848C12.8169 16.9585 13.2297 17.8049 14.4105 17.7219C15.5914 17.6389 16.478 16.7012 16.3908 15.6274C16.3037 14.5537 15.2758 13.7505 14.095 13.8335C14.0747 13.8349 14.0547 13.8366 14.0349 13.8385C14.0175 13.8401 14.0002 13.842 13.9831 13.8441L13.9408 13.8496C13.9081 13.8542 13.8761 13.8595 13.8448 13.8655L12.6544 11.8111L11.0938 9.00204L10.7805 9.13219C10.6559 9.18398 10.5092 9.13422 10.4526 9.02102C10.3961 8.90781 10.4514 8.77412 10.5761 8.72233L10.8704 8.60002L10.657 8.21584L10.3715 8.33449C10.2468 8.38629 10.1001 8.33652 10.0436 8.22332C10.0217 8.1794 10.0165 8.13243 10.0257 8.08837C10.0403 8.01877 10.0907 7.95637 10.167 7.92464L10.4337 7.81387L10.2202 7.42964L9.96224 7.53681C9.83759 7.5886 9.69086 7.53884 9.63436 7.42564C9.57785 7.31243 9.63313 7.17874 9.75778 7.12695L9.99687 7.02762L9.78345 6.64349L9.55316 6.73911C9.47416 6.77192 9.38628 6.76397 9.31808 6.72491C9.27875 6.70235 9.24599 6.66941 9.22527 6.62794C9.16876 6.51474 9.22404 6.38105 9.34869 6.32926L9.56009 6.24147L9.25531 5.69291C9.1288 5.48114 8.76798 5.29003 8.40455 5.4691C8.27295 5.5339 8.23707 5.73916 8.33641 6.15139C8.43563 6.56363 10.3729 11.2824 10.6125 11.6286C10.8318 11.9457 11.5045 12.6341 11.9803 13.1211L11.9807 13.1215C12.1545 13.2994 12.302 13.4503 12.3916 13.5465C12.5638 13.7315 12.7203 14.1329 12.8563 14.4821ZM13.9688 16.7137C13.8634 16.5785 13.7571 16.2962 13.7181 15.8153C13.679 15.3343 13.7385 15.0404 13.821 14.8919C13.8539 14.8327 13.8839 14.8083 13.9089 14.7935C13.9241 14.7844 13.9534 14.7698 14.0042 14.7568C14.0441 14.7465 14.0974 14.7371 14.1679 14.7322C14.8029 14.6876 15.3556 15.1194 15.4025 15.6969C15.4494 16.2743 14.9726 16.7786 14.3376 16.8232C14.3175 16.8246 14.2986 16.8255 14.281 16.8259C14.2521 16.8266 14.2266 16.826 14.204 16.8246L14.1917 16.8237L14.1726 16.8219C14.1527 16.8197 14.1357 16.8168 14.1215 16.8137C14.0981 16.8087 14.082 16.8031 14.0716 16.7988C14.0445 16.7877 14.011 16.7678 13.9688 16.7137ZM11.4695 11.9143C11.7643 11.9143 12.0033 11.697 12.0033 11.4289C12.0033 11.1608 11.7643 10.9435 11.4695 10.9435C11.1747 10.9435 10.9356 11.1608 10.9356 11.4289C10.9356 11.697 11.1747 11.9143 11.4695 11.9143Z"
    fill="white" />
</svg>
  