<svg width="53" height="63" viewBox="0 0 53 63" fill="none" xmlns="http://www.w3.org/2000/svg">
  <mask id="path-1-outside-1_1477_24681" maskUnits="userSpaceOnUse" x="0.900635" y="0.971313" width="52" height="62" fill="black">
  <rect fill="white" x="0.900635" y="0.971313" width="52" height="62"/>
  <path fill-rule="evenodd" clip-rule="evenodd" d="M32.2321 50.4834C43.0461 47.8983 51.0859 38.17 51.0859 26.5639C51.0859 12.9818 40.0754 1.97131 26.4932 1.97131C12.9111 1.97131 1.90063 12.9818 1.90063 26.5639C1.90063 38.1702 9.94061 47.8986 20.7549 50.4835L26.4934 60.423L32.2321 50.4834Z"/>
  </mask>
  <path fill-rule="evenodd" clip-rule="evenodd" d="M32.2321 50.4834C43.0461 47.8983 51.0859 38.17 51.0859 26.5639C51.0859 12.9818 40.0754 1.97131 26.4932 1.97131C12.9111 1.97131 1.90063 12.9818 1.90063 26.5639C1.90063 38.1702 9.94061 47.8986 20.7549 50.4835L26.4934 60.423L32.2321 50.4834Z" fill="#FFCCE8"/>
  <path d="M32.2321 50.4834L31.9996 49.5108L31.5811 49.6108L31.366 49.9834L32.2321 50.4834ZM20.7549 50.4835L21.6209 49.9835L21.4058 49.6109L20.9874 49.5109L20.7549 50.4835ZM26.4934 60.423L25.6274 60.923L26.4934 62.423L27.3595 60.923L26.4934 60.423ZM50.0859 26.5639C50.0859 37.6968 42.3739 47.0308 31.9996 49.5108L32.4646 51.456C43.7183 48.7658 52.0859 38.6433 52.0859 26.5639H50.0859ZM26.4932 2.97131C39.5231 2.97131 50.0859 13.5341 50.0859 26.5639H52.0859C52.0859 12.4295 40.6277 0.971313 26.4932 0.971313V2.97131ZM2.90063 26.5639C2.90063 13.5341 13.4634 2.97131 26.4932 2.97131V0.971313C12.3588 0.971313 0.900635 12.4295 0.900635 26.5639H2.90063ZM20.9874 49.5109C10.6128 47.0311 2.90063 37.6969 2.90063 26.5639H0.900635C0.900635 38.6434 9.26839 48.7661 20.5224 51.4561L20.9874 49.5109ZM27.3595 59.923L21.6209 49.9835L19.8889 50.9835L25.6274 60.923L27.3595 59.923ZM31.366 49.9834L25.6274 59.923L27.3595 60.923L33.0981 50.9834L31.366 49.9834Z" fill="white" mask="url(#path-1-outside-1_1477_24681)"/>
  </svg>
  