<svg xmlns="http://www.w3.org/2000/svg" width="63" height="63" fill="none">
  <circle cx="31.5" cy="31.5" r="31.5" fill="#FFCCE8"/>
  <path fill="#fff" fill-rule="evenodd" d="M31.383 29.366s.662-1.105 1.762-3.71c1.022-2.418 4.363-10.726 5.405-13.32.207-.514.255-1.11-.222-1.413a2.713 2.713 0 0 0-.384-.2 2.179 2.179 0 0 0-.562-.164c-.491-.067-.838.344-1.061.772l-9.338 17.924c-1.57 2.826-4.128 6.278-5.203 7.728l-.26.35c-1.06 1.44-1.652 1.857-2.19 2.066-.379.147-.62.119-.886.057-2.586-.717-5.279.43-6.16 2.695-.933 2.395.511 5.134 3.225 6.118 2.713.984 3.779-.845 4.711-3.24.581-1.492.973-2.852.53-3.904a2.28 2.28 0 0 0-.012-.042c-.256-.9.325-1.539.909-2.18.11-.121.22-.243.326-.367.288-.338.74-.88 1.24-1.479a299.27 299.27 0 0 1 2.02-2.401c.963-1.125 2.615-1.79 3.393-1.88.6-.068.855-.425 1.102-.768l.002-.003c.247-.345 1.653-2.639 1.653-2.639ZM19.172 44.65c-.684 1.756-1.466 3.097-3.463 2.373-1.997-.724-3.061-2.735-2.377-4.491.683-1.756 2.856-2.593 4.853-1.869 1.997.724 1.67 2.23.987 3.987Z" clip-rule="evenodd"/>
  <path fill="#FF879D" fill-rule="evenodd" d="M23.68 43.703c-1.745-.005-2.59 1.566-3.347 3.511-.932 2.395-1.378 4.449 1.336 5.433 2.713.984 5.669-.16 6.601-2.554.819-2.104-.195-4.472-2.292-5.684a1.42 1.42 0 0 1-.16-.587 15.181 15.181 0 0 0-.003-.126c-.019-.541-.043-1.25.553-2.783.515-1.322 2.192-5.052 3.548-8.037l-2.272-4.04-1.398 2.75c-.226.58-.072 1.508.12 2.084.273.821.197 2.963-.23 4.361-.198.644-.38 1.158-.547 1.624a18.113 18.113 0 0 0-.507 1.569c-.234.901-.643 2.158-1.402 2.479Zm1.164 1.518c-1.997-.724-2.779.617-3.463 2.373-.683 1.757-1.01 3.263.987 3.987 1.997.724 4.17-.112 4.854-1.869.683-1.756-.381-3.766-2.378-4.49Zm12.27-33.652a.306.306 0 0 1-.186-.397.323.323 0 0 1 .412-.18l.97.351c.06-.403-.018-.796-.386-1.008a2.673 2.673 0 0 0-.421-.192 2.159 2.159 0 0 0-.592-.132c-.481-.032-.794.385-.99.81l-8.277 18.014 2.272 4.04s1.67-3.448 2.945-6.354l-1.373-.498a.306.306 0 0 1-.187-.398.323.323 0 0 1 .412-.18l1.395.506a68.497 68.497 0 0 0 .363-.858l-1.42-.515a.306.306 0 0 1-.188-.398.324.324 0 0 1 .413-.18l1.43.519c.115-.282.23-.571.345-.865l-1.438-.522a.306.306 0 0 1-.187-.397.324.324 0 0 1 .412-.18l1.437.52c.11-.286.221-.576.331-.87l-1.43-.518a.306.306 0 0 1-.187-.398.323.323 0 0 1 .412-.18l1.422.516c.108-.29.215-.581.321-.873l-1.406-.51a.306.306 0 0 1-.187-.398.323.323 0 0 1 .413-.18l1.392.504.313-.876-1.368-.496a.306.306 0 0 1-.187-.397.324.324 0 0 1 .412-.18l1.35.488.306-.878-1.318-.478a.306.306 0 0 1-.187-.398.323.323 0 0 1 .412-.18l1.295.47.301-.88-1.259-.457a.306.306 0 0 1-.187-.398.323.323 0 0 1 .413-.18l1.232.447c.103-.303.201-.598.296-.883l-1.19-.432a.306.306 0 0 1-.188-.398.324.324 0 0 1 .412-.18l1.162.421.291-.884-1.115-.404a.306.306 0 0 1-.187-.398.323.323 0 0 1 .412-.18l1.083.392.287-.885-1.032-.375Z" clip-rule="evenodd"/>
  <path fill="#D87A8B" fill-rule="evenodd" d="m28.297 30.015 8.636-20.01a1.74 1.74 0 0 0-.037-.003c-.482-.032-.795.385-.99.81l-8.277 18.014.668 1.189Zm0 0-.668-1.189-1.399 2.752c-.225.579-.072 1.507.12 2.083.051.155.09.357.117.593l1.83-4.24Z" clip-rule="evenodd"/>
  <path fill="#fff" d="M28.733 30.467c.661.24.996.952.747 1.59-.248.64-.986.963-1.648.723-.661-.24-.996-.952-.748-1.591.249-.639.987-.962 1.649-.722Z"/>
  <path fill="#FF879D" fill-rule="evenodd" d="m38.372 45.474.449-.75-3.694-2.059a.425.425 0 0 1-.165-.592.458.458 0 0 1 .614-.158l3.694 2.058.449-.75-3.694-2.059a.425.425 0 0 1-.165-.592.458.458 0 0 1 .614-.159l3.694 2.059.449-.75-3.694-2.06a.425.425 0 0 1-.165-.591.458.458 0 0 1 .614-.159l3.694 2.059.449-.75-3.694-2.06a.425.425 0 0 1-.165-.591.458.458 0 0 1 .614-.159l3.694 2.058.449-.75-3.694-2.059a.425.425 0 0 1-.165-.592.458.458 0 0 1 .614-.158l3.694 2.058.449-.75-3.694-2.059a.425.425 0 0 1-.165-.592.458.458 0 0 1 .614-.158l3.694 2.058.449-.75-3.694-2.059a.425.425 0 0 1-.165-.592.458.458 0 0 1 .614-.159l3.694 2.059.449-.75-3.694-2.06a.425.425 0 0 1-.165-.591.458.458 0 0 1 .614-.159l3.694 2.059.449-.75-3.694-2.06a.425.425 0 0 1-.165-.591.458.458 0 0 1 .614-.159l3.694 2.058.449-.75-3.694-2.059a.425.425 0 0 1-.165-.592.458.458 0 0 1 .614-.158l3.694 2.058.449-.75-3.694-2.059a.425.425 0 0 1-.165-.592.458.458 0 0 1 .614-.158l3.694 2.058.449-.75-3.694-2.059a.425.425 0 0 1-.165-.592.458.458 0 0 1 .614-.159l3.694 2.059.449-.75-3.694-2.06a.425.425 0 0 1-.165-.591.458.458 0 0 1 .614-.159l3.694 2.059.449-.751L46.8 23.15a.425.425 0 0 1-.165-.592.458.458 0 0 1 .614-.159l3.632 2.024c.366-1.158-.128-2.448-1.26-3.08l-2.347-1.307c-.66-.368-1.503-.15-1.884.487L31.56 43.644a1.306 1.306 0 0 0 .505 1.819l2.346 1.307c1.168.65 2.623.384 3.47-.568l-3.652-2.036a.425.425 0 0 1-.165-.592.458.458 0 0 1 .614-.158l3.694 2.058Z" clip-rule="evenodd"/>
  <path fill="#D87A8B" fill-rule="evenodd" d="M46.808 19.877 31.814 45.285a1.298 1.298 0 0 1-.251-1.638l13.83-23.12a1.397 1.397 0 0 1 1.415-.65Z" clip-rule="evenodd"/>
  <path fill="#fff" fill-rule="evenodd" d="m38.726 44.884.097-.16-3.694-2.06a.425.425 0 0 1-.064-.707.513.513 0 0 0-.014.917l3.675 2.01ZM34.106 43.525a.444.444 0 0 1 .066-.065.513.513 0 0 0-.014.917l3.596 1.967c.046-.045.09-.091.133-.139l-3.653-2.035a.425.425 0 0 1-.128-.645ZM39.624 43.382l.096-.161-3.694-2.059a.425.425 0 0 1-.064-.707.513.513 0 0 0-.014.917l3.676 2.01ZM40.523 41.88l.096-.16-3.694-2.059a.425.425 0 0 1-.064-.708.513.513 0 0 0-.014.917l3.676 2.01ZM41.422 40.38l.096-.161-3.694-2.059a.425.425 0 0 1-.064-.708.513.513 0 0 0-.014.917l3.676 2.01ZM42.32 38.877l.096-.16-3.694-2.06a.425.425 0 0 1-.064-.707.513.513 0 0 0-.014.917l3.675 2.01ZM43.22 37.377l.096-.16-3.694-2.059a.425.425 0 0 1-.064-.708.513.513 0 0 0-.013.917l3.674 2.01ZM44.121 35.88l.097-.162-3.694-2.058a.425.425 0 0 1-.064-.708.513.513 0 0 0-.014.917l3.675 2.01ZM45.015 34.373l.096-.16-3.694-2.06a.425.425 0 0 1-.063-.707.513.513 0 0 0-.014.917l3.675 2.01ZM45.913 32.87l.096-.16-3.694-2.059a.425.425 0 0 1-.063-.707.513.513 0 0 0-.014.917l3.675 2.01ZM46.818 31.37l.096-.161-3.694-2.059a.425.425 0 0 1-.063-.708.513.513 0 0 0-.014.917l3.675 2.01ZM47.713 29.87l.096-.16-3.694-2.06a.425.425 0 0 1-.063-.707.513.513 0 0 0-.014.917l3.675 2.01ZM48.606 28.364l.097-.16-3.694-2.06a.425.425 0 0 1-.064-.707.513.513 0 0 0-.014.917l3.675 2.01ZM49.508 26.866l.097-.16-3.694-2.06a.425.425 0 0 1-.064-.707.513.513 0 0 0-.014.917l3.675 2.01ZM50.406 25.364l.096-.161-3.694-2.058a.425.425 0 0 1-.063-.708.513.513 0 0 0-.014.917l3.675 2.01Z" clip-rule="evenodd"/>
</svg>
