<svg width="25" height="25" viewBox="0 0 25 25" fill="none" xmlns="http://www.w3.org/2000/svg">
<circle cx="12.5" cy="12.5" r="11.413" fill="#FF7C9C"/>
<path fill-rule="evenodd" clip-rule="evenodd" d="M9.76795 15.0703C9.86914 15.0743 9.96428 15.084 10.0537 15.0992C10.2861 14.6702 10.8017 13.7122 11.1477 13.0696L11.2613 12.8586L14.7625 6.07669C14.8932 5.84162 15.2757 5.62112 15.67 5.80379C15.8128 5.86993 15.8561 6.09231 15.7595 6.54485C15.6628 6.99738 13.6969 12.2046 13.448 12.5901C13.2203 12.9429 12.5149 13.7159 12.0159 14.2628C11.8335 14.4627 11.6787 14.6323 11.5848 14.7403C11.4043 14.9478 11.2461 15.3905 11.1085 15.7755L11.0849 15.8415C11.2721 16.2251 11.3218 16.7219 11.2904 17.2627C11.2221 18.4378 10.797 19.3758 9.52091 19.3256C8.24479 19.2754 7.26558 18.2821 7.3338 17.107C7.40202 15.9319 8.49183 15.0201 9.76795 15.0703ZM10.0223 16.1327L9.99122 16.1115C9.96081 16.0947 9.88242 16.0606 9.71086 16.0538C9.02462 16.0268 8.43858 16.5172 8.40189 17.1491C8.36521 17.781 8.89177 18.3151 9.57801 18.3421C9.75065 18.3489 9.83259 18.3207 9.86438 18.3064C9.89346 18.2933 9.92909 18.2704 9.97324 18.21C10.0839 18.0588 10.1917 17.747 10.2223 17.2207C10.2528 16.6944 10.1816 16.3756 10.089 16.2163C10.0649 16.1748 10.0425 16.1495 10.0223 16.1327ZM12.4408 12.9935C12.7599 13.0068 13.0315 12.7808 13.0475 12.4888C13.0635 12.1968 12.8178 11.9493 12.4988 11.936C12.1797 11.9227 11.9081 12.1487 11.8921 12.4407C11.8761 12.7327 12.1218 12.9802 12.4408 12.9935Z" fill="white"/>
<path fill-rule="evenodd" clip-rule="evenodd" d="M13.9737 15.7414L14.013 15.8421C13.8318 16.2302 13.7925 16.7274 13.8362 17.2661C13.9309 18.4332 14.3796 19.3532 15.6632 19.263C16.9467 19.1728 17.9104 18.1535 17.8156 16.9863C17.7209 15.8192 16.6037 14.9462 15.3201 15.0364C15.2981 15.038 15.2764 15.0398 15.2549 15.0418C15.2359 15.0436 15.2171 15.0457 15.1986 15.0479L15.1526 15.0539C15.117 15.059 15.0823 15.0647 15.0482 15.0712L13.7543 12.8382L12.058 9.78485L11.7175 9.92632C11.582 9.98261 11.4225 9.92852 11.3611 9.80548C11.2997 9.68243 11.3598 9.53711 11.4953 9.48082L11.8152 9.34787L11.5832 8.93028L11.2728 9.05926C11.1373 9.11555 10.9779 9.06146 10.9164 8.93842C10.8926 8.89068 10.8871 8.83962 10.897 8.79173C10.9129 8.71608 10.9677 8.64825 11.0506 8.61376L11.3405 8.49336L11.1085 8.07571L10.828 8.19221C10.6926 8.2485 10.5331 8.19441 10.4716 8.07137C10.4102 7.94832 10.4703 7.803 10.6058 7.74671L10.8657 7.63874L10.6337 7.22121L10.3834 7.32515C10.2975 7.36081 10.202 7.35217 10.1279 7.30971C10.0851 7.28519 10.0495 7.24938 10.027 7.20431C9.96557 7.08126 10.0257 6.93595 10.1611 6.87965L10.3909 6.78423L10.0596 6.18797C9.92213 5.95778 9.52993 5.75005 9.13491 5.9447C8.99186 6.01514 8.95286 6.23824 9.06084 6.68632C9.16869 7.1344 11.2744 12.2635 11.5348 12.6399C11.7733 12.9844 12.5044 13.7327 13.0216 14.2621L13.0219 14.2624C13.2109 14.4558 13.3713 14.6199 13.4686 14.7244C13.6559 14.9256 13.8259 15.3619 13.9737 15.7414ZM15.1831 18.1671C15.0684 18.0201 14.9529 17.7133 14.9105 17.1905C14.868 16.6678 14.9327 16.3483 15.0223 16.1869C15.0581 16.1225 15.0907 16.096 15.1178 16.0799C15.1345 16.07 15.1663 16.0542 15.2214 16.04C15.2648 16.0288 15.3228 16.0187 15.3994 16.0133C16.0896 15.9648 16.6904 16.4342 16.7414 17.0619C16.7923 17.6895 16.274 18.2376 15.5839 18.2861C15.562 18.2877 15.5415 18.2886 15.5224 18.2891C15.4909 18.2898 15.4632 18.2891 15.4387 18.2876L15.4253 18.2867L15.4045 18.2847C15.3828 18.2823 15.3644 18.2792 15.3489 18.2758C15.3236 18.2703 15.3061 18.2642 15.2947 18.2596C15.2653 18.2475 15.2288 18.2259 15.1831 18.1671ZM12.4664 12.9504C12.7868 12.9504 13.0466 12.7141 13.0466 12.4227C13.0466 12.1313 12.7868 11.8951 12.4664 11.8951C12.1459 11.8951 11.8861 12.1313 11.8861 12.4227C11.8861 12.7141 12.1459 12.9504 12.4664 12.9504Z" fill="white"/>
</svg>
