<svg width="50" height="59" viewBox="0 0 50 59" fill="none" xmlns="http://www.w3.org/2000/svg">
<mask id="path-1-inside-1_1477_23330" fill="white">
<path fill-rule="evenodd" clip-rule="evenodd" d="M30.6873 48.6499C41.5322 46.0576 49.595 36.3016 49.595 24.6625C49.595 11.0418 38.5532 0 24.9325 0C11.3118 0 0.27002 11.0418 0.27002 24.6625C0.27002 36.3016 8.3327 46.0576 19.1775 48.6499L24.9324 58.6176L30.6873 48.6499Z"/>
</mask>
<path fill-rule="evenodd" clip-rule="evenodd" d="M30.6873 48.6499C41.5322 46.0576 49.595 36.3016 49.595 24.6625C49.595 11.0418 38.5532 0 24.9325 0C11.3118 0 0.27002 11.0418 0.27002 24.6625C0.27002 36.3016 8.3327 46.0576 19.1775 48.6499L24.9324 58.6176L30.6873 48.6499Z" fill="#FFCCE8"/>
<path d="M30.6873 48.6499L30.4548 47.6773L30.0364 47.7773L29.8213 48.1499L30.6873 48.6499ZM19.1775 48.6499L20.0436 48.1499L19.8285 47.7773L19.41 47.6773L19.1775 48.6499ZM24.9324 58.6176L24.0664 59.1176L24.9324 60.6176L25.7985 59.1176L24.9324 58.6176ZM48.595 24.6625C48.595 35.8284 40.86 45.1902 30.4548 47.6773L30.9198 49.6225C42.2044 46.9251 50.595 36.7749 50.595 24.6625H48.595ZM24.9325 1C38.0009 1 48.595 11.594 48.595 24.6625H50.595C50.595 10.4895 39.1055 -1 24.9325 -1V1ZM1.27002 24.6625C1.27002 11.594 11.8641 1 24.9325 1V-1C10.7595 -1 -0.72998 10.4895 -0.72998 24.6625H1.27002ZM19.41 47.6773C9.00493 45.1901 1.27002 35.8283 1.27002 24.6625H-0.72998C-0.72998 36.7748 7.66048 46.9251 18.9451 49.6225L19.41 47.6773ZM25.7985 58.1176L20.0436 48.1499L18.3115 49.1499L24.0664 59.1176L25.7985 58.1176ZM29.8213 48.1499L24.0664 58.1176L25.7985 59.1176L31.5533 49.1499L29.8213 48.1499Z" fill="white" mask="url(#path-1-inside-1_1477_23330)"/>
<path fill-rule="evenodd" clip-rule="evenodd" d="M24.8407 22.9919C24.8407 22.9919 25.3593 22.1263 26.2208 20.0869C27.0203 18.1941 29.6367 11.6888 30.4524 9.65838C30.6141 9.25589 30.6515 8.78937 30.2781 8.55179C30.1953 8.49911 30.0962 8.4462 29.9777 8.39527C29.8094 8.32295 29.6629 8.28435 29.5377 8.26725C29.1533 8.21472 28.8815 8.53629 28.707 8.87111L21.3957 22.9049C20.1672 25.1173 18.1639 27.8203 17.3228 28.9551C17.2444 29.0609 17.1761 29.1531 17.1194 29.2299C16.2891 30.3568 15.8257 30.6833 15.4039 30.8471C15.1077 30.9622 14.9187 30.9399 14.7102 30.8912C12.6858 30.3305 10.5776 31.2276 9.88708 33.0014C9.15718 34.8763 10.2878 37.0208 12.4123 37.7913C14.5369 38.5617 15.3713 37.1298 16.1012 35.2548C16.5561 34.0864 16.8631 33.0216 16.5155 32.1986C16.5126 32.1877 16.5095 32.1768 16.5064 32.1656C16.3063 31.4606 16.7612 30.9606 17.2179 30.4587C17.3045 30.3635 17.3912 30.2683 17.4734 30.1716C17.6986 29.9068 18.0534 29.4822 18.445 29.0136C18.983 28.3697 19.5905 27.6426 20.0266 27.1332C20.7799 26.2529 22.0731 25.7318 22.6821 25.6622C23.1517 25.6086 23.3521 25.3291 23.5449 25.0601L23.5466 25.0578C23.74 24.7881 24.8407 22.9919 24.8407 22.9919ZM15.2805 34.9572C14.7452 36.3322 14.1327 37.382 12.5694 36.8151C11.006 36.2482 10.1726 34.674 10.7078 33.299C11.2431 31.924 12.9443 31.269 14.5077 31.8359C16.0711 32.4028 15.8158 33.5822 15.2805 34.9572Z" fill="white"/>
<path fill-rule="evenodd" clip-rule="evenodd" d="M18.8099 34.2166C17.4441 34.2125 16.7823 35.443 16.1895 36.9658C15.4596 38.8407 15.1107 40.4487 17.2352 41.2192C19.3598 41.9896 21.6738 41.0942 22.4037 39.2193C23.0447 37.5727 22.2508 35.7182 20.609 34.769C20.5354 34.6205 20.4885 34.4648 20.4844 34.3094C20.4835 34.2773 20.4824 34.2447 20.4812 34.2112C20.4667 33.7872 20.4476 33.2322 20.9146 32.0325C21.3178 30.997 22.6307 28.077 23.6927 25.7396L21.9136 22.5762L20.8188 24.7304C20.6423 25.1837 20.7623 25.9105 20.9124 26.3614C21.1264 27.0043 21.0674 28.6813 20.7324 29.7762C20.5782 30.2802 20.4347 30.6825 20.3048 31.047C20.1523 31.4744 20.0185 31.8498 19.9078 32.2756C19.7243 32.9814 19.4042 33.9653 18.8099 34.2166ZM19.7214 35.4055C18.1581 34.8385 17.5455 35.8884 17.0103 37.2634C16.475 38.6384 16.2197 39.8178 17.7831 40.3847C19.3464 40.9516 21.0477 40.2966 21.583 38.9216C22.1182 37.5466 21.2848 35.9724 19.7214 35.4055ZM29.3283 9.05806C29.1988 9.0111 29.1332 8.87169 29.1819 8.7467C29.2305 8.6217 29.375 8.55844 29.5045 8.6054L30.2644 8.88099C30.3111 8.56539 30.2501 8.25765 29.9624 8.09206C29.8724 8.04027 29.7637 7.98907 29.6325 7.94148C29.4525 7.87622 29.2986 7.84625 29.1691 7.83773C28.7922 7.81291 28.5472 8.13918 28.394 8.47251L21.9136 22.5762L23.6927 25.7396C23.6927 25.7396 25.0002 23.0393 25.9979 20.7643L24.9229 20.3745C24.7934 20.3275 24.7279 20.1881 24.7765 20.0631C24.8252 19.9381 24.9696 19.8748 25.0991 19.9218L26.1919 20.3181C26.2409 20.2044 26.2887 20.0924 26.3352 19.9826C26.3819 19.8723 26.4288 19.7602 26.476 19.6463L25.3635 19.2428C25.234 19.1959 25.1684 19.0565 25.2171 18.9315C25.2657 18.8065 25.4102 18.7432 25.5397 18.7902L26.6601 19.1965C26.7494 18.9757 26.8393 18.7496 26.9296 18.5194L25.804 18.1112C25.6745 18.0642 25.609 17.9248 25.6576 17.7998C25.7063 17.6748 25.8507 17.6116 25.9802 17.6585L27.1055 18.0666C27.1918 17.8424 27.2782 17.6151 27.3646 17.3857L26.2445 16.9796C26.115 16.9326 26.0495 16.7932 26.0981 16.6682C26.1468 16.5432 26.2912 16.4799 26.4207 16.5269L27.5345 16.9308C27.6187 16.704 27.7025 16.4758 27.7859 16.2471L26.6851 15.8479C26.5556 15.8009 26.49 15.6615 26.5387 15.5365C26.5873 15.4115 26.7318 15.3483 26.8613 15.3953L27.9512 15.7905C28.0337 15.5615 28.1156 15.3326 28.1964 15.1046L27.1256 14.7163C26.9961 14.6693 26.9306 14.5299 26.9792 14.4049C27.0279 14.2799 27.1723 14.2166 27.3018 14.2636L28.3581 14.6467C28.4394 14.4154 28.5195 14.1858 28.5982 13.9589L27.5661 13.5846C27.4366 13.5377 27.3711 13.3983 27.4198 13.2733C27.4684 13.1483 27.6128 13.085 27.7424 13.132L28.7567 13.4998C28.8371 13.2661 28.9157 13.0359 28.9924 12.8104L28.0067 12.453C27.8772 12.406 27.8116 12.2666 27.8603 12.1416C27.9089 12.0166 28.0534 11.9534 28.1829 12.0003L29.1481 12.3504C29.2282 12.1132 29.3055 11.8824 29.3799 11.6596L28.4472 11.3213C28.3177 11.2744 28.2522 11.135 28.3008 11.01C28.3495 10.885 28.4939 10.8217 28.6234 10.8687L29.5332 11.1986C29.6137 10.9553 29.69 10.7239 29.7612 10.5065L28.8877 10.1897C28.7582 10.1427 28.6927 10.0033 28.7414 9.87834C28.79 9.75335 28.9344 9.69009 29.064 9.73705L29.9121 10.0446C29.9969 9.7839 30.0721 9.55101 30.1364 9.35112L29.3283 9.05806Z" fill="#FF879D"/>
<path fill-rule="evenodd" clip-rule="evenodd" d="M22.4248 23.4995L29.1863 7.83293C29.1764 7.83206 29.1667 7.83131 29.1571 7.83068C28.7802 7.80586 28.5351 8.13213 28.382 8.46546L21.9016 22.5691L22.4248 23.4995ZM22.4248 23.4995L21.9016 22.5691L20.8067 24.7234C20.6303 25.1766 20.7503 25.9035 20.9003 26.3543C20.9408 26.4758 20.9714 26.6341 20.9924 26.8185L22.4248 23.4995Z" fill="#D87A8B"/>
<path d="M22.7658 23.8538C23.2838 24.0416 23.546 24.5992 23.3514 25.0992C23.1567 25.5992 22.579 25.8523 22.0609 25.6644C21.5429 25.4765 21.2807 24.9189 21.4754 24.4189C21.67 23.9189 22.2478 23.6659 22.7658 23.8538Z" fill="white"/>
<path fill-rule="evenodd" clip-rule="evenodd" d="M30.312 35.6041L30.6635 35.0165L27.7713 33.4048C27.6032 33.3111 27.5456 33.1036 27.6427 32.9413C27.7397 32.7791 27.9547 32.7235 28.1229 32.8172L31.0151 34.4288L31.3666 33.8411L28.4744 32.2295C28.3063 32.1358 28.2487 31.9283 28.3457 31.766C28.4428 31.6037 28.6578 31.5481 28.8259 31.6418L31.7181 33.2534L32.0697 32.6658L29.1775 31.0541C29.0093 30.9604 28.9517 30.7529 29.0488 30.5907C29.1459 30.4284 29.3609 30.3728 29.529 30.4665L32.4212 32.0781L32.7728 31.4904L29.8806 29.8788C29.7124 29.7851 29.6548 29.5776 29.7519 29.4153C29.849 29.253 30.064 29.1974 30.2321 29.2911L33.1243 30.9028L33.4758 30.3151L30.5836 28.7034C30.4155 28.6097 30.3579 28.4022 30.455 28.2399C30.552 28.0777 30.767 28.0221 30.9352 28.1158L33.8274 29.7274L34.1789 29.1397L31.2867 27.5281C31.1186 27.4344 31.061 27.2269 31.1581 27.0646C31.2551 26.9023 31.4701 26.8467 31.6383 26.9404L34.5305 28.552L34.882 27.9644L31.9898 26.3528C31.8217 26.2591 31.7641 26.0516 31.8611 25.8893C31.9582 25.727 32.1732 25.6714 32.3413 25.7651L35.2335 27.3767L35.5851 26.789L32.6929 25.1774C32.5247 25.0837 32.4671 24.8762 32.5642 24.7139C32.6613 24.5516 32.8763 24.496 33.0444 24.5897L35.9366 26.2014L36.2881 25.6137L33.396 24.0021C33.2278 23.9084 33.1702 23.7009 33.2673 23.5386C33.3644 23.3763 33.5794 23.3207 33.7475 23.4144L36.6397 25.026L36.9912 24.4383L34.099 22.8267C33.9309 22.733 33.8733 22.5255 33.9704 22.3632C34.0674 22.2009 34.2824 22.1453 34.4506 22.239L37.3428 23.8507L37.6943 23.263L34.8021 21.6514C34.634 21.5577 34.5764 21.3502 34.6734 21.1879C34.7705 21.0256 34.9855 20.97 35.1536 21.0637L38.0458 22.6753L38.3974 22.0877L35.5052 20.476C35.337 20.3823 35.2794 20.1748 35.3765 20.0125C35.4736 19.8503 35.6886 19.7947 35.8567 19.8883L38.7489 21.5L39.1004 20.9123L36.2083 19.3007C36.0401 19.207 35.9825 18.9995 36.0796 18.8372C36.1767 18.6749 36.3917 18.6193 36.5598 18.713L39.452 20.3246L39.8035 19.737L36.9113 18.1253C36.7432 18.0316 36.6856 17.8241 36.7827 17.6618C36.8797 17.4996 37.0947 17.444 37.2629 17.5376L40.1067 19.1223C40.3929 18.2155 40.0066 17.2056 39.1195 16.7112L37.2825 15.6876C36.766 15.3998 36.1055 15.5706 35.8073 16.0691L24.9788 34.1712C24.6806 34.6697 24.8576 35.3072 25.3741 35.595L27.2111 36.6186C28.1251 37.128 29.2645 36.9192 29.9281 36.1738L27.0683 34.5802C26.9001 34.4865 26.8425 34.279 26.9396 34.1167C27.0367 33.9544 27.2517 33.8988 27.4198 33.9925L30.312 35.6041Z" fill="#FF879D"/>
<path fill-rule="evenodd" clip-rule="evenodd" d="M36.9169 15.5634L25.1778 35.4555C24.8192 35.1319 24.7251 34.6015 24.9811 34.1736L35.8095 16.0715C36.0401 15.6861 36.4872 15.4965 36.9169 15.5634Z" fill="#D87A8B"/>
<path fill-rule="evenodd" clip-rule="evenodd" d="M30.5896 35.1421L30.665 35.0161L27.7728 33.4045C27.6046 33.3108 27.547 33.1033 27.6441 32.941C27.6653 32.9055 27.6922 32.8752 27.7229 32.8503C27.6537 32.8856 27.5938 32.9398 27.5524 33.0104C27.4369 33.2071 27.5085 33.4569 27.7123 33.5684L30.5896 35.1421Z" fill="white"/>
<path fill-rule="evenodd" clip-rule="evenodd" d="M26.9726 34.0779C26.9879 34.059 27.005 34.042 27.0236 34.027C26.9544 34.0623 26.8945 34.1165 26.853 34.187C26.7375 34.3838 26.8091 34.6336 27.013 34.7451L29.8282 36.2848C29.864 36.25 29.8986 36.2138 29.9321 36.1762L27.0722 34.5826C26.9041 34.4889 26.8465 34.2814 26.9436 34.1191C26.9523 34.1045 26.962 34.0908 26.9726 34.0779Z" fill="white"/>
<path fill-rule="evenodd" clip-rule="evenodd" d="M31.2924 33.9659L31.3678 33.8399L28.4756 32.2282C28.3074 32.1346 28.2498 31.927 28.3469 31.7648C28.3681 31.7293 28.395 31.6989 28.4257 31.6741C28.3565 31.7094 28.2966 31.7635 28.2552 31.8341C28.1397 32.0309 28.2113 32.2807 28.4151 32.3922L31.2924 33.9659Z" fill="white"/>
<path fill-rule="evenodd" clip-rule="evenodd" d="M31.9961 32.7905L32.0715 32.6645L29.1793 31.0529C29.0112 30.9592 28.9536 30.7516 29.0506 30.5894C29.0718 30.5539 29.0987 30.5235 29.1294 30.4987C29.0602 30.534 29.0003 30.5882 28.9589 30.6587C28.8434 30.8555 28.915 31.1053 29.1188 31.2168L31.9961 32.7905Z" fill="white"/>
<path fill-rule="evenodd" clip-rule="evenodd" d="M32.7 31.6153L32.7754 31.4893L29.8832 29.8777C29.7151 29.784 29.6574 29.5765 29.7545 29.4142C29.7757 29.3787 29.8026 29.3484 29.8333 29.3235C29.7641 29.3588 29.7042 29.413 29.6628 29.4835C29.5473 29.6803 29.6189 29.9301 29.8227 30.0416L32.7 31.6153Z" fill="white"/>
<path fill-rule="evenodd" clip-rule="evenodd" d="M33.4026 30.4389L33.478 30.3129L30.5858 28.7013C30.4177 28.6076 30.3601 28.4001 30.4572 28.2378C30.4784 28.2023 30.5052 28.172 30.536 28.1471C30.4668 28.1824 30.4069 28.2366 30.3654 28.3072C30.2499 28.5039 30.3215 28.7537 30.5254 28.8652L33.4026 30.4389Z" fill="white"/>
<path fill-rule="evenodd" clip-rule="evenodd" d="M34.1074 29.2648L34.1827 29.1388L31.2906 27.5272C31.1224 27.4335 31.0648 27.226 31.1619 27.0637C31.1831 27.0282 31.2099 26.9979 31.2407 26.973C31.1715 27.0083 31.1116 27.0625 31.0702 27.1331C30.9547 27.3298 31.0263 27.5796 31.2301 27.6911L34.1074 29.2648Z" fill="white"/>
<path fill-rule="evenodd" clip-rule="evenodd" d="M34.8135 28.0919L34.8889 27.9659L31.9967 26.3543C31.8286 26.2606 31.771 26.0531 31.868 25.8908C31.8893 25.8554 31.9161 25.825 31.9468 25.8002C31.8777 25.8355 31.8178 25.8896 31.7763 25.9602C31.6608 26.1569 31.7324 26.4068 31.9362 26.5182L34.8135 28.0919Z" fill="white"/>
<path fill-rule="evenodd" clip-rule="evenodd" d="M35.5133 26.9125L35.5887 26.7866L32.6965 25.1749C32.5283 25.0812 32.4707 24.8737 32.5678 24.7114C32.589 24.676 32.6159 24.6456 32.6466 24.6208C32.5774 24.6561 32.5175 24.7102 32.4761 24.7808C32.3606 24.9775 32.4322 25.2274 32.636 25.3389L35.5133 26.9125Z" fill="white"/>
<path fill-rule="evenodd" clip-rule="evenodd" d="M36.2164 25.7363L36.2917 25.6103L33.3995 23.9987C33.2314 23.905 33.1738 23.6974 33.2709 23.5352C33.2921 23.4997 33.3189 23.4693 33.3497 23.4445C33.2805 23.4798 33.2206 23.534 33.1791 23.6045C33.0636 23.8013 33.1352 24.0511 33.3391 24.1626L36.2164 25.7363Z" fill="white"/>
<path fill-rule="evenodd" clip-rule="evenodd" d="M36.925 24.561L37.0004 24.435L34.1082 22.8234C33.9401 22.7297 33.8825 22.5222 33.9795 22.3599C34.0008 22.3244 34.0276 22.2941 34.0583 22.2692C33.9892 22.3045 33.9293 22.3587 33.8878 22.4293C33.7723 22.626 33.8439 22.8758 34.0477 22.9873L36.925 24.561Z" fill="white"/>
<path fill-rule="evenodd" clip-rule="evenodd" d="M37.6257 23.3871L37.701 23.2612L34.8088 21.6495C34.6407 21.5558 34.5831 21.3483 34.6802 21.186C34.7014 21.1506 34.7282 21.1202 34.759 21.0954C34.6898 21.1307 34.6299 21.1848 34.5884 21.2554C34.4729 21.4521 34.5445 21.702 34.7484 21.8135L37.6257 23.3871Z" fill="white"/>
<path fill-rule="evenodd" clip-rule="evenodd" d="M38.3251 22.2079L38.4005 22.0819L35.5083 20.4703C35.3401 20.3766 35.2825 20.1691 35.3796 20.0068C35.4008 19.9714 35.4276 19.941 35.4584 19.9162C35.3892 19.9515 35.3293 20.0056 35.2879 20.0762C35.1724 20.2729 35.244 20.5228 35.4478 20.6342L38.3251 22.2079Z" fill="white"/>
<path fill-rule="evenodd" clip-rule="evenodd" d="M39.0313 21.0351L39.1067 20.9091L36.2145 19.2974C36.0464 19.2038 35.9888 18.9962 36.0858 18.834C36.107 18.7985 36.1339 18.7681 36.1646 18.7433C36.0955 18.7786 36.0356 18.8327 35.9941 18.9033C35.8786 19.1001 35.9502 19.3499 36.154 19.4614L39.0313 21.0351Z" fill="white"/>
<path fill-rule="evenodd" clip-rule="evenodd" d="M39.7342 19.859L39.8096 19.733L36.9174 18.1213C36.7493 18.0277 36.6916 17.8201 36.7887 17.6579C36.8099 17.6224 36.8368 17.592 36.8675 17.5672C36.7983 17.6025 36.7384 17.6566 36.697 17.7272C36.5815 17.924 36.6531 18.1738 36.8569 18.2853L39.7342 19.859Z" fill="white"/>
</svg>
