<svg width="25" height="25" viewBox="0 0 25 25" fill="none" xmlns="http://www.w3.org/2000/svg">
  <circle cx="12.5" cy="12.5" r="11.413" fill="#6F40F3"/>
  <path d="M11.6909 6.50158C12.01 5.83281 12.99 5.83281 13.3091 6.50158L14.7067 9.4306C14.8366 9.70283 15.1027 9.89033 15.4097 9.92603L18.7135 10.3102C19.4678 10.3979 19.7706 11.302 19.2135 11.8031L16.7735 13.9975C16.5468 14.2014 16.4451 14.5048 16.505 14.7991L17.1493 17.9655C17.2964 18.6885 16.5035 19.2473 15.8401 18.8882L12.9345 17.3154C12.6644 17.1692 12.3356 17.1692 12.0655 17.3154L9.15994 18.8882C8.49652 19.2473 7.70365 18.6885 7.85075 17.9655L8.49499 14.7991C8.55487 14.5048 8.45324 14.2014 8.22647 13.9975L5.78647 11.8031C5.22936 11.302 5.53221 10.3979 6.28654 10.3102L9.59029 9.92603C9.89734 9.89033 10.1634 9.70283 10.2933 9.4306L11.6909 6.50158Z" fill="white"/>
  </svg>
  