<svg width="52" height="60" viewBox="0 0 52 60" fill="none" xmlns="http://www.w3.org/2000/svg">
  <mask id="path-1-inside-1_6030_32381" fill="white">
    <path fill-rule="evenodd" clip-rule="evenodd"
      d="M31.1437 49.4745C42.2054 46.8382 50.4294 36.9169 50.4294 25.0805C50.4294 11.2289 39.1668 0 25.2736 0C11.3805 0 0.11792 11.2289 0.11792 25.0805C0.11792 36.9169 8.34193 46.8383 19.4037 49.4745L25.2737 59.6112L31.1437 49.4745Z" />
  </mask>
  <path fill-rule="evenodd" clip-rule="evenodd"
    d="M31.1437 49.4745C42.2054 46.8382 50.4294 36.9169 50.4294 25.0805C50.4294 11.2289 39.1668 0 25.2736 0C11.3805 0 0.11792 11.2289 0.11792 25.0805C0.11792 36.9169 8.34193 46.8383 19.4037 49.4745L25.2737 59.6112L31.1437 49.4745Z"
    fill="#6F40F3" />
  <path
    d="M31.1437 49.4745L30.9119 48.5017L30.4937 48.6014L30.2783 48.9733L31.1437 49.4745ZM19.4037 49.4745L20.2691 48.9734L20.0537 48.6014L19.6356 48.5017L19.4037 49.4745ZM25.2737 59.6112L24.4083 60.1123L25.2737 61.6067L26.1391 60.1123L25.2737 59.6112ZM49.4294 25.0805C49.4294 36.4415 41.5354 45.9699 30.9119 48.5017L31.3755 50.4472C42.8754 47.7065 51.4294 37.3923 51.4294 25.0805H49.4294ZM25.2736 1C38.6173 1 49.4294 11.784 49.4294 25.0805H51.4294C51.4294 10.6738 39.7162 -1 25.2736 -1V1ZM1.11792 25.0805C1.11792 11.784 11.93 1 25.2736 1V-1C10.8311 -1 -0.88208 10.6738 -0.88208 25.0805H1.11792ZM19.6356 48.5017C9.01194 45.97 1.11792 36.4415 1.11792 25.0805H-0.88208C-0.88208 37.3923 7.67193 47.7066 19.1719 50.4473L19.6356 48.5017ZM26.1391 59.11L20.2691 48.9734L18.5384 49.9756L24.4083 60.1123L26.1391 59.11ZM30.2783 48.9733L24.4083 59.11L26.1391 60.1123L32.0091 49.9756L30.2783 48.9733Z"
    fill="white" mask="url(#path-1-inside-1_6030_32381)" />
  <path
    d="M23.9444 13.8488C24.4686 12.7171 26.0787 12.7171 26.603 13.8488L28.899 18.8056C29.1124 19.2663 29.5495 19.5836 30.0539 19.6441L35.4815 20.2942C36.7208 20.4426 37.2183 21.9726 36.303 22.8205L32.2945 26.5342C31.9219 26.8793 31.755 27.3927 31.8533 27.8907L32.9117 33.2494C33.1534 34.4729 31.8508 35.4185 30.7609 34.8107L25.9875 32.1491C25.5438 31.9017 25.0036 31.9017 24.5599 32.1491L19.7864 34.8107C18.6965 35.4185 17.394 34.4729 17.6356 33.2494L18.694 27.8907C18.7924 27.3927 18.6254 26.8793 18.2529 26.5342L14.2443 22.8205C13.3291 21.9726 13.8266 20.4426 15.0659 20.2942L20.4934 19.6441C20.9979 19.5836 21.435 19.2663 21.6484 18.8056L23.9444 13.8488Z"
    fill="white" />
</svg>