<svg width="23" height="23" viewBox="0 0 23 23" fill="none" xmlns="http://www.w3.org/2000/svg">
  <circle cx="11.5" cy="11.5" r="11" fill="#6F40F3" stroke="#4725A7" />
  <path
    d="M10.7557 5.98147C11.0492 5.3662 11.9509 5.3662 12.2445 5.98147L13.5302 8.67618C13.6497 8.92663 13.8945 9.09912 14.177 9.13197L17.2164 9.4854C17.9104 9.5661 18.189 10.3979 17.6765 10.8588L15.4317 12.8777C15.2231 13.0653 15.1296 13.3444 15.1847 13.6152L15.7774 16.5283C15.9127 17.1935 15.1833 17.7075 14.5729 17.3771L11.8998 15.9301C11.6513 15.7957 11.3488 15.7957 11.1003 15.9301L8.4272 17.3771C7.81686 17.7075 7.08742 17.1935 7.22275 16.5283L7.81545 13.6152C7.87054 13.3444 7.77704 13.0653 7.56841 12.8777L5.32361 10.8588C4.81107 10.3979 5.08969 9.5661 5.78367 9.4854L8.82313 9.13197C9.10562 9.09912 9.35038 8.92663 9.46989 8.67618L10.7557 5.98147Z"
    fill="white" />
</svg>