<svg width="23" height="23" viewBox="0 0 23 23" fill="none" xmlns="http://www.w3.org/2000/svg">
  <circle cx="11.5" cy="11.5" r="11" fill="#8E6947" stroke="#53361B" />
  <path fill-rule="evenodd" clip-rule="evenodd"
    d="M16.9132 10.2944C16.4325 10.0456 15.8025 9.93024 15.2991 9.88737L15.4088 8.3426C15.9889 8.392 16.8552 8.53061 17.6028 8.91747C18.3766 9.31794 19.1194 10.0487 19.1283 11.2464C19.1369 12.4052 18.4508 13.2166 17.7211 13.714C16.9971 14.2076 16.128 14.4715 15.4749 14.5371L15.3022 12.9945C15.7311 12.9514 16.3531 12.763 16.8465 12.4267C17.3342 12.0942 17.592 11.6981 17.5886 11.2377C17.5855 10.8163 17.3677 10.5296 16.9132 10.2944Z"
    fill="white" />
  <path fill-rule="evenodd" clip-rule="evenodd"
    d="M11.2173 6.02961C8.35104 6.01333 6.02941 6.64202 6.01103 7.43628L6.01074 7.42251L6.01092 7.44609L6.01093 7.44884L6.01096 7.4516L6.05122 12.8615C6.06798 15.1144 7.94345 16.9513 10.2402 16.9643L12.3657 16.9764C14.6625 16.9894 16.5108 15.1736 16.494 12.9207L16.4456 7.45232C16.4457 7.4637 16.4453 7.47487 16.4445 7.48584C16.3958 6.69567 14.0719 6.04581 11.2173 6.02961ZM11.2861 9.01361C13.8306 9.02805 15.889 8.4648 15.8837 7.75555C15.8784 7.0463 13.8115 6.45964 11.267 6.44519C8.72258 6.43075 6.66419 6.994 6.66947 7.70324C6.67475 8.41249 8.7417 8.99916 11.2861 9.01361Z"
    fill="white" />
</svg>
  