<svg width="21" height="21" viewBox="0 0 21 21" fill="none" xmlns="http://www.w3.org/2000/svg">
  <circle cx="10.5" cy="10.5" r="9.65" fill="#CCB7A3" stroke="white" stroke-width="0.3" />
  <path fill-rule="evenodd" clip-rule="evenodd"
    d="M15.1676 9.82968C14.7109 9.59332 14.1124 9.48375 13.6342 9.44302L13.7384 7.97549C14.2896 8.02243 15.1125 8.1541 15.8227 8.52163C16.5579 8.90207 17.2635 9.59625 17.2719 10.7341C17.2801 11.835 16.6283 12.6058 15.9351 13.0783C15.2472 13.5472 14.4217 13.798 13.8012 13.8603L13.6371 12.3948C14.0446 12.3538 14.6355 12.1749 15.1042 11.8554C15.5675 11.5395 15.8125 11.1632 15.8092 10.7258C15.8062 10.3255 15.5994 10.0531 15.1676 9.82968Z"
    fill="white" />
  <path fill-rule="evenodd" clip-rule="evenodd"
    d="M9.75641 5.77813C7.03344 5.76267 4.82787 6.35993 4.81045 7.11449L4.81018 7.10138L4.81035 7.12398L4.81036 7.1264L4.81038 7.12882L4.84863 12.2684C4.86456 14.4086 6.64626 16.1537 8.82817 16.1661L10.8474 16.1776C13.0293 16.1899 14.7852 14.465 14.7693 12.3247L14.7233 7.12971C14.7234 7.14051 14.723 7.15112 14.7222 7.16154C14.676 6.41088 12.4683 5.79352 9.75641 5.77813ZM9.8218 8.61293C12.239 8.62665 14.1945 8.09156 14.1895 7.41778C14.1845 6.74399 12.2209 6.18665 9.80364 6.17293C7.38643 6.15921 5.43096 6.6943 5.43597 7.36808C5.44098 8.04187 7.40459 8.5992 9.8218 8.61293Z"
    fill="white" />
</svg>