<svg width="50" height="62" viewBox="0 0 50 62" fill="none" xmlns="http://www.w3.org/2000/svg">
  <mask id="path-1-inside-1_1477_23320" fill="white">
    <path fill-rule="evenodd" clip-rule="evenodd"
      d="M30.5524 48.6499C41.3973 46.0576 49.4599 36.3016 49.4599 24.6625C49.4599 11.0418 38.4182 0 24.7975 0C11.1768 0 0.13501 11.0418 0.13501 24.6625C0.13501 36.3016 8.19776 46.0577 19.0427 48.6499L24.7976 58.6176L30.5524 48.6499Z" />
  </mask>
  <path fill-rule="evenodd" clip-rule="evenodd"
    d="M30.5524 48.6499C41.3973 46.0576 49.4599 36.3016 49.4599 24.6625C49.4599 11.0418 38.4182 0 24.7975 0C11.1768 0 0.13501 11.0418 0.13501 24.6625C0.13501 36.3016 8.19776 46.0577 19.0427 48.6499L24.7976 58.6176L30.5524 48.6499Z"
    fill="#CCB7A3" />
  <path
    d="M30.5524 48.6499L30.32 47.6773L29.9015 47.7773L29.6864 48.1499L30.5524 48.6499ZM19.0427 48.6499L19.9087 48.1499L19.6936 47.7773L19.2752 47.6773L19.0427 48.6499ZM24.7976 58.6176L23.9315 59.1176L24.7976 60.6176L25.6636 59.1176L24.7976 58.6176ZM48.4599 24.6625C48.4599 35.8283 40.725 45.1901 30.32 47.6773L30.7849 49.6225C42.0695 46.925 50.4599 36.7748 50.4599 24.6625H48.4599ZM24.7975 1C37.8659 1 48.4599 11.594 48.4599 24.6625H50.4599C50.4599 10.4895 38.9705 -1 24.7975 -1V1ZM1.13501 24.6625C1.13501 11.594 11.7291 1 24.7975 1V-1C10.6245 -1 -0.86499 10.4895 -0.86499 24.6625H1.13501ZM19.2752 47.6773C8.86999 45.1902 1.13501 35.8284 1.13501 24.6625H-0.86499C-0.86499 36.7749 7.52554 46.9251 18.8102 49.6225L19.2752 47.6773ZM25.6636 58.1176L19.9087 48.1499L18.1767 49.1499L23.9315 59.1176L25.6636 58.1176ZM29.6864 48.1499L23.9315 58.1176L25.6636 59.1176L31.4185 49.1499L29.6864 48.1499Z"
    fill="white" mask="url(#path-1-inside-1_1477_23320)" />
  <ellipse cx="24.1671" cy="16.669" rx="10.6483" ry="3.24981" fill="#53361B" />
  <path fill-rule="evenodd" clip-rule="evenodd"
    d="M12.1684 16.1157C12.2061 14.2714 17.4179 12.8112 23.853 12.849C30.2587 12.8866 35.4736 14.3944 35.5843 16.228C35.5862 16.2028 35.5871 16.1771 35.5869 16.151L35.6078 18.5972C36.4585 18.8041 37.354 19.1073 38.1843 19.5516C39.9211 20.4811 41.588 22.177 41.608 24.9569C41.6273 27.6464 40.0876 29.5295 38.4499 30.6841C37.3936 31.4287 36.2 31.9481 35.0913 32.2623C33.7641 35.7912 30.3949 38.2789 26.4303 38.2556L21.66 38.2276C16.5053 38.1974 12.2962 33.934 12.2586 28.7052L12.1677 16.0818C12.1678 16.0932 12.168 16.1045 12.1684 16.1157ZM35.6897 28.1784C35.9648 28.0356 36.2334 27.875 36.4869 27.6963C37.5815 26.9246 38.1602 26.0052 38.1525 24.9366C38.1454 23.9586 37.6568 23.2932 36.6367 22.7473C36.3271 22.5816 35.9898 22.4414 35.6397 22.3234L35.6897 28.1784ZM34.3257 16.8548C34.3376 18.5009 29.7179 19.8082 24.0074 19.7746C18.2969 19.7411 13.658 18.3795 13.6461 16.7334C13.6343 15.0873 18.254 13.78 23.9645 13.8135C29.675 13.8471 34.3139 15.2087 34.3257 16.8548Z"
    fill="#F7F7F7" />
</svg>
  