<svg width="21" height="21" viewBox="0 0 21 21" fill="none" xmlns="http://www.w3.org/2000/svg">
<circle cx="10.5" cy="10.5" r="10" fill="#8E6947" stroke="#53361B"/>
<path fill-rule="evenodd" clip-rule="evenodd" d="M15.1688 9.83151C14.7121 9.59515 14.1137 9.48558 13.6354 9.44486L13.7397 7.97732C14.2908 8.02426 15.1137 8.15593 15.8239 8.52346C16.5591 8.9039 17.2647 9.59808 17.2731 10.7359C17.2813 11.8368 16.6296 12.6076 15.9363 13.0802C15.2485 13.5491 14.4229 13.7998 13.8025 13.8621L13.6384 12.3966C14.0459 12.3557 14.6367 12.1767 15.1054 11.8572C15.5687 11.5414 15.8137 11.165 15.8104 10.7276C15.8075 10.3273 15.6006 10.055 15.1688 9.83151Z" fill="white"/>
<path fill-rule="evenodd" clip-rule="evenodd" d="M9.75678 5.77764C7.0338 5.76218 4.82824 6.35945 4.81082 7.114L4.81055 7.10089L4.81072 7.12349L4.81073 7.12591L4.81075 7.12833L4.849 12.2679C4.86492 14.4082 6.64662 16.1532 8.82853 16.1656L10.8478 16.1771C13.0297 16.1895 14.7856 14.4645 14.7696 12.3242L14.7237 7.12922C14.7238 7.14003 14.7234 7.15064 14.7226 7.16105C14.6763 6.41039 12.4687 5.79303 9.75678 5.77764ZM9.82217 8.61244C12.2394 8.62616 14.1949 8.09107 14.1898 7.41729C14.1848 6.7435 12.2212 6.18617 9.80401 6.17244C7.3868 6.15872 5.43132 6.69381 5.43634 7.36759C5.44135 8.04138 7.40495 8.59872 9.82217 8.61244Z" fill="white"/>
</svg>
