<svg width="23" height="23" viewBox="0 0 23 23" fill="none" xmlns="http://www.w3.org/2000/svg">
<g filter="url(#filter0_d_2419_27166)">
<circle cx="11.5" cy="10.5" r="10" fill="#8E6947" stroke="#53361B"/>
<path fill-rule="evenodd" clip-rule="evenodd" d="M16.1688 9.83151C15.7121 9.59515 15.1137 9.48558 14.6354 9.44486L14.7397 7.97732C15.2908 8.02426 16.1137 8.15593 16.8239 8.52346C17.5591 8.9039 18.2647 9.59808 18.2731 10.7359C18.2813 11.8368 17.6296 12.6076 16.9363 13.0802C16.2485 13.5491 15.4229 13.7998 14.8025 13.8621L14.6384 12.3966C15.0459 12.3557 15.6367 12.1767 16.1054 11.8572C16.5687 11.5414 16.8137 11.165 16.8104 10.7276C16.8075 10.3273 16.6006 10.055 16.1688 9.83151Z" fill="white"/>
<path fill-rule="evenodd" clip-rule="evenodd" d="M10.7568 5.77764C8.0338 5.76218 5.82824 6.35945 5.81082 7.114L5.81055 7.10089L5.81072 7.12349L5.81073 7.12591L5.81075 7.12833L5.849 12.2679C5.86492 14.4082 7.64662 16.1532 9.82853 16.1656L11.8478 16.1771C14.0297 16.1895 15.7856 14.4645 15.7696 12.3242L15.7237 7.12922C15.7238 7.14003 15.7234 7.15064 15.7226 7.16105C15.6763 6.41039 13.4687 5.79303 10.7568 5.77764ZM10.8222 8.61244C13.2394 8.62616 15.1949 8.09107 15.1898 7.41729C15.1848 6.7435 13.2212 6.18617 10.804 6.17244C8.3868 6.15872 6.43132 6.69381 6.43634 7.36759C6.44135 8.04138 8.40495 8.59872 10.8222 8.61244Z" fill="white"/>
</g>
<defs>
<filter id="filter0_d_2419_27166" x="0" y="0" width="23" height="23" filterUnits="userSpaceOnUse" color-interpolation-filters="sRGB">
<feFlood flood-opacity="0" result="BackgroundImageFix"/>
<feColorMatrix in="SourceAlpha" type="matrix" values="0 0 0 0 0 0 0 0 0 0 0 0 0 0 0 0 0 0 127 0" result="hardAlpha"/>
<feOffset dy="1"/>
<feGaussianBlur stdDeviation="0.5"/>
<feComposite in2="hardAlpha" operator="out"/>
<feColorMatrix type="matrix" values="0 0 0 0 0 0 0 0 0 0 0 0 0 0 0 0 0 0 0.2 0"/>
<feBlend mode="normal" in2="BackgroundImageFix" result="effect1_dropShadow_2419_27166"/>
<feBlend mode="normal" in="SourceGraphic" in2="effect1_dropShadow_2419_27166" result="shape"/>
</filter>
</defs>
</svg>
