<svg width="50" height="63" viewBox="0 0 50 63" fill="none" xmlns="http://www.w3.org/2000/svg">
  <mask id="path-1-inside-1_1477_23320" fill="white">
  <path fill-rule="evenodd" clip-rule="evenodd" d="M30.5524 49.1469C41.3973 46.5546 49.4599 36.7986 49.4599 25.1595C49.4599 11.5388 38.4182 0.49707 24.7975 0.49707C11.1768 0.49707 0.13501 11.5388 0.13501 25.1595C0.13501 36.7987 8.19776 46.5547 19.0427 49.147L24.7976 59.1147L30.5524 49.1469Z"/>
  </mask>
  <path fill-rule="evenodd" clip-rule="evenodd" d="M30.5524 49.1469C41.3973 46.5546 49.4599 36.7986 49.4599 25.1595C49.4599 11.5388 38.4182 0.49707 24.7975 0.49707C11.1768 0.49707 0.13501 11.5388 0.13501 25.1595C0.13501 36.7987 8.19776 46.5547 19.0427 49.147L24.7976 59.1147L30.5524 49.1469Z" fill="#CCB7A3"/>
  <path d="M30.5524 49.1469L30.32 48.1744L29.9015 48.2744L29.6864 48.6469L30.5524 49.1469ZM19.0427 49.147L19.9087 48.647L19.6936 48.2744L19.2752 48.1744L19.0427 49.147ZM24.7976 59.1147L23.9315 59.6147L24.7976 61.1147L25.6636 59.6147L24.7976 59.1147ZM48.4599 25.1595C48.4599 36.3254 40.725 45.6871 30.32 48.1744L30.7849 50.1195C42.0695 47.4221 50.4599 37.2719 50.4599 25.1595H48.4599ZM24.7975 1.49707C37.8659 1.49707 48.4599 12.0911 48.4599 25.1595H50.4599C50.4599 10.9865 38.9705 -0.50293 24.7975 -0.50293V1.49707ZM1.13501 25.1595C1.13501 12.0911 11.7291 1.49707 24.7975 1.49707V-0.50293C10.6245 -0.50293 -0.86499 10.9865 -0.86499 25.1595H1.13501ZM19.2752 48.1744C8.86999 45.6872 1.13501 36.3255 1.13501 25.1595H-0.86499C-0.86499 37.272 7.52554 47.4222 18.8102 50.1196L19.2752 48.1744ZM25.6636 58.6147L19.9087 48.647L18.1767 49.647L23.9315 59.6147L25.6636 58.6147ZM29.6864 48.6469L23.9315 58.6147L25.6636 59.6147L31.4185 49.6469L29.6864 48.6469Z" fill="white" mask="url(#path-1-inside-1_1477_23320)"/>
  <ellipse cx="24.1671" cy="17.1661" rx="10.6483" ry="3.24981" fill="#53361B"/>
  <path fill-rule="evenodd" clip-rule="evenodd" d="M12.1684 16.6128C12.2061 14.7685 17.4179 13.3083 23.853 13.3461C30.2587 13.3837 35.4736 14.8915 35.5843 16.7251C35.5862 16.6999 35.5871 16.6742 35.5869 16.6481L35.6078 19.0943C36.4585 19.3011 37.354 19.6044 38.1843 20.0487C39.9211 20.9782 41.588 22.6741 41.608 25.454C41.6273 28.1434 40.0876 30.0266 38.4499 31.1811C37.3936 31.9257 36.2 32.4451 35.0913 32.7593C33.7641 36.2883 30.3949 38.776 26.4303 38.7527L21.66 38.7247C16.5053 38.6944 12.2962 34.4311 12.2586 29.2023L12.1677 16.5789C12.1678 16.5903 12.168 16.6016 12.1684 16.6128ZM35.6897 28.6755C35.9648 28.5327 36.2334 28.372 36.4869 28.1933C37.5815 27.4217 38.1602 26.5023 38.1525 25.4337C38.1454 24.4556 37.6568 23.7903 36.6367 23.2444C36.3271 23.0787 35.9898 22.9385 35.6397 22.8204L35.6897 28.6755ZM34.3257 17.3519C34.3376 18.998 29.7179 20.3052 24.0074 20.2717C18.2969 20.2382 13.658 18.8766 13.6461 17.2305C13.6343 15.5843 18.254 14.2771 23.9645 14.3106C29.675 14.3441 34.3139 15.7057 34.3257 17.3519Z" fill="#F7F7F7"/>
  </svg>
  