<svg width="25" height="25" viewBox="0 0 25 25" fill="none" xmlns="http://www.w3.org/2000/svg">
<circle cx="12.5" cy="12.5" r="11.413" fill="#8E6947"/>
<path fill-rule="evenodd" clip-rule="evenodd" d="M18.3835 11.1896C17.8609 10.9191 17.1762 10.7938 16.629 10.7472L16.7483 9.06807C17.3788 9.12177 18.3204 9.27243 19.133 9.69294C19.9741 10.1282 20.7815 10.9225 20.7911 12.2244C20.8005 13.4839 20.0548 14.3659 19.2616 14.9066C18.4746 15.4431 17.53 15.7299 16.8201 15.8013L16.6324 14.1245C17.0986 14.0776 17.7746 13.8729 18.3109 13.5073C18.841 13.1459 19.1213 12.7153 19.1176 12.2149C19.1142 11.7568 18.8775 11.4452 18.3835 11.1896Z" fill="white"/>
<path fill-rule="evenodd" clip-rule="evenodd" d="M12.1925 6.55392C9.07705 6.53624 6.55357 7.21958 6.53351 8.08288L6.5332 8.06795L6.53339 8.09327L6.5334 8.09657L6.53344 8.09988L6.5772 13.9798C6.59542 16.4287 8.63398 18.4253 11.1304 18.4395L13.4408 18.4526C15.9373 18.4668 17.9463 16.4931 17.928 14.0443L17.8755 8.10036C17.8756 8.11273 17.8751 8.12488 17.8742 8.13681C17.8213 7.27792 15.2954 6.57154 12.1925 6.55392ZM12.2673 9.7974C15.033 9.8131 17.2704 9.20088 17.2647 8.42995C17.2589 7.65903 15.0122 7.02135 12.2465 7.00565C9.48086 6.98995 7.24347 7.60217 7.24921 8.3731C7.25495 9.14402 9.50163 9.7817 12.2673 9.7974Z" fill="white"/>
</svg>
