<svg width="57" height="62" viewBox="0 0 57 62" fill="none" xmlns="http://www.w3.org/2000/svg">
<mask id="path-1-inside-1_1477_23320" fill="white">
<path fill-rule="evenodd" clip-rule="evenodd" d="M34.5524 48.6499C45.3973 46.0576 53.4599 36.3016 53.4599 24.6625C53.4599 11.0418 42.4182 0 28.7975 0C15.1768 0 4.13501 11.0418 4.13501 24.6625C4.13501 36.3016 12.1978 46.0577 23.0427 48.6499L28.7976 58.6176L34.5524 48.6499Z"/>
</mask>
<path fill-rule="evenodd" clip-rule="evenodd" d="M34.5524 48.6499C45.3973 46.0576 53.4599 36.3016 53.4599 24.6625C53.4599 11.0418 42.4182 0 28.7975 0C15.1768 0 4.13501 11.0418 4.13501 24.6625C4.13501 36.3016 12.1978 46.0577 23.0427 48.6499L28.7976 58.6176L34.5524 48.6499Z" fill="#CCB7A3"/>
<path d="M34.5524 48.6499L34.32 47.6773L33.9015 47.7773L33.6864 48.1499L34.5524 48.6499ZM23.0427 48.6499L23.9087 48.1499L23.6936 47.7773L23.2752 47.6773L23.0427 48.6499ZM28.7976 58.6176L27.9315 59.1176L28.7976 60.6176L29.6636 59.1176L28.7976 58.6176ZM52.4599 24.6625C52.4599 35.8283 44.725 45.1901 34.32 47.6773L34.7849 49.6225C46.0695 46.925 54.4599 36.7748 54.4599 24.6625H52.4599ZM28.7975 1C41.8659 1 52.4599 11.594 52.4599 24.6625H54.4599C54.4599 10.4895 42.9705 -1 28.7975 -1V1ZM5.13501 24.6625C5.13501 11.594 15.7291 1 28.7975 1V-1C14.6245 -1 3.13501 10.4895 3.13501 24.6625H5.13501ZM23.2752 47.6773C12.87 45.1902 5.13501 35.8284 5.13501 24.6625H3.13501C3.13501 36.7749 11.5255 46.9251 22.8102 49.6225L23.2752 47.6773ZM29.6636 58.1176L23.9087 48.1499L22.1767 49.1499L27.9315 59.1176L29.6636 58.1176ZM33.6864 48.1499L27.9315 58.1176L29.6636 59.1176L35.4185 49.1499L33.6864 48.1499Z" fill="white" mask="url(#path-1-inside-1_1477_23320)"/>
<g filter="url(#filter0_d_1477_23320)">
<ellipse cx="28.406" cy="37.1331" rx="14.8758" ry="4.36248" fill="white"/>
</g>
<g filter="url(#filter1_d_1477_23320)">
<ellipse cx="28.4716" cy="36.6692" rx="14.619" ry="3.89854" fill="url(#paint0_linear_1477_23320)" shape-rendering="crispEdges"/>
</g>
<g filter="url(#filter2_d_1477_23320)">
<ellipse cx="28.4717" cy="36.5183" rx="6.6378" ry="1.77015" fill="url(#paint1_linear_1477_23320)" shape-rendering="crispEdges"/>
</g>
<path d="M36.4884 23.0089C36.4884 24.2491 32.8698 25.2544 28.406 25.2544C23.9422 25.2544 20.3236 24.2491 20.3236 23.0089C20.3236 21.7688 23.9422 20.7634 28.406 20.7634C32.8698 20.7634 36.4884 21.7688 36.4884 23.0089Z" fill="white"/>
<path d="M35.6032 23.3974C35.6032 24.4966 32.4103 25.3877 28.4716 25.3877C24.533 25.3877 21.3401 24.4966 21.3401 23.3974C21.3401 22.2981 24.533 21.407 28.4716 21.407C32.4103 21.407 35.6032 22.2981 35.6032 23.3974Z" fill="#6E614D"/>
<path fill-rule="evenodd" clip-rule="evenodd" d="M36.3638 13.7945C35.5359 13.6773 34.559 13.8326 33.8035 14.0289L33.1728 11.7082C34.0434 11.482 35.3766 11.2392 36.6639 11.4214C37.9965 11.61 39.4527 12.2987 40.0787 14.0496C40.6843 15.7436 40.0999 17.286 39.2911 18.3907C38.4887 19.4869 37.3575 20.321 36.4394 20.7534L35.3981 18.5813C36.0011 18.2973 36.811 17.7011 37.3578 16.9541C37.8983 16.2158 38.0713 15.5024 37.8307 14.8294C37.6105 14.2133 37.1465 13.9053 36.3638 13.7945Z" fill="white"/>
<path fill-rule="evenodd" clip-rule="evenodd" d="M27.4202 14.7618C31.6306 13.3014 34.6637 11.0895 34.2276 9.86969L37.0967 17.8597C38.2741 21.1531 36.5101 24.7659 33.1567 25.9291L30.0534 27.0056C26.7 28.1687 23.027 26.4419 21.8496 23.1485L19.0071 15.1976C19.4432 16.4174 23.2099 16.2223 27.4202 14.7618Z" fill="white"/>
<path d="M34.2679 9.94732C34.6861 11.1171 31.612 13.2493 27.4016 14.7097C23.1913 16.1702 19.4391 16.4058 19.0209 15.2361C18.6027 14.0664 21.6768 11.9342 25.8872 10.4737C30.0976 9.01326 33.8497 8.77759 34.2679 9.94732Z" fill="white"/>
<path d="M33.5639 10.6034C33.9346 11.6402 31.2234 13.5253 27.5084 14.814C23.7934 16.1026 20.4813 16.3068 20.1106 15.2699C19.7399 14.2331 22.4511 12.348 26.1661 11.0594C29.8811 9.77072 33.1932 9.56658 33.5639 10.6034Z" fill="#6E614D"/>
<path d="M32.8885 10.8033C31.6091 10.8454 29.7483 10.8022 26.5393 11.9153C23.3304 13.0284 22.188 13.9118 21.2678 14.8342C21.493 13.9161 23.3197 12.608 26.5287 11.4949C29.7376 10.3818 32.3441 10.4114 32.8885 10.8033Z" fill="#AFA089"/>
<g filter="url(#filter3_dd_1477_23320)">
<path fill-rule="evenodd" clip-rule="evenodd" d="M34.8563 24.3792C33.3808 24.9444 31.0406 25.3096 28.406 25.3096C23.9422 25.3096 20.3236 24.2612 20.3236 22.968V31.3975C20.3236 34.8891 23.2057 37.7197 26.7609 37.7197H30.0511C32.7856 37.7197 35.1218 36.0452 36.0548 33.6834C36.8211 33.4692 37.647 33.1177 38.3792 32.6163C39.5145 31.8389 40.5859 30.5753 40.5859 28.7794C40.5859 26.923 39.4446 25.797 38.2513 25.1832C37.6839 24.8913 37.0713 24.6929 36.4884 24.5581V22.968C36.4884 23.473 35.9366 23.9407 34.9982 24.3231C34.9517 24.3189 34.9061 24.315 34.8616 24.3115L34.8563 24.3792ZM36.4884 27.046V30.9535C36.6787 30.8572 36.8645 30.7489 37.04 30.6287C37.7989 30.1092 38.2026 29.4929 38.2026 28.7794C38.2026 28.1262 37.8688 27.6838 37.168 27.3233C36.957 27.2148 36.7272 27.1231 36.4884 27.046Z" fill="white"/>
</g>
<defs>
<filter id="filter0_d_1477_23320" x="0.530273" y="24.7706" width="55.7516" height="34.725" filterUnits="userSpaceOnUse" color-interpolation-filters="sRGB">
<feFlood flood-opacity="0" result="BackgroundImageFix"/>
<feColorMatrix in="SourceAlpha" type="matrix" values="0 0 0 0 0 0 0 0 0 0 0 0 0 0 0 0 0 0 127 0" result="hardAlpha"/>
<feOffset dy="5"/>
<feGaussianBlur stdDeviation="6.5"/>
<feComposite in2="hardAlpha" operator="out"/>
<feColorMatrix type="matrix" values="0 0 0 0 0 0 0 0 0 0 0 0 0 0 0 0 0 0 0.05 0"/>
<feBlend mode="normal" in2="BackgroundImageFix" result="effect1_dropShadow_1477_23320"/>
<feBlend mode="normal" in="SourceGraphic" in2="effect1_dropShadow_1477_23320" result="shape"/>
</filter>
<filter id="filter1_d_1477_23320" x="0.852661" y="24.7706" width="55.2379" height="33.7971" filterUnits="userSpaceOnUse" color-interpolation-filters="sRGB">
<feFlood flood-opacity="0" result="BackgroundImageFix"/>
<feColorMatrix in="SourceAlpha" type="matrix" values="0 0 0 0 0 0 0 0 0 0 0 0 0 0 0 0 0 0 127 0" result="hardAlpha"/>
<feOffset dy="5"/>
<feGaussianBlur stdDeviation="6.5"/>
<feComposite in2="hardAlpha" operator="out"/>
<feColorMatrix type="matrix" values="0 0 0 0 0 0 0 0 0 0 0 0 0 0 0 0 0 0 0.05 0"/>
<feBlend mode="normal" in2="BackgroundImageFix" result="effect1_dropShadow_1477_23320"/>
<feBlend mode="normal" in="SourceGraphic" in2="effect1_dropShadow_1477_23320" result="shape"/>
</filter>
<filter id="filter2_d_1477_23320" x="8.83386" y="26.7482" width="39.2756" height="29.5403" filterUnits="userSpaceOnUse" color-interpolation-filters="sRGB">
<feFlood flood-opacity="0" result="BackgroundImageFix"/>
<feColorMatrix in="SourceAlpha" type="matrix" values="0 0 0 0 0 0 0 0 0 0 0 0 0 0 0 0 0 0 127 0" result="hardAlpha"/>
<feOffset dy="5"/>
<feGaussianBlur stdDeviation="6.5"/>
<feComposite in2="hardAlpha" operator="out"/>
<feColorMatrix type="matrix" values="0 0 0 0 0 0 0 0 0 0 0 0 0 0 0 0 0 0 0.05 0"/>
<feBlend mode="normal" in2="BackgroundImageFix" result="effect1_dropShadow_1477_23320"/>
<feBlend mode="normal" in="SourceGraphic" in2="effect1_dropShadow_1477_23320" result="shape"/>
</filter>
<filter id="filter3_dd_1477_23320" x="17.1919" y="17.4875" width="26.5258" height="22.581" filterUnits="userSpaceOnUse" color-interpolation-filters="sRGB">
<feFlood flood-opacity="0" result="BackgroundImageFix"/>
<feColorMatrix in="SourceAlpha" type="matrix" values="0 0 0 0 0 0 0 0 0 0 0 0 0 0 0 0 0 0 127 0" result="hardAlpha"/>
<feOffset dy="-2.34881"/>
<feGaussianBlur stdDeviation="1.56587"/>
<feComposite in2="hardAlpha" operator="out"/>
<feColorMatrix type="matrix" values="0 0 0 0 0 0 0 0 0 0 0 0 0 0 0 0 0 0 0.05 0"/>
<feBlend mode="normal" in2="BackgroundImageFix" result="effect1_dropShadow_1477_23320"/>
<feColorMatrix in="SourceAlpha" type="matrix" values="0 0 0 0 0 0 0 0 0 0 0 0 0 0 0 0 0 0 127 0" result="hardAlpha"/>
<feOffset dy="0.782935"/>
<feGaussianBlur stdDeviation="0.782935"/>
<feComposite in2="hardAlpha" operator="out"/>
<feColorMatrix type="matrix" values="0 0 0 0 0 0 0 0 0 0 0 0 0 0 0 0 0 0 0.05 0"/>
<feBlend mode="normal" in2="effect1_dropShadow_1477_23320" result="effect2_dropShadow_1477_23320"/>
<feBlend mode="normal" in="SourceGraphic" in2="effect2_dropShadow_1477_23320" result="shape"/>
</filter>
<linearGradient id="paint0_linear_1477_23320" x1="28.4716" y1="32.7706" x2="28.4716" y2="40.5677" gradientUnits="userSpaceOnUse">
<stop stop-color="#EBEBEB"/>
<stop offset="1" stop-color="white" stop-opacity="0.11"/>
</linearGradient>
<linearGradient id="paint1_linear_1477_23320" x1="28.4717" y1="34.7482" x2="28.4717" y2="38.2885" gradientUnits="userSpaceOnUse">
<stop stop-color="#B7B7B7"/>
<stop offset="1" stop-color="#F3F3F3" stop-opacity="0.11"/>
</linearGradient>
</defs>
</svg>
