<svg width="53" height="63" viewBox="0 0 53 63" fill="none" xmlns="http://www.w3.org/2000/svg">
  <mask id="path-1-outside-1_1477_24676" maskUnits="userSpaceOnUse" x="0.936035" y="0.971313" width="52" height="62" fill="black">
  <rect fill="white" x="0.936035" y="0.971313" width="52" height="62"/>
  <path fill-rule="evenodd" clip-rule="evenodd" d="M32.2673 50.4834C43.0814 47.8984 51.1213 38.1701 51.1213 26.5639C51.1213 12.9818 40.1108 1.97131 26.5287 1.97131C12.9465 1.97131 1.93604 12.9818 1.93604 26.5639C1.93604 38.1701 9.97594 47.8985 20.7901 50.4834L26.5287 60.423L32.2673 50.4834Z"/>
  </mask>
  <path fill-rule="evenodd" clip-rule="evenodd" d="M32.2673 50.4834C43.0814 47.8984 51.1213 38.1701 51.1213 26.5639C51.1213 12.9818 40.1108 1.97131 26.5287 1.97131C12.9465 1.97131 1.93604 12.9818 1.93604 26.5639C1.93604 38.1701 9.97594 47.8985 20.7901 50.4834L26.5287 60.423L32.2673 50.4834Z" fill="#CCB7A3"/>
  <path d="M32.2673 50.4834L32.0348 49.5108L31.6164 49.6108L31.4013 49.9834L32.2673 50.4834ZM20.7901 50.4834L21.6562 49.9834L21.4411 49.6109L21.0226 49.5108L20.7901 50.4834ZM26.5287 60.423L25.6627 60.923L26.5287 62.423L27.3947 60.923L26.5287 60.423ZM50.1213 26.5639C50.1213 37.6968 42.4092 47.0309 32.0348 49.5108L32.4998 51.456C43.7537 48.7659 52.1213 38.6433 52.1213 26.5639H50.1213ZM26.5287 2.97131C39.5585 2.97131 50.1213 13.5341 50.1213 26.5639H52.1213C52.1213 12.4295 40.6631 0.971313 26.5287 0.971313V2.97131ZM2.93604 26.5639C2.93604 13.5341 13.4988 2.97131 26.5287 2.97131V0.971313C12.3942 0.971313 0.936035 12.4295 0.936035 26.5639H2.93604ZM21.0226 49.5108C10.6482 47.031 2.93604 37.6969 2.93604 26.5639H0.936035C0.936035 38.6434 9.30372 48.766 20.5577 51.456L21.0226 49.5108ZM27.3947 59.923L21.6562 49.9834L19.9241 50.9834L25.6627 60.923L27.3947 59.923ZM31.4013 49.9834L25.6627 59.923L27.3947 60.923L33.1333 50.9834L31.4013 49.9834Z" fill="white" mask="url(#path-1-outside-1_1477_24676)"/>
  </svg>
  