<svg width="22" height="18" viewBox="0 0 22 18" fill="none" xmlns="http://www.w3.org/2000/svg">
<path d="M19.8229 3.24023H16.4141L15.602 1.11211C15.5458 0.966488 15.443 0.840614 15.3075 0.751682C15.1721 0.66275 15.0105 0.615098 14.845 0.615235H7.15501C6.81663 0.615235 6.51335 0.814453 6.40055 1.11211L5.58594 3.24023H2.17708C1.06921 3.24023 0.171875 4.0793 0.171875 5.11523V15.8027C0.171875 16.8387 1.06921 17.6777 2.17708 17.6777H19.8229C20.9308 17.6777 21.8281 16.8387 21.8281 15.8027V5.11523C21.8281 4.0793 20.9308 3.24023 19.8229 3.24023ZM20.0234 15.8027C20.0234 15.9059 19.9332 15.9902 19.8229 15.9902H2.17708C2.0668 15.9902 1.97656 15.9059 1.97656 15.8027V5.11523C1.97656 5.01211 2.0668 4.92773 2.17708 4.92773H6.85674L7.28535 3.80742L7.85934 2.30273H14.1382L14.7121 3.80742L15.1408 4.92773H19.8229C19.9332 4.92773 20.0234 5.01211 20.0234 5.11523V15.8027ZM11 6.42773C8.78424 6.42773 6.98958 8.10586 6.98958 10.1777C6.98958 12.2496 8.78424 13.9277 11 13.9277C13.2158 13.9277 15.0104 12.2496 15.0104 10.1777C15.0104 8.10586 13.2158 6.42773 11 6.42773ZM11 12.4277C9.67155 12.4277 8.59375 11.4199 8.59375 10.1777C8.59375 8.93554 9.67155 7.92773 11 7.92773C12.3285 7.92773 13.4062 8.93554 13.4062 10.1777C13.4062 11.4199 12.3285 12.4277 11 12.4277Z" fill="#8A8A8A"/>
</svg>
