<svg width="34" height="50" viewBox="0 0 34 50" fill="none" xmlns="http://www.w3.org/2000/svg">
<ellipse cx="17" cy="48" rx="5" ry="2" fill="#646566"/>
<mask id="path-2-inside-1_2658_32411" fill="white">
<path fill-rule="evenodd" clip-rule="evenodd" d="M20.7298 37.5413C28.3245 35.6412 34 28.0614 34 19C34 8.50659 26.3888 0 17 0C7.61116 0 0 8.50659 0 19C0 28.0614 5.67549 35.6412 13.2702 37.5413L16.0363 47.5226C16.3071 48.4999 17.6929 48.4999 17.9637 47.5226L20.7298 37.5413Z"/>
</mask>
<path fill-rule="evenodd" clip-rule="evenodd" d="M20.7298 37.5413C28.3245 35.6412 34 28.0614 34 19C34 8.50659 26.3888 0 17 0C7.61116 0 0 8.50659 0 19C0 28.0614 5.67549 35.6412 13.2702 37.5413L16.0363 47.5226C16.3071 48.4999 17.6929 48.4999 17.9637 47.5226L20.7298 37.5413Z" fill="white"/>
<path d="M20.7298 37.5413L20.5599 36.8622L20.1642 36.9612L20.0552 37.3543L20.7298 37.5413ZM13.2702 37.5413L13.9448 37.3543L13.8358 36.9612L13.4401 36.8622L13.2702 37.5413ZM16.0363 47.5226L15.3617 47.7096H15.3617L16.0363 47.5226ZM17.9637 47.5226L17.2891 47.3357L17.9637 47.5226ZM33.3 19C33.3 27.7829 27.8034 35.05 20.5599 36.8622L20.8997 38.2203C28.8456 36.2324 34.7 28.3398 34.7 19H33.3ZM17 0.7C25.9311 0.7 33.3 8.81794 33.3 19H34.7C34.7 8.19524 26.8466 -0.7 17 -0.7V0.7ZM0.7 19C0.7 8.81794 8.06894 0.7 17 0.7V-0.7C7.15338 -0.7 -0.7 8.19524 -0.7 19H0.7ZM13.4401 36.8622C6.19658 35.05 0.7 27.7829 0.7 19H-0.7C-0.7 28.3398 5.1544 36.2324 13.1003 38.2203L13.4401 36.8622ZM16.7109 47.3357L13.9448 37.3543L12.5956 37.7282L15.3617 47.7096L16.7109 47.3357ZM17.2891 47.3357C17.2079 47.6288 16.7921 47.6289 16.7109 47.3357L15.3617 47.7096C15.8221 49.3709 18.1779 49.3709 18.6383 47.7096L17.2891 47.3357ZM20.0552 37.3543L17.2891 47.3357L18.6383 47.7096L21.4044 37.7282L20.0552 37.3543Z" fill="black" mask="url(#path-2-inside-1_2658_32411)"/>
<path d="M12.4249 27.0883C11.442 26.3178 12.0155 24.1455 12.4249 23.1556C12.6056 22.7188 12.67 22.6421 13.0392 21.5505C13.5636 19.9998 14.199 17.9869 16.1983 17.2968C18.3035 16.5701 24.6228 19.7045 25.6759 21.5505C26.9922 24.3595 23.9366 25.6436 22.9555 25.6436C22.3293 25.6436 18.9187 25.6436 17.3392 27.0883C15.7596 28.5329 13.6535 28.0514 12.4249 27.0883Z" fill="black"/>
<path d="M12.4249 27.0883C11.442 26.3178 12.0155 24.1455 12.4249 23.1556C12.6056 22.7188 12.67 22.6421 13.0392 21.5505C13.5636 19.9998 14.199 17.9869 16.1983 17.2968C18.3035 16.5701 24.6228 19.7045 25.6759 21.5505C26.9922 24.3595 23.9366 25.6436 22.9555 25.6436C22.3293 25.6436 18.9187 25.6436 17.3392 27.0883C15.7596 28.5329 13.6535 28.0514 12.4249 27.0883Z" fill="black"/>
<path d="M19.8667 12.6928C19.8949 10.6805 18.1506 10.0591 17.275 10C16.652 10 15.4132 10.5386 15.4414 12.6928C15.4767 15.3855 17.6452 16.1111 18.227 15.9982C18.8088 15.8854 19.8314 15.2081 19.8667 12.6928Z" fill="black"/>
<path d="M19.8667 12.6928C19.8949 10.6805 18.1506 10.0591 17.275 10C16.652 10 15.4132 10.5386 15.4414 12.6928C15.4767 15.3855 17.6452 16.1111 18.227 15.9982C18.8088 15.8854 19.8314 15.2081 19.8667 12.6928Z" fill="black"/>
<path d="M10.0276 14.4919C9.57633 12.5222 11.1572 11.6054 12.004 11.3932C12.6153 11.2835 13.9443 11.5939 14.3701 13.7128C14.9022 16.3614 12.927 17.4552 12.3323 17.4469C11.7376 17.4385 10.5916 16.954 10.0276 14.4919Z" fill="black"/>
<path d="M10.0276 14.4919C9.57633 12.5222 11.1572 11.6054 12.004 11.3932C12.6153 11.2835 13.9443 11.5939 14.3701 13.7128C14.9022 16.3614 12.927 17.4552 12.3323 17.4469C11.7376 17.4385 10.5916 16.954 10.0276 14.4919Z" fill="black"/>
<path d="M23.7812 14.3537C22.8362 13.4895 21.8007 13.7464 21.401 13.9829C20.7311 14.6117 20.784 15.4663 20.9074 16.4015C21.0308 17.3368 22.4765 18.0462 23.7812 17.627C25.0858 17.2078 24.9624 15.4341 23.7812 14.3537Z" fill="black"/>
<path d="M23.7812 14.3537C22.8362 13.4895 21.8007 13.7464 21.401 13.9829C20.7311 14.6117 20.784 15.4663 20.9074 16.4015C21.0308 17.3368 22.4765 18.0462 23.7812 17.627C25.0858 17.2078 24.9624 15.4341 23.7812 14.3537Z" fill="black"/>
<path d="M8.93268 18.6711C9.87768 17.8068 10.9132 18.0638 11.3128 18.3003C11.9828 18.9291 11.9299 19.7837 11.8064 20.7189C11.683 21.6541 10.2373 22.3636 8.93268 21.9444C7.62804 21.5251 7.75144 19.7515 8.93268 18.6711Z" fill="black"/>
<path d="M8.93268 18.6711C9.87768 17.8068 10.9132 18.0638 11.3128 18.3003C11.9828 18.9291 11.9299 19.7837 11.8064 20.7189C11.683 21.6541 10.2373 22.3636 8.93268 21.9444C7.62804 21.5251 7.75144 19.7515 8.93268 18.6711Z" fill="black"/>
<path d="M12.736 26.6801C11.8813 26.0101 12.38 24.121 12.736 23.2602C12.8932 22.8803 12.9492 22.8135 13.2702 21.8643C13.7263 20.5158 14.2789 18.7653 16.0176 18.1651C17.8482 17.5332 23.3438 20.259 24.2595 21.8643C25.4042 24.3071 22.747 25.4238 21.8938 25.4238C21.3492 25.4238 18.3833 25.4238 17.0096 26.6801C15.636 27.9364 13.8044 27.5177 12.736 26.6801Z" fill="black"/>
</svg>
