<svg width="21" height="21" viewBox="0 0 21 21" fill="none" xmlns="http://www.w3.org/2000/svg">
<g clip-path="url(#clip0_1705_21906)">
<path d="M6.625 8.3125C6.625 8.6606 6.48672 8.99444 6.24058 9.24058C5.99444 9.48672 5.6606 9.625 5.3125 9.625C4.9644 9.625 4.63056 9.48672 4.38442 9.24058C4.13828 8.99444 4 8.6606 4 8.3125C4 7.9644 4.13828 7.63056 4.38442 7.38442C4.63056 7.13828 4.9644 7 5.3125 7C5.6606 7 5.99444 7.13828 6.24058 7.38442C6.48672 7.63056 6.625 7.9644 6.625 8.3125ZM11.875 8.3125C11.875 8.6606 11.7367 8.99444 11.4906 9.24058C11.2444 9.48672 10.9106 9.625 10.5625 9.625C10.2144 9.625 9.88056 9.48672 9.63442 9.24058C9.38828 8.99444 9.25 8.6606 9.25 8.3125C9.25 7.9644 9.38828 7.63056 9.63442 7.38442C9.88056 7.13828 10.2144 7 10.5625 7C10.9106 7 11.2444 7.13828 11.4906 7.38442C11.7367 7.63056 11.875 7.9644 11.875 8.3125ZM17.125 8.3125C17.125 8.6606 16.9867 8.99444 16.7406 9.24058C16.4944 9.48672 16.1606 9.625 15.8125 9.625C15.4644 9.625 15.1306 9.48672 14.8844 9.24058C14.6383 8.99444 14.5 8.6606 14.5 8.3125C14.5 7.9644 14.6383 7.63056 14.8844 7.38442C15.1306 7.13828 15.4644 7 15.8125 7C16.1606 7 16.4944 7.13828 16.7406 7.38442C16.9867 7.63056 17.125 7.9644 17.125 8.3125Z" fill="#3F3F3F"/>
<path d="M18 1H3C1.89543 1 1 1.89543 1 3V13C1 14.1046 1.89543 15 3 15H5.95869C6.61132 15 7.2229 15.3184 7.59715 15.8531L10.5 20L13.4028 15.8531C13.7771 15.3184 14.3887 15 15.0413 15H18C19.1046 15 20 14.1046 20 13V3C20 1.89543 19.1046 1 18 1Z" stroke="#3F3F3F" stroke-width="1.5" stroke-linejoin="round"/>
</g>
<defs>
<clipPath id="clip0_1705_21906">
<rect width="21" height="21" fill="white"/>
</clipPath>
</defs>
</svg>
