<svg width="10" height="14" viewBox="0 0 10 14" fill="none" xmlns="http://www.w3.org/2000/svg">
<mask id="path-1-inside-1_6688_55867" fill="white">
<path fill-rule="evenodd" clip-rule="evenodd" d="M10 5.47059C10 5.49412 9.99984 5.51761 9.99951 5.54106C9.99981 5.56309 9.99998 5.58514 10 5.60719C10 7.42953 9.1733 9.36098 7.61364 11.1932C6.91323 12.0209 6.12486 12.7664 5.26307 13.416C5.18664 13.4707 5.09559 13.5 5.00227 13.5C4.90896 13.5 4.8179 13.4707 4.74148 13.416C3.8781 12.7666 3.08819 12.0211 2.38636 11.1932C0.824432 9.36098 0 7.42953 0 5.60719C2.45086e-05 5.58513 0.000188664 5.56307 0.000491965 5.54104C0.000164348 5.51759 0 5.49411 0 5.47059C0 2.72541 2.23858 0.5 5 0.5C7.76142 0.5 10 2.72541 10 5.47059ZM5.00003 7.65C6.28869 7.65 7.33336 6.63145 7.33336 5.375C7.33336 4.11855 6.28869 3.1 5.00003 3.1C3.71137 3.1 2.6667 4.11855 2.6667 5.375C2.6667 6.63145 3.71137 7.65 5.00003 7.65Z"/>
</mask>
<path fill-rule="evenodd" clip-rule="evenodd" d="M10 5.47059C10 5.49412 9.99984 5.51761 9.99951 5.54106C9.99981 5.56309 9.99998 5.58514 10 5.60719C10 7.42953 9.1733 9.36098 7.61364 11.1932C6.91323 12.0209 6.12486 12.7664 5.26307 13.416C5.18664 13.4707 5.09559 13.5 5.00227 13.5C4.90896 13.5 4.8179 13.4707 4.74148 13.416C3.8781 12.7666 3.08819 12.0211 2.38636 11.1932C0.824432 9.36098 0 7.42953 0 5.60719C2.45086e-05 5.58513 0.000188664 5.56307 0.000491965 5.54104C0.000164348 5.51759 0 5.49411 0 5.47059C0 2.72541 2.23858 0.5 5 0.5C7.76142 0.5 10 2.72541 10 5.47059ZM5.00003 7.65C6.28869 7.65 7.33336 6.63145 7.33336 5.375C7.33336 4.11855 6.28869 3.1 5.00003 3.1C3.71137 3.1 2.6667 4.11855 2.6667 5.375C2.6667 6.63145 3.71137 7.65 5.00003 7.65Z" fill="black"/>
<path d="M9.99951 5.54106L8.99961 5.52708L8.99941 5.54095L8.9996 5.55483L9.99951 5.54106ZM10 5.60719H11L11 5.60611L10 5.60719ZM7.61364 11.1932L6.85216 10.545L6.85029 10.5472L7.61364 11.1932ZM5.26307 13.416L5.84499 14.2292L5.85509 14.222L5.86501 14.2145L5.26307 13.416ZM4.74148 13.416L4.14041 14.2152L4.1499 14.2223L4.15956 14.2292L4.74148 13.416ZM2.38636 11.1932L3.14917 10.5466L3.14737 10.5444L2.38636 11.1932ZM0 5.60719L-1 5.60608V5.60719H0ZM0.000491965 5.54104L1.0004 5.5548L1.00059 5.54093L1.00039 5.52706L0.000491965 5.54104ZM10.9994 5.55505C10.9998 5.52692 11 5.49877 11 5.47059H9C9 5.48947 8.99987 5.5083 8.99961 5.52708L10.9994 5.55505ZM11 5.60611C11 5.57982 10.9998 5.55354 10.9994 5.5273L8.9996 5.55483C8.99985 5.57264 8.99998 5.59045 9 5.60827L11 5.60611ZM8.37511 11.8414C10.0382 9.88765 11 7.73485 11 5.60719H9C9 7.12422 8.30837 8.83431 6.85217 10.545L8.37511 11.8414ZM5.86501 14.2145C6.78638 13.52 7.62883 12.7233 8.37699 11.8392L6.85029 10.5472C6.19762 11.3184 5.46334 12.0127 4.66113 12.6174L5.86501 14.2145ZM5.00227 14.5C5.30587 14.5 5.60011 14.4044 5.84499 14.2292L4.68115 12.6027C4.77317 12.5369 4.8853 12.5 5.00227 12.5V14.5ZM4.15956 14.2292C4.40443 14.4044 4.69867 14.5 5.00227 14.5V12.5C5.11924 12.5 5.23138 12.5369 5.32339 12.6027L4.15956 14.2292ZM1.62356 11.8398C2.37323 12.7242 3.21733 13.5209 4.14041 14.2152L5.34255 12.6168C4.53886 12.0123 3.80315 11.318 3.14917 10.5466L1.62356 11.8398ZM-1 5.60719C-1 7.73436 -0.0409132 9.88733 1.62536 11.8419L3.14737 10.5444C1.68978 8.83463 1 7.12471 1 5.60719H-1ZM-0.999413 5.52728C-0.999775 5.55353 -0.99997 5.5798 -0.999999 5.60608L0.999999 5.6083C1.00002 5.59046 1.00015 5.57262 1.0004 5.5548L-0.999413 5.52728ZM-1 5.47059C-1 5.49877 -0.999803 5.52691 -0.99941 5.55501L1.00039 5.52706C1.00013 5.50828 1 5.48945 1 5.47059H-1ZM5 -0.5C1.69186 -0.5 -1 2.16757 -1 5.47059H1C1 3.28325 2.78529 1.5 5 1.5V-0.5ZM11 5.47059C11 2.16757 8.30814 -0.5 5 -0.5V1.5C7.21471 1.5 9 3.28325 9 5.47059H11ZM6.33336 5.375C6.33336 6.05545 5.76043 6.65 5.00003 6.65V8.65C6.81696 8.65 8.33336 7.20745 8.33336 5.375H6.33336ZM5.00003 4.1C5.76043 4.1 6.33336 4.69455 6.33336 5.375H8.33336C8.33336 3.54255 6.81696 2.1 5.00003 2.1V4.1ZM3.6667 5.375C3.6667 4.69455 4.23963 4.1 5.00003 4.1V2.1C3.1831 2.1 1.6667 3.54255 1.6667 5.375H3.6667ZM5.00003 6.65C4.23963 6.65 3.6667 6.05545 3.6667 5.375H1.6667C1.6667 7.20745 3.1831 8.65 5.00003 8.65V6.65Z" fill="black" mask="url(#path-1-inside-1_6688_55867)"/>
</svg>
