<svg width="39" height="40" viewBox="0 0 39 40" fill="none" xmlns="http://www.w3.org/2000/svg">
<rect y="0.25" width="39" height="39" rx="19.5" fill="#212122"/>
<g clip-path="url(#clip0_6834_47225)">
<path d="M31.621 23.1016C30.6219 23.1016 29.7839 22.776 29.1202 22.1182C28.4564 21.4605 28.1211 20.646 28.1211 19.669C28.1211 18.692 28.4564 17.8839 29.1202 17.2262C29.7844 16.5743 30.6219 16.2486 31.621 16.2486C32.62 16.2486 33.4517 16.5743 34.1154 17.2257C34.7792 17.8834 35.1145 18.6979 35.1145 19.6685C35.1145 20.6392 34.7792 21.46 34.1154 22.1177C33.4517 22.7755 32.62 23.1011 31.621 23.1011V23.1016ZM31.621 21.2915C32.074 21.2915 32.4526 21.1348 32.7568 20.8278C33.0609 20.5208 33.2098 20.1327 33.2098 19.669C33.2098 19.2053 33.0609 18.8236 32.7568 18.5166C32.4526 18.2096 32.074 18.0593 31.621 18.0593C31.1679 18.0593 30.7835 18.2096 30.4852 18.5166C30.181 18.8236 30.0321 19.2117 30.0321 19.669C30.0321 20.1263 30.181 20.5208 30.4852 20.8278C30.783 21.1348 31.1616 21.2915 31.621 21.2915Z" fill="white"/>
<path d="M26.1166 19.6749H25.6562V20.8347C25.3535 21.1368 24.9778 21.291 24.5287 21.291C24.0698 21.291 23.6912 21.1343 23.3934 20.8273C23.0892 20.5203 22.9403 20.1322 22.9403 19.6685C22.9403 19.2048 23.0892 18.8231 23.3934 18.5161C23.6912 18.2091 24.0698 18.0588 24.5292 18.0588H25.5044V16.2486H24.5292C23.5301 16.2486 22.6921 16.5743 22.0284 17.2257C21.3646 17.8834 21.0293 18.6979 21.0293 19.6685C21.0293 20.6392 21.3646 21.46 22.0284 22.1177C22.6921 22.7755 23.5301 23.1011 24.5287 23.1011C25.5277 23.1011 26.3589 22.7755 27.0232 22.1177C27.1842 21.9581 27.3249 21.7891 27.4475 21.6113H27.4485V19.6749H26.1171H26.1166Z" fill="white"/>
<path d="M20.709 21.2261H18.0894V16.2461H16.2339V21.2261V23.0986H18.0894H20.709V21.2261Z" fill="white"/>
<path d="M9.05891 17.232C8.39514 16.5743 7.55716 16.2486 6.5581 16.2486H3.96094V23.1011H6.5581C7.55716 23.1011 8.39514 22.7755 9.05891 22.1241C9.72268 21.4664 10.058 20.6519 10.058 19.6813C10.058 18.7106 9.72268 17.8898 9.05891 17.232ZM7.69391 20.8337C7.39609 21.1407 7.01748 21.291 6.5581 21.291V21.2925H5.81647V18.0573H6.5581V18.0588C7.01748 18.0588 7.3956 18.2155 7.69391 18.5225C7.99805 18.8295 8.14696 19.2176 8.14696 19.6813C8.14696 20.145 7.99805 20.5267 7.69391 20.8337Z" fill="white"/>
<path d="M14.2313 18.0588H15.2065V16.2486H14.2313C13.2323 16.2486 12.3943 16.5743 11.7305 17.2257C11.0667 17.8834 10.7314 18.6979 10.7314 19.6685C10.7314 20.6392 11.0667 21.46 11.7305 22.1177C12.3943 22.7755 13.2323 23.1011 14.2313 23.1011H15.2065V21.291H14.2313C13.7719 21.291 13.3938 21.1343 13.0955 20.8273C13.0186 20.7497 12.952 20.6672 12.895 20.5792H15.2065V18.7706H12.8911C12.949 18.6807 13.0167 18.5957 13.0955 18.5161C13.3933 18.2091 13.7719 18.0588 14.2313 18.0588Z" fill="white"/>
</g>
<defs>
<clipPath id="clip0_6834_47225">
<rect width="31.1543" height="6.85547" fill="white" transform="translate(3.96094 16.2461)"/>
</clipPath>
</defs>
</svg>
