<svg width="105" height="24" viewBox="0 0 105 24" fill="none" xmlns="http://www.w3.org/2000/svg">
<path d="M93.2239 23.9992C89.8568 23.9992 87.0325 22.8591 84.7954 20.5564C82.5583 18.2537 81.4282 15.4025 81.4282 11.982C81.4282 8.56155 82.5583 5.73266 84.7954 3.43C87.0341 1.14797 89.8568 0.0078125 93.2239 0.0078125C96.5911 0.0078125 99.394 1.14797 101.631 3.42828C103.868 5.73094 104.998 8.58219 104.998 11.9803C104.998 15.3784 103.868 18.252 101.631 20.5547C99.394 22.8573 96.5911 23.9975 93.2239 23.9975V23.9992ZM93.2239 17.6622C94.7509 17.6622 96.0269 17.1136 97.0519 16.0388C98.077 14.964 98.5789 13.6054 98.5789 11.982C98.5789 10.3586 98.077 9.02243 97.0519 7.94762C96.0269 6.87282 94.7509 6.34659 93.2239 6.34659C91.697 6.34659 90.4013 6.87282 89.3959 7.94762C88.3708 9.02243 87.8689 10.381 87.8689 11.982C87.8689 13.583 88.3708 14.964 89.3959 16.0388C90.3996 17.1136 91.6756 17.6622 93.2239 17.6622Z" fill="black"/>
<path d="M74.6711 12.0027H73.1196V16.0628C72.0994 17.1205 70.8333 17.6604 69.3194 17.6604C67.7728 17.6604 66.4968 17.1119 65.4931 16.037C64.468 14.9622 63.9661 13.6037 63.9661 11.9803C63.9661 10.3569 64.468 9.02071 65.4931 7.9459C66.4968 6.8711 67.7728 6.34487 69.3211 6.34487H72.6079V0.0078125H69.3211C65.9539 0.0078125 63.1297 1.14797 60.8925 3.42828C58.6554 5.73094 57.5254 8.58219 57.5254 11.9803C57.5254 15.3784 58.6554 18.252 60.8925 20.5547C63.1297 22.8573 65.9539 23.9975 69.3194 23.9975C72.6866 23.9975 75.4879 22.8573 77.7267 20.5547C78.2695 19.9958 78.7435 19.4042 79.1568 18.7817H79.1601V12.0027H74.6728H74.6711Z" fill="black"/>
<path d="M56.446 17.4342H47.6173V0H41.3635V17.4342V23.9897H47.6173H56.446V17.4342Z" fill="black"/>
<path d="M17.1818 3.45063C14.9447 1.14797 12.1204 0.0078125 8.75328 0.0078125H0V23.9975H8.75328C12.1204 23.9975 14.9447 22.8573 17.1818 20.577C19.4189 18.2744 20.549 15.4231 20.549 12.025C20.549 8.6269 19.4189 5.7533 17.1818 3.45063ZM12.5813 16.0594C11.5776 17.1342 10.3015 17.6604 8.75328 17.6604V17.6656H6.25375V6.33971H8.75328V6.34487C10.3015 6.34487 11.5759 6.89345 12.5813 7.96826C13.6064 9.04307 14.1082 10.4016 14.1082 12.025C14.1082 13.6484 13.6064 14.9846 12.5813 16.0594Z" fill="black"/>
<path d="M34.6145 6.34487H37.9013V0.0078125H34.6145C31.2474 0.0078125 28.4231 1.14797 26.186 3.42828C23.9489 5.73094 22.8188 8.58219 22.8188 11.9803C22.8188 15.3784 23.9489 18.252 26.186 20.5547C28.4231 22.8573 31.2474 23.9975 34.6145 23.9975H37.9013V17.6604H34.6145C33.0663 17.6604 31.7919 17.1119 30.7865 16.037C30.5274 15.7653 30.3027 15.4764 30.1108 15.1686H37.9013V8.8367H30.0977C30.2928 8.522 30.5208 8.22449 30.7865 7.9459C31.7903 6.8711 33.0663 6.34487 34.6145 6.34487Z" fill="black"/>
</svg>
