<svg width="335" height="335" viewBox="0 0 335 335" fill="none" xmlns="http://www.w3.org/2000/svg">
<g clip-path="url(#clip0_3107_35103)">
<rect width="335" height="335" rx="4" fill="#E5E5E5"/>
<g clip-path="url(#clip1_3107_35103)">
<path d="M203.508 206.756C201.813 203.689 198.951 198.336 202.786 186.769C203.147 185.679 200.971 185.824 201.701 183.499C203.87 176.594 211.097 171.143 214.711 169.326C217.187 168.083 219.771 169.326 220.855 168.236C222.539 166.543 220.855 166.056 223.384 164.602C225.003 163.672 228.953 165.191 231.696 164.966C233.059 164.853 231.002 162.469 233.865 162.058C236.394 161.695 238.563 163.149 239.296 163.479C243.257 165.26 244.287 162.792 247.597 162.422C257.354 161.332 270.003 167.146 272.894 180.591C273.931 185.421 272.894 188.223 274.701 190.403C279.066 195.669 290.164 206.908 289.518 220.565C289.518 220.565 298.914 222.382 311.201 220.565C323.488 218.748 324.21 217.658 337.22 219.838C337.22 219.838 341.918 208.936 350.591 209.663C361.809 210.604 363.963 222.745 359.987 228.196C357.787 231.212 355.651 232.557 355.651 232.557C355.651 232.557 357.458 234.01 361.072 240.915C364.685 247.819 361.794 251.09 368.661 255.087C372.401 257.264 383.242 261.181 387.453 263.809C397.933 270.35 402.074 279.533 399.017 286.702C396.849 291.79 392.151 295.787 385.284 295.424C364.635 294.33 351.744 280.735 341.195 281.251C321.619 282.211 277.252 285.961 268.196 285.612C259.14 285.263 234.208 309.222 219.644 309C211.097 308.869 206.808 302.408 206.038 298.694C204.231 289.973 213.988 280.161 220.132 273.984C229.951 264.11 221.577 251.453 221.577 251.453C221.577 251.453 212.203 254.567 199.172 244.549C186.885 235.1 192.486 218.344 200.979 214.75C207.845 211.843 204.52 208.591 203.508 206.756Z" fill="white"/>
<path d="M216.157 218.384C218.951 218.384 221.216 215.537 221.216 212.025C221.216 208.513 218.951 205.666 216.157 205.666C213.363 205.666 211.098 208.513 211.098 212.025C211.098 215.537 213.363 218.384 216.157 218.384Z" fill="black"/>
<path d="M215.326 210.42C215.726 209.381 215.372 208.275 214.535 207.948C213.697 207.622 212.694 208.199 212.293 209.238C211.893 210.276 212.247 211.383 213.085 211.709C213.922 212.036 214.925 211.458 215.326 210.42Z" fill="white"/>
<path d="M197.726 215.841C197.726 215.841 190.137 219.838 190.007 223.25C189.873 226.742 191.944 228.923 194.835 229.286C198.796 229.784 199.533 220.928 199.533 218.021C199.533 215.114 197.726 215.841 197.726 215.841Z" fill="black"/>
<path d="M251.572 218.508C251.572 218.508 257.882 228.338 264.929 230.624C267.694 231.521 275.062 231.968 275.062 231.968C275.062 231.968 270.455 233.763 264.007 232.415C256.31 230.809 251.572 218.504 251.572 218.504V218.508Z" fill="#E0DEDE"/>
</g>
<rect x="39" y="61" width="169" height="82" rx="19" fill="white"/>
<path d="M76.256 117.872V116.512H74V110.784H72.352V125.232H74V117.872H76.256ZM67.872 114.352V111.984H66.224V114.352C66.224 117.024 64.832 119.76 62.56 120.864L63.568 122.192C65.232 121.344 66.432 119.664 67.056 117.664C67.68 119.6 68.832 121.104 70.384 121.92L71.392 120.608C69.232 119.552 67.872 116.928 67.872 114.352ZM89.4388 121.312V110.8H87.7908V121.312H89.4388ZM85.6148 119.376L86.4468 118.08C84.2228 117.36 82.9108 115.616 82.9108 113.76V113.232H85.9988V111.904H78.0948V113.232H81.2308V113.76C81.2308 115.696 79.9348 117.584 77.6468 118.352L78.5108 119.632C80.2388 119.056 81.4548 117.824 82.0948 116.288C82.7348 117.712 83.9508 118.816 85.6148 119.376ZM89.8548 123.616H81.6628V120.352H79.9988V124.96H89.8548V123.616ZM98.7815 115.984C102.094 115.984 103.934 115.104 103.934 113.504C103.934 111.888 102.094 111.008 98.7815 111.008C95.4535 111.008 93.6295 111.888 93.6295 113.504C93.6295 115.104 95.4535 115.984 98.7815 115.984ZM98.7815 112.24C101.038 112.24 102.222 112.672 102.222 113.504C102.222 114.32 101.038 114.752 98.7815 114.752C96.5255 114.752 95.3415 114.32 95.3415 113.504C95.3415 112.672 96.5255 112.24 98.7815 112.24ZM105.326 116.832H92.2375V118.144H105.326V116.832ZM95.4535 123.84V122.64H103.678V119.184H93.7895V120.432H102.062V121.472H93.8215V125.104H104.094V123.84H95.4535ZM121.926 115.808V110.992H120.294V112.192H113.862V110.992H112.23V115.808H121.926ZM120.294 113.408V114.56H113.862V113.408H120.294ZM117.894 118.112H123.622V116.8H110.518V118.112H116.23V119.296H112.07V120.528H120.358V121.552H112.118V125.104H122.39V123.84H113.75V122.704H121.974V119.296H117.894V118.112ZM137.237 110.752H135.589V116.176H133.061V117.536H135.589V125.248H137.237V110.752ZM127.397 120.48V117.296H132.229V112.064H125.749V113.392H130.613V115.968H125.781V121.84H126.917C129.445 121.84 131.317 121.776 133.477 121.392L133.333 120.048C131.365 120.384 129.605 120.48 127.397 120.48ZM153.044 116.864H147.316V115.904C150.132 115.76 151.668 114.896 151.668 113.424C151.668 111.808 149.828 110.928 146.516 110.928C143.188 110.928 141.364 111.808 141.364 113.424C141.364 114.896 142.868 115.728 145.668 115.904V116.864H139.972V118.192H153.044V116.864ZM143.076 113.424C143.076 112.592 144.26 112.16 146.516 112.16C148.772 112.16 149.956 112.592 149.956 113.424C149.956 114.256 148.772 114.688 146.516 114.688C144.26 114.688 143.076 114.256 143.076 113.424ZM143.188 123.84V122.656H151.412V119.184H141.524V120.432H149.796V121.488H141.556V125.104H151.828V123.84H143.188ZM167.059 110.784H165.475V125.232H167.059V110.784ZM162.451 111.136V116.528H160.323C160.755 115.296 160.931 113.968 160.931 112.56H155.315V113.888H159.299C159.059 116.848 157.635 119.216 154.627 121.008L155.571 122.176C157.571 120.96 158.947 119.52 159.795 117.856H162.451V124.544H164.003V111.136H162.451ZM182.513 122.112H179.425V118.352C180.577 117.696 181.265 116.672 181.265 115.392C181.265 113.088 179.025 111.616 175.953 111.616C172.865 111.616 170.641 113.088 170.641 115.392C170.641 116.672 171.329 117.712 172.481 118.352V122.112H169.425V123.456H182.513V122.112ZM175.953 112.912C178.129 112.912 179.649 113.872 179.649 115.392C179.649 116.928 178.129 117.888 175.953 117.888C173.761 117.888 172.241 116.928 172.241 115.392C172.241 113.872 173.761 112.912 175.953 112.912ZM174.129 122.112V118.976C174.689 119.104 175.297 119.168 175.953 119.168C176.593 119.168 177.217 119.104 177.777 118.96V122.112H174.129Z" fill="black"/>
<circle cx="181" cy="143" r="10" fill="white"/>
<circle cx="196" cy="162" r="6" fill="white"/>
<path d="M111.64 80.78H101.5V90.48H111.64V87.1H114.72V91.24H117.5V80.68H114.72V84.38H111.64V80.78ZM102.3 96.04C102.3 98 103.9 99.6 105.86 99.6H114C115.96 99.6 117.56 98 117.56 96.04C117.56 94.08 115.96 92.48 114 92.48H105.86C103.9 92.48 102.3 94.08 102.3 96.04ZM105 96.04C105 95.52 105.36 95 105.9 95H113.96C114.5 95 114.86 95.52 114.86 96.04C114.86 96.56 114.5 97.08 113.96 97.08H105.9C105.36 97.08 105 96.56 105 96.04ZM108.84 87.76H104.34V83.52H108.84V87.76ZM130.839 80.78H120.699V90.48H130.839V87.1H133.919V91.24H136.699V80.68H133.919V84.38H130.839V80.78ZM121.499 96.04C121.499 98 123.099 99.6 125.059 99.6H133.199C135.159 99.6 136.759 98 136.759 96.04C136.759 94.08 135.159 92.48 133.199 92.48H125.059C123.099 92.48 121.499 94.08 121.499 96.04ZM124.199 96.04C124.199 95.52 124.559 95 125.099 95H133.159C133.699 95 134.059 95.52 134.059 96.04C134.059 96.56 133.699 97.08 133.159 97.08H125.099C124.559 97.08 124.199 96.56 124.199 96.04ZM128.039 87.76H123.539V83.52H128.039V87.76ZM143.658 80.9H140.718V94.72H143.658V80.9ZM143.658 96.1H140.718V99.02H143.658V96.1Z" fill="black"/>
</g>
<defs>
<clipPath id="clip0_3107_35103">
<rect width="335" height="335" fill="white"/>
</clipPath>
<clipPath id="clip1_3107_35103">
<rect width="210" height="147" fill="white" transform="translate(190 162)"/>
</clipPath>
</defs>
</svg>
