<svg width="21" height="21" viewBox="0 0 21 21" fill="none" xmlns="http://www.w3.org/2000/svg">
  <path fill-rule="evenodd" clip-rule="evenodd" d="M18.4836 11.0404C19.3156 11.614 20.0435 12.2445 20.396 12.8524L20.4085 12.874L20.4193 12.8966C20.8185 13.7347 20.9081 14.5107 20.7482 15.2054C20.5898 15.8937 20.201 16.4404 19.7497 16.8537C19.3003 17.2653 18.7728 17.5604 18.2911 17.7532C17.8186 17.9422 17.34 18.0526 16.9749 18.0526C16.649 18.0526 15.618 18.053 14.4705 18.2336C13.2958 18.4185 12.1259 18.7746 11.4283 19.4022C9.45205 21.1802 6.8683 20.5464 5.4233 19.4321C4.62632 18.8175 4.553 17.7406 4.63159 16.9176C4.71518 16.0421 4.99716 15.1548 5.23111 14.5984C5.27693 14.4895 5.31517 14.4029 5.35168 14.3203C5.4723 14.0472 5.5741 13.8168 5.86821 12.9614C5.8883 12.903 5.9087 12.8433 5.92949 12.7824C6.4595 11.2312 7.2424 8.93975 9.60604 8.13711C10.3407 7.88765 11.3267 7.98955 12.3053 8.22413C13.315 8.46616 14.4366 8.88008 15.51 9.37394C16.5844 9.86824 17.629 10.4511 18.4836 11.0404ZM12.0173 9.4254C11.0754 9.19962 10.3855 9.17699 10.0032 9.30681C8.22314 9.91129 7.62161 11.6609 7.04285 13.3443L7.03639 13.3631C6.72538 14.2676 6.60778 14.5338 6.48348 14.8152C6.44774 14.8961 6.41145 14.9783 6.36984 15.0772C6.16932 15.5541 5.92982 16.3173 5.86129 17.035C5.78776 17.8051 5.93168 18.2642 6.17766 18.4539C7.34003 19.3503 9.22603 19.7218 10.6021 18.4838C11.5807 17.6034 13.0584 17.2054 14.2784 17.0133C15.5235 16.8173 16.6326 16.8173 16.9732 16.8173H16.9749C17.1305 16.8173 17.4476 16.7602 17.8322 16.6063C18.2076 16.4561 18.5987 16.2328 18.9154 15.9427C19.2302 15.6544 19.4552 15.3162 19.5444 14.9284C19.631 14.552 19.6039 14.0684 19.3154 13.4519C19.1012 13.0977 18.5766 12.6049 17.7824 12.0574C16.9955 11.5149 16.0146 10.9659 14.9937 10.4962C13.9717 10.026 12.9282 9.64372 12.0173 9.4254Z" fill="black"/>
  <path fill-rule="evenodd" clip-rule="evenodd" d="M10.1591 2.09669C9.88855 2.37656 9.60553 2.90894 9.61883 3.90792C9.635 5.12293 10.1302 5.84322 10.6477 6.25744C10.9143 6.47082 11.1938 6.60809 11.4307 6.68497C11.549 6.72334 11.6509 6.74479 11.7294 6.75438C11.7982 6.7628 11.8339 6.76028 11.841 6.75979C11.99 6.73134 12.2734 6.61784 12.5337 6.2347C12.7989 5.84449 13.0619 5.14091 13.0795 3.90734C13.0914 3.07186 12.7426 2.56468 12.3105 2.2398C11.8603 1.90135 11.3015 1.75232 10.9286 1.72319C10.7486 1.72863 10.4319 1.81445 10.1591 2.09669ZM9.27086 1.23818C9.80365 0.686961 10.4622 0.48761 10.9469 0.48761H10.9674L10.9879 0.488968C11.5445 0.525943 12.3619 0.732967 13.0528 1.25246C13.771 1.79245 14.3327 2.65984 14.3146 3.92494C14.2948 5.31709 13.9965 6.27984 13.5555 6.92898C13.1096 7.58519 12.5413 7.88393 12.0729 7.97331C11.7729 8.03058 11.3983 7.97313 11.0495 7.85996C10.6801 7.74011 10.2663 7.53444 9.87575 7.22184C9.07898 6.58409 8.40489 5.52024 8.38364 3.92436C8.36701 2.67464 8.72631 1.80157 9.27086 1.23818Z" fill="black"/>
  <path fill-rule="evenodd" clip-rule="evenodd" d="M6.33491 3.39317C6.66074 3.6213 7.05336 4.09594 7.25444 5.08041C7.49908 6.27812 7.16625 7.07193 6.74728 7.56776C6.53146 7.82318 6.28684 8.00598 6.07139 8.12213C5.96382 8.18012 5.8688 8.21865 5.79429 8.24152C5.73006 8.26123 5.69517 8.26502 5.68794 8.26581C5.53757 8.26373 5.23582 8.20224 4.8978 7.8708C4.55336 7.53308 4.14417 6.88703 3.86271 5.67844C3.67157 4.85772 3.90662 4.29835 4.26072 3.90515C4.62949 3.49566 5.14495 3.25319 5.50338 3.16026C5.67939 3.1348 6.00711 3.16366 6.33491 3.39317ZM7.03078 2.40283C6.38995 1.95416 5.69983 1.87191 5.22206 1.95624L5.20173 1.95982L5.18173 1.96475C4.6422 2.09774 3.88347 2.44302 3.31623 3.07291C2.72664 3.72761 2.36235 4.6748 2.65006 5.91018C2.96714 7.27173 3.46524 8.16363 4.03623 8.7235C4.61363 9.28966 5.23567 9.48518 5.71634 9.4918C6.02476 9.49605 6.38125 9.3742 6.69965 9.20254C7.03703 9.02066 7.39945 8.74685 7.71593 8.37231C8.36156 7.60823 8.79438 6.44875 8.4743 4.88167C8.22361 3.65431 7.6852 2.86103 7.03078 2.40283Z" fill="black"/>
  <path fill-rule="evenodd" clip-rule="evenodd" d="M15.6924 5.76669C15.2932 6.17744 15.2837 6.73797 15.4134 7.70522C15.4389 7.8956 15.6359 8.18521 16.105 8.39194C16.5516 8.58872 17.1265 8.64769 17.6646 8.47762C18.0492 8.35602 18.2333 8.06636 18.2225 7.63226C18.2109 7.16608 17.956 6.57525 17.4376 6.10887C16.7336 5.47544 15.9952 5.62273 15.6924 5.76669ZM15.0143 4.72879C15.6058 4.38448 17.0112 4.06356 18.2638 5.19054C18.9989 5.85189 19.4362 6.75067 19.4574 7.60157C19.4793 8.48456 19.0366 9.33945 18.0369 9.65547C17.1905 9.92302 16.3062 9.83051 15.6069 9.52234C14.9301 9.22412 14.2945 8.65532 14.1891 7.86946C14.0623 6.92434 13.934 5.70631 14.9061 4.80878L14.9558 4.76285L15.0143 4.72879Z" fill="black"/>
  <path fill-rule="evenodd" clip-rule="evenodd" d="M4.25306 10.2737C4.65222 10.6844 4.6618 11.245 4.53205 12.2122C4.50651 12.4026 4.30959 12.6922 3.84046 12.8989C3.3939 13.0957 2.81893 13.1547 2.28091 12.9846C1.89623 12.863 1.7122 12.5734 1.72299 12.1393C1.73458 11.6731 1.98947 11.0822 2.50785 10.6159C3.2119 9.98245 3.95031 10.1297 4.25306 10.2737ZM1.68164 9.69754C0.946549 10.3589 0.509231 11.2577 0.488081 12.1086C0.466133 12.9916 0.908839 13.8464 1.90858 14.1625C2.75498 14.43 3.63926 14.3375 4.33859 14.0293C5.01534 13.7311 5.65095 13.1623 5.75637 12.3765C5.88316 11.4313 6.01146 10.2133 5.03939 9.31579L4.98965 9.26986L4.93114 9.2358C4.33969 8.89148 2.93427 8.57056 1.68164 9.69754Z" fill="black"/>
  </svg>
  