<svg width="11" height="12" viewBox="0 0 11 12" fill="none" xmlns="http://www.w3.org/2000/svg">
<path d="M2.58843 10.6542C2.0135 10.2109 2.34892 8.96082 2.58843 8.39121C2.69414 8.13982 2.73178 8.09568 2.94776 7.46752C3.25455 6.57522 3.62625 5.41691 4.79578 5.01977C6.02721 4.6016 9.72382 6.40529 10.3398 7.46752C11.1098 9.08397 9.32241 9.82291 8.74848 9.82291C8.38218 9.82291 6.38712 9.82291 5.46311 10.6542C4.53911 11.4855 3.30711 11.2084 2.58843 10.6542Z" fill="#646566"/>
<path d="M6.94193 2.37033C6.95843 1.21236 5.93811 0.854825 5.42588 0.820801C5.06148 0.820801 4.3368 1.13071 4.3533 2.37033C4.37393 3.91986 5.64246 4.33739 5.98279 4.27244C6.32313 4.20749 6.9213 3.81779 6.94193 2.37033Z" fill="#646566"/>
<path d="M1.18707 3.40593C0.923104 2.27248 1.84784 1.74492 2.34321 1.62282C2.70079 1.55971 3.47823 1.73831 3.72727 2.95761C4.03858 4.48173 2.88312 5.11115 2.53525 5.10636C2.18738 5.10156 1.51702 4.82275 1.18707 3.40593Z" fill="#646566"/>
<path d="M9.23173 3.32633C8.67894 2.82899 8.07321 2.97684 7.83944 3.11293C7.44753 3.47478 7.47849 3.96657 7.55068 4.50473C7.62288 5.04289 8.46856 5.45115 9.23173 5.2099C9.99491 4.96866 9.92272 3.94801 9.23173 3.32633Z" fill="#646566"/>
<path d="M0.545609 5.80973C1.0984 5.31239 1.70413 5.46023 1.9379 5.59632C2.32981 5.95818 2.29885 6.44997 2.22666 6.98813C2.15447 7.52629 1.30878 7.93455 0.545609 7.6933C-0.217566 7.45206 -0.145379 6.4314 0.545609 5.80973Z" fill="#646566"/>
</svg>
