<svg width="11" height="12" viewBox="0 0 11 12" fill="none" xmlns="http://www.w3.org/2000/svg">
<path d="M2.58892 10.6545C2.01399 10.2111 2.34941 8.96107 2.58892 8.39145C2.69463 8.14006 2.73227 8.09592 2.94825 7.46777C3.25504 6.57547 3.62674 5.41716 4.79626 5.02001C6.0277 4.60185 9.72431 6.40554 10.3403 7.46777C11.1103 9.08421 9.3229 9.82316 8.74897 9.82316C8.38267 9.82316 6.38761 9.82316 5.4636 10.6545C4.53959 11.4858 3.30759 11.2087 2.58892 10.6545Z" fill="black"/>
<path d="M6.94241 2.37042C6.95892 1.21246 5.9386 0.854916 5.42637 0.820892C5.06197 0.820892 4.33729 1.1308 4.35379 2.37042C4.37442 3.91995 5.64294 4.33748 5.98328 4.27253C6.32362 4.20758 6.92178 3.81788 6.94241 2.37042Z" fill="black"/>
<path d="M1.18755 3.40581C0.923592 2.27236 1.84833 1.7448 2.3437 1.6227C2.70128 1.55959 3.47871 1.73819 3.72776 2.95749C4.03907 4.48161 2.88361 5.11103 2.53574 5.10623C2.18787 5.10144 1.51751 4.82263 1.18755 3.40581Z" fill="black"/>
<path d="M9.23222 3.32633C8.67943 2.82899 8.0737 2.97684 7.83993 3.11293C7.44802 3.47478 7.47898 3.96657 7.55117 4.50473C7.62336 5.04289 8.46905 5.45115 9.23222 5.2099C9.9954 4.96866 9.92321 3.94801 9.23222 3.32633Z" fill="black"/>
<path d="M0.546097 5.80994C1.09889 5.31261 1.70462 5.46045 1.93839 5.59654C2.3303 5.95839 2.29934 6.45018 2.22715 6.98834C2.15496 7.5265 1.30927 7.93476 0.546097 7.69352C-0.217078 7.45227 -0.144891 6.43162 0.546097 5.80994Z" fill="black"/>
</svg>
