<svg width="21" height="22" viewBox="0 0 21 22" fill="none" xmlns="http://www.w3.org/2000/svg">
<path d="M5.07996 20.2952C3.95173 19.4252 4.60996 16.9722 5.07996 15.8544C5.28739 15.3611 5.36127 15.2744 5.78508 14.0418C6.38712 12.2907 7.11653 10.0177 9.41156 9.23839C11.8281 8.41779 19.0822 11.9573 20.291 14.0418C21.802 17.2138 18.2944 18.6639 17.1682 18.6639C16.4494 18.6639 12.5344 18.6639 10.7211 20.2952C8.90788 21.9265 6.49025 21.3828 5.07996 20.2952Z" fill="#212122"/>
<path d="M5.07996 20.2952C3.95173 19.4252 4.60996 16.9722 5.07996 15.8544C5.28739 15.3611 5.36127 15.2744 5.78508 14.0418C6.38712 12.2907 7.11653 10.0177 9.41156 9.23839C11.8281 8.41779 19.0822 11.9573 20.291 14.0418C21.802 17.2138 18.2944 18.6639 17.1682 18.6639C16.4494 18.6639 12.5344 18.6639 10.7211 20.2952C8.90788 21.9265 6.49025 21.3828 5.07996 20.2952Z" fill="#212122"/>
<path d="M13.6233 4.04074C13.6557 1.76839 11.6535 1.06677 10.6483 1C9.93321 1 8.51113 1.60815 8.54351 4.04074C8.58399 7.08148 11.0733 7.90082 11.7412 7.77337C12.409 7.64591 13.5828 6.88118 13.6233 4.04074Z" fill="#212122"/>
<path d="M13.6233 4.04074C13.6557 1.76839 11.6535 1.06677 10.6483 1C9.93321 1 8.51113 1.60815 8.54351 4.04074C8.58399 7.08148 11.0733 7.90082 11.7412 7.77337C12.409 7.64591 13.5828 6.88118 13.6233 4.04074Z" fill="#212122"/>
<path d="M2.32934 6.07077C1.81135 3.84653 3.62603 2.81126 4.59811 2.57165C5.29982 2.44781 6.82543 2.79829 7.31415 5.19099C7.92504 8.18187 5.65761 9.41701 4.97497 9.40761C4.29233 9.39821 2.97683 8.85107 2.32934 6.07077Z" fill="#212122"/>
<path d="M2.32934 6.07077C1.81135 3.84653 3.62603 2.81126 4.59811 2.57165C5.29982 2.44781 6.82543 2.79829 7.31415 5.19099C7.92504 8.18187 5.65761 9.41701 4.97497 9.40761C4.29233 9.39821 2.97683 8.85107 2.32934 6.07077Z" fill="#212122"/>
<path d="M18.1163 5.91507C17.0315 4.93912 15.8429 5.22924 15.3841 5.49629C14.6151 6.20638 14.6758 7.17145 14.8175 8.22752C14.9591 9.28358 16.6187 10.0847 18.1163 9.61132C19.6139 9.13792 19.4723 7.13502 18.1163 5.91507Z" fill="#212122"/>
<path d="M18.1163 5.91507C17.0315 4.93912 15.8429 5.22924 15.3841 5.49629C14.6151 6.20638 14.6758 7.17145 14.8175 8.22752C14.9591 9.28358 16.6187 10.0847 18.1163 9.61132C19.6139 9.13792 19.4723 7.13502 18.1163 5.91507Z" fill="#212122"/>
<path d="M1.0712 10.7901C2.15597 9.81412 3.34464 10.1042 3.80338 10.3713C4.57244 11.0814 4.51169 12.0465 4.37003 13.1025C4.22836 14.1586 2.56882 14.9597 1.0712 14.4863C-0.426428 14.0129 -0.28477 12.01 1.0712 10.7901Z" fill="#212122"/>
<path d="M1.0712 10.7901C2.15597 9.81412 3.34464 10.1042 3.80338 10.3713C4.57244 11.0814 4.51169 12.0465 4.37003 13.1025C4.22836 14.1586 2.56882 14.9597 1.0712 14.4863C-0.426428 14.0129 -0.28477 12.01 1.0712 10.7901Z" fill="#212122"/>
<path fill-rule="evenodd" clip-rule="evenodd" d="M7.70312 10.6622C7.97568 10.4799 8.27862 10.3255 8.61691 10.2061C10.9419 9.38549 17.9213 12.925 19.0844 15.0095C19.7154 16.3862 19.4368 17.4386 18.8307 18.1888C19.921 17.4735 20.8303 16.1794 19.9436 14.2449C18.7806 12.1604 11.8012 8.62092 9.47617 9.44151C8.73155 9.70432 8.15822 10.137 7.70312 10.6622Z" fill="#212122"/>
<g filter="url(#filter0_f_2485_30778)">
<path fill-rule="evenodd" clip-rule="evenodd" d="M10.6161 1.40234C11.525 1.46272 13.3355 2.09714 13.3062 4.15184C13.283 5.77938 12.8483 6.65325 12.3792 7.1044C12.6309 6.59368 12.813 5.86231 12.8278 4.82449C12.8571 2.76978 11.0466 2.13536 10.1377 2.07499C9.83345 2.07499 9.38763 2.19675 9.00391 2.55488C9.41615 1.6653 10.169 1.40234 10.6161 1.40234Z" fill="#212122"/>
</g>
<g filter="url(#filter1_f_2485_30778)">
<path fill-rule="evenodd" clip-rule="evenodd" d="M4.43492 3.04297C5.35837 3.10278 7.19784 3.73131 7.16808 5.76693C7.14451 7.37929 6.70288 8.24503 6.22636 8.69201C6.48202 8.18603 6.66704 7.46147 6.68207 6.43334C6.71182 4.39772 4.87235 3.76919 3.9489 3.70938C3.63975 3.70938 3.18676 3.83002 2.79688 4.18485C3.21571 3.30349 3.98062 3.04297 4.43492 3.04297Z" fill="#212122"/>
</g>
<g filter="url(#filter2_f_2485_30778)">
<path fill-rule="evenodd" clip-rule="evenodd" d="M16.5256 5.55078C17.2558 5.59247 18.7102 6.03051 18.6867 7.44919C18.668 8.57294 18.3188 9.17631 17.942 9.48781C18.1442 9.13518 18.2905 8.63021 18.3024 7.91366C18.3259 6.49497 16.8715 6.05693 16.1413 6.01525C15.8969 6.01525 15.5387 6.09932 15.2305 6.34658C15.5616 5.73234 16.1664 5.55078 16.5256 5.55078Z" fill="#212122"/>
</g>
<g filter="url(#filter3_f_2485_30778)">
<path fill-rule="evenodd" clip-rule="evenodd" d="M2.36131 10.4375C2.94821 10.4784 4.11729 10.9087 4.09838 12.3022C4.0834 13.4062 3.80264 13.9988 3.49973 14.3048C3.66225 13.9584 3.77987 13.4623 3.78942 12.7584C3.80833 11.3649 2.63926 10.9346 2.05235 10.8937C1.85591 10.8937 1.56808 10.9763 1.32031 11.2191C1.58652 10.6158 2.0726 10.4375 2.36131 10.4375Z" fill="#212122"/>
</g>
<path d="M5.43625 19.834C4.4551 19.0774 5.02752 16.9442 5.43625 15.9721C5.61663 15.5431 5.68088 15.4678 6.04945 14.3958C6.573 12.8731 7.20731 10.8964 9.20315 10.2187C11.3046 9.50507 17.613 12.5831 18.6642 14.3958C19.9783 17.1544 16.928 18.4154 15.9486 18.4154C15.3235 18.4154 11.9188 18.4154 10.342 19.834C8.76513 21.2527 6.66268 20.7798 5.43625 19.834Z" fill="#212122"/>
<defs>
<filter id="filter0_f_2485_30778" x="7.94985" y="0.34829" width="6.40889" height="7.81123" filterUnits="userSpaceOnUse" color-interpolation-filters="sRGB">
<feFlood flood-opacity="0" result="BackgroundImageFix"/>
<feBlend mode="normal" in="SourceGraphic" in2="BackgroundImageFix" result="shape"/>
<feGaussianBlur stdDeviation="0.527027" result="effect1_foregroundBlur_2485_30778"/>
</filter>
<filter id="filter1_f_2485_30778" x="1.74282" y="1.98891" width="6.4792" height="7.75655" filterUnits="userSpaceOnUse" color-interpolation-filters="sRGB">
<feFlood flood-opacity="0" result="BackgroundImageFix"/>
<feBlend mode="normal" in="SourceGraphic" in2="BackgroundImageFix" result="shape"/>
<feGaussianBlur stdDeviation="0.527027" result="effect1_foregroundBlur_2485_30778"/>
</filter>
<filter id="filter2_f_2485_30778" x="14.1764" y="4.49673" width="5.56514" height="6.04561" filterUnits="userSpaceOnUse" color-interpolation-filters="sRGB">
<feFlood flood-opacity="0" result="BackgroundImageFix"/>
<feBlend mode="normal" in="SourceGraphic" in2="BackgroundImageFix" result="shape"/>
<feGaussianBlur stdDeviation="0.527027" result="effect1_foregroundBlur_2485_30778"/>
</filter>
<filter id="filter3_f_2485_30778" x="0.266258" y="9.38345" width="4.88545" height="5.9753" filterUnits="userSpaceOnUse" color-interpolation-filters="sRGB">
<feFlood flood-opacity="0" result="BackgroundImageFix"/>
<feBlend mode="normal" in="SourceGraphic" in2="BackgroundImageFix" result="shape"/>
<feGaussianBlur stdDeviation="0.527027" result="effect1_foregroundBlur_2485_30778"/>
</filter>
</defs>
</svg>
