<svg width="22" height="22" viewBox="0 0 22 22" fill="none" xmlns="http://www.w3.org/2000/svg">
  <circle cx="11.0001" cy="11" r="9.59091" fill="#ECC438" stroke="#FFE99B" />
  <path
    d="M14.6362 6.50434C14.6362 8.03806 13.7386 9.28139 12.6314 9.28139C11.5243 9.28139 10.6267 8.03806 10.6267 6.50434C10.6267 4.97062 11.5243 3.72729 12.6314 3.72729C13.7386 3.72729 14.6362 4.97062 14.6362 6.50434Z"
    fill="white" />
  <path
    d="M12.1746 7.59444C12.1746 7.41075 12.33 7.26184 12.5218 7.26184H12.7413C12.9331 7.26184 13.0886 7.41075 13.0886 7.59444V15.9363C13.0886 16.1781 12.884 16.374 12.6316 16.374C12.3792 16.374 12.1746 16.1781 12.1746 15.9363V7.59444Z"
    fill="white" />
  <path
    d="M8.74456 4.77048C8.74572 4.65651 8.84251 4.5647 8.96152 4.5647C9.08011 4.5647 9.17674 4.6559 9.17846 4.76948L9.3675 17.2315C9.37053 17.4318 9.20186 17.5957 8.99273 17.5957C8.7843 17.5957 8.61591 17.4329 8.61794 17.2333L8.74456 4.77048Z"
    fill="white" />
  <path
    d="M7.57586 4.77048C7.57702 4.65651 7.67381 4.5647 7.79281 4.5647C7.91141 4.5647 8.00804 4.6559 8.00976 4.76948L8.1988 17.2315C8.20183 17.4318 8.03316 17.5957 7.82403 17.5957C7.6156 17.5957 7.44721 17.4329 7.44924 17.2333L7.57586 4.77048Z"
    fill="white" />
  <path
    d="M8.53223 13.8133C8.53223 13.5971 8.70749 13.4219 8.92369 13.4219H9.06367C9.27987 13.4219 9.45514 13.5971 9.45514 13.8133V17.5363C9.45514 17.7804 9.24854 17.9783 8.99368 17.9783L-nan -nanL8.99368 17.9783C8.73883 17.9783 8.53223 17.7804 8.53223 17.5363V13.8133Z"
    fill="white" />
  <path
    d="M7.36353 13.8133C7.36353 13.5971 7.53879 13.4219 7.75499 13.4219H7.89497C8.11117 13.4219 8.28644 13.5971 8.28644 13.8133V17.5363C8.28644 17.7804 8.07984 17.9783 7.82498 17.9783L-nan -nanL7.82498 17.9783C7.57013 17.9783 7.36353 17.7804 7.36353 17.5363V13.8133Z"
    fill="white" />
  <path
    d="M11.9888 14.1078C11.9888 13.8916 12.164 13.7163 12.3802 13.7163H12.8828C13.099 13.7163 13.2743 13.8916 13.2743 14.1078V17.6571C13.2743 17.9971 12.9865 18.2727 12.6315 18.2727C12.2765 18.2727 11.9888 17.9971 11.9888 17.6571V14.1078Z"
    fill="white" />
  <g opacity="0.8" filter="url(#filter0_f_1477_23401)">
    <path
      d="M12.4543 13.7834H12.6362V18.1819C12.6362 18.2321 12.5955 18.2728 12.5453 18.2728C12.495 18.2728 12.4543 18.2321 12.4543 18.1819V13.7834Z"
      fill="white" />
  </g>
  <g opacity="0.8" filter="url(#filter1_f_1477_23401)">
    <path
      d="M8.63623 13.4242H8.81805V17.8226C8.81805 17.8728 8.77735 17.9135 8.72714 17.9135C8.67693 17.9135 8.63623 17.8728 8.63623 17.8226V13.4242Z"
      fill="white" />
  </g>
  <g opacity="0.8" filter="url(#filter2_f_1477_23401)">
    <path
      d="M7.54541 13.4242H7.72723V17.8226C7.72723 17.8728 7.68653 17.9135 7.63632 17.9135C7.58611 17.9135 7.54541 17.8728 7.54541 17.8226V13.4242Z"
      fill="white" />
  </g>
  <defs>
    <filter id="filter0_f_1477_23401" x="10.8885" y="12.2176" width="3.31363" height="7.62112"
      filterUnits="userSpaceOnUse" color-interpolation-filters="sRGB">
      <feFlood flood-opacity="0" result="BackgroundImageFix" />
      <feBlend mode="normal" in="SourceGraphic" in2="BackgroundImageFix" result="shape" />
      <feGaussianBlur stdDeviation="0.782935" result="effect1_foregroundBlur_1477_23401" />
    </filter>
    <filter id="filter1_f_1477_23401" x="7.07036" y="11.8583" width="3.31363" height="7.62112"
      filterUnits="userSpaceOnUse" color-interpolation-filters="sRGB">
      <feFlood flood-opacity="0" result="BackgroundImageFix" />
      <feBlend mode="normal" in="SourceGraphic" in2="BackgroundImageFix" result="shape" />
      <feGaussianBlur stdDeviation="0.782935" result="effect1_foregroundBlur_1477_23401" />
    </filter>
    <filter id="filter2_f_1477_23401" x="5.97954" y="11.8583" width="3.31363" height="7.62112"
      filterUnits="userSpaceOnUse" color-interpolation-filters="sRGB">
      <feFlood flood-opacity="0" result="BackgroundImageFix" />
      <feBlend mode="normal" in="SourceGraphic" in2="BackgroundImageFix" result="shape" />
      <feGaussianBlur stdDeviation="0.782935" result="effect1_foregroundBlur_1477_23401" />
    </filter>
  </defs>
</svg>
  