<svg width="52" height="63" viewBox="0 0 52 63" fill="none" xmlns="http://www.w3.org/2000/svg">
  <mask id="path-1-outside-1_1477_24696" maskUnits="userSpaceOnUse" x="0.794678" y="0.971313" width="52" height="62" fill="black">
  <rect fill="white" x="0.794678" y="0.971313" width="52" height="62"/>
  <path fill-rule="evenodd" clip-rule="evenodd" d="M32.1258 50.4834C42.94 47.8985 50.9799 38.1701 50.9799 26.5639C50.9799 12.9818 39.9694 1.97131 26.3873 1.97131C12.8052 1.97131 1.79468 12.9818 1.79468 26.5639C1.79468 38.1701 9.83452 47.8984 20.6486 50.4834L26.3872 60.423L32.1258 50.4834Z"/>
  </mask>
  <path fill-rule="evenodd" clip-rule="evenodd" d="M32.1258 50.4834C42.94 47.8985 50.9799 38.1701 50.9799 26.5639C50.9799 12.9818 39.9694 1.97131 26.3873 1.97131C12.8052 1.97131 1.79468 12.9818 1.79468 26.5639C1.79468 38.1701 9.83452 47.8984 20.6486 50.4834L26.3872 60.423L32.1258 50.4834Z" fill="#FFE99B"/>
  <path d="M32.1258 50.4834L31.8933 49.5108L31.4749 49.6109L31.2598 49.9834L32.1258 50.4834ZM20.6486 50.4834L21.5147 49.9834L21.2996 49.6108L20.8811 49.5108L20.6486 50.4834ZM26.3872 60.423L25.5212 60.923L26.3872 62.423L27.2533 60.923L26.3872 60.423ZM49.9799 26.5639C49.9799 37.6969 42.2678 47.031 31.8933 49.5108L32.3583 51.456C43.6122 48.766 51.9799 38.6434 51.9799 26.5639H49.9799ZM26.3873 2.97131C39.4171 2.97131 49.9799 13.5341 49.9799 26.5639H51.9799C51.9799 12.4295 40.5217 0.971313 26.3873 0.971313V2.97131ZM2.79468 26.5639C2.79468 13.5341 13.3575 2.97131 26.3873 2.97131V0.971313C12.2529 0.971313 0.794678 12.4295 0.794678 26.5639H2.79468ZM20.8811 49.5108C10.5067 47.0309 2.79468 37.6968 2.79468 26.5639H0.794678C0.794678 38.6433 9.16229 48.7659 20.4162 51.456L20.8811 49.5108ZM27.2533 59.923L21.5147 49.9834L19.7826 50.9834L25.5212 60.923L27.2533 59.923ZM31.2598 49.9834L25.5212 59.923L27.2533 60.923L32.9919 50.9834L31.2598 49.9834Z" fill="white" mask="url(#path-1-outside-1_1477_24696)"/>
  </svg>
  