<svg width="50" height="59" viewBox="0 0 50 59" fill="none" xmlns="http://www.w3.org/2000/svg">
  <mask id="path-1-inside-1_1477_23345" fill="white">
    <path fill-rule="evenodd" clip-rule="evenodd"
      d="M31.0922 48.6499C41.9372 46.0577 50 36.3017 50 24.6625C50 11.0418 38.9582 0 25.3375 0C11.7168 0 0.675049 11.0418 0.675049 24.6625C0.675049 36.3015 8.73766 46.0575 19.5824 48.6499L25.3373 58.6176L31.0922 48.6499Z" />
  </mask>
  <path fill-rule="evenodd" clip-rule="evenodd"
    d="M31.0922 48.6499C41.9372 46.0577 50 36.3017 50 24.6625C50 11.0418 38.9582 0 25.3375 0C11.7168 0 0.675049 11.0418 0.675049 24.6625C0.675049 36.3015 8.73766 46.0575 19.5824 48.6499L25.3373 58.6176L31.0922 48.6499Z"
    fill="#FF6363" />
  <path
    d="M31.0922 48.6499L30.8597 47.6773L30.4413 47.7774L30.2262 48.1499L31.0922 48.6499ZM19.5824 48.6499L20.4485 48.1499L20.2334 47.7773L19.8149 47.6773L19.5824 48.6499ZM25.3373 58.6176L24.4713 59.1176L25.3373 60.6176L26.2034 59.1176L25.3373 58.6176ZM49 24.6625C49 35.8284 41.265 45.1902 30.8597 47.6773L31.3247 49.6226C42.6094 46.9252 51 36.7749 51 24.6625H49ZM25.3375 1C38.4059 1 49 11.594 49 24.6625H51C51 10.4895 39.5105 -1 25.3375 -1V1ZM1.67505 24.6625C1.67505 11.594 12.2691 1 25.3375 1V-1C11.1645 -1 -0.324951 10.4895 -0.324951 24.6625H1.67505ZM19.8149 47.6773C9.40989 45.19 1.67505 35.8283 1.67505 24.6625H-0.324951C-0.324951 36.7748 8.06543 46.925 19.3499 49.6225L19.8149 47.6773ZM26.2034 58.1176L20.4485 48.1499L18.7164 49.1499L24.4713 59.1176L26.2034 58.1176ZM30.2262 48.1499L24.4713 58.1176L26.2034 59.1176L31.9582 49.1499L30.2262 48.1499Z"
    fill="white" mask="url(#path-1-inside-1_1477_23345)" />
  <path
    d="M28.3301 19.4658C28.3301 19.9431 27.9343 20.3301 27.4461 20.3301L27.4011 20.3301C26.9129 20.3301 26.5171 19.9431 26.5171 19.4658L26.5171 11.0021C26.5171 10.4487 26.923 10 27.4236 10Lnan nanL27.4236 10C27.9242 10 28.3301 10.4487 28.3301 11.0021L28.3301 19.4658Z"
    fill="white" />
  <path
    d="M23.8777 16.1503C23.8777 19.547 21.4427 22.3006 18.4389 22.3006C15.4351 22.3006 13 19.547 13 16.1503C13 12.7536 15.4351 10 18.4389 10C21.4427 10 23.8777 12.7536 23.8777 16.1503Z"
    fill="white" />
  <path
    d="M26.5173 19.4986C26.5173 18.2792 27.5284 17.2908 28.7755 17.2908H33.3239C34.5711 17.2908 35.5821 18.2792 35.5821 19.4986V19.5845C35.5821 20.8038 34.5711 21.7923 33.3239 21.7923H28.7755C27.5284 21.7923 26.5173 20.8038 26.5173 19.5845V19.4986Z"
    fill="white" />
  <path
    d="M31.9561 19.4658C31.9561 19.9431 31.5603 20.3301 31.072 20.3301L31.0271 20.3301C30.5389 20.3301 30.1431 19.9431 30.1431 19.4658L30.1431 11.0021C30.1431 10.4487 30.5489 10 31.0496 10Lnan nanL31.0496 10C31.5502 10 31.9561 10.4487 31.9561 11.0021L31.9561 19.4658Z"
    fill="white" />
  <path
    d="M35.582 19.4658C35.582 19.9431 35.1862 20.3301 34.698 20.3301L34.6531 20.3301C34.1649 20.3301 33.7691 19.9431 33.7691 19.4658L33.7691 11.0021C33.7691 10.4487 34.1749 10 34.6756 10Lnan nanL34.6756 10C35.1762 10 35.582 10.4487 35.582 11.0021L35.582 19.4658Z"
    fill="white" />
  <path fill-rule="evenodd" clip-rule="evenodd"
    d="M19.7299 23.1027C19.3666 23.1891 18.99 23.2346 18.6039 23.2346C18.2179 23.2346 17.8412 23.1892 17.4779 23.1027L16.7939 37.3616C16.7939 37.3943 16.7933 37.4322 16.7927 37.4744L16.7927 37.4744C16.783 38.1354 16.7576 39.8673 18.604 39.8673C20.4504 39.8673 20.425 38.1354 20.4153 37.4744C20.4146 37.4322 20.4141 37.3943 20.4141 37.3616L19.7299 23.1027Z"
    fill="#A33821" />
  <path fill-rule="evenodd" clip-rule="evenodd"
    d="M30.1066 22.7263L29.4044 37.3616C29.4044 37.3943 29.4039 37.4321 29.4033 37.4743L29.4033 37.4743C29.3936 38.1354 29.3682 39.8672 31.2146 39.8673C33.061 39.8672 33.0356 38.1354 33.0259 37.4743L33.0259 37.4743C33.0252 37.4321 33.0247 37.3943 33.0247 37.3616L32.3225 22.7263H31.2145H30.1066Z"
    fill="#A33821" />
</svg>
  