<svg width="25" height="25" viewBox="0 0 25 25" fill="none" xmlns="http://www.w3.org/2000/svg">
<circle cx="12.5" cy="12.5" r="11.413" fill="#FF6363"/>
<path fill-rule="evenodd" clip-rule="evenodd" d="M8.81191 19.0281L9.20478 10.6524C9.20478 10.4482 9.50334 10.0543 9.68314 10.0543L9.6832 20.2617C8.79445 20.2617 8.80668 19.4091 8.81135 19.0836C8.81165 19.0628 8.81191 19.0442 8.81191 19.0281ZM9.6832 20.2617L9.68314 10.0543C9.86294 10.0543 10.1616 10.4482 10.1616 10.6524L10.5545 19.0281C10.5545 19.0442 10.5547 19.0628 10.555 19.0836C10.5597 19.4091 10.5719 20.2617 9.6832 20.2617Z" fill="white"/>
<path fill-rule="evenodd" clip-rule="evenodd" d="M14.8812 19.0281L15.2741 10.6524C15.2741 10.4482 15.5727 10.0543 15.7525 10.0543L15.7525 20.2617C14.8638 20.2617 14.876 19.4091 14.8807 19.0836C14.881 19.0628 14.8812 19.0442 14.8812 19.0281ZM15.7525 20.2617L15.7525 10.0543C15.9323 10.0543 16.2309 10.4482 16.2309 10.6524L16.6238 19.0281C16.6238 19.0442 16.6241 19.0628 16.6244 19.0836C16.6291 19.4091 16.6413 20.2617 15.7525 20.2617Z" fill="white"/>
<path d="M14.4443 10.6773C14.4443 10.9123 14.2538 11.1028 14.0188 11.1028L13.9972 11.1028C13.7622 11.1028 13.5717 10.9123 13.5717 10.6773L13.5717 6.5104C13.5717 6.23795 13.767 6.01708 14.008 6.01708Lnan nanL14.008 6.01708C14.249 6.01708 14.4443 6.23795 14.4443 6.5104L14.4443 10.6773Z" fill="white"/>
<path d="M16.1895 10.6773C16.1895 10.9123 15.9989 11.1028 15.7639 11.1028L15.7423 11.1028C15.5073 11.1028 15.3168 10.9123 15.3168 10.6773L15.3168 6.5104C15.3168 6.23795 15.5122 6.01708 15.7531 6.01708Lnan nanL15.7531 6.01708C15.9941 6.01708 16.1895 6.23795 16.1895 6.5104L16.1895 10.6773Z" fill="white"/>
<path d="M17.9346 10.6773C17.9346 10.9123 17.7441 11.1028 17.5091 11.1028L17.4874 11.1028C17.2524 11.1028 17.0619 10.9123 17.0619 10.6773L17.0619 6.5104C17.0619 6.23795 17.2573 6.01708 17.4982 6.01708Lnan nanL17.4982 6.01708C17.7392 6.01708 17.9346 6.23795 17.9346 6.5104L17.9346 10.6773Z" fill="white"/>
<path d="M12.3013 9.04498C12.3013 10.7173 11.1292 12.0729 9.68338 12.0729C8.23753 12.0729 7.06543 10.7173 7.06543 9.04498C7.06543 7.37269 8.23753 6.01703 9.68338 6.01703C11.1292 6.01703 12.3013 7.37269 12.3013 9.04498Z" fill="white"/>
<path d="M13.5713 10.6935C13.5713 10.0932 14.0579 9.60651 14.6582 9.60651H16.8476C17.4479 9.60651 17.9345 10.0932 17.9345 10.6935V10.7358C17.9345 11.3361 17.4479 11.8227 16.8476 11.8227H14.6582C14.0579 11.8227 13.5713 11.3361 13.5713 10.7358V10.6935Z" fill="white"/>
</svg>
