<svg width="23" height="23" viewBox="0 0 23 23" fill="none" xmlns="http://www.w3.org/2000/svg">
  <circle cx="11.5" cy="11.5" r="11" fill="#FF6363" stroke="#A33821" />
  <path fill-rule="evenodd" clip-rule="evenodd"
    d="M8.10697 17.5058L8.46841 9.8002C8.46841 9.61239 8.74308 9.25 8.9085 9.25L8.90855 18.6408C8.0909 18.6408 8.10215 17.8564 8.10645 17.5569C8.10672 17.5378 8.10697 17.5207 8.10697 17.5058ZM8.90855 18.6408L8.9085 9.25C9.07392 9.25 9.34865 9.61239 9.34865 9.8002L9.71013 17.5058C9.71013 17.5207 9.71038 17.5378 9.71065 17.5569C9.71495 17.8564 9.7262 18.6408 8.90855 18.6408Z"
    fill="white" />
  <path fill-rule="evenodd" clip-rule="evenodd"
    d="M13.6912 17.5058L14.0526 9.8002C14.0526 9.61239 14.3273 9.25 14.4927 9.25L14.4928 18.6408C13.6751 18.6408 13.6864 17.8564 13.6907 17.5569C13.691 17.5378 13.6912 17.5207 13.6912 17.5058ZM14.4928 18.6408L14.4927 9.25C14.6581 9.25 14.9329 9.61239 14.9329 9.8002L15.2944 17.5058C15.2944 17.5207 15.2946 17.5378 15.2949 17.5569C15.2992 17.8564 15.3104 18.6408 14.4928 18.6408Z"
    fill="white" />
  <path
    d="M13.2886 9.82313C13.2886 10.0393 13.1133 10.2146 12.8971 10.2146L12.8772 10.2146C12.661 10.2146 12.4857 10.0393 12.4857 9.82313L12.4857 5.98955C12.4857 5.7389 12.6655 5.5357 12.8872 5.5357Lnan nanL12.8872 5.5357C13.1089 5.5357 13.2886 5.73889 13.2886 5.98955L13.2886 9.82313Z"
    fill="white" />
  <path
    d="M14.8943 9.82313C14.8943 10.0393 14.719 10.2146 14.5028 10.2146L14.4829 10.2146C14.2667 10.2146 14.0914 10.0393 14.0914 9.82313L14.0914 5.98955C14.0914 5.7389 14.2712 5.5357 14.4929 5.5357Lnan nanL14.4929 5.5357C14.7146 5.5357 14.8943 5.73889 14.8943 5.98955L14.8943 9.82313Z"
    fill="white" />
  <path
    d="M16.5 9.82313C16.5 10.0393 16.3247 10.2146 16.1085 10.2146L16.0886 10.2146C15.8724 10.2146 15.6972 10.0393 15.6972 9.82313L15.6972 5.98955C15.6972 5.7389 15.8769 5.5357 16.0986 5.5357Lnan nanL16.0986 5.5357C16.3203 5.5357 16.5 5.73889 16.5 5.98955L16.5 9.82313Z"
    fill="white" />
  <path
    d="M11.317 8.32148C11.317 9.85999 10.2387 11.1072 8.90851 11.1072C7.57833 11.1072 6.5 9.85999 6.5 8.32148C6.5 6.78297 7.57833 5.53577 8.90851 5.53577C10.2387 5.53577 11.317 6.78297 11.317 8.32148Z"
    fill="white" />
  <path
    d="M12.4858 9.83801C12.4858 9.28573 12.9336 8.83801 13.4858 8.83801H15.5C16.0523 8.83801 16.5 9.28573 16.5 9.83801V9.87693C16.5 10.4292 16.0523 10.8769 15.5 10.8769H13.4858C12.9336 10.8769 12.4858 10.4292 12.4858 9.87693V9.83801Z"
    fill="white" />
</svg>
  