<svg width="13" height="12" viewBox="0 0 13 12" fill="none" xmlns="http://www.w3.org/2000/svg">
<path fill-rule="evenodd" clip-rule="evenodd" d="M6.78613 1.66733L5.76158 3.78702C5.51108 4.3053 4.99798 4.66226 4.4058 4.73024L1.98387 5.00826L3.77259 6.59632C4.20995 6.98461 4.40593 7.56219 4.29046 8.12248L3.81817 10.414L5.94821 9.27578C6.46902 8.99748 7.10325 8.99748 7.62405 9.27578L9.75409 10.414L9.28181 8.12248C9.16633 7.56219 9.36232 6.98461 9.79967 6.59632L11.5884 5.00826L9.16647 4.73024C8.57429 4.66226 8.06119 4.3053 7.81068 3.78702L6.78613 1.66733ZM7.47967 0.924411C7.20615 0.358529 6.36612 0.35853 6.0926 0.924411L4.89467 3.40282C4.78333 3.63317 4.55529 3.79182 4.29209 3.82203L1.46031 4.14709C0.813742 4.22131 0.554158 4.98632 1.03168 5.41027L3.1231 7.26708C3.31748 7.43966 3.40459 7.69636 3.35327 7.94538L2.80106 10.6247C2.67498 11.2364 3.35458 11.7092 3.92322 11.4054L6.41372 10.0745C6.64519 9.95085 6.92707 9.95085 7.15854 10.0745L9.64905 11.4054C10.2177 11.7092 10.8973 11.2364 10.7712 10.6247L10.219 7.94538C10.1677 7.69636 10.2548 7.43966 10.4492 7.26708L12.5406 5.41027C13.0181 4.98632 12.7585 4.22131 12.112 4.14709L9.28017 3.82203C9.01698 3.79182 8.78894 3.63317 8.6776 3.40282L7.47967 0.924411Z" fill="black"/>
</svg>
