<svg width="32" height="32" viewBox="0 0 32 32" fill="none" xmlns="http://www.w3.org/2000/svg">
<path d="M7.54175 28.2777C5.93618 27.0396 6.8729 23.5487 7.54175 21.958C7.83694 21.256 7.94207 21.1328 8.5452 19.3786C9.40195 16.8867 10.44 13.652 13.706 12.543C17.1449 11.3752 27.468 16.4122 29.1883 19.3786C31.3386 23.8926 26.347 25.9562 24.7443 25.9562C23.7214 25.9562 18.15 25.9562 15.5696 28.2777C12.9892 30.5993 9.54871 29.8254 7.54175 28.2777Z" fill="#6F40F3"/>
<path d="M19.6985 5.14472C19.7446 1.91098 16.8952 0.91252 15.4648 0.817505C14.4472 0.817505 12.4234 1.68295 12.4695 5.14472C12.5271 9.47194 16.0696 10.6379 17.02 10.4566C17.9705 10.2752 19.6409 9.1869 19.6985 5.14472Z" fill="#6F40F3"/>
<path d="M3.62626 8.03607C2.88912 4.8708 5.47155 3.39753 6.8549 3.05655C7.8535 2.8803 10.0246 3.37907 10.72 6.78408C11.5894 11.0403 8.36266 12.7981 7.3912 12.7847C6.41975 12.7713 4.54769 11.9927 3.62626 8.03607Z" fill="#6F40F3"/>
<path d="M26.0918 7.81366C24.548 6.42479 22.8565 6.83765 22.2036 7.2177C21.1092 8.22821 21.1956 9.60159 21.3973 11.1045C21.5989 12.6073 23.9605 13.7474 26.0918 13.0737C28.223 12.4 28.0214 9.54974 26.0918 7.81366Z" fill="#6F40F3"/>
<path d="M1.83696 14.752C3.38068 13.3631 5.07225 13.776 5.72508 14.1561C6.81952 15.1666 6.73306 16.5399 6.53146 18.0428C6.32985 19.5457 3.9682 20.6858 1.83696 20.0121C-0.294288 19.3384 -0.0926976 16.4881 1.83696 14.752Z" fill="#6F40F3"/>
</svg>
