<svg width="18" height="21" viewBox="0 0 18 21" fill="none" xmlns="http://www.w3.org/2000/svg">
<path d="M4.99841 17.1896C4.1103 16.5048 4.62843 14.5738 4.99841 13.6939C5.16169 13.3056 5.21984 13.2374 5.55346 12.2671C6.02737 10.8888 6.60153 9.0995 8.40811 8.48603C10.3103 7.84008 16.0205 10.6263 16.9721 12.2671C18.1615 14.764 15.4005 15.9055 14.5139 15.9055C13.9481 15.9055 10.8663 15.9055 9.43896 17.1896C8.01163 18.4738 6.10855 18.0457 4.99841 17.1896Z" fill="black"/>
<path d="M11.7227 4.39358C11.7482 2.60485 10.1721 2.05256 9.38082 2C8.81793 2 7.69851 2.47872 7.724 4.39358C7.75586 6.78715 9.71537 7.43212 10.2411 7.33179C10.7668 7.23146 11.6908 6.62948 11.7227 4.39358Z" fill="black"/>
<path d="M2.8321 5.99308C2.42436 4.24222 3.85281 3.42729 4.61801 3.23868C5.17037 3.14119 6.37128 3.41708 6.75599 5.30054C7.23687 7.65487 5.45201 8.62714 4.91466 8.61974C4.3773 8.61233 3.34179 8.18164 2.8321 5.99308Z" fill="black"/>
<path d="M15.2597 5.86967C14.4058 5.10142 13.4701 5.32979 13.109 5.54001C12.5036 6.09897 12.5514 6.85865 12.6629 7.68995C12.7745 8.52125 14.0808 9.15189 15.2597 8.77924C16.4386 8.40659 16.3271 6.82997 15.2597 5.86967Z" fill="black"/>
<path d="M1.84283 9.70756C2.69673 8.93931 3.63242 9.16769 3.99352 9.3779C4.59891 9.93686 4.55109 10.6965 4.43957 11.5278C4.32805 12.3591 3.02172 12.9898 1.84283 12.6171C0.663945 12.2445 0.775454 10.6679 1.84283 9.70756Z" fill="black"/>
</svg>
