<svg width="25" height="20" viewBox="0 0 25 20" fill="none" xmlns="http://www.w3.org/2000/svg">
<path d="M10.1321 13.2965C10.1321 12.4279 11.1733 11.957 12.4577 11.957C13.742 11.957 14.7832 12.4279 14.7832 13.2965C14.7832 14.1652 13.742 15.2293 12.4577 15.2293C11.1733 15.2293 10.1321 14.1652 10.1321 13.2965Z" fill="black"/>
<ellipse cx="8.86804" cy="9.95087" rx="1.10874" ry="1.0929" transform="rotate(90 8.86804 9.95087)" fill="black"/>
<ellipse cx="16.08" cy="9.95087" rx="1.10874" ry="1.0929" transform="rotate(90 16.08 9.95087)" fill="black"/>
<path d="M2.07611 9.57205C-0.520596 6.83167 5.39399 1.44731 7.35923 1.21655C8.00131 1.14087 8.68166 1.68999 8.77853 2.39384C8.98252 3.87607 5.32198 12.9975 2.07611 9.57205Z" stroke="black"/>
<path d="M22.8731 9.57205C25.4698 6.83167 19.5552 1.44731 17.59 1.21655C16.9479 1.14087 16.2676 1.68999 16.1707 2.39384C15.9667 3.87607 19.6272 12.9975 22.8731 9.57205Z" stroke="black"/>
<path d="M3.52188 10.685C2.96341 13.5001 3.96867 19.1304 12.4575 19.1304C20.9464 19.1304 21.9514 13.5001 21.3929 10.685" stroke="black"/>
<path d="M8.49512 1.97831C8.71525 1.60873 9.81592 0.869568 12.4575 0.869568C15.0992 0.869568 16.1998 1.60873 16.42 1.97831" stroke="black"/>
</svg>
