<svg width="25" height="20" viewBox="0 0 25 20" fill="none" xmlns="http://www.w3.org/2000/svg">
<path fill-rule="evenodd" clip-rule="evenodd" d="M8.27258 0.806962C8.51227 0.663266 8.80822 0.532065 9.15203 0.420453C9.89648 0.178778 10.9503 0 12.389 0C13.8277 0 14.8815 0.178778 15.626 0.420453C16.0243 0.549761 16.3584 0.705362 16.6152 0.876224C16.9764 0.637166 17.4078 0.514264 17.8432 0.564756C18.1967 0.6057 18.5863 0.751106 18.9692 0.942209C19.3607 1.13765 19.7832 1.40013 20.2108 1.70937C21.0653 2.32724 21.9725 3.15508 22.7292 4.06981C23.4798 4.97714 24.118 6.01295 24.3768 7.04872C24.6424 8.11149 24.5117 9.21629 23.658 10.1039C23.3311 10.4438 22.9825 10.6973 22.6147 10.8587C22.8449 12.4308 22.6358 14.6039 21.2918 16.4534C19.8139 18.4872 17.0604 20 12.3891 20L12.3204 19.9999C12.1162 20.0007 11.912 19.9971 11.7082 19.989C7.44788 19.8487 4.891 18.3864 3.48631 16.4534C2.11313 14.5638 1.92459 12.3365 2.17886 10.7574C1.88653 10.5984 1.60716 10.3796 1.34204 10.1039C0.488317 9.2163 0.35763 8.11149 0.623212 7.04872C0.882047 6.01295 1.52024 4.97713 2.27081 4.06981C3.0275 3.15508 3.93474 2.32724 4.78919 1.70937C5.21685 1.40013 5.63932 1.13765 6.03085 0.942208C6.4137 0.751105 6.80305 0.60573 7.15656 0.564786C7.5477 0.519428 7.93587 0.613964 8.27258 0.806962ZM12.3407 12.3728C11.0096 12.3728 9.9305 12.8607 9.9305 13.7608C9.9305 14.661 11.0096 15.7637 12.3407 15.7637C13.6718 15.7637 14.7508 14.661 14.7508 13.7608C14.7508 12.8607 13.6718 12.3728 12.3407 12.3728ZM8.62033 11.4429C7.99478 11.4429 7.48767 10.9285 7.48767 10.294C7.48767 9.65942 7.99478 9.14502 8.62033 9.14502C9.24589 9.14502 9.753 9.65942 9.753 10.294C9.753 10.9285 9.24589 11.4429 8.62033 11.4429ZM14.9618 10.294C14.9618 10.9285 15.469 11.4429 16.0945 11.4429C16.7201 11.4429 17.2272 10.9285 17.2272 10.294C17.2272 9.65942 16.7201 9.14502 16.0945 9.14502C15.469 9.14502 14.9618 9.65942 14.9618 10.294ZM8.08393 2.46546C8.02825 2.06692 7.61195 1.76345 7.29584 1.80016C7.14288 1.81786 6.89828 1.89467 6.57039 2.05834C6.25108 2.21773 5.88565 2.44272 5.49853 2.72265C4.72343 3.28313 3.89361 4.04046 3.2072 4.87023C2.51467 5.7074 2.00372 6.57539 1.80884 7.35525C1.6207 8.1081 1.73172 8.73073 2.2166 9.23485C2.56645 9.59859 2.88164 9.75557 3.15287 9.80475C3.42371 9.85386 3.714 9.80697 4.03439 9.64979C4.70301 9.32178 5.40667 8.55937 6.05674 7.55203C6.69512 6.56281 7.23239 5.41529 7.59603 4.42446C7.77761 3.9297 7.91227 3.48385 7.99455 3.12515C8.08268 2.74093 8.09293 2.52987 8.08393 2.46546ZM17.7042 1.80016C17.3881 1.76345 16.9718 2.06692 16.9161 2.46546C16.9071 2.52987 16.9174 2.74093 17.0055 3.12515C17.0878 3.48386 17.2224 3.9297 17.404 4.42446C17.7676 5.41529 18.3049 6.56281 18.9433 7.55203C19.5934 8.55937 20.297 9.32178 20.9656 9.64979C21.286 9.80697 21.5763 9.85386 21.8471 9.80475C22.1184 9.75557 22.4336 9.5986 22.7834 9.23485C23.2683 8.73073 23.3793 8.1081 23.1912 7.35525C22.9963 6.57539 22.4853 5.7074 21.7928 4.87023C21.1064 4.04046 20.2766 3.28313 19.5015 2.72264C19.1144 2.44272 18.7489 2.21773 18.4296 2.05834C18.1017 1.89467 17.8571 1.81786 17.7042 1.80016Z" fill="black"/>
</svg>
