<svg width="25" height="25" viewBox="0 0 25 25" fill="none" xmlns="http://www.w3.org/2000/svg">
<circle cx="12.5" cy="12.5" r="11.413" fill="#AA93EC"/>
<path fill-rule="evenodd" clip-rule="evenodd" d="M9.77391 14.0574C9.50319 14.3462 9.51082 14.8225 9.79096 15.1213L9.42332 15.5135C9.22027 15.7301 9.226 16.0873 9.4361 16.3114C9.64621 16.5356 9.98114 16.5417 10.1842 16.3251L10.5518 15.9329C10.832 16.2317 11.2785 16.2399 11.5493 15.9511L11.7944 15.6897L10.019 13.796L9.77391 14.0574Z" fill="white"/>
<path d="M16.6537 7.80107L17.8792 6.49388L18.6401 7.30548L17.4146 8.61267L16.6537 7.80107Z" fill="white"/>
<path d="M14.8954 6.97129C14.7553 6.82188 14.7515 6.58371 14.8869 6.43932C15.0222 6.29493 15.2455 6.29901 15.3856 6.44842L18.6827 9.96532C18.8228 10.1147 18.8266 10.3529 18.6912 10.4973C18.5559 10.6417 18.3326 10.6376 18.1925 10.4882L14.8954 6.97129Z" fill="white"/>
<path d="M17.372 5.95282C17.2319 5.80341 17.2281 5.56524 17.3634 5.42085C17.4988 5.27646 17.7221 5.28053 17.8621 5.42995L19.6375 7.32367C19.7776 7.47308 19.7814 7.71125 19.646 7.85563C19.5107 8.00002 19.2874 7.99595 19.1473 7.84654L17.372 5.95282Z" fill="white"/>
<path d="M6.24983 19.7101C6.17979 19.6354 6.17789 19.5163 6.24557 19.4442L9.67694 15.784C9.74462 15.7118 9.85626 15.7139 9.9263 15.7886C9.99634 15.8633 9.99825 15.9824 9.93056 16.0546L6.49919 19.7147C6.43151 19.7869 6.31987 19.7848 6.24983 19.7101Z" fill="white"/>
<path fill-rule="evenodd" clip-rule="evenodd" d="M10.019 13.796C9.73887 13.4971 9.73123 13.0208 10.002 12.732L15.149 7.24182L17.9389 10.2177L15.733 12.5706L14.8453 11.6238C14.7753 11.5491 14.6636 11.547 14.596 11.6192C14.5283 11.6914 14.5302 11.8105 14.6002 11.8852L15.4879 12.832L14.9977 13.3549L14.6173 12.9491C14.5472 12.8744 14.4356 12.8724 14.3679 12.9446C14.3002 13.0168 14.3021 13.1359 14.3722 13.2106L14.7526 13.6164L14.2624 14.1392L13.3747 13.1924C13.3047 13.1177 13.1931 13.1156 13.1254 13.1878C13.0577 13.26 13.0596 13.3791 13.1296 13.4538L14.0173 14.4007L13.5271 14.9236L13.1467 14.5178C13.0766 14.4431 12.965 14.441 12.8973 14.5132C12.8296 14.5854 12.8315 14.7045 12.9016 14.7792L13.282 15.185L12.7918 15.7079C12.5211 15.9966 12.0745 15.9885 11.7944 15.6897L10.019 13.796Z" fill="white"/>
</svg>
