<svg width="50" height="59" viewBox="0 0 50 59" fill="none" xmlns="http://www.w3.org/2000/svg">
<mask id="path-1-inside-1_1477_23340" fill="white">
<path fill-rule="evenodd" clip-rule="evenodd" d="M30.9572 48.6499C41.8022 46.0577 49.865 36.3017 49.865 24.6625C49.865 11.0418 38.8232 0 25.2025 0C11.5818 0 0.540039 11.0418 0.540039 24.6625C0.540039 36.3015 8.60265 46.0575 19.4474 48.6499L25.2023 58.6176L30.9572 48.6499Z"/>
</mask>
<path fill-rule="evenodd" clip-rule="evenodd" d="M30.9572 48.6499C41.8022 46.0577 49.865 36.3017 49.865 24.6625C49.865 11.0418 38.8232 0 25.2025 0C11.5818 0 0.540039 11.0418 0.540039 24.6625C0.540039 36.3015 8.60265 46.0575 19.4474 48.6499L25.2023 58.6176L30.9572 48.6499Z" fill="#AA93EC"/>
<path d="M30.9572 48.6499L30.7247 47.6773L30.3063 47.7774L30.0912 48.1499L30.9572 48.6499ZM19.4474 48.6499L20.3135 48.1499L20.0983 47.7773L19.6799 47.6773L19.4474 48.6499ZM25.2023 58.6176L24.3363 59.1176L25.2023 60.6176L26.0684 59.1176L25.2023 58.6176ZM48.865 24.6625C48.865 35.8284 41.1299 45.1902 30.7247 47.6773L31.1897 49.6226C42.4744 46.9252 50.865 36.7749 50.865 24.6625H48.865ZM25.2025 1C38.2709 1 48.865 11.594 48.865 24.6625H50.865C50.865 10.4895 39.3755 -1 25.2025 -1V1ZM1.54004 24.6625C1.54004 11.594 12.1341 1 25.2025 1V-1C11.0295 -1 -0.459961 10.4895 -0.459961 24.6625H1.54004ZM19.6799 47.6773C9.27488 45.19 1.54004 35.8283 1.54004 24.6625H-0.459961C-0.459961 36.7748 7.93042 46.925 19.2149 49.6225L19.6799 47.6773ZM26.0684 58.1176L20.3135 48.1499L18.5814 49.1499L24.3363 59.1176L26.0684 58.1176ZM30.0912 48.1499L24.3363 58.1176L26.0684 59.1176L31.8232 49.1499L30.0912 48.1499Z" fill="white" mask="url(#path-1-inside-1_1477_23340)"/>
<path d="M26.0874 21.0585L21.0286 23.919C19.0082 25.0614 16.4247 24.3834 15.2582 22.4047L15.179 22.2703C14.0125 20.2915 14.7047 17.7613 16.7251 16.6189L21.784 13.7584L26.0874 21.0585Z" fill="#DACDFF"/>
<path d="M24.8513 29.7434L27.772 24.7889C28.9385 22.8102 31.522 22.1322 33.5424 23.2746L33.6796 23.3522C35.7 24.4946 36.3923 27.0248 35.2258 29.0036L32.3051 33.9581L24.8513 29.7434Z" fill="#E9CDFF"/>
<path fill-rule="evenodd" clip-rule="evenodd" d="M26.0913 21.0563C26.09 21.057 26.0887 21.0578 26.0874 21.0585C25.0262 21.6585 23.2026 20.5108 22.0143 18.4949C20.8259 16.4791 20.7228 14.3585 21.7839 13.7585C21.784 13.7584 21.7841 13.7584 21.7841 13.7584L26.7743 10.9367C28.8326 9.77284 31.4646 10.4635 32.6529 12.4794C33.8413 14.4952 33.1361 17.0729 31.0778 18.2367L26.0913 21.0563Z" fill="#8269CB"/>
<path fill-rule="evenodd" clip-rule="evenodd" d="M24.8491 29.7473C24.8499 29.746 24.8506 29.7447 24.8513 29.7434C25.464 28.7042 27.6292 28.8052 29.6875 29.969C31.7458 31.1329 32.9178 32.9189 32.3051 33.9581C32.3051 33.9582 32.305 33.9582 32.305 33.9583L29.4239 38.8456C28.2356 40.8614 25.6036 41.5521 23.5453 40.3883C21.487 39.2244 20.7818 36.6468 21.9702 34.6309L24.8491 29.7473Z" fill="#9041B5"/>
<path fill-rule="evenodd" clip-rule="evenodd" d="M26.0874 21.0585L21.0972 23.8802C19.0389 25.044 16.4069 24.3534 15.2186 22.3375C15.1369 22.1989 15.0641 22.0577 15.0002 21.9145C16.2828 23.6198 18.6971 24.1442 20.6139 23.0604L25.6041 20.2387L30.5943 17.417C32.5111 16.3332 33.2545 14.0232 32.3879 12.0827C32.4826 12.2086 32.5711 12.3409 32.6528 12.4794C33.8411 14.4953 33.1359 17.073 31.0776 18.2368L26.0874 21.0585Z" fill="#B2ABC8" fill-opacity="0.3" style="mix-blend-mode:color-burn"/>
<path fill-rule="evenodd" clip-rule="evenodd" d="M24.8512 29.7434L27.7323 24.8561C28.9207 22.8402 31.5526 22.1495 33.6109 23.3134C33.7524 23.3934 33.8875 23.4801 34.016 23.5728C32.0346 22.7241 29.676 23.4521 28.5693 25.3294L25.6882 30.2167L22.8071 35.104C21.7005 36.9813 22.236 39.3458 23.9772 40.6019C23.8309 40.5393 23.6867 40.468 23.5453 40.388C21.487 39.2242 20.7817 36.6465 21.9701 34.6307L24.8512 29.7434Z" fill="#B2ABC8" fill-opacity="0.3" style="mix-blend-mode:color-burn"/>
<path fill-rule="evenodd" clip-rule="evenodd" d="M22.2252 14.5163L17.8501 16.9901C15.7412 18.1826 15.0187 20.8236 16.2362 22.8891C16.3199 23.031 16.4106 23.1666 16.5076 23.2956C15.6197 21.3073 16.3813 18.9405 18.3453 17.83L22.7203 15.3562L22.2252 14.5163ZM22.2336 14.5115L26.6087 12.0377C28.7176 10.8452 31.4143 11.5529 32.6319 13.6183C32.7156 13.7602 32.7901 13.9049 32.8556 14.0517C31.5415 12.3045 29.0678 11.7671 27.1039 12.8776L22.7288 15.3514L22.2336 14.5115Z" fill="url(#paint0_linear_1477_23340)"/>
<path fill-rule="evenodd" clip-rule="evenodd" d="M31.536 33.5178L34.062 29.233C35.2796 27.1676 34.557 24.5265 32.4481 23.3341C32.3031 23.2521 32.1554 23.1791 32.0055 23.1149C33.7896 24.402 34.3383 26.8246 33.2044 28.7481L30.6784 33.0329L31.536 33.5178ZM31.5312 33.5261L29.0052 37.8109C27.7876 39.8764 25.091 40.584 22.9821 39.3916C22.8371 39.3096 22.6987 39.2208 22.567 39.1258C24.5971 39.9954 27.0137 39.2495 28.1476 37.326L30.6736 33.0412L31.5312 33.5261Z" fill="url(#paint1_linear_1477_23340)"/>
<path d="M15.2186 22.3375C14.0303 20.3216 14.7355 17.744 16.7938 16.5801L26.7743 10.9367C28.8326 9.77285 31.4645 10.4635 32.6529 12.4794V12.4794C33.8412 14.4952 33.136 17.0729 31.0777 18.2367L21.0972 23.8801C19.0389 25.044 16.407 24.3533 15.2186 22.3375V22.3375Z" fill="url(#paint2_linear_1477_23340)"/>
<path d="M33.611 23.3135C35.6693 24.4773 36.3745 27.055 35.1862 29.0709L29.4239 38.8455C28.2356 40.8614 25.6036 41.552 23.5453 40.3882V40.3882C21.487 39.2243 20.7818 36.6467 21.9702 34.6308L27.7324 24.8562C28.9208 22.8403 31.5527 22.1496 33.611 23.3135V23.3135Z" fill="url(#paint3_linear_1477_23340)"/>
<defs>
<linearGradient id="paint0_linear_1477_23340" x1="28.2535" y1="9.10631" x2="29.6818" y2="11.7385" gradientUnits="userSpaceOnUse">
<stop stop-color="#C9B6FF"/>
<stop offset="1" stop-color="#C9B6FF" stop-opacity="0"/>
</linearGradient>
<linearGradient id="paint1_linear_1477_23340" x1="29.0773" y1="41.155" x2="26.4983" y2="39.572" gradientUnits="userSpaceOnUse">
<stop stop-color="#C9B6FF"/>
<stop offset="1" stop-color="#C9B6FF" stop-opacity="0"/>
</linearGradient>
<linearGradient id="paint2_linear_1477_23340" x1="30.841" y1="29.122" x2="24.1493" y2="17.2876" gradientUnits="userSpaceOnUse">
<stop stop-color="#8042A6"/>
<stop offset="1" stop-color="#473772" stop-opacity="0"/>
</linearGradient>
<linearGradient id="paint3_linear_1477_23340" x1="16.6179" y1="25.088" x2="28.4523" y2="32.0645" gradientUnits="userSpaceOnUse">
<stop stop-color="#8042A6"/>
<stop offset="1" stop-color="#473772" stop-opacity="0"/>
</linearGradient>
</defs>
</svg>
