<svg width="48" height="48" viewBox="0 0 48 48" fill="none" xmlns="http://www.w3.org/2000/svg">
  <circle cx="24" cy="24" r="24" fill="#4FBDBD"/>
  <path d="M9.11682 40.2427C8.96439 40.0902 8.96209 39.8454 9.11169 39.6958L17.7798 31.0277C17.9294 30.8781 18.1742 30.8804 18.3266 31.0328C18.4791 31.1853 18.4814 31.4301 18.3318 31.5797L9.66369 40.2478C9.51409 40.3974 9.26925 40.3951 9.11682 40.2427Z" fill="#328686"/>
  <path d="M17.5459 27.9496C16.9101 28.5854 16.8889 29.5951 17.4986 30.2048L16.6352 31.0683C16.1584 31.5451 16.1425 32.3024 16.5998 32.7597C17.0571 33.217 17.8144 33.2011 18.2912 32.7243L19.1546 31.8608C19.7644 32.4706 20.7741 32.4494 21.4099 31.8136L21.9855 31.238L18.1215 27.374L17.5459 27.9496Z" fill="white"/>
  <path d="M33.6159 14.0876L36.4939 11.2096L38.1499 12.8656L35.2719 15.7436L33.6159 14.0876Z" fill="white"/>
  <path d="M29.7046 12.4789C29.3998 12.174 29.4103 11.6691 29.7282 11.3512C30.0461 11.0333 30.551 11.0228 30.8559 11.3276L38.0318 18.5036C38.3367 18.8085 38.3261 19.3133 38.0082 19.6312C37.6903 19.9491 37.1855 19.9597 36.8806 19.6549L29.7046 12.4789Z" fill="white"/>
  <path d="M35.3899 10.1056C35.0851 9.80069 35.0956 9.29584 35.4135 8.97794C35.7314 8.66004 36.2363 8.64947 36.5412 8.95433L40.4051 12.8183C40.71 13.1232 40.6994 13.628 40.3815 13.9459C40.0636 14.2638 39.5588 14.2744 39.2539 13.9696L35.3899 10.1056Z" fill="white"/>
  <path fill-rule="evenodd" clip-rule="evenodd" d="M18.1215 27.374C17.5118 26.7643 17.5329 25.7546 18.1687 25.1188L26.2273 17.0602L32.2993 23.1322L31.1481 24.2834L29.2161 22.3514C29.0637 22.199 28.8112 22.2042 28.6523 22.3632C28.4933 22.5221 28.488 22.7746 28.6405 22.927L30.5725 24.859L29.4212 26.0102L28.5932 25.1822C28.4408 25.0298 28.1884 25.0351 28.0294 25.194C27.8705 25.353 27.8652 25.6054 28.0176 25.7578L28.8456 26.5858L27.6944 27.7371L25.7624 25.8051C25.61 25.6526 25.3575 25.6579 25.1986 25.8169C25.0396 25.9758 25.0344 26.2283 25.1868 26.3807L27.1188 28.3127L25.9676 29.4639L25.1396 28.6359C24.9871 28.4835 24.7347 28.4888 24.5758 28.6477C24.4168 28.8067 24.4115 29.0591 24.5639 29.2115L25.3919 30.0395L24.2407 31.1908C23.6049 31.8266 22.5952 31.8477 21.9855 31.238L18.1215 27.374Z" fill="#328686"/>
  <path d="M26.2273 17.0602L30.2566 13.0309L36.3286 19.1029L32.2993 23.1322L26.2273 17.0602Z" fill="white"/>
  </svg>
  