<svg xmlns="http://www.w3.org/2000/svg" width="63" height="63" fill="none"><circle cx="31.5" cy="31.5" r="31.5" fill="#AA93EC"/><path fill="#DACDFF" d="m32.703 27.346-6.878 3.823c-2.747 1.527-6.26.621-7.846-2.024l-.107-.18c-1.587-2.644-.645-6.026 2.102-7.553l6.878-3.824 5.851 9.758Z"/><path fill="#E9CDFF" d="m31.023 38.955 3.97-6.622c1.587-2.645 5.1-3.551 7.846-2.024l.187.103c2.747 1.527 3.688 4.91 2.102 7.554l-3.971 6.623-10.134-5.634Z"/><path fill="#8269CB" fill-rule="evenodd" d="m32.709 27.343-.006.003c-1.443.802-3.922-.732-5.538-3.426-1.615-2.695-1.756-5.53-.313-6.331l6.785-3.772c2.799-1.556 6.377-.632 7.993 2.062 1.616 2.695.657 6.14-2.142 7.696l-6.78 3.768Z" clip-rule="evenodd"/><path fill="#9041B5" fill-rule="evenodd" d="M31.02 38.96c0-.003.002-.004.003-.006.833-1.39 3.777-1.254 6.575.301 2.799 1.556 4.392 3.943 3.56 5.332L37.24 51.12c-1.616 2.695-5.194 3.618-7.993 2.062-2.799-1.555-3.757-5-2.142-7.695l3.915-6.528Z" clip-rule="evenodd"/><path fill="#B2ABC8" fill-opacity=".3" fill-rule="evenodd" d="m32.703 27.346-6.785 3.772c-2.798 1.555-6.377.632-7.992-2.062a5.588 5.588 0 0 1-.297-.566c1.744 2.28 5.026 2.98 7.633 1.532l6.784-3.772 6.785-3.771c2.606-1.449 3.617-4.537 2.439-7.13.129.168.249.345.36.53 1.616 2.694.657 6.14-2.142 7.696l-6.785 3.771ZM31.022 38.954l3.918-6.532c1.615-2.695 5.194-3.618 7.992-2.062.193.106.377.222.551.346-2.694-1.134-5.9-.161-7.405 2.348l-3.918 6.533-3.917 6.532c-1.505 2.51-.776 5.67 1.591 7.35a5.981 5.981 0 0 1-.587-.287c-2.799-1.555-3.758-5-2.142-7.695l3.917-6.533Z" clip-rule="evenodd" style="mix-blend-mode:color-burn"/><path fill="url(#a)" fill-rule="evenodd" d="m27.452 18.602-5.949 3.307c-2.867 1.594-3.85 5.124-2.194 7.885.114.19.237.37.369.543-1.207-2.657-.172-5.821 2.499-7.305l5.948-3.307-.673-1.123Zm.011-.006 5.949-3.307c2.867-1.594 6.534-.648 8.19 2.113.113.19.214.383.304.58-1.787-2.336-5.15-3.054-7.82-1.57l-5.95 3.306-.673-1.122Z" clip-rule="evenodd"/><path fill="url(#b)" fill-rule="evenodd" d="m40.111 44 3.435-5.728c1.655-2.76.673-6.29-2.194-7.885a6.15 6.15 0 0 0-.602-.293c2.426 1.72 3.172 4.96 1.63 7.53l-3.434 5.727 1.166.648Zm-.006.01-3.434 5.728c-1.656 2.76-5.322 3.707-8.19 2.113a6.102 6.102 0 0 1-.564-.356c2.76 1.163 6.046.166 7.587-2.405l3.435-5.728 1.166.649Z" clip-rule="evenodd"/><path fill="url(#c)" d="M17.926 29.056c-1.616-2.694-.657-6.14 2.141-7.695l13.57-7.543c2.799-1.556 6.377-.633 7.993 2.062 1.616 2.694.657 6.14-2.142 7.695l-13.57 7.544c-2.798 1.555-6.377.632-7.992-2.063Z"/><path fill="url(#d)" d="M42.933 30.361c2.798 1.556 3.757 5.001 2.141 7.695L37.24 51.123c-1.616 2.694-5.194 3.617-7.993 2.062-2.799-1.556-3.757-5.001-2.142-7.696l7.835-13.065c1.616-2.695 5.194-3.618 7.993-2.062Z"/><defs><linearGradient id="a" x1="35.648" x2="37.54" y1="11.371" y2="14.916" gradientUnits="userSpaceOnUse"><stop stop-color="#C9B6FF"/><stop offset="1" stop-color="#C9B6FF" stop-opacity="0"/></linearGradient><linearGradient id="b" x1="36.769" x2="33.295" y1="54.208" y2="52.039" gradientUnits="userSpaceOnUse"><stop stop-color="#C9B6FF"/><stop offset="1" stop-color="#C9B6FF" stop-opacity="0"/></linearGradient><linearGradient id="c" x1="39.166" x2="30.301" y1="38.125" y2="22.177" gradientUnits="userSpaceOnUse"><stop stop-color="#8042A6"/><stop offset="1" stop-color="#473772" stop-opacity="0"/></linearGradient><linearGradient id="d" x1="19.828" x2="35.776" y1="32.733" y2="42.296" gradientUnits="userSpaceOnUse"><stop stop-color="#8042A6"/><stop offset="1" stop-color="#473772" stop-opacity="0"/></linearGradient></defs></svg>