<svg width="50" height="59" viewBox="0 0 50 59" fill="none" xmlns="http://www.w3.org/2000/svg">
  <mask id="path-1-inside-1_1477_23340" fill="white">
    <path fill-rule="evenodd" clip-rule="evenodd"
      d="M30.9572 48.6499C41.8022 46.0577 49.865 36.3017 49.865 24.6625C49.865 11.0418 38.8232 0 25.2025 0C11.5818 0 0.540039 11.0418 0.540039 24.6625C0.540039 36.3015 8.60265 46.0575 19.4474 48.6499L25.2023 58.6176L30.9572 48.6499Z" />
  </mask>
  <path fill-rule="evenodd" clip-rule="evenodd"
    d="M30.9572 48.6499C41.8022 46.0577 49.865 36.3017 49.865 24.6625C49.865 11.0418 38.8232 0 25.2025 0C11.5818 0 0.540039 11.0418 0.540039 24.6625C0.540039 36.3015 8.60265 46.0575 19.4474 48.6499L25.2023 58.6176L30.9572 48.6499Z"
    fill="#AA93EC" />
  <path
    d="M30.9572 48.6499L30.7247 47.6773L30.3063 47.7774L30.0912 48.1499L30.9572 48.6499ZM19.4474 48.6499L20.3135 48.1499L20.0983 47.7773L19.6799 47.6773L19.4474 48.6499ZM25.2023 58.6176L24.3363 59.1176L25.2023 60.6176L26.0684 59.1176L25.2023 58.6176ZM48.865 24.6625C48.865 35.8284 41.1299 45.1902 30.7247 47.6773L31.1897 49.6226C42.4744 46.9252 50.865 36.7749 50.865 24.6625H48.865ZM25.2025 1C38.2709 1 48.865 11.594 48.865 24.6625H50.865C50.865 10.4895 39.3755 -1 25.2025 -1V1ZM1.54004 24.6625C1.54004 11.594 12.1341 1 25.2025 1V-1C11.0295 -1 -0.459961 10.4895 -0.459961 24.6625H1.54004ZM19.6799 47.6773C9.27488 45.19 1.54004 35.8283 1.54004 24.6625H-0.459961C-0.459961 36.7748 7.93042 46.925 19.2149 49.6225L19.6799 47.6773ZM26.0684 58.1176L20.3135 48.1499L18.5814 49.1499L24.3363 59.1176L26.0684 58.1176ZM30.0912 48.1499L24.3363 58.1176L26.0684 59.1176L31.8232 49.1499L30.0912 48.1499Z"
    fill="white" mask="url(#path-1-inside-1_1477_23340)" />
  <path
    d="M9.7572 40.2427C9.60477 40.0902 9.60247 39.8454 9.75208 39.6958L18.4202 31.0277C18.5698 30.8781 18.8146 30.8804 18.967 31.0328C19.1195 31.1853 19.1218 31.4301 18.9722 31.5797L10.3041 40.2478C10.1545 40.3974 9.90963 40.3951 9.7572 40.2427Z"
    fill="#6F40F3" />
  <path
    d="M18.1863 27.9496C17.5505 28.5854 17.5293 29.5951 18.139 30.2048L17.2756 31.0683C16.7988 31.5451 16.7829 32.3024 17.2402 32.7597C17.6975 33.217 18.4548 33.2011 18.9316 32.7243L19.795 31.8608C20.4048 32.4706 21.4145 32.4494 22.0503 31.8136L22.6259 31.238L18.7619 27.374L18.1863 27.9496Z"
    fill="white" />
  <path d="M34.2562 14.0876L37.1343 11.2096L38.7903 12.8656L35.9122 15.7436L34.2562 14.0876Z"
    fill="white" />
  <path
    d="M30.345 12.4789C30.0401 12.174 30.0507 11.6691 30.3686 11.3512C30.6865 11.0333 31.1914 11.0228 31.4962 11.3276L38.6722 18.5036C38.9771 18.8085 38.9665 19.3133 38.6486 19.6312C38.3307 19.9491 37.8259 19.9597 37.521 19.6549L30.345 12.4789Z"
    fill="white" />
  <path
    d="M36.0303 10.1056C35.7254 9.80069 35.736 9.29584 36.0539 8.97794C36.3718 8.66004 36.8767 8.64947 37.1815 8.95433L41.0455 12.8183C41.3504 13.1232 41.3398 13.628 41.0219 13.9459C40.704 14.2638 40.1992 14.2744 39.8943 13.9696L36.0303 10.1056Z"
    fill="white" />
  <path fill-rule="evenodd" clip-rule="evenodd"
    d="M18.7619 27.374C18.1522 26.7643 18.1733 25.7546 18.8091 25.1188L26.8677 17.0602L32.9397 23.1322L31.7885 24.2834L29.8565 22.3514C29.704 22.199 29.4516 22.2042 29.2927 22.3632C29.1337 22.5221 29.1284 22.7746 29.2809 22.927L31.2129 24.859L30.0616 26.0102L29.2336 25.1822C29.0812 25.0298 28.8288 25.0351 28.6698 25.194C28.5109 25.353 28.5056 25.6054 28.658 25.7578L29.486 26.5858L28.3348 27.7371L26.4028 25.8051C26.2504 25.6526 25.9979 25.6579 25.839 25.8169C25.68 25.9758 25.6747 26.2283 25.8272 26.3807L27.7592 28.3127L26.6079 29.4639L25.7799 28.6359C25.6275 28.4835 25.3751 28.4888 25.2161 28.6477C25.0572 28.8067 25.0519 29.0591 25.2043 29.2115L26.0323 30.0395L24.8811 31.1908C24.2453 31.8266 23.2356 31.8477 22.6259 31.238L18.7619 27.374Z"
    fill="#6F40F3" />
  <path d="M26.8677 17.0602L30.897 13.0309L36.969 19.1029L32.9397 23.1322L26.8677 17.0602Z"
    fill="white" />
</svg>
  