<svg width="23" height="23" viewBox="0 0 23 23" fill="none" xmlns="http://www.w3.org/2000/svg">
  <circle cx="11.5" cy="11.5" r="11" fill="#4FBDBD" stroke="#328686"/>
  <path fill-rule="evenodd" clip-rule="evenodd" d="M8.99216 12.9329C8.74309 13.1985 8.75011 13.6368 9.00784 13.9117L8.66961 14.2725C8.48281 14.4717 8.48807 14.8004 8.68137 15.0066C8.87467 15.2128 9.18281 15.2184 9.36961 15.0191L9.70784 14.6584C9.96558 14.9333 10.3764 14.9408 10.6255 14.6751L10.851 14.4346L9.21765 12.6923L8.99216 12.9329Z" fill="white"/>
  <path d="M15.3216 7.17705L16.449 5.97444L17.149 6.7211L16.0216 7.92372L15.3216 7.17705Z" fill="white"/>
  <path d="M13.7039 6.41365C13.5751 6.27619 13.5715 6.05708 13.6961 5.92424C13.8206 5.7914 14.026 5.79515 14.1549 5.93261L17.1882 9.16816C17.3171 9.30562 17.3206 9.52474 17.1961 9.65757C17.0715 9.79041 16.8661 9.78666 16.7373 9.64921L13.7039 6.41365Z" fill="white"/>
  <path d="M15.9824 5.47666C15.8535 5.3392 15.85 5.12008 15.9745 4.98725C16.099 4.85441 16.3045 4.85815 16.4333 4.99561L18.0667 6.73783C18.1955 6.87529 18.199 7.09441 18.0745 7.22725C17.95 7.36008 17.7446 7.35634 17.6157 7.21888L15.9824 5.47666Z" fill="white"/>
  <path d="M5.75 18.1334C5.68557 18.0647 5.68381 17.9551 5.74608 17.8887L8.90294 14.5214C8.96521 14.4549 9.06792 14.4568 9.13235 14.5255C9.19679 14.5943 9.19854 14.7038 9.13627 14.7703L5.97941 18.1376C5.91714 18.204 5.81443 18.2021 5.75 18.1334Z" fill="white"/>
  <path fill-rule="evenodd" clip-rule="evenodd" d="M9.21765 12.6923C8.95991 12.4174 8.95289 11.9792 9.20196 11.7135L13.9373 6.66254L16.5039 9.40032L14.4745 11.565L13.6578 10.6939C13.5934 10.6252 13.4907 10.6233 13.4284 10.6897C13.3662 10.7562 13.3679 10.8657 13.4324 10.9344L14.249 11.8055L13.798 12.2866L13.448 11.9133C13.3836 11.8445 13.2809 11.8427 13.2186 11.9091C13.1564 11.9755 13.1581 12.0851 13.2226 12.1538L13.5725 12.5271L13.1216 13.0082L12.3049 12.1371C12.2405 12.0683 12.1378 12.0665 12.0755 12.1329C12.0132 12.1993 12.015 12.3089 12.0794 12.3776L12.8961 13.2487L12.4451 13.7297L12.0951 13.3564C12.0307 13.2877 11.928 13.2858 11.8657 13.3522C11.8034 13.4186 11.8052 13.5282 11.8696 13.5969L12.2196 13.9703L11.7686 14.4513C11.5196 14.717 11.1087 14.7095 10.851 14.4346L9.21765 12.6923Z" fill="white"/>
  </svg>
  