<svg width="53" height="63" viewBox="0 0 53 63" fill="none" xmlns="http://www.w3.org/2000/svg">
  <mask id="path-1-outside-1_1477_24691" maskUnits="userSpaceOnUse" x="0.830078" y="0.971313" width="52" height="62" fill="black">
  <rect fill="white" x="0.830078" y="0.971313" width="52" height="62"/>
  <path fill-rule="evenodd" clip-rule="evenodd" d="M32.1615 50.4834C42.9755 47.8983 51.0153 38.17 51.0153 26.5639C51.0153 12.9818 40.0048 1.97131 26.4227 1.97131C12.8406 1.97131 1.83008 12.9818 1.83008 26.5639C1.83008 38.1702 9.87006 47.8986 20.6843 50.4835L26.4229 60.423L32.1615 50.4834Z"/>
  </mask>
  <path fill-rule="evenodd" clip-rule="evenodd" d="M32.1615 50.4834C42.9755 47.8983 51.0153 38.17 51.0153 26.5639C51.0153 12.9818 40.0048 1.97131 26.4227 1.97131C12.8406 1.97131 1.83008 12.9818 1.83008 26.5639C1.83008 38.1702 9.87006 47.8986 20.6843 50.4835L26.4229 60.423L32.1615 50.4834Z" fill="#AA93EC"/>
  <path d="M32.1615 50.4834L31.929 49.5108L31.5106 49.6108L31.2955 49.9834L32.1615 50.4834ZM20.6843 50.4835L21.5503 49.9835L21.3352 49.6109L20.9168 49.5109L20.6843 50.4835ZM26.4229 60.423L25.5569 60.923L26.4229 62.423L27.2889 60.923L26.4229 60.423ZM50.0153 26.5639C50.0153 37.6968 42.3033 47.0308 31.929 49.5108L32.394 51.456C43.6478 48.7658 52.0153 38.6433 52.0153 26.5639H50.0153ZM26.4227 2.97131C39.4525 2.97131 50.0153 13.5341 50.0153 26.5639H52.0153C52.0153 12.4295 40.5571 0.971313 26.4227 0.971313V2.97131ZM2.83008 26.5639C2.83008 13.5341 13.3929 2.97131 26.4227 2.97131V0.971313C12.2883 0.971313 0.830078 12.4295 0.830078 26.5639H2.83008ZM20.9168 49.5109C10.5423 47.0311 2.83008 37.6969 2.83008 26.5639H0.830078C0.830078 38.6434 9.19784 48.7661 20.4518 51.4561L20.9168 49.5109ZM27.2889 59.923L21.5503 49.9835L19.8183 50.9835L25.5569 60.923L27.2889 59.923ZM31.2955 49.9834L25.5569 59.923L27.2889 60.923L33.0275 50.9834L31.2955 49.9834Z" fill="white" mask="url(#path-1-outside-1_1477_24691)"/>
  </svg>
  