<svg width="21" height="21" viewBox="0 0 21 21" fill="none" xmlns="http://www.w3.org/2000/svg">
  <circle cx="10.5" cy="10.5" r="10" fill="#AA93EC" stroke="#DACDFF" />
  <path
    d="M12.4976 11.827L9.8403 15.1802C8.77904 16.5194 6.82448 16.8131 5.47468 15.8362L5.38299 15.7699C4.03319 14.793 3.79928 12.9154 4.86054 11.5762L7.5178 8.22294L12.4976 11.827Z"
    fill="white" />
  <path
    d="M12.2971 11.6779L12.2968 11.6783L12.295 11.6805C12.295 11.6806 12.295 11.6806 12.2949 11.6807C12.1021 11.9238 11.6945 12.0483 11.0972 11.9581C10.5127 11.8698 9.81501 11.5813 9.1537 11.1027C8.49238 10.6241 8.01271 10.0605 7.76534 9.54666C7.51255 9.02154 7.52759 8.61279 7.72032 8.36957L10.3416 5.06174C11.3407 3.80094 13.1728 3.53197 14.4313 4.44281C15.6898 5.35364 15.9155 7.11187 14.9163 8.37267L12.2971 11.6779Z"
    fill="#AA93EC" stroke="white" stroke-width="0.5" />
</svg>
  