<svg width="51" height="60" viewBox="0 0 51 60" fill="none" xmlns="http://www.w3.org/2000/svg">
  <mask id="path-1-inside-1_1477_23340" fill="white">
  <path fill-rule="evenodd" clip-rule="evenodd" d="M31.5763 49.4745C42.6381 46.8384 50.8622 36.917 50.8622 25.0805C50.8622 11.2289 39.5996 0 25.7065 0C11.8134 0 0.550781 11.2289 0.550781 25.0805C0.550781 36.9168 8.77465 46.8381 19.8363 49.4744L25.7063 59.6112L31.5763 49.4745Z"/>
  </mask>
  <path fill-rule="evenodd" clip-rule="evenodd" d="M31.5763 49.4745C42.6381 46.8384 50.8622 36.917 50.8622 25.0805C50.8622 11.2289 39.5996 0 25.7065 0C11.8134 0 0.550781 11.2289 0.550781 25.0805C0.550781 36.9168 8.77465 46.8381 19.8363 49.4744L25.7063 59.6112L31.5763 49.4745Z" fill="#4FBDBD"/>
  <path d="M31.5763 49.4745L31.3445 48.5018L30.9263 48.6014L30.7109 48.9734L31.5763 49.4745ZM19.8363 49.4744L20.7017 48.9733L20.4863 48.6013L20.0682 48.5017L19.8363 49.4744ZM25.7063 59.6112L24.8409 60.1123L25.7063 61.6067L26.5717 60.1123L25.7063 59.6112ZM49.8622 25.0805C49.8622 36.4416 41.9681 45.97 31.3445 48.5018L31.8081 50.4473C43.3082 47.7067 51.8622 37.3924 51.8622 25.0805H49.8622ZM25.7065 1C39.0502 1 49.8622 11.784 49.8622 25.0805H51.8622C51.8622 10.6738 40.1491 -1 25.7065 -1V1ZM1.55078 25.0805C1.55078 11.784 12.3628 1 25.7065 1V-1C11.2639 -1 -0.449219 10.6738 -0.449219 25.0805H1.55078ZM20.0682 48.5017C9.44466 45.9698 1.55078 36.4414 1.55078 25.0805H-0.449219C-0.449219 37.3922 8.10464 47.7065 19.6045 50.4472L20.0682 48.5017ZM26.5717 59.11L20.7017 48.9733L18.9709 49.9756L24.8409 60.1123L26.5717 59.11ZM30.7109 48.9734L24.8409 59.11L26.5717 60.1123L32.4417 49.9756L30.7109 48.9734Z" fill="white" mask="url(#path-1-inside-1_1477_23340)"/>
  <path d="M9.7572 40.2427C9.60477 40.0902 9.60247 39.8454 9.75208 39.6958L18.4202 31.0277C18.5698 30.8781 18.8146 30.8804 18.967 31.0328C19.1195 31.1853 19.1218 31.4301 18.9722 31.5797L10.3041 40.2478C10.1545 40.3974 9.90963 40.3951 9.7572 40.2427Z" fill="#328686"/>
  <path d="M18.1863 27.9496C17.5505 28.5854 17.5293 29.5951 18.139 30.2048L17.2756 31.0683C16.7988 31.5451 16.7829 32.3024 17.2402 32.7597C17.6975 33.217 18.4548 33.2011 18.9316 32.7243L19.795 31.8608C20.4047 32.4706 21.4144 32.4494 22.0503 31.8136L22.6259 31.238L18.7619 27.374L18.1863 27.9496Z" fill="white"/>
  <path d="M34.2562 14.0876L37.1343 11.2096L38.7903 12.8656L35.9122 15.7436L34.2562 14.0876Z" fill="white"/>
  <path d="M30.345 12.4789C30.0401 12.174 30.0507 11.6691 30.3686 11.3512C30.6865 11.0333 31.1914 11.0228 31.4962 11.3276L38.6722 18.5036C38.9771 18.8085 38.9665 19.3133 38.6486 19.6312C38.3307 19.9491 37.8259 19.9597 37.521 19.6549L30.345 12.4789Z" fill="white"/>
  <path d="M36.0303 10.1056C35.7254 9.80069 35.736 9.29584 36.0539 8.97794C36.3718 8.66004 36.8767 8.64947 37.1815 8.95433L41.0455 12.8183C41.3504 13.1232 41.3398 13.628 41.0219 13.9459C40.704 14.2638 40.1992 14.2744 39.8943 13.9696L36.0303 10.1056Z" fill="white"/>
  <path fill-rule="evenodd" clip-rule="evenodd" d="M18.7619 27.374C18.1522 26.7643 18.1733 25.7546 18.8091 25.1188L26.8677 17.0602L32.9397 23.1322L31.7885 24.2834L29.8565 22.3514C29.704 22.199 29.4516 22.2042 29.2927 22.3632C29.1337 22.5221 29.1284 22.7746 29.2809 22.927L31.2129 24.859L30.0616 26.0102L29.2336 25.1822C29.0812 25.0298 28.8288 25.0351 28.6698 25.194C28.5109 25.353 28.5056 25.6054 28.658 25.7578L29.486 26.5858L28.3348 27.7371L26.4028 25.8051C26.2504 25.6526 25.9979 25.6579 25.839 25.8169C25.68 25.9758 25.6747 26.2283 25.8272 26.3807L27.7592 28.3127L26.6079 29.4639L25.7799 28.6359C25.6275 28.4835 25.3751 28.4888 25.2161 28.6477C25.0572 28.8067 25.0519 29.0591 25.2043 29.2115L26.0323 30.0395L24.8811 31.1908C24.2453 31.8266 23.2356 31.8477 22.6259 31.238L18.7619 27.374Z" fill="#328686"/>
  <path d="M26.8677 17.0602L30.897 13.0309L36.969 19.1029L32.9397 23.1322L26.8677 17.0602Z" fill="white"/>
  </svg>
  