<svg width="25" height="25" viewBox="0 0 25 25" fill="none" xmlns="http://www.w3.org/2000/svg">
  <circle cx="12.5" cy="12.5" r="11.413" fill="#4FBDBD"/>
  <path fill-rule="evenodd" clip-rule="evenodd" d="M9.77416 14.0574C9.50343 14.3462 9.51106 14.8225 9.79121 15.1213L9.42356 15.5135C9.22052 15.7301 9.22624 16.0873 9.43635 16.3114C9.64646 16.5356 9.98138 16.5417 10.1844 16.3251L10.5521 15.9329C10.8322 16.2317 11.2788 16.2399 11.5495 15.9511L11.7946 15.6897L10.0193 13.796L9.77416 14.0574Z" fill="white"/>
  <path d="M16.654 7.80107L17.8794 6.49388L18.6403 7.30548L17.4148 8.61267L16.654 7.80107Z" fill="white"/>
  <path d="M14.8956 6.97129C14.7556 6.82188 14.7518 6.58371 14.8871 6.43932C15.0225 6.29493 15.2458 6.29901 15.3858 6.44842L18.6829 9.96532C18.823 10.1147 18.8268 10.3529 18.6915 10.4973C18.5561 10.6417 18.3328 10.6376 18.1927 10.4882L14.8956 6.97129Z" fill="white"/>
  <path d="M17.3722 5.95282C17.2321 5.80341 17.2283 5.56524 17.3637 5.42085C17.499 5.27646 17.7223 5.28053 17.8624 5.42995L19.6378 7.32367C19.7778 7.47308 19.7816 7.71125 19.6463 7.85563C19.5109 8.00002 19.2876 7.99595 19.1476 7.84654L17.3722 5.95282Z" fill="white"/>
  <path d="M6.25007 19.7101C6.18004 19.6354 6.17813 19.5163 6.24581 19.4442L9.67718 15.784C9.74487 15.7118 9.85651 15.7139 9.92654 15.7886C9.99658 15.8633 9.99849 15.9824 9.93081 16.0546L6.49944 19.7147C6.43175 19.7869 6.32011 19.7848 6.25007 19.7101Z" fill="white"/>
  <path fill-rule="evenodd" clip-rule="evenodd" d="M10.0193 13.796C9.73911 13.4971 9.73148 13.0208 10.0022 12.732L15.1493 7.24182L17.9391 10.2177L15.7332 12.5706L14.8456 11.6238C14.7755 11.5491 14.6639 11.547 14.5962 11.6192C14.5285 11.6914 14.5304 11.8105 14.6005 11.8852L15.4881 12.832L14.9979 13.3549L14.6175 12.9491C14.5475 12.8744 14.4358 12.8724 14.3682 12.9446C14.3005 13.0168 14.3024 13.1359 14.3724 13.2106L14.7528 13.6164L14.2626 14.1392L13.375 13.1924C13.3049 13.1177 13.1933 13.1156 13.1256 13.1878C13.0579 13.26 13.0598 13.3791 13.1299 13.4538L14.0176 14.4007L13.5274 14.9236L13.1469 14.5178C13.0769 14.4431 12.9652 14.441 12.8976 14.5132C12.8299 14.5854 12.8318 14.7045 12.9018 14.7792L13.2823 15.185L12.7921 15.7079C12.5213 15.9966 12.0748 15.9885 11.7946 15.6897L10.0193 13.796Z" fill="white"/>
  </svg>
  