<svg width="50" height="59" viewBox="0 0 50 59" fill="none" xmlns="http://www.w3.org/2000/svg">
  <mask id="path-1-inside-1_2916_34430" fill="white">
    <path fill-rule="evenodd" clip-rule="evenodd"
      d="M30.4173 48.6499C41.2622 46.0576 49.3249 36.3016 49.3249 24.6625C49.3249 11.0418 38.2832 0 24.6625 0C11.0418 0 0 11.0418 0 24.6625C0 36.3016 8.06269 46.0576 18.9075 48.6499L24.6624 58.6176L30.4173 48.6499Z" />
  </mask>
  <path fill-rule="evenodd" clip-rule="evenodd"
    d="M30.4173 48.6499C41.2622 46.0576 49.3249 36.3016 49.3249 24.6625C49.3249 11.0418 38.2832 0 24.6625 0C11.0418 0 0 11.0418 0 24.6625C0 36.3016 8.06269 46.0576 18.9075 48.6499L24.6624 58.6176L30.4173 48.6499Z"
    fill="#FF9F2F" />
  <path
    d="M30.4173 48.6499L30.1848 47.6773L29.7664 47.7773L29.5513 48.1499L30.4173 48.6499ZM18.9075 48.6499L19.7736 48.1499L19.5584 47.7773L19.14 47.6773L18.9075 48.6499ZM24.6624 58.6176L23.7964 59.1176L24.6624 60.6176L25.5284 59.1176L24.6624 58.6176ZM48.3249 24.6625C48.3249 35.8284 40.59 45.1902 30.1848 47.6773L30.6498 49.6225C41.9344 46.9251 50.3249 36.7749 50.3249 24.6625H48.3249ZM24.6625 1C37.7309 1 48.3249 11.594 48.3249 24.6625H50.3249C50.3249 10.4895 38.8355 -1 24.6625 -1V1ZM1 24.6625C1 11.594 11.594 1 24.6625 1V-1C10.4895 -1 -1 10.4895 -1 24.6625H1ZM19.14 47.6773C8.73491 45.1901 1 35.8283 1 24.6625H-1C-1 36.7748 7.39046 46.9251 18.675 49.6225L19.14 47.6773ZM25.5284 58.1176L19.7736 48.1499L18.0415 49.1499L23.7964 59.1176L25.5284 58.1176ZM29.5513 48.1499L23.7964 58.1176L25.5284 59.1176L31.2833 49.1499L29.5513 48.1499Z"
    fill="white" mask="url(#path-1-inside-1_2916_34430)" />
  <path fill-rule="evenodd" clip-rule="evenodd"
    d="M12.2243 26.3641C8.39937 26.8518 6 27.5535 6 28.3334C6 29.8061 14.5563 31 25.1111 31C35.6659 31 44.2222 29.8061 44.2222 28.3334C44.2222 27.5535 41.8229 26.8518 37.9979 26.3641C37.9381 23.6045 36.5875 20.9683 34.2249 19.0131C31.8078 17.0127 28.5295 15.8889 25.1111 15.8889C21.6928 15.8889 18.4144 17.0127 15.9973 19.0131C13.6347 20.9683 12.2841 23.6045 12.2243 26.3641Z"
    fill="#FFF38A" />
  <path fill-rule="evenodd" clip-rule="evenodd"
    d="M11.3333 26.2946C11.6177 26.2533 11.9117 26.2134 12.2145 26.1748C12.2247 25.7046 12.2723 25.2381 12.3561 24.7778C13.0529 25.0238 13.9298 25.2717 14.9958 25.4964C17.3854 26.0003 20.6192 26.3662 24.6568 26.3662C30.6663 26.3662 35.2344 25.556 37.8608 24.8584C37.9357 25.2925 37.9785 25.732 37.9881 26.1748C38.3958 26.2267 38.7873 26.2812 39.1613 26.3378C36.5035 27.1387 31.4354 28.144 24.6568 28.144C20.5167 28.144 17.1579 27.7692 14.629 27.236C13.3342 26.963 12.2264 26.6423 11.3333 26.2946Z"
    fill="#FFA471" />
  <circle cx="25.1112" cy="16.3333" r="1.33333" fill="#FFF38A" />
</svg>
  