<svg width="20" height="20" viewBox="0 0 20 20" fill="none" xmlns="http://www.w3.org/2000/svg">
  <circle cx="10" cy="10" r="9.5" fill="#FF9F2F" stroke="#E0782C" />
  <path fill-rule="evenodd" clip-rule="evenodd"
    d="M4.63662 10.8136C3.01638 11.0202 2 11.3174 2 11.6478C2 12.2716 5.62436 12.7773 10.0952 12.7773C14.5661 12.7773 18.1905 12.2716 18.1905 11.6478C18.1905 11.3174 17.1742 11.0202 15.554 10.8137C15.5287 9.64468 14.9566 8.52805 13.9558 7.69984C12.932 6.8525 11.5433 6.37646 10.0953 6.37646C8.64736 6.37646 7.25869 6.8525 6.23482 7.69984C5.23407 8.52804 4.66195 9.64466 4.63662 10.8136Z"
    fill="white" />
  <path fill-rule="evenodd" clip-rule="evenodd"
    d="M4.25977 10.7842C4.38018 10.7667 4.50458 10.7498 4.63276 10.7335C4.63707 10.5343 4.65725 10.3366 4.69273 10.1416C4.98786 10.2458 5.35927 10.3508 5.81072 10.4459C6.82293 10.6594 8.19274 10.8144 9.90303 10.8144C12.4487 10.8144 14.3837 10.4711 15.4962 10.1756C15.528 10.3596 15.5461 10.5458 15.5502 10.7334C15.7227 10.7554 15.8883 10.7785 16.0467 10.8024C14.9207 11.1417 12.7741 11.5674 9.90303 11.5674C8.14932 11.5674 6.72659 11.4086 5.65537 11.1828C5.1071 11.0672 4.63801 10.9314 4.25977 10.7842Z"
    fill="#FF9F2F" />
  <circle cx="10.0953" cy="6.56478" r="0.564784" fill="white" />
</svg>
  