<svg width="50" height="60" viewBox="0 0 50 60" fill="none" xmlns="http://www.w3.org/2000/svg">
  <mask id="path-1-inside-1_2916_34430" fill="white">
  <path fill-rule="evenodd" clip-rule="evenodd" d="M30.4173 49.147C41.2622 46.5547 49.3249 36.7987 49.3249 25.1595C49.3249 11.5388 38.2832 0.49707 24.6625 0.49707C11.0418 0.49707 0 11.5388 0 25.1595C0 36.7987 8.06269 46.5546 18.9075 49.147L24.6624 59.1147L30.4173 49.147Z"/>
  </mask>
  <path fill-rule="evenodd" clip-rule="evenodd" d="M30.4173 49.147C41.2622 46.5547 49.3249 36.7987 49.3249 25.1595C49.3249 11.5388 38.2832 0.49707 24.6625 0.49707C11.0418 0.49707 0 11.5388 0 25.1595C0 36.7987 8.06269 46.5546 18.9075 49.147L24.6624 59.1147L30.4173 49.147Z" fill="#FF9F2F"/>
  <path d="M30.4173 49.147L30.1848 48.1744L29.7664 48.2744L29.5513 48.647L30.4173 49.147ZM18.9075 49.147L19.7736 48.647L19.5584 48.2744L19.14 48.1744L18.9075 49.147ZM24.6624 59.1147L23.7964 59.6147L24.6624 61.1147L25.5284 59.6147L24.6624 59.1147ZM48.3249 25.1595C48.3249 36.3255 40.59 45.6872 30.1848 48.1744L30.6498 50.1196C41.9344 47.4222 50.3249 37.2719 50.3249 25.1595H48.3249ZM24.6625 1.49707C37.7309 1.49707 48.3249 12.0911 48.3249 25.1595H50.3249C50.3249 10.9865 38.8355 -0.50293 24.6625 -0.50293V1.49707ZM1 25.1595C1 12.0911 11.594 1.49707 24.6625 1.49707V-0.50293C10.4895 -0.50293 -1 10.9865 -1 25.1595H1ZM19.14 48.1744C8.73491 45.6872 1 36.3254 1 25.1595H-1C-1 37.2719 7.39046 47.4221 18.675 50.1196L19.14 48.1744ZM25.5284 58.6147L19.7736 48.647L18.0415 49.647L23.7964 59.6147L25.5284 58.6147ZM29.5513 48.647L23.7964 58.6147L25.5284 59.6147L31.2833 49.647L29.5513 48.647Z" fill="white" mask="url(#path-1-inside-1_2916_34430)"/>
  <path d="M18.7107 11.6347L13.5486 29.6917C13.1356 31.1363 14.1664 32.5902 15.6036 32.5902H25.9277C27.3649 32.5902 28.3957 31.1363 27.9828 29.6917L22.8207 11.6347C22.2091 9.49532 19.3223 9.49531 18.7107 11.6347Z" fill="url(#paint0_radial_2916_34430)"/>
  <path fill-rule="evenodd" clip-rule="evenodd" d="M22.3071 11.7965C21.8484 10.1919 19.6832 10.1919 19.2245 11.7965L14.0625 29.8535C13.7527 30.9369 14.5258 32.0273 15.6037 32.0273H25.9278C27.0057 32.0273 27.7788 30.9369 27.4691 29.8535L22.3071 11.7965ZM18.197 11.473C18.9615 8.79872 22.5701 8.79872 23.3346 11.473L28.4966 29.53C29.0128 31.3357 27.7243 33.1531 25.9278 33.1531H15.6037C13.8072 33.1531 12.5187 31.3357 13.0349 29.53L18.197 11.473Z" fill="url(#paint1_radial_2916_34430)"/>
  <path d="M12.1836 30.3387C11.2949 30.3387 10.5745 31.0947 10.5745 32.0273C10.5745 32.9599 11.2949 33.716 12.1836 33.716H29.3477C30.2364 33.716 30.9569 32.9599 30.9569 32.0273C30.9569 31.0947 30.2364 30.3387 29.3477 30.3387H12.1836Z" fill="url(#paint2_radial_2916_34430)"/>
  <path fill-rule="evenodd" clip-rule="evenodd" d="M12.1836 30.9016C11.5911 30.9016 11.1108 31.4056 11.1108 32.0273C11.1108 32.6491 11.5911 33.1531 12.1836 33.1531H29.3477C29.9402 33.1531 30.4205 32.6491 30.4205 32.0273C30.4205 31.4056 29.9402 30.9016 29.3477 30.9016H12.1836ZM10.0381 32.0273C10.0381 30.7838 10.9987 29.7758 12.1836 29.7758H29.3477C30.5327 29.7758 31.4933 30.7838 31.4933 32.0273C31.4933 33.2708 30.5327 34.2788 29.3477 34.2788H12.1836C10.9987 34.2788 10.0381 33.2708 10.0381 32.0273Z" fill="url(#paint3_radial_2916_34430)"/>
  <path fill-rule="evenodd" clip-rule="evenodd" d="M12.7684 29.7746C12.7842 29.7092 12.8033 29.6436 12.8258 29.5781L13.2277 28.4056H28.0931L28.495 29.5781C28.5175 29.6436 28.5366 29.7092 28.5524 29.7746H12.7684Z" fill="#FF9F2F"/>
  <circle cx="32.1932" cy="30.7474" r="9.33066" transform="rotate(15 32.1932 30.7474)" fill="#FF9F2F"/>
  <circle cx="32.1926" cy="30.7474" r="7.99906" transform="rotate(15 32.1926 30.7474)" fill="url(#paint4_radial_2916_34430)"/>
  <path fill-rule="evenodd" clip-rule="evenodd" d="M28.0663 38.0839C27.9472 37.6432 27.8358 37.1882 27.7355 36.7228C27.2023 34.2478 26.9707 31.4131 27.648 28.8853C28.328 26.3475 29.8883 24.2485 31.5245 22.667C31.9587 22.2473 32.4011 21.8613 32.838 21.5106C33.9131 21.5764 34.9881 21.8402 36.0083 22.3152C36.2186 22.8519 36.4156 23.4243 36.5871 24.0234C37.2133 26.2111 37.5151 28.8091 36.8351 31.3469C36.1578 33.8747 34.5398 36.2138 32.8405 38.0906C32.5062 38.4599 32.1668 38.8133 31.8284 39.1488C31.2595 39.1195 30.6902 39.0349 30.1286 38.893C30.69 38.3771 31.269 37.8019 31.8333 37.1786C33.464 35.3776 34.9245 33.2274 35.5226 30.9953C36.118 28.7732 35.8655 26.44 35.2808 24.3973C35.033 23.5317 34.7283 22.728 34.4111 22.0192C33.782 22.4745 33.1162 23.0182 32.4688 23.6439C30.9411 25.1206 29.5558 27.015 28.9604 29.237C28.3623 31.4691 28.5521 34.0615 29.0638 36.4366C29.2403 37.2561 29.4534 38.0415 29.6808 38.7671C29.1304 38.5965 28.5896 38.3694 28.0663 38.0839Z" fill="#FF9F2F"/>
  <defs>
  <radialGradient id="paint0_radial_2916_34430" cx="0" cy="0" r="1" gradientUnits="userSpaceOnUse" gradientTransform="translate(19.3475 11.6162) rotate(75.6448) scale(23.393 20.2285)">
  <stop stop-color="white"/>
  <stop offset="1" stop-color="#FFF384"/>
  </radialGradient>
  <radialGradient id="paint1_radial_2916_34430" cx="0" cy="0" r="1" gradientUnits="userSpaceOnUse" gradientTransform="translate(19.3475 11.6162) rotate(75.6448) scale(23.393 20.2285)">
  <stop stop-color="white"/>
  <stop offset="1" stop-color="#FFF384"/>
  </radialGradient>
  <radialGradient id="paint2_radial_2916_34430" cx="0" cy="0" r="1" gradientUnits="userSpaceOnUse" gradientTransform="translate(19.3475 11.6162) rotate(75.6448) scale(23.393 20.2285)">
  <stop stop-color="white"/>
  <stop offset="1" stop-color="#FFF384"/>
  </radialGradient>
  <radialGradient id="paint3_radial_2916_34430" cx="0" cy="0" r="1" gradientUnits="userSpaceOnUse" gradientTransform="translate(19.3475 11.6162) rotate(75.6448) scale(23.393 20.2285)">
  <stop stop-color="white"/>
  <stop offset="1" stop-color="#FFF384"/>
  </radialGradient>
  <radialGradient id="paint4_radial_2916_34430" cx="0" cy="0" r="1" gradientUnits="userSpaceOnUse" gradientTransform="translate(29.6941 27.3753) rotate(60.4309) scale(11.9146)">
  <stop stop-color="white"/>
  <stop offset="1" stop-color="#FFF384"/>
  </radialGradient>
  </defs>
  </svg>
  