<svg width="23" height="23" viewBox="0 0 23 23" fill="none" xmlns="http://www.w3.org/2000/svg">
  <circle cx="11.5" cy="11.5" r="11" fill="#FF9649" stroke="#D66615" />
  <path fill-rule="evenodd" clip-rule="evenodd"
    d="M10.8949 6.88921C10.556 5.7036 8.95612 5.7036 8.61719 6.88921L6.47114 14.3961H13.0409L10.8949 6.88921ZM13.2096 15.0031H6.30246C6.30243 15.0033 6.30239 15.0034 6.30236 15.0036H5.9512C5.42587 15.0036 5 15.4505 5 16.0018C5 16.5531 5.42587 17 5.9512 17H13.5608C14.0861 17 14.512 16.5531 14.512 16.0018C14.512 15.4505 14.0861 15.0036 13.5608 15.0036H13.2097C13.2097 15.0034 13.2097 15.0033 13.2096 15.0031Z"
    fill="white" />
  <path fill-rule="evenodd" clip-rule="evenodd"
    d="M17.1969 7.90524C17.2502 7.92928 17.3031 7.95488 17.3557 7.98205C17.3805 7.99489 17.4051 8.008 17.4294 8.02139C17.4719 8.26063 17.5049 8.51859 17.5219 8.78775C17.5738 9.60757 17.4762 10.5097 17.0676 11.2996C16.6571 12.0932 15.9276 12.7845 15.1628 13.3298C14.9262 13.4985 14.6883 13.6518 14.4585 13.7884C14.4302 13.7748 14.402 13.7607 14.3739 13.7462C14.3183 13.7174 14.2638 13.6872 14.2105 13.6557C14.1895 13.3905 14.1773 13.1094 14.1782 12.8204C14.1814 11.8811 14.3242 10.8863 14.7347 10.0927C15.1433 9.30275 15.8232 8.70185 16.5223 8.27051C16.7503 8.12982 16.9784 8.00838 17.1969 7.90524ZM16.4907 7.67935C15.1108 7.40753 13.6614 8.06127 12.9827 9.37325C12.2967 10.6994 12.6146 12.2797 13.6604 13.2463C13.6551 13.1062 13.6524 12.9633 13.6529 12.8186C13.6562 11.8398 13.8032 10.75 14.2681 9.85135C14.7348 8.94912 15.4977 8.2854 16.2464 7.82343C16.3279 7.77316 16.4094 7.72514 16.4907 7.67935ZM15.0884 14.0155C15.2144 13.9338 15.3413 13.8478 15.4678 13.7576C16.2648 13.1893 17.0693 12.4397 17.5342 11.541C18.0009 10.6388 18.1018 9.63262 18.0462 8.75456C18.0394 8.64679 18.0302 8.54061 18.019 8.43644C19.1046 9.39837 19.4437 11.0078 18.7469 12.355C18.0435 13.7148 16.5122 14.3675 15.0884 14.0155Z"
    fill="white" />
</svg>
  