<svg width="25" height="25" viewBox="0 0 25 25" fill="none" xmlns="http://www.w3.org/2000/svg">
<circle cx="12.5" cy="12.5" r="11.413" fill="#FF9649"/>
<path fill-rule="evenodd" clip-rule="evenodd" d="M11.8421 7.48826C11.4737 6.19955 9.7347 6.19955 9.36629 7.48826L7.03364 15.648H14.1747L11.8421 7.48826ZM14.3581 16.3077H6.85029C6.85025 16.3079 6.85021 16.3081 6.85017 16.3083H6.46848C5.89747 16.3083 5.43457 16.794 5.43457 17.3933C5.43457 17.9925 5.89747 18.4783 6.46848 18.4783H14.7398C15.3108 18.4783 15.7737 17.9925 15.7737 17.3933C15.7737 16.794 15.3108 16.3083 14.7398 16.3083H14.3582C14.3581 16.3081 14.3581 16.3079 14.3581 16.3077Z" fill="white"/>
<path fill-rule="evenodd" clip-rule="evenodd" d="M18.6924 8.59266C18.7503 8.61879 18.8078 8.64661 18.8649 8.67615C18.8919 8.6901 18.9186 8.70436 18.9451 8.71891C18.9913 8.97895 19.0271 9.25934 19.0457 9.55191C19.1021 10.443 18.996 11.4236 18.5518 12.2822C18.1056 13.1448 17.3127 13.8962 16.4814 14.489C16.2242 14.6723 15.9656 14.8389 15.7159 14.9874C15.6851 14.9726 15.6545 14.9573 15.6239 14.9415C15.5634 14.9102 15.5042 14.8774 15.4463 14.8432C15.4235 14.5549 15.4102 14.2493 15.4112 13.9352C15.4147 12.9142 15.5698 11.8329 16.016 10.9704C16.4602 10.1117 17.1992 9.45854 17.9591 8.9897C18.207 8.83677 18.4549 8.70477 18.6924 8.59266ZM17.9247 8.34712C16.4249 8.05167 14.8494 8.76226 14.1118 10.1883C13.3661 11.6298 13.7117 13.3475 14.8483 14.3982C14.8426 14.2458 14.8397 14.0906 14.8402 13.9333C14.8438 12.8693 15.0036 11.6848 15.5089 10.708C16.0162 9.72732 16.8454 9.00588 17.6593 8.50374C17.7478 8.4491 17.8364 8.3969 17.9247 8.34712ZM16.4006 15.2342C16.5375 15.1454 16.6754 15.0519 16.8129 14.9539C17.6792 14.3362 18.5537 13.5214 19.059 12.5446C19.5663 11.5639 19.6759 10.4702 19.6155 9.51584C19.6081 9.39869 19.5981 9.28328 19.5859 9.17005C20.766 10.2156 21.1346 11.965 20.3771 13.4293C19.6126 14.9074 17.9481 15.6168 16.4006 15.2342Z" fill="white"/>
</svg>
