<svg width="50" height="59" viewBox="0 0 50 59" fill="none" xmlns="http://www.w3.org/2000/svg">
  <mask id="path-1-inside-1_2916_34430" fill="white">
    <path fill-rule="evenodd" clip-rule="evenodd"
      d="M30.4173 48.6499C41.2622 46.0576 49.3249 36.3016 49.3249 24.6625C49.3249 11.0418 38.2832 0 24.6625 0C11.0418 0 0 11.0418 0 24.6625C0 36.3016 8.06269 46.0576 18.9075 48.6499L24.6624 58.6176L30.4173 48.6499Z" />
  </mask>
  <path fill-rule="evenodd" clip-rule="evenodd"
    d="M30.4173 48.6499C41.2622 46.0576 49.3249 36.3016 49.3249 24.6625C49.3249 11.0418 38.2832 0 24.6625 0C11.0418 0 0 11.0418 0 24.6625C0 36.3016 8.06269 46.0576 18.9075 48.6499L24.6624 58.6176L30.4173 48.6499Z"
    fill="#FF9F2F" />
  <path
    d="M30.4173 48.6499L30.1848 47.6773L29.7664 47.7773L29.5513 48.1499L30.4173 48.6499ZM18.9075 48.6499L19.7736 48.1499L19.5584 47.7773L19.14 47.6773L18.9075 48.6499ZM24.6624 58.6176L23.7964 59.1176L24.6624 60.6176L25.5284 59.1176L24.6624 58.6176ZM48.3249 24.6625C48.3249 35.8284 40.59 45.1902 30.1848 47.6773L30.6498 49.6225C41.9344 46.9251 50.3249 36.7749 50.3249 24.6625H48.3249ZM24.6625 1C37.7309 1 48.3249 11.594 48.3249 24.6625H50.3249C50.3249 10.4895 38.8355 -1 24.6625 -1V1ZM1 24.6625C1 11.594 11.594 1 24.6625 1V-1C10.4895 -1 -1 10.4895 -1 24.6625H1ZM19.14 47.6773C8.73491 45.1901 1 35.8283 1 24.6625H-1C-1 36.7748 7.39046 46.9251 18.675 49.6225L19.14 47.6773ZM25.5284 58.1176L19.7736 48.1499L18.0415 49.1499L23.7964 59.1176L25.5284 58.1176ZM29.5513 48.1499L23.7964 58.1176L25.5284 59.1176L31.2833 49.1499L29.5513 48.1499Z"
    fill="white" mask="url(#path-1-inside-1_2916_34430)" />
  <path
    d="M18.7107 11.1376L13.5486 29.1946C13.1356 30.6392 14.1664 32.0931 15.6036 32.0931H25.9277C27.3649 32.0931 28.3957 30.6392 27.9828 29.1946L22.8207 11.1376C22.2091 8.99824 19.3223 8.99824 18.7107 11.1376Z"
    fill="url(#paint0_radial_2916_34430)" />
  <path fill-rule="evenodd" clip-rule="evenodd"
    d="M22.3071 11.2994C21.8484 9.69484 19.6832 9.69484 19.2245 11.2994L14.0625 29.3564C13.7527 30.4398 14.5258 31.5303 15.6037 31.5303H25.9278C27.0057 31.5303 27.7788 30.4398 27.4691 29.3564L22.3071 11.2994ZM18.197 10.9759C18.9615 8.30165 22.5701 8.30165 23.3346 10.9759L28.4966 29.0329C29.0128 30.8387 27.7243 32.656 25.9278 32.656H15.6037C13.8072 32.656 12.5187 30.8387 13.0349 29.0329L18.197 10.9759Z"
    fill="url(#paint1_radial_2916_34430)" />
  <path
    d="M12.1836 29.8416C11.2949 29.8416 10.5745 30.5976 10.5745 31.5303C10.5745 32.4629 11.2949 33.2189 12.1836 33.2189H29.3477C30.2364 33.2189 30.9569 32.4629 30.9569 31.5303C30.9569 30.5976 30.2364 29.8416 29.3477 29.8416H12.1836Z"
    fill="url(#paint2_radial_2916_34430)" />
  <path fill-rule="evenodd" clip-rule="evenodd"
    d="M12.1836 30.4045C11.5911 30.4045 11.1108 30.9085 11.1108 31.5303C11.1108 32.152 11.5911 32.656 12.1836 32.656H29.3477C29.9402 32.656 30.4205 32.152 30.4205 31.5303C30.4205 30.9085 29.9402 30.4045 29.3477 30.4045H12.1836ZM10.0381 31.5303C10.0381 30.2868 10.9987 29.2787 12.1836 29.2787H29.3477C30.5327 29.2787 31.4933 30.2868 31.4933 31.5303C31.4933 32.7737 30.5327 33.7818 29.3477 33.7818H12.1836C10.9987 33.7818 10.0381 32.7737 10.0381 31.5303Z"
    fill="url(#paint3_radial_2916_34430)" />
  <path fill-rule="evenodd" clip-rule="evenodd"
    d="M12.7684 29.2776C12.7842 29.2121 12.8033 29.1466 12.8258 29.081L13.2277 27.9085H28.0931L28.495 29.081C28.5175 29.1466 28.5366 29.2121 28.5524 29.2776H12.7684Z"
    fill="#FF9F2F" />
  <circle cx="32.1932" cy="30.2503" r="9.33066" transform="rotate(15 32.1932 30.2503)"
    fill="#FF9F2F" />
  <circle cx="32.1926" cy="30.2503" r="7.99906" transform="rotate(15 32.1926 30.2503)"
    fill="url(#paint4_radial_2916_34430)" />
  <path fill-rule="evenodd" clip-rule="evenodd"
    d="M28.0663 37.5868C27.9472 37.1462 27.8358 36.6911 27.7355 36.2257C27.2023 33.7507 26.9707 30.916 27.648 28.3883C28.328 25.8505 29.8883 23.7514 31.5245 22.1699C31.9587 21.7502 32.4011 21.3642 32.838 21.0135C33.9131 21.0794 34.9881 21.3432 36.0083 21.8181C36.2186 22.3548 36.4156 22.9272 36.5871 23.5263C37.2133 25.714 37.5151 28.312 36.8351 30.8499C36.1578 33.3776 34.5398 35.7167 32.8405 37.5935C32.5062 37.9628 32.1668 38.3162 31.8284 38.6517C31.2595 38.6224 30.6902 38.5378 30.1286 38.3959C30.69 37.8801 31.269 37.3048 31.8333 36.6816C33.464 34.8805 34.9245 32.7303 35.5226 30.4982C36.118 28.2761 35.8655 25.9429 35.2808 23.9002C35.033 23.0346 34.7283 22.2309 34.4111 21.5222C33.782 21.9774 33.1162 22.5211 32.4688 23.1469C30.9411 24.6235 29.5558 26.5179 28.9604 28.74C28.3623 30.9721 28.5521 33.5645 29.0638 35.9396C29.2403 36.759 29.4534 37.5444 29.6808 38.2701C29.1304 38.0994 28.5896 37.8723 28.0663 37.5868Z"
    fill="#FF9F2F" />
  <defs>
    <radialGradient id="paint0_radial_2916_34430" cx="0" cy="0" r="1" gradientUnits="userSpaceOnUse"
      gradientTransform="translate(19.3475 11.1191) rotate(75.6448) scale(23.393 20.2285)">
      <stop stop-color="white" />
      <stop offset="1" stop-color="#FFF384" />
    </radialGradient>
    <radialGradient id="paint1_radial_2916_34430" cx="0" cy="0" r="1" gradientUnits="userSpaceOnUse"
      gradientTransform="translate(19.3475 11.1191) rotate(75.6448) scale(23.393 20.2285)">
      <stop stop-color="white" />
      <stop offset="1" stop-color="#FFF384" />
    </radialGradient>
    <radialGradient id="paint2_radial_2916_34430" cx="0" cy="0" r="1" gradientUnits="userSpaceOnUse"
      gradientTransform="translate(19.3475 11.1191) rotate(75.6448) scale(23.393 20.2285)">
      <stop stop-color="white" />
      <stop offset="1" stop-color="#FFF384" />
    </radialGradient>
    <radialGradient id="paint3_radial_2916_34430" cx="0" cy="0" r="1" gradientUnits="userSpaceOnUse"
      gradientTransform="translate(19.3475 11.1191) rotate(75.6448) scale(23.393 20.2285)">
      <stop stop-color="white" />
      <stop offset="1" stop-color="#FFF384" />
    </radialGradient>
    <radialGradient id="paint4_radial_2916_34430" cx="0" cy="0" r="1" gradientUnits="userSpaceOnUse"
      gradientTransform="translate(29.6941 26.8782) rotate(60.4309) scale(11.9146)">
      <stop stop-color="white" />
      <stop offset="1" stop-color="#FFF384" />
    </radialGradient>
  </defs>
</svg>
  