<svg width="21" height="21" viewBox="0 0 21 21" fill="none" xmlns="http://www.w3.org/2000/svg">
<path d="M8.91334 12.0858C9.37459 12.5246 9.37459 13.2446 8.91334 13.6833C8.47459 14.1221 7.75459 14.1221 7.31584 13.6833C6.26214 12.6281 5.67031 11.1977 5.67031 9.70646C5.67031 8.21519 6.26214 6.78487 7.31584 5.72959L11.2983 1.74709C12.3536 0.693391 13.7839 0.101562 15.2752 0.101563C16.7665 0.101562 18.1968 0.693391 19.2521 1.74709C20.3058 2.80237 20.8976 4.23269 20.8976 5.72397C20.8976 7.21524 20.3058 8.64556 19.2521 9.70084L17.5758 11.3771C17.5871 10.4546 17.4408 9.53209 17.1258 8.65459L17.6546 8.11459C17.97 7.80261 18.2203 7.43118 18.3912 7.0218C18.5621 6.61241 18.6501 6.17321 18.6501 5.72959C18.6501 5.28598 18.5621 4.84677 18.3912 4.43738C18.2203 4.028 17.97 3.65657 17.6546 3.34459C17.3426 3.02921 16.9712 2.77884 16.5618 2.60796C16.1524 2.43709 15.7132 2.3491 15.2696 2.3491C14.826 2.3491 14.3868 2.43709 13.9774 2.60796C13.568 2.77884 13.1966 3.02921 12.8846 3.34459L8.91334 7.31584C8.59796 7.62782 8.34759 7.99925 8.17671 8.40863C8.00584 8.81802 7.91785 9.25723 7.91785 9.70084C7.91785 10.1445 8.00584 10.5837 8.17671 10.993C8.34759 11.4024 8.59796 11.7739 8.91334 12.0858ZM12.0858 7.31584C12.5246 6.87709 13.2446 6.87709 13.6833 7.31584C14.737 8.37112 15.3289 9.80144 15.3289 11.2927C15.3289 12.784 14.737 14.2143 13.6833 15.2696L9.70084 19.2521C8.64556 20.3058 7.21524 20.8976 5.72397 20.8976C4.23269 20.8976 2.80237 20.3058 1.74709 19.2521C0.693391 18.1968 0.101562 16.7665 0.101562 15.2752C0.101562 13.7839 0.693391 12.3536 1.74709 11.2983L3.42334 9.62209C3.41209 10.5446 3.55834 11.4671 3.87334 12.3558L3.34459 12.8846C3.02921 13.1966 2.77884 13.568 2.60796 13.9774C2.43709 14.3868 2.3491 14.826 2.3491 15.2696C2.3491 15.7132 2.43709 16.1524 2.60796 16.5618C2.77884 16.9712 3.02921 17.3426 3.34459 17.6546C3.65657 17.97 4.028 18.2203 4.43738 18.3912C4.84677 18.5621 5.28598 18.6501 5.72959 18.6501C6.17321 18.6501 6.61241 18.5621 7.0218 18.3912C7.43118 18.2203 7.80261 17.97 8.11459 17.6546L12.0858 13.6833C12.4012 13.3714 12.6516 12.9999 12.8225 12.5905C12.9933 12.1812 13.0813 11.742 13.0813 11.2983C13.0813 10.8547 12.9933 10.4155 12.8225 10.0061C12.6516 9.59675 12.4012 9.22532 12.0858 8.91334C11.9766 8.81096 11.8895 8.68725 11.8299 8.54986C11.7704 8.41247 11.7397 8.26433 11.7397 8.11459C11.7397 7.96486 11.7704 7.81671 11.8299 7.67932C11.8895 7.54194 11.9766 7.41822 12.0858 7.31584Z" fill="#212122"/>
</svg>
