<svg width="100" height="23" viewBox="0 0 100 23" fill="none" xmlns="http://www.w3.org/2000/svg">
<g clip-path="url(#clip0_2437_27371)">
<path d="M88.7848 22.9996C85.578 22.9996 82.8882 21.9069 80.7576 19.7002C78.627 17.4935 77.5508 14.761 77.5508 11.4831C77.5508 8.20515 78.627 5.49413 80.7576 3.28741C82.8897 1.10046 85.578 0.0078125 88.7848 0.0078125C91.9916 0.0078125 94.6611 1.10046 96.7916 3.28576C98.9222 5.49248 99.9985 8.22492 99.9985 11.4814C99.9985 14.738 98.9222 17.4918 96.7916 19.6986C94.6611 21.9053 91.9916 22.9979 88.7848 22.9979V22.9996ZM88.7848 16.9266C90.239 16.9266 91.4542 16.4008 92.4305 15.3708C93.4068 14.3408 93.8847 13.0388 93.8847 11.4831C93.8847 9.92735 93.4068 8.64682 92.4305 7.6168C91.4542 6.58678 90.239 6.08248 88.7848 6.08248C87.3305 6.08248 86.0965 6.58678 85.139 7.6168C84.1628 8.64682 83.6848 9.94877 83.6848 11.4831C83.6848 13.0174 84.1628 14.3408 85.139 15.3708C86.095 16.4008 87.3102 16.9266 88.7848 16.9266Z" fill="black"/>
<path d="M71.1144 11.5029H69.6368V15.3939C68.6652 16.4074 67.4593 16.9249 66.0176 16.9249C64.5446 16.9249 63.3294 16.3992 62.3734 15.3692C61.3972 14.3391 60.9192 13.0372 60.9192 11.4814C60.9192 9.9257 61.3972 8.64517 62.3734 7.61515C63.3294 6.58513 64.5446 6.08083 66.0191 6.08083H69.1494V0.0078125H66.0191C62.8123 0.0078125 60.1226 1.10046 57.992 3.28576C55.8614 5.49248 54.7852 8.22492 54.7852 11.4814C54.7852 14.738 55.8614 17.4918 57.992 19.6986C60.1226 21.9053 62.8123 22.9979 66.0176 22.9979C69.2244 22.9979 71.8923 21.9053 74.0245 19.6986C74.5415 19.1629 74.9929 18.596 75.3865 17.9994H75.3897V11.5029H71.116H71.1144Z" fill="black"/>
<path d="M53.7588 16.7078H45.3505V0H39.3945V16.7078V22.9901H45.3505H53.7588V16.7078Z" fill="black"/>
<path d="M16.3636 3.30718C14.2331 1.10046 11.5433 0.0078125 8.33646 0.0078125H0V22.9979H8.33646C11.5433 22.9979 14.2331 21.9053 16.3636 19.72C18.4942 17.5133 19.5704 14.7808 19.5704 11.5243C19.5704 8.26777 18.4942 5.5139 16.3636 3.30718ZM11.9822 15.3906C11.0262 16.4206 9.811 16.9249 8.33646 16.9249V16.9299H5.95595V6.07588H8.33646V6.08083C9.811 6.08083 11.0247 6.60655 11.9822 7.63657C12.9585 8.6666 13.4364 9.96854 13.4364 11.5243C13.4364 13.08 12.9585 14.3606 11.9822 15.3906Z" fill="black"/>
<path d="M32.9664 6.08083H36.0967V0.0078125H32.9664C29.7596 0.0078125 27.0698 1.10046 24.9392 3.28576C22.8086 5.49248 21.7324 8.22492 21.7324 11.4814C21.7324 14.738 22.8086 17.4918 24.9392 19.6986C27.0698 21.9053 29.7596 22.9979 32.9664 22.9979H36.0967V16.9249H32.9664C31.4919 16.9249 30.2782 16.3992 29.3207 15.3692C29.0739 15.1088 28.8599 14.8319 28.6771 14.5369H36.0967V8.46883H28.6646C28.8505 8.16724 29.0676 7.88213 29.3207 7.61515C30.2766 6.58513 31.4919 6.08083 32.9664 6.08083Z" fill="black"/>
</g>
<defs>
<clipPath id="clip0_2437_27371">
<rect width="100" height="23" fill="white"/>
</clipPath>
</defs>
</svg>
