<svg width="512" height="512" viewBox="0 0 512 512" fill="none" xmlns="http://www.w3.org/2000/svg">
<rect width="512" height="512" fill="#212122"/>
<g clip-path="url(#clip0_2316_26250)">
<path d="M415.131 300.001C402.015 300.001 391.014 295.725 382.299 287.09C373.585 278.455 369.184 267.763 369.184 254.936C369.184 242.11 373.585 231.501 382.299 222.866C391.02 214.309 402.015 210.033 415.131 210.033C428.246 210.033 439.165 214.309 447.879 222.86C456.593 231.495 460.995 242.187 460.995 254.93C460.995 267.673 456.593 278.449 447.879 287.084C439.165 295.719 428.246 299.995 415.131 299.995V300.001ZM415.131 276.237C421.078 276.237 426.049 274.18 430.042 270.149C434.035 266.119 435.989 261.024 435.989 254.936C435.989 248.849 434.035 243.838 430.042 239.807C426.049 235.777 421.078 233.804 415.131 233.804C409.183 233.804 404.136 235.777 400.22 239.807C396.227 243.838 394.272 248.933 394.272 254.936C394.272 260.94 396.227 266.119 400.22 270.149C404.129 274.18 409.1 276.237 415.131 276.237Z" fill="white"/>
<path d="M342.861 255.014H336.817V270.24C332.844 274.206 327.912 276.231 322.015 276.231C315.99 276.231 311.02 274.173 307.11 270.143C303.117 266.112 301.162 261.018 301.162 254.93C301.162 248.842 303.117 243.832 307.11 239.801C311.02 235.771 315.99 233.797 322.021 233.797H334.824V210.033H322.021C308.905 210.033 297.904 214.309 289.19 222.86C280.476 231.495 276.074 242.187 276.074 254.93C276.074 267.673 280.476 278.449 289.19 287.084C297.904 295.719 308.905 299.995 322.015 299.995C335.131 299.995 346.042 295.719 354.763 287.084C356.878 284.988 358.724 282.77 360.334 280.435H360.347V255.014H342.867H342.861Z" fill="white"/>
<path d="M271.871 275.378H237.481V210H213.121V275.378V299.961H237.481H271.871V275.378Z" fill="white"/>
<path d="M118.927 222.944C110.213 214.309 99.212 210.033 86.0961 210.033H52V299.995H86.0961C99.212 299.995 110.213 295.719 118.927 287.168C127.641 278.533 132.043 267.841 132.043 255.098C132.043 242.355 127.641 231.579 118.927 222.944V222.944ZM101.007 270.227C97.0973 274.257 92.127 276.231 86.0961 276.231V276.25H76.3598V233.778H86.0961V233.797C92.127 233.797 97.0909 235.854 101.007 239.885C105 243.915 106.955 249.01 106.955 255.098C106.955 261.185 105 266.196 101.007 270.227Z" fill="white"/>
<path d="M186.834 233.797H199.637V210.033H186.834C173.718 210.033 162.717 214.309 154.003 222.86C145.288 231.495 140.887 242.187 140.887 254.93C140.887 267.673 145.288 278.449 154.003 287.084C162.717 295.719 173.718 299.995 186.834 299.995H199.637V276.231H186.834C180.803 276.231 175.839 274.173 171.923 270.143C170.913 269.124 170.038 268.041 169.291 266.886H199.637V243.142H169.239C170 241.961 170.888 240.846 171.923 239.801C175.833 235.771 180.803 233.797 186.834 233.797V233.797Z" fill="white"/>
</g>
<defs>
<clipPath id="clip0_2316_26250">
<rect width="409" height="90" fill="white" transform="translate(52 210)"/>
</clipPath>
</defs>
</svg>
