<svg width="52" height="63" viewBox="0 0 52 63" fill="none" xmlns="http://www.w3.org/2000/svg">
  <mask id="path-1-outside-1_1477_24701" maskUnits="userSpaceOnUse" x="0.744629" y="0.971313" width="52" height="62" fill="black">
  <rect fill="white" x="0.744629" y="0.971313" width="52" height="62"/>
  <path fill-rule="evenodd" clip-rule="evenodd" d="M32.0758 50.4834C42.89 47.8985 50.9299 38.1701 50.9299 26.5639C50.9299 12.9818 39.9194 1.97131 26.3372 1.97131C12.7551 1.97131 1.74463 12.9818 1.74463 26.5639C1.74463 38.1701 9.78447 47.8984 20.5986 50.4834L26.3372 60.423L32.0758 50.4834Z"/>
  </mask>
  <path fill-rule="evenodd" clip-rule="evenodd" d="M32.0758 50.4834C42.89 47.8985 50.9299 38.1701 50.9299 26.5639C50.9299 12.9818 39.9194 1.97131 26.3372 1.97131C12.7551 1.97131 1.74463 12.9818 1.74463 26.5639C1.74463 38.1701 9.78447 47.8984 20.5986 50.4834L26.3372 60.423L32.0758 50.4834Z" fill="white"/>
  <path d="M32.0758 50.4834L31.8433 49.5108L31.4249 49.6109L31.2098 49.9834L32.0758 50.4834ZM20.5986 50.4834L21.4646 49.9834L21.2495 49.6108L20.8311 49.5108L20.5986 50.4834ZM26.3372 60.423L25.4712 60.923L26.3372 62.423L27.2032 60.923L26.3372 60.423ZM49.9299 26.5639C49.9299 37.6969 42.2177 47.031 31.8433 49.5108L32.3083 51.456C43.5622 48.766 51.9299 38.6434 51.9299 26.5639H49.9299ZM26.3372 2.97131C39.3671 2.97131 49.9299 13.5341 49.9299 26.5639H51.9299C51.9299 12.4295 40.4717 0.971313 26.3372 0.971313V2.97131ZM2.74463 26.5639C2.74463 13.5341 13.3074 2.97131 26.3372 2.97131V0.971313C12.2028 0.971313 0.744629 12.4295 0.744629 26.5639H2.74463ZM20.8311 49.5108C10.4567 47.0309 2.74463 37.6968 2.74463 26.5639H0.744629C0.744629 38.6433 9.11224 48.7659 20.3661 51.456L20.8311 49.5108ZM27.2032 59.923L21.4646 49.9834L19.7326 50.9834L25.4712 60.923L27.2032 59.923ZM31.2098 49.9834L25.4712 59.923L27.2032 60.923L32.9418 50.9834L31.2098 49.9834Z" fill="#565656" mask="url(#path-1-outside-1_1477_24701)"/>
  </svg>
  