<svg width="15" height="15" viewBox="0 0 15 15" fill="none" xmlns="http://www.w3.org/2000/svg">
<path d="M12.8806 10.0875L10.8647 9.8573C10.6277 9.82946 10.3874 9.8557 10.162 9.93405C9.93653 10.0124 9.73178 10.1408 9.56311 10.3097L8.10279 11.77C5.84976 10.6241 4.01849 8.79286 2.87263 6.53984L4.34088 5.07158C4.68215 4.73031 4.84882 4.25412 4.79326 3.77L4.56311 1.77C4.51811 1.38284 4.33231 1.02574 4.04107 0.766702C3.74984 0.507663 3.37351 0.364772 2.98374 0.365235H1.61073C0.7139 0.365235 -0.0321323 1.11127 0.0234233 2.00809C0.444058 8.78587 5.86469 14.1986 12.6345 14.6192C13.5314 14.6748 14.2774 13.9287 14.2774 13.0319V11.6589C14.2853 10.8573 13.6822 10.1827 12.8806 10.0875Z" fill="black"/>
</svg>
