<svg width="15" height="20" viewBox="0 0 15 20" fill="none" xmlns="http://www.w3.org/2000/svg">
  <path d="M0 7.85722L0.5 7.85776C0.500034 7.82587 0.500266 7.794 0.500693 7.76215L0.500876 7.76215L0.500692 7.74863C0.500231 7.71483 0.5 7.68097 0.5 7.64706C0.5 3.69065 3.64312 0.5 7.5 0.5C11.3569 0.5 14.5 3.69065 14.5 7.64706C14.5 7.68099 14.4998 7.71486 14.4993 7.74866L14.4991 7.74866L14.4993 7.76219C14.4997 7.79403 14.5 7.82588 14.5 7.85776C14.4998 10.5125 13.324 13.3747 11.0357 16.1317L11.0348 16.1328C10.0093 17.3757 8.85571 18.4949 7.59527 19.4702C7.5659 19.4907 7.53395 19.5 7.50341 19.5C7.47281 19.5 7.4408 19.4906 7.41139 19.47C6.14852 18.4951 4.99254 17.3758 3.96495 16.1325L3.96406 16.1315C1.67268 13.3747 0.5 10.5124 0.5 7.85722H0ZM0 7.85722C0 10.6608 1.23665 13.6323 3.57955 16.4511L14.9993 7.75548C14.9998 7.7194 15 7.68326 15 7.64706C15 3.4237 11.6421 0 7.5 0C3.35786 0 0 3.4237 0 7.64706C0 7.68325 0.000246522 7.71937 0.000737948 7.75544C0.000282996 7.78935 3.67628e-05 7.82327 0 7.85722Z" stroke="black"/>
  <path fill-rule="evenodd" clip-rule="evenodd" d="M7.5 10C8.88071 10 10 8.88071 10 7.5C10 6.11929 8.88071 5 7.5 5C6.11929 5 5 6.11929 5 7.5C5 8.88071 6.11929 10 7.5 10ZM7.5 11C9.433 11 11 9.433 11 7.5C11 5.567 9.433 4 7.5 4C5.567 4 4 5.567 4 7.5C4 9.433 5.567 11 7.5 11Z" fill="black"/>
  </svg>
  