<svg width="15" height="20" viewBox="0 0 15 20" fill="none" xmlns="http://www.w3.org/2000/svg">
  <path d="M-4.45843e-05 7.85722L0.499955 7.85776C0.49999 7.82587 0.500221 7.794 0.500648 7.76215L0.500831 7.76215L0.500647 7.74863C0.500186 7.71483 0.499955 7.68097 0.499955 7.64706C0.499955 3.69065 3.64307 0.5 7.49996 0.5C11.3568 0.5 14.5 3.69065 14.5 7.64706C14.5 7.68099 14.4997 7.71486 14.4993 7.74866L14.4991 7.74866L14.4993 7.76219C14.4997 7.79403 14.4999 7.82588 14.5 7.85776C14.4998 10.5125 13.3239 13.3747 11.0357 16.1317L11.0347 16.1328C10.0093 17.3757 8.85567 18.4949 7.59522 19.4702C7.56586 19.4907 7.53391 19.5 7.50336 19.5C7.47276 19.5 7.44076 19.4906 7.41135 19.47C6.14847 18.4951 4.9925 17.3758 3.9649 16.1325L3.96402 16.1315C1.67263 13.3747 0.499955 10.5124 0.499955 7.85722H-4.45843e-05ZM-4.45843e-05 7.85722C-4.45843e-05 10.6608 1.2366 13.6323 3.5795 16.4511L14.9992 7.75548C14.9997 7.7194 15 7.68326 15 7.64706C15 3.4237 11.6421 0 7.49996 0C3.35782 0 -4.45843e-05 3.4237 -4.45843e-05 7.64706C-4.45843e-05 7.68325 0.000201938 7.71937 0.000693364 7.75544C0.000238412 7.78935 -7.82144e-06 7.82327 -4.45843e-05 7.85722Z" stroke="black"/>
  <circle cx="7.5" cy="7.5" r="3" stroke="black"/>
  </svg>
  