<svg width="15" height="20" viewBox="0 0 15 20" fill="none" xmlns="http://www.w3.org/2000/svg">
  <mask id="path-1-inside-1_6017_43140" fill="white">
    <path fill-rule="evenodd" clip-rule="evenodd"
      d="M15 7.64706C15 7.68326 14.9998 7.7194 14.9993 7.75548C14.9997 7.78937 15 7.82329 15 7.85722C15 10.6608 13.7599 13.6323 11.4205 16.4511C10.3698 17.7244 9.18729 18.8713 7.8946 19.8707C7.77996 19.9549 7.64338 20 7.50341 20C7.36344 20 7.22686 19.9549 7.11222 19.8707C5.81715 18.8717 4.63229 17.7248 3.57955 16.4511C1.23665 13.6323 0 10.6608 0 7.85722C3.67628e-05 7.82327 0.000282996 7.78935 0.000737948 7.75544C0.000246522 7.71937 0 7.68325 0 7.64706C0 3.4237 3.35786 0 7.5 0C11.6421 0 15 3.4237 15 7.64706ZM7.50004 11C9.43304 11 11 9.433 11 7.5C11 5.567 9.43304 4 7.50004 4C5.56705 4 4.00004 5.567 4.00004 7.5C4.00004 9.433 5.56705 11 7.50004 11Z" />
  </mask>
  <path fill-rule="evenodd" clip-rule="evenodd"
    d="M15 7.64706C15 7.68326 14.9998 7.7194 14.9993 7.75548C14.9997 7.78937 15 7.82329 15 7.85722C15 10.6608 13.7599 13.6323 11.4205 16.4511C10.3698 17.7244 9.18729 18.8713 7.8946 19.8707C7.77996 19.9549 7.64338 20 7.50341 20C7.36344 20 7.22686 19.9549 7.11222 19.8707C5.81715 18.8717 4.63229 17.7248 3.57955 16.4511C1.23665 13.6323 0 10.6608 0 7.85722C3.67628e-05 7.82327 0.000282996 7.78935 0.000737948 7.75544C0.000246522 7.71937 0 7.68325 0 7.64706C0 3.4237 3.35786 0 7.5 0C11.6421 0 15 3.4237 15 7.64706ZM7.50004 11C9.43304 11 11 9.433 11 7.5C11 5.567 9.43304 4 7.50004 4C5.56705 4 4.00004 5.567 4.00004 7.5C4.00004 9.433 5.56705 11 7.50004 11Z"
    fill="black" />
  <path
    d="M14.9993 7.75548L13.9994 7.74185L13.9992 7.75538L13.9994 7.76891L14.9993 7.75548ZM15 7.85722H16L16 7.85615L15 7.85722ZM11.4205 16.4511L10.651 15.8124L10.6491 15.8146L11.4205 16.4511ZM7.8946 19.8707L8.48626 20.6769L8.49635 20.6695L8.50625 20.6619L7.8946 19.8707ZM7.11222 19.8707L6.50144 20.6625L6.51091 20.6698L6.52055 20.6769L7.11222 19.8707ZM3.57955 16.4511L4.35035 15.814L4.34858 15.8119L3.57955 16.4511ZM0 7.85722L-1 7.85614V7.85722H0ZM0.000737948 7.75544L1.00065 7.76886L1.00083 7.75534L1.00065 7.74182L0.000737948 7.75544ZM15.9992 7.76912C15.9997 7.72848 16 7.68779 16 7.64706H14C14 7.67873 13.9998 7.71033 13.9994 7.74185L15.9992 7.76912ZM16 7.85615C16 7.8181 15.9997 7.78006 15.9992 7.74206L13.9994 7.76891C13.9998 7.79868 14 7.82848 14 7.85829L16 7.85615ZM12.1899 17.0897C14.6316 14.1478 16 10.9581 16 7.85722H14C14 10.3635 12.8883 13.1167 10.651 15.8124L12.1899 17.0897ZM8.50625 20.6619C9.85835 19.6165 11.0944 18.4176 12.1918 17.0875L10.6491 15.8146C9.64532 17.0312 8.51622 18.1261 7.28296 19.0796L8.50625 20.6619ZM7.50341 21C7.8598 21 8.20297 20.8848 8.48626 20.6769L7.30294 19.0646C7.35695 19.0249 7.42696 19 7.50341 19V21ZM6.52055 20.6769C6.80384 20.8848 7.14702 21 7.50341 21V19C7.57985 19 7.64987 19.0249 7.70388 19.0646L6.52055 20.6769ZM2.80874 17.0881C3.90841 18.4186 5.14683 19.6176 6.50144 20.6625L7.72299 19.0789C6.48747 18.1259 5.35617 17.0309 4.35035 15.814L2.80874 17.0881ZM-1 7.85722C-1 10.9577 0.364586 14.1475 2.81051 17.0903L4.34858 15.8119C2.10871 13.117 1 10.364 1 7.85722H-1ZM-0.999172 7.74202C-0.999682 7.78004 -0.999958 7.81808 -0.999999 7.85614L0.999999 7.8583C1.00003 7.82847 1.00025 7.79865 1.00065 7.76886L-0.999172 7.74202ZM-1 7.64706C-1 7.68779 -0.999723 7.72846 -0.999169 7.76907L1.00065 7.74182C1.00022 7.71029 1 7.6787 1 7.64706H-1ZM7.5 -1C2.78736 -1 -1 2.88981 -1 7.64706H1C1 3.95759 3.92837 1 7.5 1V-1ZM16 7.64706C16 2.88981 12.2126 -1 7.5 -1V1C11.0716 1 14 3.95759 14 7.64706H16ZM10 7.5C10 8.88071 8.88076 10 7.50004 10V12C9.98533 12 12 9.98528 12 7.5H10ZM7.50004 5C8.88076 5 10 6.11929 10 7.5H12C12 5.01472 9.98533 3 7.50004 3V5ZM5.00004 7.5C5.00004 6.11929 6.11933 5 7.50004 5V3C5.01476 3 3.00004 5.01472 3.00004 7.5H5.00004ZM7.50004 10C6.11933 10 5.00004 8.88071 5.00004 7.5H3.00004C3.00004 9.98528 5.01476 12 7.50004 12V10Z"
    fill="black" mask="url(#path-1-inside-1_6017_43140)" />
</svg>