<svg width="24" height="20" viewBox="0 0 24 20" fill="none" xmlns="http://www.w3.org/2000/svg">
<path d="M3.78815 7.4454C1.90768 12.8149 3.18156 19.5837 11.6547 19.5837C20.1279 19.5837 21.4018 12.8149 19.5214 7.4454C19.2039 6.53874 17.792 0.919434 11.6547 0.919434C5.51728 0.919434 4.10567 6.53874 3.78815 7.4454Z" fill="#CBCBCB"/>
<ellipse cx="11.6546" cy="15.0208" rx="1.80257" ry="1.09468" fill="black"/>
<path d="M0.599532 7.38342C1.24186 5.69943 3.58124 1.96463 7.4741 2.54273L5.9277 9.67647C5.28513 11.4968 3.4717 13.6063 1.32415 12.5147C-0.507765 11.5835 -0.122078 9.27527 0.599532 7.38342Z" fill="#CBCBCB"/>
<path d="M22.7098 7.38342C22.0675 5.69943 19.7281 1.96463 15.8352 2.54273L17.3816 9.67647C18.0242 11.4968 19.8376 13.6063 21.9852 12.5147C23.8171 11.5835 23.4314 9.27527 22.7098 7.38342Z" fill="#CBCBCB"/>
<circle cx="8.4138" cy="12.3008" r="0.893293" fill="black"/>
<circle cx="14.8967" cy="12.3008" r="0.893293" fill="black"/>
</svg>
