<svg width="24" height="19" viewBox="0 0 24 19" fill="none" xmlns="http://www.w3.org/2000/svg">
<path d="M3.47882 6.69381C1.59836 12.0633 2.87223 18.8321 11.3454 18.8321C19.8186 18.8321 21.093 12.0633 19.2125 6.69381C18.895 5.78716 17.4827 0.167847 11.3453 0.167847C5.20795 0.167847 3.79634 5.78716 3.47882 6.69381Z" fill="#FFDA57"/>
<ellipse cx="11.3455" cy="14.2692" rx="1.80257" ry="1.09468" fill="black"/>
<path d="M0.599532 6.63183C1.24186 4.94784 3.58124 1.21305 7.4741 1.79115L5.9277 8.92488C5.28513 10.7452 3.4717 12.8547 1.32415 11.7631C-0.507765 10.8319 -0.122078 8.52369 0.599532 6.63183Z" fill="#FFDA57"/>
<path d="M22.71 6.63183C22.0677 4.94784 19.7283 1.21305 15.8355 1.79115L17.3819 8.92488C18.0244 10.7452 19.8379 12.8547 21.9854 11.7631C23.8173 10.8319 23.4316 8.52369 22.71 6.63183Z" fill="#FFDA57"/>
<ellipse cx="8.27301" cy="10.4998" rx="2.07282" ry="2.60519" fill="white"/>
<ellipse cx="8.62503" cy="10.8582" rx="1.40335" ry="1.65117" fill="black"/>
<ellipse cx="2.07282" cy="2.60519" rx="2.07282" ry="2.60519" transform="matrix(-1 0 0 1 16.4912 7.89465)" fill="white"/>
<ellipse cx="1.40335" cy="1.65117" rx="1.40335" ry="1.65117" transform="matrix(-1 0 0 1 15.4697 9.20703)" fill="black"/>
</svg>
