<svg width="24" height="20" viewBox="0 0 24 20" fill="none" xmlns="http://www.w3.org/2000/svg">
<path d="M3.78815 7.4454C1.90768 12.8149 3.18156 19.5837 11.6547 19.5837C20.1279 19.5837 21.4023 12.8149 19.5219 7.4454C19.2044 6.53874 17.792 0.919434 11.6547 0.919434C5.51728 0.919434 4.10567 6.53874 3.78815 7.4454Z" fill="#FFDA57"/>
<ellipse cx="11.655" cy="15.0208" rx="1.80257" ry="1.09468" fill="black"/>
<path d="M0.599532 7.38342C1.24186 5.69943 3.58124 1.96463 7.4741 2.54273L5.9277 9.67647C5.28513 11.4968 3.4717 13.6063 1.32415 12.5147C-0.507765 11.5835 -0.122078 9.27527 0.599532 7.38342Z" fill="#FFDA57"/>
<path d="M22.7098 7.38342C22.0675 5.69943 19.7281 1.96463 15.8352 2.54273L17.3816 9.67647C18.0242 11.4968 19.8376 13.6063 21.9852 12.5147C23.8171 11.5835 23.4314 9.27527 22.7098 7.38342Z" fill="#FFDA57"/>
<path d="M13.7893 10.4661C12.9633 11.2697 14.0016 13.4169 15.5544 14.2411C17.1073 13.4169 18.1482 11.2589 17.3195 10.4661C16.5589 9.73861 15.7502 10.684 15.5544 11.5623C15.3458 10.684 14.5371 9.73863 13.7893 10.4661Z" fill="#F41F2B"/>
<path fill-rule="evenodd" clip-rule="evenodd" d="M16.7503 9.97424C16.9838 9.97418 17.2184 10.0725 17.4393 10.2837C17.7024 10.5354 17.8108 10.8943 17.8045 11.2791C17.7984 11.6569 17.683 12.0651 17.4975 12.4572C17.1265 13.2416 16.4468 14.0217 15.632 14.4541C15.5825 14.4804 15.5262 14.4804 15.4767 14.4541C14.6623 14.0218 13.9831 13.2446 13.6123 12.4613C13.427 12.0698 13.3117 11.662 13.3054 11.2837C13.299 10.8987 13.4068 10.5393 13.6683 10.2849C13.8861 10.073 14.1188 9.97419 14.3513 9.97425C14.5812 9.97431 14.7951 10.0709 14.98 10.2176C15.2117 10.4014 15.4089 10.6722 15.5516 10.9696C15.6917 10.672 15.8876 10.4013 16.1192 10.2176C16.3044 10.0707 16.5192 9.9743 16.7503 9.97424ZM16.3311 10.6065C16.0533 10.8268 15.8278 11.232 15.7407 11.6228C15.7181 11.7237 15.6426 11.7942 15.556 11.7951C15.4694 11.7959 15.3929 11.727 15.3691 11.6265C15.2758 11.2336 15.0464 10.8273 14.7681 10.6065C14.6313 10.498 14.4898 10.4398 14.3512 10.4397C14.2152 10.4397 14.0664 10.4955 13.9103 10.6473C13.7587 10.7948 13.6866 11.0051 13.691 11.2744C13.6956 11.5505 13.7821 11.8816 13.9472 12.2304C14.2657 12.9031 14.8506 13.5862 15.5544 13.9854C16.2581 13.5861 16.8437 12.9006 17.1626 12.2264C17.3279 11.8769 17.4144 11.5454 17.4189 11.2699C17.4233 11.0014 17.351 10.7932 17.1997 10.6485C17.0403 10.496 16.8886 10.4397 16.7504 10.4397C16.6099 10.4398 16.4676 10.4982 16.3311 10.6065Z" fill="#F41F2B"/>
<path d="M5.98924 10.4661C5.16323 11.2697 6.20154 13.4169 7.75434 14.2411C9.30723 13.4169 10.3482 11.2589 9.51945 10.4661C8.75887 9.73861 7.95015 10.684 7.75438 11.5623C7.54578 10.684 6.73705 9.73863 5.98924 10.4661Z" fill="#F41F2B"/>
<path fill-rule="evenodd" clip-rule="evenodd" d="M8.95027 9.97424C9.18377 9.97418 9.4184 10.0725 9.63923 10.2837C9.90233 10.5354 10.0107 10.8943 10.0045 11.2791C9.99831 11.6569 9.88291 12.0651 9.69748 12.4572C9.32647 13.2416 8.64671 14.0217 7.83197 14.4541C7.7825 14.4804 7.72617 14.4804 7.6767 14.4541C6.86221 14.0218 6.18307 13.2446 5.81229 12.4613C5.62697 12.0698 5.51169 11.662 5.5054 11.2837C5.49899 10.8987 5.60679 10.5393 5.86821 10.2849C6.08607 10.073 6.31878 9.97419 6.55123 9.97425C6.78113 9.97431 6.99508 10.0709 7.17993 10.2176C7.41169 10.4014 7.60888 10.6722 7.75151 10.9696C7.89163 10.672 8.08754 10.4013 8.31919 10.2176C8.50437 10.0707 8.7191 9.9743 8.95027 9.97424ZM8.53102 10.6065C8.2533 10.8268 8.0277 11.232 7.9406 11.6228C7.9181 11.7237 7.84258 11.7942 7.75596 11.7951C7.66934 11.7959 7.59288 11.727 7.56901 11.6265C7.47571 11.2336 7.24639 10.8273 6.9681 10.6065C6.83121 10.498 6.68972 10.4398 6.55115 10.4397C6.41511 10.4397 6.2663 10.4955 6.11025 10.6473C5.95867 10.7948 5.88651 11.0051 5.891 11.2744C5.89559 11.5505 5.98207 11.8816 6.14717 12.2304C6.46561 12.9031 7.05055 13.5862 7.75433 13.9854C8.45802 13.5861 9.04368 12.9006 9.36253 12.2264C9.52786 11.8769 9.61437 11.5454 9.61885 11.2699C9.62322 11.0014 9.55094 10.7932 9.39967 10.6485C9.2402 10.496 9.08852 10.4397 8.95035 10.4397C8.80986 10.4398 8.66757 10.4982 8.53102 10.6065Z" fill="#F41F2B"/>
</svg>
