<svg width="108" height="108" viewBox="0 0 108 108" fill="none" xmlns="http://www.w3.org/2000/svg">
  <mask id="mask0_0_1" style="mask-type:alpha" maskUnits="userSpaceOnUse" x="0" y="0" width="108"
    height="108">
    <circle cx="54" cy="54" r="54" fill="#695C50" />
  </mask>
  <g mask="url(#mask0_0_1)">
    <g filter="url(#filter0_d_0_1)">
      <path
        d="M58.5454 100.058C57.8151 103.568 55.0903 118.167 53.3709 124.991L52.8338 127.572L77.1287 132.627C77.1287 132.627 80.1383 122.482 82.7899 114.057C85.4414 105.632 84.6333 108.562 87.7269 99.0983C89.5562 93.5024 91.9634 83.3735 92.3329 80.1589C93.1457 79.1312 94.8139 76.0073 94.9844 71.734C95.155 67.4607 92.3273 65.7951 90.8921 65.4965C90.8921 65.4965 92.1454 59.4736 88.3771 55.9964C86.1836 53.9724 83.4976 54.981 82.1704 55.6025C81.7157 54.9094 79.6139 52.9056 76.3218 53.4878C71.6583 54.3126 70.7033 58.9014 70.2259 61.1959L70.2259 61.1959C70.2259 61.1959 66.4234 62.2 64.488 67.1833C63.1762 70.5611 63.0216 78.5477 61.5892 85.431L58.5454 100.058Z"
        fill="url(#paint0_linear_0_1)" />
    </g>
    <path
      d="M67.0428 76.992C66.4547 75.2427 68.8882 72.735 70.1784 71.6996C70.7477 71.2427 70.8876 71.1861 72.2096 69.9847C74.0876 68.2781 76.4699 66.0298 79.4659 66.5501C82.6206 67.098 87.8521 75.8964 87.6686 79.1438C87.0391 83.8781 82.2773 83.3915 81.077 82.6804C80.311 82.2265 76.1387 79.7546 73.0545 80.5538C69.9703 81.353 67.7778 79.1785 67.0428 76.992Z"
      fill="#232323" />
    <path
      d="M67.0428 76.992C66.4547 75.2427 68.8882 72.735 70.1784 71.6996C70.7477 71.2427 70.8876 71.1861 72.2096 69.9847C74.0876 68.2781 76.4699 66.0298 79.4659 66.5501C82.6206 67.0979 87.8521 75.8964 87.6686 79.1438C87.0391 83.8781 82.2773 83.3915 81.077 82.6804C80.311 82.2265 76.1387 79.7546 73.0545 80.5538C69.9703 81.353 67.7778 79.1785 67.0428 76.992Z"
      fill="url(#paint1_radial_0_1)" />
    <path
      d="M87.6245 63.0151C89.2635 60.3275 87.6251 58.2271 86.6011 57.5129C85.839 57.0614 83.8941 56.8882 82.211 59.8077C80.1071 63.457 82.1815 66.0052 82.9832 66.275C83.7849 66.5448 85.5758 66.3746 87.6245 63.0151Z"
      fill="#232323" />
    <path
      d="M87.6245 63.0151C89.2635 60.3275 87.6251 58.2271 86.6011 57.5129C85.839 57.0614 83.8941 56.8882 82.211 59.8077C80.1071 63.457 82.1815 66.0052 82.9832 66.275C83.7849 66.5448 85.5758 66.3746 87.6245 63.0151Z"
      fill="url(#paint2_radial_0_1)" />
    <path
      d="M74.1524 58.3012C75.1709 55.3234 77.8357 55.2355 79.0409 55.5637C79.8761 55.8592 81.2545 57.2401 80.0859 60.4002C78.6251 64.3502 75.3366 64.3905 74.6158 63.9483C73.8949 63.5061 72.8793 62.0234 74.1524 58.3012Z"
      fill="#232323" />
    <path
      d="M74.1524 58.3012C75.1709 55.3234 77.8357 55.2355 79.0409 55.5637C79.8761 55.8592 81.2545 57.2401 80.0859 60.4002C78.6251 64.3502 75.3366 64.3905 74.6158 63.9483C73.8949 63.5061 72.8793 62.0234 74.1524 58.3012Z"
      fill="url(#paint3_radial_0_1)" />
    <path
      d="M91.0874 68.085C90.6205 66.237 89.1489 65.8322 88.4714 65.8608C87.1505 66.2215 86.5338 67.4099 85.9391 68.758C85.3444 70.106 86.5473 72.1086 88.4776 72.49C90.4079 72.8714 91.6711 70.395 91.0874 68.085Z"
      fill="#232323" />
    <path
      d="M91.0874 68.085C90.6205 66.237 89.1489 65.8322 88.4714 65.8608C87.1505 66.2215 86.5338 67.4099 85.9391 68.758C85.3444 70.106 86.5473 72.1086 88.4776 72.49C90.4079 72.8714 91.6711 70.395 91.0874 68.085Z"
      fill="url(#paint4_radial_0_1)" />
    <path
      d="M69.4822 63.1336C71.3274 62.6554 72.3893 63.7517 72.6896 64.3596C73.0078 65.6914 72.2616 66.8032 71.365 67.9723C70.4684 69.1414 68.1341 69.0483 66.8724 67.5385C65.6106 66.0288 67.1758 63.7313 69.4822 63.1336Z"
      fill="#232323" />
    <path
      d="M69.4822 63.1336C71.3274 62.6554 72.3893 63.7517 72.6896 64.3596C73.0078 65.6914 72.2616 66.8032 71.365 67.9723C70.4684 69.1414 68.1341 69.0483 66.8724 67.5385C65.6106 66.0288 67.1758 63.7313 69.4822 63.1336Z"
      fill="url(#paint5_radial_0_1)" />
    <g opacity="0.3" filter="url(#filter1_f_0_1)">
      <path fill-rule="evenodd" clip-rule="evenodd"
        d="M86.2845 57.9672C87.2105 58.613 88.692 60.5122 87.21 62.9424C86.0361 64.8673 84.9558 65.6343 84.1374 65.8758C84.7662 65.426 85.4767 64.6694 86.2252 63.4419C87.7072 61.0118 86.2257 59.1126 85.2998 58.4667C84.9755 58.2746 84.4144 58.1382 83.7526 58.3227C84.8201 57.5229 85.808 57.6848 86.2845 57.9672Z"
        fill="white" />
    </g>
    <g opacity="0.3" filter="url(#filter2_f_0_1)">
      <path fill-rule="evenodd" clip-rule="evenodd"
        d="M78.5347 56.0225C79.4766 56.6769 80.9931 58.5874 79.5241 60.9945C78.3605 62.9012 77.2786 63.6541 76.4552 63.8859C77.0849 63.4443 77.7937 62.6976 78.5356 61.4818C80.0047 59.0747 78.4881 57.1642 77.5462 56.5099C77.2168 56.3147 76.6488 56.1724 75.9828 56.3491C77.0515 55.5632 78.0506 55.7357 78.5347 56.0225Z"
        fill="white" />
    </g>
    <g opacity="0.3" filter="url(#filter3_f_0_1)">
      <path fill-rule="evenodd" clip-rule="evenodd"
        d="M89.6498 66.6459C90.3985 67.1566 91.6392 68.5969 90.6124 70.2728C89.7991 71.6002 89.0009 72.0988 88.3794 72.2321C88.8438 71.9395 89.3562 71.4301 89.8748 70.5837C90.9016 68.9078 89.6609 67.4674 88.9123 66.9567C88.6518 66.8024 88.2107 66.6765 87.7076 66.7765C88.4943 66.2536 89.267 66.4191 89.6498 66.6459Z"
        fill="white" />
    </g>
    <g opacity="0.3" filter="url(#filter4_f_0_1)">
      <path fill-rule="evenodd" clip-rule="evenodd"
        d="M71.2723 63.8059C71.7485 64.1407 72.5005 65.1392 71.699 66.4553C71.064 67.4979 70.4911 67.9202 70.061 68.0586C70.3945 67.811 70.7742 67.3984 71.179 66.7336C71.9805 65.4175 71.2285 64.4189 70.7523 64.0842C70.5852 63.9852 70.2938 63.9186 69.9462 64.0247C70.5127 63.5851 71.0267 63.6604 71.2723 63.8059Z"
        fill="white" />
    </g>
    <g opacity="0.2" filter="url(#filter5_f_0_1)">
      <path
        d="M85.48 75.0961C85.2268 74.1382 83.6895 70.6499 81.8814 68.4632C80.6036 66.9177 79.4891 66.9092 79.0252 66.9635C78.5612 67.0179 77.8069 67.1626 78.5011 67.3071C79.3687 67.4876 80.4897 68.6262 81.1768 69.6744C81.8639 70.7226 83.7447 74.735 83.9077 76.1268C84.0381 77.2402 82.6731 78.4347 81.9743 78.8928C82.2334 79.0976 83.0481 79.3878 84.2337 78.9104C85.7158 78.3135 85.7333 76.0541 85.48 75.0961Z"
        fill="white" />
    </g>
    <g filter="url(#filter6_d_0_1)">
      <path
        d="M50.2098 99.9938C50.9541 103.501 53.7368 118.089 55.4833 124.906L56.0307 127.485L31.756 132.637C31.756 132.637 28.7061 122.503 26.0211 114.089C23.3362 105.675 24.1559 108.601 21.0248 99.1501C19.1732 93.5615 16.7258 83.4422 16.3436 80.2291C15.5267 79.2046 13.8461 76.0875 13.6586 71.8149C13.4711 67.5423 16.2921 65.8654 17.7261 65.5611C17.7261 65.5611 16.4488 59.5433 20.2033 56.0512C22.3888 54.0185 25.0788 55.0163 26.4084 55.6326C26.8604 54.9377 28.9542 52.9256 32.2486 53.4947C36.9154 54.3009 37.8885 58.8859 38.3751 61.1785L38.3751 61.1785C38.3751 61.1785 42.1815 62.1675 44.1366 67.143C45.4619 70.5156 45.6483 78.5016 47.1079 85.3791L50.2098 99.9938Z"
        fill="url(#paint6_linear_0_1)" />
    </g>
    <path
      d="M41.621 76.9632C42.2021 75.2116 39.7587 72.7135 38.4644 71.6833C37.8933 71.2286 37.7531 71.1726 36.4264 69.9765C34.5416 68.2773 32.1505 66.0385 29.1565 66.5707C26.004 67.1311 20.8075 75.9502 21.0039 79.1969C21.6521 83.9286 26.4121 83.4232 27.6095 82.7073C28.3737 82.2504 32.5361 79.7619 35.6235 80.5488C38.7108 81.3358 40.8947 79.1526 41.621 76.9632Z"
      fill="#232323" />
    <path
      d="M41.621 76.9632C42.2021 75.2116 39.7587 72.7135 38.4644 71.6833C37.8933 71.2286 37.7531 71.1726 36.4264 69.9765C34.5416 68.2773 32.1505 66.0385 29.1565 66.5707C26.004 67.1311 20.8075 75.9502 21.0039 79.1969C21.6521 83.9286 26.4121 83.4232 27.6095 82.7073C28.3737 82.2504 32.5361 79.7619 35.6235 80.5488C38.7108 81.3358 40.8947 79.1526 41.621 76.9632Z"
      fill="url(#paint7_radial_0_1)" />
    <path
      d="M20.9846 63.0671C19.335 60.386 20.965 58.2792 21.9863 57.5609C22.7465 57.1063 24.6907 56.9255 26.3854 59.8382C28.5038 63.4792 26.4396 66.0356 25.6389 66.3086C24.8383 66.5815 23.0467 66.4184 20.9846 63.0671Z"
      fill="#232323" />
    <path
      d="M20.9846 63.0671C19.335 60.386 20.965 58.2792 21.9863 57.5609C22.7465 57.1063 24.6907 56.9255 26.3854 59.8382C28.5038 63.4792 26.4396 66.0356 25.6389 66.3086C24.8383 66.5815 23.0467 66.4184 20.9846 63.0671Z"
      fill="url(#paint8_radial_0_1)" />
    <path
      d="M34.437 58.2994C33.4067 55.3256 30.7415 55.2483 29.5377 55.5813C28.7036 55.8801 27.3307 57.2665 28.5119 60.4219C29.9883 64.3661 33.277 64.3933 33.9961 63.9483C34.7152 63.5032 35.7249 62.0165 34.437 58.2994Z"
      fill="#232323" />
    <path
      d="M34.437 58.2994C33.4067 55.3256 30.7415 55.2483 29.5377 55.5813C28.7036 55.8801 27.3307 57.2665 28.5119 60.4219C29.9883 64.3661 33.277 64.3933 33.9961 63.9483C34.7152 63.5032 35.7249 62.0165 34.437 58.2994Z"
      fill="url(#paint9_radial_0_1)" />
    <path
      d="M17.5415 68.1482C18.0011 66.2983 19.4711 65.8877 20.1486 65.9136C21.471 66.269 22.0924 67.4551 22.6924 68.8007C23.2925 70.1463 22.0975 72.1537 20.1688 72.5428C18.24 72.9319 16.967 70.4605 17.5415 68.1482Z"
      fill="#232323" />
    <path
      d="M17.5415 68.1482C18.0011 66.2983 19.4711 65.8877 20.1486 65.9136C21.471 66.269 22.0924 67.4551 22.6924 68.8007C23.2925 70.1463 22.0975 72.1537 20.1688 72.5428C18.24 72.9319 16.967 70.4605 17.5415 68.1482Z"
      fill="url(#paint10_radial_0_1)" />
    <path
      d="M39.1277 63.1135C37.2807 62.6426 36.2231 63.7431 35.9252 64.3522C35.6123 65.6853 36.3629 66.7941 37.2641 67.9596C38.1654 69.1251 40.4993 69.0228 41.755 67.508C43.0108 65.9932 41.4365 63.702 39.1277 63.1135Z"
      fill="#232323" />
    <path
      d="M39.1277 63.1135C37.2807 62.6426 36.2231 63.7431 35.9252 64.3522C35.6123 65.6853 36.3629 66.7941 37.2641 67.9596C38.1654 69.1251 40.4993 69.0228 41.755 67.508C43.0108 65.9932 41.4365 63.702 39.1277 63.1135Z"
      fill="url(#paint11_radial_0_1)" />
    <g opacity="0.3" filter="url(#filter7_f_0_1)">
      <path fill-rule="evenodd" clip-rule="evenodd"
        d="M22.3055 58.0169C21.3821 58.6664 19.9082 60.5715 21.3998 62.9958C22.5813 64.9161 23.6646 65.6787 24.484 65.917C23.8534 65.4697 23.1399 64.7159 22.3865 63.4914C20.8949 61.0672 22.3688 59.1621 23.2922 58.5126C23.6157 58.3192 24.1762 58.1806 24.8388 58.3625C23.7682 57.5669 22.7809 57.7327 22.3055 58.0169Z"
        fill="white" />
    </g>
    <g opacity="0.3" filter="url(#filter8_f_0_1)">
      <path fill-rule="evenodd" clip-rule="evenodd"
        d="M30.0456 56.0412C29.1063 56.6993 27.5974 58.6158 29.0759 61.0171C30.2471 62.9191 31.332 63.6676 32.1563 63.8962C31.5249 63.4571 30.8131 62.7133 30.0663 61.5004C28.5878 59.0992 30.0967 57.1827 31.036 56.5246C31.3647 56.3281 31.932 56.1836 32.5988 56.3576C31.527 55.576 30.5286 55.7524 30.0456 56.0412Z"
        fill="white" />
    </g>
    <g opacity="0.3" filter="url(#filter9_f_0_1)">
      <path fill-rule="evenodd" clip-rule="evenodd"
        d="M18.9726 66.71C18.226 67.2236 16.991 68.6689 18.0244 70.3407C18.843 71.6649 19.6432 72.1603 20.2652 72.2911C19.7996 72.0003 19.2852 71.493 18.7632 70.6486C17.7298 68.9768 18.9647 67.5316 19.7114 67.0179C19.9712 66.8625 20.4118 66.7348 20.9153 66.8329C20.1266 66.3131 19.3545 66.4816 18.9726 66.71Z"
        fill="white" />
    </g>
    <g opacity="0.3" filter="url(#filter10_f_0_1)">
      <path fill-rule="evenodd" clip-rule="evenodd"
        d="M37.3411 63.7938C36.8663 64.1305 36.1183 65.132 36.925 66.4449C37.5641 67.4849 38.1386 67.905 38.5693 68.0416C38.2348 67.7954 37.8535 67.3843 37.446 66.7211C36.6393 65.4081 37.3873 64.4066 37.8622 64.07C38.0289 63.9703 38.32 63.9026 38.6681 64.0074C38.0999 63.5699 37.5862 63.6473 37.3411 63.7938Z"
        fill="white" />
    </g>
    <g opacity="0.2" filter="url(#filter11_f_0_1)">
      <path
        d="M23.1764 75.1401C23.4259 74.1812 24.9493 70.6869 26.7486 68.4929C28.0204 66.9424 29.1348 66.9295 29.5989 66.982C30.0631 67.0345 30.818 67.1762 30.1244 67.3234C29.2575 67.5074 28.141 68.6504 27.4581 69.7013C26.7751 70.7523 24.9103 74.7721 24.7528 76.1645C24.6268 77.2785 25.9966 78.4676 26.6973 78.9229C26.4389 79.1287 25.6254 79.4221 24.4379 78.9494C22.9534 78.3584 22.9269 76.0991 23.1764 75.1401Z"
        fill="white" />
    </g>
  </g>
  <path
    d="M41.3143 28.3153C36.0401 35.3989 47.9072 48.9759 54.5 54.8789C61.0928 48.9759 72.9599 35.3989 67.6857 28.3153C62.4114 21.2317 56.6976 31.2668 54.5 37.1698C52.3024 31.2668 46.5886 21.2317 41.3143 28.3153Z"
    fill="#FFA0C2" />
  <path
    d="M41.3143 28.3153C36.0401 35.3989 47.9072 48.9759 54.5 54.8789C61.0928 48.9759 72.9599 35.3989 67.6857 28.3153C62.4114 21.2317 56.6976 31.2668 54.5 37.1698C52.3024 31.2668 46.5886 21.2317 41.3143 28.3153Z"
    fill="url(#paint12_linear_0_1)" />
  <path
    d="M67.6857 28.3153C72.9599 35.3989 61.0928 48.9759 54.5 54.8789C47.9072 48.9759 36.0401 35.3989 41.3143 28.3153C46.5886 21.2317 52.3024 31.2668 54.5 37.1698C56.6976 31.2668 62.4114 21.2317 67.6857 28.3153Z"
    fill="url(#paint13_linear_0_1)" />
  <g filter="url(#filter12_d_0_1)">
    <path
      d="M41.3143 28.3153C36.0401 35.3989 47.9072 48.9759 54.5 54.8789C61.0928 48.9759 72.9599 35.3989 67.6857 28.3153C62.4114 21.2317 56.6976 31.2668 54.5 37.1698C52.3024 31.2668 46.5886 21.2317 41.3143 28.3153Z"
      fill="url(#paint14_radial_0_1)" shape-rendering="crispEdges" />
  </g>
  <g filter="url(#filter13_f_0_1)">
    <path fill-rule="evenodd" clip-rule="evenodd"
      d="M45.1782 25.8789C43.9021 25.8843 42.5953 26.5949 41.3143 28.3153C36.0401 35.3989 47.9072 48.9758 54.5 54.8789C54.5972 54.7918 54.6955 54.7031 54.795 54.6128C49.7261 47.372 42.2021 33.5085 45.1782 25.8789Z"
      fill="white" fill-opacity="0.1" />
  </g>
  <g filter="url(#filter14_f_0_1)">
    <path fill-rule="evenodd" clip-rule="evenodd"
      d="M63.6773 25.8789C64.9534 25.8843 66.2602 26.5949 67.5411 28.3153C72.8154 35.3989 60.9483 48.9758 54.3555 54.8789C54.2583 54.7918 54.1599 54.7031 54.0605 54.6128C59.1294 47.372 66.6534 33.5085 63.6773 25.8789Z"
      fill="#EF4870" fill-opacity="0.33" />
  </g>
  <g opacity="0.3" filter="url(#filter15_f_0_1)">
    <ellipse cx="59.6451" cy="31.6523" rx="1.07533" ry="5.197"
      transform="rotate(-145.57 59.6451 31.6523)" fill="white" />
  </g>
  <g opacity="0.3" filter="url(#filter16_f_0_1)">
    <circle cx="43.5154" cy="29.3943" r="1.75758" fill="white" />
  </g>
  <defs>
    <filter id="filter0_d_0_1" x="46.834" y="48.3828" width="54.1582" height="91.2461"
      filterUnits="userSpaceOnUse" color-interpolation-filters="sRGB">
      <feFlood flood-opacity="0" result="BackgroundImageFix" />
      <feColorMatrix in="SourceAlpha" type="matrix"
        values="0 0 0 0 0 0 0 0 0 0 0 0 0 0 0 0 0 0 127 0" result="hardAlpha" />
      <feOffset dy="1" />
      <feGaussianBlur stdDeviation="3" />
      <feComposite in2="hardAlpha" operator="out" />
      <feColorMatrix type="matrix" values="0 0 0 0 0 0 0 0 0 0 0 0 0 0 0 0 0 0 0.15 0" />
      <feBlend mode="normal" in2="BackgroundImageFix" result="effect1_dropShadow_0_1" />
      <feBlend mode="normal" in="SourceGraphic" in2="effect1_dropShadow_0_1" result="shape" />
    </filter>
    <filter id="filter1_f_0_1" x="82.8657" y="56.8481" width="5.85846" height="9.91315"
      filterUnits="userSpaceOnUse" color-interpolation-filters="sRGB">
      <feFlood flood-opacity="0" result="BackgroundImageFix" />
      <feBlend mode="normal" in="SourceGraphic" in2="BackgroundImageFix" result="shape" />
      <feGaussianBlur stdDeviation="0.443131" result="effect1_foregroundBlur_0_1" />
    </filter>
    <filter id="filter2_f_0_1" x="75.0962" y="54.895" width="5.92682" height="9.87799"
      filterUnits="userSpaceOnUse" color-interpolation-filters="sRGB">
      <feFlood flood-opacity="0" result="BackgroundImageFix" />
      <feBlend mode="normal" in="SourceGraphic" in2="BackgroundImageFix" result="shape" />
      <feGaussianBlur stdDeviation="0.443131" result="effect1_foregroundBlur_0_1" />
    </filter>
    <filter id="filter3_f_0_1" x="86.8208" y="65.5434" width="5.06745" height="7.57331"
      filterUnits="userSpaceOnUse" color-interpolation-filters="sRGB">
      <feFlood flood-opacity="0" result="BackgroundImageFix" />
      <feBlend mode="normal" in="SourceGraphic" in2="BackgroundImageFix" result="shape" />
      <feGaussianBlur stdDeviation="0.443131" result="effect1_foregroundBlur_0_1" />
    </filter>
    <filter id="filter4_f_0_1" x="69.059" y="62.8051" width="3.87799" height="6.13971"
      filterUnits="userSpaceOnUse" color-interpolation-filters="sRGB">
      <feFlood flood-opacity="0" result="BackgroundImageFix" />
      <feBlend mode="normal" in="SourceGraphic" in2="BackgroundImageFix" result="shape" />
      <feGaussianBlur stdDeviation="0.443131" result="effect1_foregroundBlur_0_1" />
    </filter>
    <filter id="filter5_f_0_1" x="76.4482" y="65.1767" width="10.9279" height="15.7638"
      filterUnits="userSpaceOnUse" color-interpolation-filters="sRGB">
      <feFlood flood-opacity="0" result="BackgroundImageFix" />
      <feBlend mode="normal" in="SourceGraphic" in2="BackgroundImageFix" result="shape" />
      <feGaussianBlur stdDeviation="0.886263" result="effect1_foregroundBlur_0_1" />
    </filter>
    <filter id="filter6_d_0_1" x="7.65039" y="48.3945" width="54.3809" height="91.2422"
      filterUnits="userSpaceOnUse" color-interpolation-filters="sRGB">
      <feFlood flood-opacity="0" result="BackgroundImageFix" />
      <feColorMatrix in="SourceAlpha" type="matrix"
        values="0 0 0 0 0 0 0 0 0 0 0 0 0 0 0 0 0 0 127 0" result="hardAlpha" />
      <feOffset dy="1" />
      <feGaussianBlur stdDeviation="3" />
      <feComposite in2="hardAlpha" operator="out" />
      <feColorMatrix type="matrix" values="0 0 0 0 0 0 0 0 0 0 0 0 0 0 0 0 0 0 0.15 0" />
      <feBlend mode="normal" in2="BackgroundImageFix" result="effect1_dropShadow_0_1" />
      <feBlend mode="normal" in="SourceGraphic" in2="effect1_dropShadow_0_1" result="shape" />
    </filter>
    <filter id="filter7_f_0_1" x="19.8774" y="56.895" width="5.84674" height="9.90924"
      filterUnits="userSpaceOnUse" color-interpolation-filters="sRGB">
      <feFlood flood-opacity="0" result="BackgroundImageFix" />
      <feBlend mode="normal" in="SourceGraphic" in2="BackgroundImageFix" result="shape" />
      <feGaussianBlur stdDeviation="0.443131" result="effect1_foregroundBlur_0_1" />
    </filter>
    <filter id="filter8_f_0_1" x="27.5688" y="54.9106" width="5.91706" height="9.87018"
      filterUnits="userSpaceOnUse" color-interpolation-filters="sRGB">
      <feFlood flood-opacity="0" result="BackgroundImageFix" />
      <feBlend mode="normal" in="SourceGraphic" in2="BackgroundImageFix" result="shape" />
      <feGaussianBlur stdDeviation="0.443131" result="effect1_foregroundBlur_0_1" />
    </filter>
    <filter id="filter9_f_0_1" x="16.7426" y="65.6059" width="5.05964" height="7.57331"
      filterUnits="userSpaceOnUse" color-interpolation-filters="sRGB">
      <feFlood flood-opacity="0" result="BackgroundImageFix" />
      <feBlend mode="normal" in="SourceGraphic" in2="BackgroundImageFix" result="shape" />
      <feGaussianBlur stdDeviation="0.443131" result="effect1_foregroundBlur_0_1" />
    </filter>
    <filter id="filter10_f_0_1" x="35.6821" y="62.7934" width="3.87214" height="6.13581"
      filterUnits="userSpaceOnUse" color-interpolation-filters="sRGB">
      <feFlood flood-opacity="0" result="BackgroundImageFix" />
      <feBlend mode="normal" in="SourceGraphic" in2="BackgroundImageFix" result="shape" />
      <feGaussianBlur stdDeviation="0.443131" result="effect1_foregroundBlur_0_1" />
    </filter>
    <filter id="filter11_f_0_1" x="21.2861" y="65.1962" width="10.8908" height="15.7794"
      filterUnits="userSpaceOnUse" color-interpolation-filters="sRGB">
      <feFlood flood-opacity="0" result="BackgroundImageFix" />
      <feBlend mode="normal" in="SourceGraphic" in2="BackgroundImageFix" result="shape" />
      <feGaussianBlur stdDeviation="0.886263" result="effect1_foregroundBlur_0_1" />
    </filter>
    <filter id="filter12_d_0_1" x="34" y="20.8789" width="41" height="41"
      filterUnits="userSpaceOnUse" color-interpolation-filters="sRGB">
      <feFlood flood-opacity="0" result="BackgroundImageFix" />
      <feColorMatrix in="SourceAlpha" type="matrix"
        values="0 0 0 0 0 0 0 0 0 0 0 0 0 0 0 0 0 0 127 0" result="hardAlpha" />
      <feOffset dy="1" />
      <feGaussianBlur stdDeviation="3" />
      <feComposite in2="hardAlpha" operator="out" />
      <feColorMatrix type="matrix" values="0 0 0 0 0 0 0 0 0 0 0 0 0 0 0 0 0 0 0.15 0" />
      <feBlend mode="normal" in2="BackgroundImageFix" result="effect1_dropShadow_0_1" />
      <feBlend mode="normal" in="SourceGraphic" in2="effect1_dropShadow_0_1" result="shape" />
    </filter>
    <filter id="filter13_f_0_1" x="38.2424" y="24.1213" width="18.3101" height="32.5152"
      filterUnits="userSpaceOnUse" color-interpolation-filters="sRGB">
      <feFlood flood-opacity="0" result="BackgroundImageFix" />
      <feBlend mode="normal" in="SourceGraphic" in2="BackgroundImageFix" result="shape" />
      <feGaussianBlur stdDeviation="0.878788" result="effect1_foregroundBlur_0_1" />
    </filter>
    <filter id="filter14_f_0_1" x="52.303" y="24.1213" width="18.3101" height="32.5152"
      filterUnits="userSpaceOnUse" color-interpolation-filters="sRGB">
      <feFlood flood-opacity="0" result="BackgroundImageFix" />
      <feBlend mode="normal" in="SourceGraphic" in2="BackgroundImageFix" result="shape" />
      <feGaussianBlur stdDeviation="0.878788" result="effect1_foregroundBlur_0_1" />
    </filter>
    <filter id="filter15_f_0_1" x="52.1803" y="22.9264" width="14.9285" height="17.448"
      filterUnits="userSpaceOnUse" color-interpolation-filters="sRGB">
      <feFlood flood-opacity="0" result="BackgroundImageFix" />
      <feBlend mode="normal" in="SourceGraphic" in2="BackgroundImageFix" result="shape" />
      <feGaussianBlur stdDeviation="2.19697" result="effect1_foregroundBlur_0_1" />
    </filter>
    <filter id="filter16_f_0_1" x="40.0002" y="25.8791" width="7.03078" height="7.03078"
      filterUnits="userSpaceOnUse" color-interpolation-filters="sRGB">
      <feFlood flood-opacity="0" result="BackgroundImageFix" />
      <feBlend mode="normal" in="SourceGraphic" in2="BackgroundImageFix" result="shape" />
      <feGaussianBlur stdDeviation="0.878788" result="effect1_foregroundBlur_0_1" />
    </filter>
    <linearGradient id="paint0_linear_0_1" x1="79.7272" y1="54.8869" x2="59.555" y2="134.425"
      gradientUnits="userSpaceOnUse">
      <stop stop-color="#CBBAAB" />
      <stop offset="1" stop-color="#86694F" />
    </linearGradient>
    <radialGradient id="paint1_radial_0_1" cx="0" cy="0" r="1" gradientUnits="userSpaceOnUse"
      gradientTransform="translate(78.1626 76.401) rotate(-37.6791) scale(14.5298 21.9664)">
      <stop stop-color="#232323" stop-opacity="0" />
      <stop offset="1" stop-color="#232323" />
    </radialGradient>
    <radialGradient id="paint2_radial_0_1" cx="0" cy="0" r="1" gradientUnits="userSpaceOnUse"
      gradientTransform="translate(84.4275 62.2387) rotate(-46.7197) scale(7.69189 7.23129)">
      <stop stop-color="#232323" stop-opacity="0" />
      <stop offset="1" stop-color="#232323" />
    </radialGradient>
    <radialGradient id="paint3_radial_0_1" cx="0" cy="0" r="1" gradientUnits="userSpaceOnUse"
      gradientTransform="translate(76.7965 60.2563) rotate(-83.0338) scale(7.68657 7.23629)">
      <stop stop-color="#232323" stop-opacity="0" />
      <stop offset="1" stop-color="#232323" />
    </radialGradient>
    <radialGradient id="paint4_radial_0_1" cx="0" cy="0" r="1" gradientUnits="userSpaceOnUse"
      gradientTransform="translate(88.5781 69.5074) rotate(-42.8817) scale(5.20453 6.23355)">
      <stop stop-color="#232323" stop-opacity="0" />
      <stop offset="1" stop-color="#232323" />
    </radialGradient>
    <radialGradient id="paint5_radial_0_1" cx="0" cy="0" r="1" gradientUnits="userSpaceOnUse"
      gradientTransform="translate(69.4401 66.0177) rotate(-75.8267) scale(5.20453 6.23355)">
      <stop stop-color="#232323" stop-opacity="0" />
      <stop offset="1" stop-color="#232323" />
    </radialGradient>
    <linearGradient id="paint6_linear_0_1" x1="28.8487" y1="54.9073" x2="49.3367" y2="134.364"
      gradientUnits="userSpaceOnUse">
      <stop stop-color="#CBBAAB" />
      <stop offset="1" stop-color="#86694F" />
    </linearGradient>
    <radialGradient id="paint7_radial_0_1" cx="0" cy="0" r="1" gradientUnits="userSpaceOnUse"
      gradientTransform="translate(30.4989 76.4163) rotate(-142.548) scale(14.5298 21.9664)">
      <stop stop-color="#232323" stop-opacity="0" />
      <stop offset="1" stop-color="#232323" />
    </radialGradient>
    <radialGradient id="paint8_radial_0_1" cx="0" cy="0" r="1" gradientUnits="userSpaceOnUse"
      gradientTransform="translate(24.1786 62.278) rotate(-133.508) scale(7.69189 7.23128)">
      <stop stop-color="#232323" stop-opacity="0" />
      <stop offset="1" stop-color="#232323" />
    </radialGradient>
    <radialGradient id="paint9_radial_0_1" cx="0" cy="0" r="1" gradientUnits="userSpaceOnUse"
      gradientTransform="translate(31.8007 60.265) rotate(-97.1938) scale(7.68657 7.23629)">
      <stop stop-color="#232323" stop-opacity="0" />
      <stop offset="1" stop-color="#232323" />
    </radialGradient>
    <radialGradient id="paint10_radial_0_1" cx="0" cy="0" r="1" gradientUnits="userSpaceOnUse"
      gradientTransform="translate(20.0564 69.5606) rotate(-137.346) scale(5.20453 6.23355)">
      <stop stop-color="#232323" stop-opacity="0" />
      <stop offset="1" stop-color="#232323" />
    </radialGradient>
    <radialGradient id="paint11_radial_0_1" cx="0" cy="0" r="1" gradientUnits="userSpaceOnUse"
      gradientTransform="translate(39.1813 65.9974) rotate(-104.401) scale(5.20453 6.23355)">
      <stop stop-color="#232323" stop-opacity="0" />
      <stop offset="1" stop-color="#232323" />
    </radialGradient>
    <linearGradient id="paint12_linear_0_1" x1="62.4091" y1="52.2425" x2="41.3182" y2="35.5456"
      gradientUnits="userSpaceOnUse">
      <stop stop-color="#FF3F61" />
      <stop offset="0.628737" stop-color="#FF4D82" stop-opacity="0" />
    </linearGradient>
    <linearGradient id="paint13_linear_0_1" x1="46.5909" y1="52.2425" x2="67.6818" y2="35.5456"
      gradientUnits="userSpaceOnUse">
      <stop stop-color="#FF3F61" />
      <stop offset="0.628737" stop-color="#FF4D82" stop-opacity="0" />
    </linearGradient>
    <radialGradient id="paint14_radial_0_1" cx="0" cy="0" r="1" gradientUnits="userSpaceOnUse"
      gradientTransform="translate(54.5 39.5001) rotate(90) scale(17.1364)">
      <stop stop-color="#FF4874" stop-opacity="0.35" />
      <stop offset="0.572917" stop-color="#F26690" stop-opacity="0.32" />
      <stop offset="0.854167" stop-color="#F1608C" />
    </radialGradient>
  </defs>
</svg>
  