
<svg width="7" height="13" viewBox="0 0 7 13" fill="none" xmlns="http://www.w3.org/2000/svg">
  <path
    d="M2.18624 0.945855C1.82949 0.524248 1.19852 0.471667 0.776909 0.828411C0.355303 1.18515 0.302721 1.81613 0.659465 2.23774L2.18624 0.945855ZM5.5767 6.50089L6.34008 7.14683C6.65557 6.77398 6.65557 6.22779 6.34008 5.85495L5.5767 6.50089ZM0.659465 10.764C0.302721 11.1856 0.355303 11.8166 0.776909 12.1734C1.19852 12.5301 1.82949 12.4775 2.18624 12.0559L0.659465 10.764ZM0.659465 2.23774L4.81331 7.14683L6.34008 5.85495L2.18624 0.945855L0.659465 2.23774ZM4.81331 5.85495L0.659465 10.764L2.18624 12.0559L6.34008 7.14683L4.81331 5.85495Z"
    fill="white" />
</svg>
