<svg width="16" height="15" viewBox="0 0 16 15" fill="none" xmlns="http://www.w3.org/2000/svg">
  <path fill-rule="evenodd" clip-rule="evenodd"
    d="M8.05225 1.87375L6.77156 4.57154C6.45842 5.23117 5.81705 5.68549 5.07683 5.772L2.04942 6.12584L4.28532 8.14701C4.83202 8.6412 5.077 9.3763 4.93265 10.0894L4.3423 13.0059L7.00484 11.5572C7.65586 11.203 8.44864 11.203 9.09965 11.5572L11.7622 13.0059L11.1718 10.0894C11.0275 9.3763 11.2725 8.6412 11.8192 8.14701L14.0551 6.12584L11.0277 5.772C10.2874 5.68549 9.64607 5.23117 9.33293 4.57154L8.05225 1.87375ZM8.91916 0.928221C8.57727 0.208008 7.52722 0.208009 7.18533 0.928221L5.68791 4.08256C5.54874 4.37573 5.26369 4.57765 4.9347 4.6161L1.39497 5.02982C0.586758 5.12428 0.262277 6.09792 0.859181 6.6375L3.47346 9.00071C3.71644 9.22035 3.82532 9.54706 3.76116 9.86399L3.0709 13.274C2.9133 14.0526 3.7628 14.6544 4.47361 14.2676L7.58673 12.5738C7.87607 12.4164 8.22842 12.4164 8.51776 12.5738L11.6309 14.2676C12.3417 14.6544 13.1912 14.0526 13.0336 13.274L12.3433 9.86399C12.2792 9.54706 12.3881 9.22035 12.631 9.00071L15.2453 6.6375C15.8422 6.09792 15.5177 5.12428 14.7095 5.02982L11.1698 4.6161C10.8408 4.57765 10.5558 4.37573 10.4166 4.08256L8.91916 0.928221Z"
    fill="black" />
</svg>