<svg width="13" height="12" viewBox="0 0 13 12" fill="none" xmlns="http://www.w3.org/2000/svg">
<path d="M6.0926 0.924411C6.36612 0.35853 7.20615 0.35853 7.47967 0.924411L8.6776 3.40282C8.78894 3.63317 9.01698 3.79182 9.28017 3.82203L12.112 4.14709C12.7585 4.22131 13.0181 4.98632 12.5406 5.41027L10.4492 7.26708C10.2548 7.43965 10.1677 7.69635 10.219 7.94537L10.7712 10.6247C10.8973 11.2364 10.2177 11.7092 9.64905 11.4054L7.15854 10.0745C6.92707 9.95084 6.64519 9.95084 6.41372 10.0745L3.92322 11.4054C3.35458 11.7092 2.67498 11.2364 2.80106 10.6247L3.35327 7.94537C3.40459 7.69636 3.31748 7.43965 3.1231 7.26708L1.03168 5.41027C0.554158 4.98632 0.813742 4.22131 1.46031 4.14709L4.2921 3.82203C4.55529 3.79182 4.78333 3.63317 4.89467 3.40282L6.0926 0.924411Z" fill="#6F40F3"/>
</svg>
