
<svg width="12" height="12" viewBox="0 0 12 12" fill="none" xmlns="http://www.w3.org/2000/svg">
  <path
    d="M5.30647 0.954532C5.57998 0.388651 6.42002 0.38865 6.69353 0.954531L7.89147 3.43294C8.0028 3.66329 8.23085 3.82194 8.49404 3.85215L11.3258 4.17721C11.9724 4.25144 12.232 5.01644 11.7545 5.44039L9.66303 7.2972C9.46865 7.46978 9.38154 7.72648 9.43287 7.97549L9.98507 10.6548C10.1112 11.2666 9.43156 11.7394 8.86291 11.4355L6.37241 10.1047C6.14094 9.98096 5.85906 9.98096 5.62759 10.1047L3.13709 11.4355C2.56845 11.7394 1.88884 11.2666 2.01493 10.6548L2.56713 7.9755C2.61846 7.72648 2.53135 7.46978 2.33697 7.2972L0.245548 5.44039C-0.231975 5.01644 0.0276094 4.25144 0.674175 4.17721L3.50596 3.85215C3.76915 3.82194 3.9972 3.66329 4.10853 3.43294L5.30647 0.954532Z"
    fill="#6F40F3" />
</svg>
