<svg width="13" height="15" viewBox="0 0 13 15" fill="none" xmlns="http://www.w3.org/2000/svg">
<path d="M6.92885 10.2761C6.71382 10.2761 6.53345 10.2093 6.38773 10.0758C6.24202 9.94236 6.16942 9.77735 6.16992 9.58083V2.50667L5.48689 3.13239C5.34775 3.25986 5.1737 3.32359 4.96474 3.32359C4.75579 3.32359 4.57567 3.25406 4.42439 3.11501C4.28525 2.97596 4.21568 2.81072 4.21568 2.6193C4.21568 2.42787 4.28525 2.26866 4.42439 2.14166L6.3976 0.334016C6.46084 0.276078 6.54003 0.229728 6.63515 0.194966C6.73026 0.160204 6.82817 0.142822 6.92885 0.142822C7.03004 0.142822 7.1282 0.160204 7.22331 0.194966C7.31843 0.229728 7.39736 0.276078 7.4601 0.334016L9.43331 2.14166C9.5851 2.28071 9.66099 2.44873 9.66099 2.64572C9.66099 2.84271 9.5851 3.00493 9.43331 3.13239C9.28153 3.25986 9.10116 3.32359 8.8922 3.32359C8.68324 3.32359 8.50945 3.25986 8.37081 3.13239L7.68778 2.50667V9.58083C7.68778 9.77781 7.61492 9.94305 7.46921 10.0765C7.32349 10.21 7.14337 10.2765 6.92885 10.2761ZM2.37528 15.1428C1.95787 15.1428 1.60041 15.0066 1.30291 14.734C1.00541 14.4615 0.856917 14.1342 0.857423 13.7523V6.10458C0.857423 5.7222 1.00617 5.39473 1.30367 5.1222C1.60117 4.84966 1.95838 4.71362 2.37528 4.71408H3.89314C4.10817 4.71408 4.28854 4.78083 4.43425 4.91432C4.57997 5.0478 4.65257 5.21281 4.65207 5.40933C4.65207 5.60632 4.57921 5.77156 4.43349 5.90505C4.28778 6.03853 4.10766 6.10505 3.89314 6.10458H2.37528V13.7523H11.4824V6.10458H9.96456C9.74953 6.10458 9.56916 6.03784 9.42345 5.90435C9.27773 5.77086 9.20513 5.60586 9.20564 5.40933C9.20564 5.21235 9.27849 5.04711 9.42421 4.91362C9.56992 4.78013 9.75004 4.71362 9.96456 4.71408H11.4824C11.8998 4.71408 12.2573 4.85035 12.5548 5.12289C12.8523 5.39543 13.0008 5.72266 13.0003 6.10458V13.7523C13.0003 14.1347 12.8515 14.4622 12.554 14.7347C12.2565 15.0072 11.8993 15.1433 11.4824 15.1428H2.37528Z" fill="black"/>
</svg>
