<svg width="23" height="23" viewBox="0 0 23 23" fill="none" xmlns="http://www.w3.org/2000/svg">
<g clip-path="url(#clip0_4761_13035)">
<path d="M11.5 15.8125C12.6437 15.8125 13.7406 15.3581 14.5494 14.5494C15.3581 13.7406 15.8125 12.6437 15.8125 11.5C15.8125 10.3563 15.3581 9.25935 14.5494 8.4506C13.7406 7.64185 12.6437 7.1875 11.5 7.1875C10.3563 7.1875 9.25935 7.64185 8.4506 8.4506C7.64185 9.25935 7.1875 10.3563 7.1875 11.5C7.1875 12.6437 7.64185 13.7406 8.4506 14.5494C9.25935 15.3581 10.3563 15.8125 11.5 15.8125ZM12.2188 0.71875C12.2188 0.528126 12.143 0.345309 12.0082 0.210517C11.8734 0.0757254 11.6906 0 11.5 0C11.3094 0 11.1266 0.0757254 10.9918 0.210517C10.857 0.345309 10.7812 0.528126 10.7812 0.71875V2.90375C8.74889 3.07372 6.84248 3.95825 5.40037 5.40037C3.95825 6.84248 3.07372 8.74889 2.90375 10.7812H0.71875C0.528126 10.7812 0.345309 10.857 0.210517 10.9918C0.0757254 11.1266 0 11.3094 0 11.5C0 11.6906 0.0757254 11.8734 0.210517 12.0082C0.345309 12.143 0.528126 12.2188 0.71875 12.2188H2.90375C3.07372 14.2511 3.95825 16.1575 5.40037 17.5996C6.84248 19.0417 8.74889 19.9263 10.7812 20.0962V22.2812C10.7812 22.4719 10.857 22.6547 10.9918 22.7895C11.1266 22.9243 11.3094 23 11.5 23C11.6906 23 11.8734 22.9243 12.0082 22.7895C12.143 22.6547 12.2188 22.4719 12.2188 22.2812V20.0962C14.251 19.926 16.1573 19.0414 17.5993 17.5993C19.0414 16.1573 19.926 14.251 20.0962 12.2188H22.2812C22.4719 12.2188 22.6547 12.143 22.7895 12.0082C22.9243 11.8734 23 11.6906 23 11.5C23 11.3094 22.9243 11.1266 22.7895 10.9918C22.6547 10.857 22.4719 10.7812 22.2812 10.7812H20.0962C19.9263 8.74889 19.0417 6.84248 17.5996 5.40037C16.1575 3.95825 14.2511 3.07372 12.2188 2.90375V0.71875ZM11.5 18.6875C9.59376 18.6875 7.76559 17.9302 6.41767 16.5823C5.06975 15.2344 4.3125 13.4062 4.3125 11.5C4.3125 9.59376 5.06975 7.76559 6.41767 6.41767C7.76559 5.06975 9.59376 4.3125 11.5 4.3125C13.4062 4.3125 15.2344 5.06975 16.5823 6.41767C17.9302 7.76559 18.6875 9.59376 18.6875 11.5C18.6875 13.4062 17.9302 15.2344 16.5823 16.5823C15.2344 17.9302 13.4062 18.6875 11.5 18.6875Z" fill="black"/>
</g>
<defs>
<clipPath id="clip0_4761_13035">
<rect width="23" height="23" fill="white"/>
</clipPath>
</defs>
</svg>
