<svg width="50" height="59" viewBox="0 0 50 59" fill="none" xmlns="http://www.w3.org/2000/svg">
  <mask id="path-1-inside-1_1477_23335" fill="white">
    <path fill-rule="evenodd" clip-rule="evenodd"
      d="M30.8223 48.6499C41.6672 46.0576 49.73 36.3016 49.73 24.6625C49.73 11.0418 38.6882 0 25.0675 0C11.4468 0 0.405029 11.0418 0.405029 24.6625C0.405029 36.3016 8.46771 46.0576 19.3126 48.6499L25.0674 58.6176L30.8223 48.6499Z" />
  </mask>
  <path fill-rule="evenodd" clip-rule="evenodd"
    d="M30.8223 48.6499C41.6672 46.0576 49.73 36.3016 49.73 24.6625C49.73 11.0418 38.6882 0 25.0675 0C11.4468 0 0.405029 11.0418 0.405029 24.6625C0.405029 36.3016 8.46771 46.0576 19.3126 48.6499L25.0674 58.6176L30.8223 48.6499Z"
    fill="#91CF9B" />
  <path
    d="M30.8223 48.6499L30.5898 47.6773L30.1714 47.7773L29.9563 48.1499L30.8223 48.6499ZM19.3126 48.6499L20.1786 48.1499L19.9635 47.7773L19.545 47.6773L19.3126 48.6499ZM25.0674 58.6176L24.2014 59.1176L25.0674 60.6176L25.9335 59.1176L25.0674 58.6176ZM48.73 24.6625C48.73 35.8284 40.995 45.1902 30.5898 47.6773L31.0548 49.6225C42.3394 46.9251 50.73 36.7749 50.73 24.6625H48.73ZM25.0675 1C38.1359 1 48.73 11.594 48.73 24.6625H50.73C50.73 10.4895 39.2405 -1 25.0675 -1V1ZM1.40503 24.6625C1.40503 11.594 11.9991 1 25.0675 1V-1C10.8945 -1 -0.594971 10.4895 -0.594971 24.6625H1.40503ZM19.545 47.6773C9.13994 45.1901 1.40503 35.8283 1.40503 24.6625H-0.594971C-0.594971 36.7748 7.79549 46.9251 19.0801 49.6225L19.545 47.6773ZM25.9335 58.1176L20.1786 48.1499L18.4465 49.1499L24.2014 59.1176L25.9335 58.1176ZM29.9563 48.1499L24.2014 58.1176L25.9335 59.1176L31.6883 49.1499L29.9563 48.1499Z"
    fill="white" mask="url(#path-1-inside-1_1477_23335)" />
  <path
    d="M24.7475 21.8933C24.3157 20.9255 25.5897 19.3737 26.2807 18.7186C26.5856 18.4295 26.6634 18.3903 27.3641 17.639C28.3593 16.5717 29.6174 15.1704 31.3759 15.3166C33.2275 15.4707 36.7134 20.2243 36.7783 22.085C36.6639 24.8157 33.8869 24.7773 33.1559 24.4321C32.6894 24.2118 30.1486 23.0119 28.4086 23.6223C26.6687 24.2327 25.2873 23.103 24.7475 21.8933Z"
    fill="black" />
  <path
    d="M35.8949 12.8967C36.7001 11.2827 35.6433 10.1678 35.0142 9.81207C34.5503 9.59297 33.4178 9.59186 32.5993 11.3402C31.5761 13.5257 32.9084 14.874 33.3856 14.9875C33.8629 15.1011 34.8884 14.9142 35.8949 12.8967Z"
    fill="black" />
  <path
    d="M27.8629 10.8831C28.2944 9.13442 29.8285 8.95049 30.5416 9.07711C31.0394 9.20362 31.9079 9.92167 31.3993 11.7818C30.7636 14.1069 28.8669 14.2949 28.4274 14.079C27.988 13.8631 27.3236 13.0689 27.8629 10.8831Z"
    fill="black" />
  <path
    d="M38.1686 15.6159C37.8016 14.5859 36.9301 14.429 36.5403 14.4793C35.7961 14.7512 35.5024 15.4596 35.2298 16.2578C34.9572 17.056 35.7575 18.1372 36.8927 18.2578C38.0279 18.3784 38.6273 16.9034 38.1686 15.6159Z"
    fill="black" />
  <path
    d="M25.4205 13.8664C26.4613 13.5013 27.1325 14.0729 27.3379 14.4044C27.5919 15.1476 27.2193 15.8187 26.7629 16.5301C26.3064 17.2416 24.953 17.3056 24.1447 16.5083C23.3363 15.711 24.1196 14.3228 25.4205 13.8664Z"
    fill="black" />
  <path
    d="M12.5819 38.3026C11.8422 37.5406 12.5033 35.6488 12.9263 34.7981C13.1129 34.4226 13.1725 34.3592 13.5713 33.4147C14.1378 32.0731 14.836 30.3281 16.5383 29.8663C18.3308 29.3802 23.2461 32.6579 23.9493 34.3836C24.7843 36.9877 22.1624 37.8978 21.3567 37.8226C20.8424 37.7746 18.0415 37.5131 16.6177 38.6794C15.194 39.8456 13.5065 39.255 12.5819 38.3026Z"
    fill="black" />
  <path
    d="M19.948 26.0534C20.1474 24.2629 18.7698 23.5757 18.0561 23.4559C17.5447 23.4082 16.4805 23.793 16.315 25.7142C16.1083 28.1158 17.8251 28.9284 18.3126 28.8724C18.8001 28.8165 19.6989 28.2916 19.948 26.0534Z"
    fill="black" />
  <path
    d="M11.7081 26.8986C11.5098 25.1089 12.8874 24.4135 13.601 24.2894C14.1123 24.2387 15.176 24.6172 15.3403 26.5378C15.5456 28.9386 13.8288 29.7614 13.3415 29.7084C12.8541 29.6553 11.9559 29.1356 11.7081 26.8986Z"
    fill="black" />
  <path
    d="M23.0224 27.8331C22.3221 26.9906 21.4494 27.1401 21.1005 27.3202C20.4953 27.8291 20.464 28.5946 20.4834 29.4373C20.5028 30.2801 21.6278 31.023 22.7358 30.7495C23.8438 30.476 23.8977 28.8862 23.0224 27.8331Z"
    fill="black" />
  <path
    d="M10.4435 30.5332C11.2951 29.8355 12.1229 30.1438 12.4303 30.3852C12.9254 30.9968 12.8071 31.7542 12.6239 32.578C12.4407 33.4018 11.1915 33.9231 10.1569 33.4496C9.12235 32.976 9.37898 31.4052 10.4435 30.5332Z"
    fill="black" />
</svg>
  