<svg width="21" height="21" viewBox="0 0 21 21" fill="none" xmlns="http://www.w3.org/2000/svg">
  <circle cx="10.5" cy="10.5" r="10" fill="#4A8C48" stroke="#91CF9B" />
  <path
    d="M6.36836 16.9017C6.02001 16.6043 6.22324 15.7659 6.36836 15.3838C6.4324 15.2152 6.45521 15.1856 6.58607 14.7642C6.77195 14.1657 6.99715 13.3887 7.70575 13.1224C8.45186 12.8419 10.6916 14.0517 11.0648 14.7642C11.5313 15.8485 10.4484 16.3441 10.1006 16.3441C9.8787 16.3441 8.66992 16.3441 8.11008 16.9017C7.55024 17.4593 6.80379 17.2735 6.36836 16.9017Z"
    fill="white" />
  <path
    d="M6.36836 16.9017C6.02001 16.6043 6.22324 15.7659 6.36836 15.3838C6.4324 15.2152 6.45521 15.1856 6.58607 14.7642C6.77195 14.1657 6.99715 13.3887 7.70575 13.1224C8.45186 12.8419 10.6916 14.0517 11.0648 14.7642C11.5313 15.8485 10.4484 16.3441 10.1006 16.3441C9.8787 16.3441 8.66992 16.3441 8.11008 16.9017C7.55024 17.4593 6.80379 17.2735 6.36836 16.9017Z"
    fill="white" />
  <path
    d="M9.00583 11.3453C9.01583 10.5686 8.39763 10.3287 8.08728 10.3059C7.8665 10.3059 7.42743 10.5138 7.43742 11.3453C7.44992 12.3846 8.2185 12.6647 8.42471 12.6211C8.63091 12.5776 8.99333 12.3162 9.00583 11.3453Z"
    fill="white" />
  <path
    d="M9.00583 11.3453C9.01583 10.5686 8.39763 10.3287 8.08728 10.3059C7.8665 10.3059 7.42743 10.5138 7.43742 11.3453C7.44992 12.3846 8.2185 12.6647 8.42471 12.6211C8.63091 12.5776 8.99333 12.3162 9.00583 11.3453Z"
    fill="white" />
  <path
    d="M5.51833 12.0398C5.3584 11.2795 5.91869 10.9256 6.21882 10.8437C6.43548 10.8014 6.90651 10.9212 7.0574 11.7391C7.24602 12.7614 6.54594 13.1836 6.33518 13.1804C6.12441 13.1772 5.71825 12.9901 5.51833 12.0398Z"
    fill="white" />
  <path
    d="M5.51833 12.0398C5.3584 11.2795 5.91869 10.9256 6.21882 10.8437C6.43548 10.8014 6.90651 10.9212 7.0574 11.7391C7.24602 12.7614 6.54594 13.1836 6.33518 13.1804C6.12441 13.1772 5.71825 12.9901 5.51833 12.0398Z"
    fill="white" />
  <path
    d="M10.393 11.9863C10.0581 11.6527 9.69111 11.7519 9.54947 11.8432C9.31202 12.0859 9.33078 12.4158 9.37452 12.7768C9.41826 13.1377 9.93065 13.4116 10.393 13.2498C10.8554 13.088 10.8117 12.4033 10.393 11.9863Z"
    fill="white" />
  <path
    d="M10.393 11.9863C10.0581 11.6527 9.69111 11.7519 9.54947 11.8432C9.31202 12.0859 9.33078 12.4158 9.37452 12.7768C9.41826 13.1377 9.93065 13.4116 10.393 13.2498C10.8554 13.088 10.8117 12.4033 10.393 11.9863Z"
    fill="white" />
  <path
    d="M5.13064 13.6528C5.46557 13.3192 5.83257 13.4184 5.97421 13.5097C6.21166 13.7524 6.1929 14.0823 6.14916 14.4433C6.10542 14.8042 5.59304 15.0781 5.13064 14.9163C4.66824 14.7545 4.71198 14.0698 5.13064 13.6528Z"
    fill="white" />
  <path
    d="M5.13064 13.6528C5.46557 13.3192 5.83257 13.4184 5.97421 13.5097C6.21166 13.7524 6.1929 14.0823 6.14916 14.4433C6.10542 14.8042 5.59304 15.0781 5.13064 14.9163C4.66824 14.7545 4.71198 14.0698 5.13064 13.6528Z"
    fill="white" />
  <path fill-rule="evenodd" clip-rule="evenodd"
    d="M7.17822 13.6086C7.26238 13.5463 7.35591 13.4935 7.46036 13.4527C8.17821 13.1722 10.3331 14.382 10.6922 15.0945C10.887 15.5651 10.801 15.9248 10.6139 16.1813C10.9505 15.9368 11.2313 15.4944 10.9575 14.8332C10.5984 14.1207 8.44351 12.9108 7.72565 13.1913C7.49575 13.2812 7.31873 13.4291 7.17822 13.6086Z"
    fill="white" />
  <g filter="url(#filter0_f_1477_23395)">
    <path fill-rule="evenodd" clip-rule="evenodd"
      d="M8.0776 10.4429C8.35823 10.4635 8.91721 10.6804 8.90817 11.3827C8.90101 11.939 8.76679 12.2377 8.62198 12.3919C8.69967 12.2173 8.7559 11.9673 8.76047 11.6126C8.76951 10.9103 8.21053 10.6934 7.9299 10.6728C7.83596 10.6728 7.69831 10.7144 7.57983 10.8368C7.70711 10.5328 7.93955 10.4429 8.0776 10.4429Z"
      fill="white" />
  </g>
  <g filter="url(#filter1_f_1477_23395)">
    <path fill-rule="evenodd" clip-rule="evenodd"
      d="M6.16908 11.0045C6.4542 11.025 7.02214 11.2398 7.01295 11.9356C7.00568 12.4867 6.86932 12.7827 6.72219 12.9354C6.80113 12.7625 6.85825 12.5148 6.86289 12.1634C6.87208 11.4676 6.30414 11.2527 6.01902 11.2323C5.92357 11.2323 5.78371 11.2735 5.66333 11.3948C5.79265 11.0936 6.02881 11.0045 6.16908 11.0045Z"
      fill="white" />
  </g>
  <g filter="url(#filter2_f_1477_23395)">
    <path fill-rule="evenodd" clip-rule="evenodd"
      d="M9.90208 11.8621C10.1275 11.8763 10.5766 12.026 10.5693 12.511C10.5636 12.8951 10.4557 13.1013 10.3394 13.2078C10.4018 13.0873 10.447 12.9146 10.4506 12.6697C10.4579 12.1848 10.0089 12.0351 9.78342 12.0208C9.70795 12.0208 9.59737 12.0496 9.5022 12.1341C9.60445 11.9241 9.79117 11.8621 9.90208 11.8621Z"
      fill="white" />
  </g>
  <g filter="url(#filter3_f_1477_23395)">
    <path fill-rule="evenodd" clip-rule="evenodd"
      d="M5.52893 13.5317C5.71014 13.5457 6.07109 13.6928 6.06526 14.1691C6.06063 14.5465 5.97394 14.749 5.88042 14.8536C5.9306 14.7352 5.96691 14.5657 5.96986 14.3251C5.9757 13.8487 5.61475 13.7017 5.43354 13.6877C5.37289 13.6877 5.28402 13.7159 5.20752 13.7989C5.28971 13.5927 5.43979 13.5317 5.52893 13.5317Z"
      fill="white" />
  </g>
  <path
    d="M6.47854 16.7442C6.1756 16.4856 6.35234 15.7564 6.47854 15.4241C6.53423 15.2775 6.55407 15.2518 6.66786 14.8853C6.82951 14.3649 7.02536 13.6892 7.64158 13.4575C8.29041 13.2136 10.2381 14.2657 10.5627 14.8853C10.9684 15.8282 10.0266 16.2593 9.72424 16.2593C9.53124 16.2593 8.48005 16.2593 7.99319 16.7442C7.50634 17.2291 6.8572 17.0675 6.47854 16.7442Z"
    fill="white" />
  <path
    d="M10.1661 9.59449C9.95946 9.18672 10.4707 8.48923 10.7521 8.19143C10.8763 8.06 10.9088 8.04134 11.1922 7.7018C11.5948 7.21949 12.1025 6.58725 12.8592 6.61132C13.656 6.63667 15.2557 8.60931 15.3251 9.41026C15.337 10.5904 14.1463 10.6354 13.8254 10.5028C13.6206 10.4181 12.5052 9.95704 11.7733 10.2589C11.0415 10.5607 10.4244 10.1042 10.1661 9.59449Z"
    fill="white" />
  <path
    d="M10.1661 9.59449C9.95946 9.18672 10.4707 8.48923 10.7521 8.19143C10.8763 8.06 10.9088 8.04134 11.1922 7.7018C11.5948 7.21949 12.1025 6.58725 12.8592 6.61132C13.656 6.63667 15.2557 8.60931 15.3251 9.41026C15.337 10.5904 14.1463 10.6354 13.8254 10.5028C13.6206 10.4181 12.5052 9.95704 11.7733 10.2589C11.0415 10.5607 10.4244 10.1042 10.1661 9.59449Z"
    fill="white" />
  <path
    d="M14.7414 5.46749C15.0504 4.7536 14.5727 4.29625 14.2952 4.15682C14.0915 4.07262 13.6063 4.09727 13.2946 4.8694C12.905 5.83456 13.5059 6.38643 13.713 6.42481C13.92 6.46319 14.3552 6.35986 14.7414 5.46749Z"
    fill="white" />
  <path
    d="M14.7414 5.46749C15.0504 4.7536 14.5727 4.29625 14.2952 4.15682C14.0915 4.07262 13.6063 4.09727 13.2946 4.8694C12.905 5.83456 13.5059 6.38643 13.713 6.42481C13.92 6.46319 14.3552 6.35986 14.7414 5.46749Z"
    fill="white" />
  <path
    d="M11.2551 4.77726C11.4009 4.0136 12.0541 3.90025 12.3625 3.93903C12.5786 3.98254 12.9668 4.27293 12.7904 5.08636C12.5699 6.10315 11.7615 6.22632 11.5683 6.14296C11.3752 6.0596 11.0728 5.73183 11.2551 4.77726Z"
    fill="white" />
  <path
    d="M11.2551 4.77726C11.4009 4.0136 12.0541 3.90025 12.3625 3.93903C12.5786 3.98254 12.9668 4.27293 12.7904 5.08636C12.5699 6.10315 11.7615 6.22632 11.5683 6.14296C11.3752 6.0596 11.0728 5.73183 11.2551 4.77726Z"
    fill="white" />
  <path
    d="M15.7763 6.58967C15.5961 6.15363 15.2192 6.10531 15.0533 6.13565C14.7405 6.26939 14.6305 6.5814 14.5315 6.93168C14.4326 7.28196 14.7996 7.73046 15.2887 7.75727C15.7777 7.78408 16.0016 7.13471 15.7763 6.58967Z"
    fill="white" />
  <path
    d="M15.7763 6.58967C15.5961 6.15363 15.2192 6.10531 15.0533 6.13565C14.7405 6.26939 14.6305 6.5814 14.5315 6.93168C14.4326 7.28196 14.7996 7.73046 15.2887 7.75727C15.7777 7.78408 16.0016 7.13471 15.7763 6.58967Z"
    fill="white" />
  <path
    d="M10.2753 6.11794C10.7131 5.93739 11.0134 6.16901 11.1089 6.30739C11.2343 6.62226 11.0896 6.91996 10.9099 7.23687C10.7303 7.55379 10.1518 7.61144 9.78765 7.28554C9.42349 6.95964 9.7281 6.34364 10.2753 6.11794Z"
    fill="white" />
  <path
    d="M10.2753 6.11794C10.7131 5.93739 11.0134 6.16901 11.1089 6.30739C11.2343 6.62226 11.0896 6.91996 10.9099 7.23687C10.7303 7.55379 10.1518 7.61144 9.78765 7.28554C9.42349 6.95964 9.7281 6.34364 10.2753 6.11794Z"
    fill="white" />
  <path fill-rule="evenodd" clip-rule="evenodd"
    d="M12.1847 6.86014C12.2864 6.83465 12.3931 6.82153 12.5053 6.82365C13.276 6.83822 14.7975 8.7786 14.8538 9.57419C14.8519 10.0835 14.6337 10.3832 14.362 10.5488C14.767 10.4513 15.1969 10.1495 15.1996 9.43382C15.1432 8.63823 13.6217 6.69786 12.851 6.68328C12.6042 6.67862 12.3837 6.74779 12.1847 6.86014Z"
    fill="white" />
  <g filter="url(#filter4_f_1477_23395)">
    <path fill-rule="evenodd" clip-rule="evenodd"
      d="M14.2336 4.27966C14.4845 4.40575 14.9164 4.81929 14.6371 5.46481C14.4158 5.97612 14.1767 6.20095 13.9836 6.28822C14.1226 6.15654 14.271 5.94698 14.4121 5.62093C14.6915 4.97542 14.2595 4.56187 14.0086 4.43579C13.922 4.39997 13.7789 4.38593 13.6224 4.45386C13.8571 4.22143 14.1062 4.22702 14.2336 4.27966Z"
      fill="white" />
  </g>
  <g filter="url(#filter5_f_1477_23395)">
    <path fill-rule="evenodd" clip-rule="evenodd"
      d="M12.2544 4.06896C12.5095 4.19658 12.9505 4.61169 12.6735 5.25113C12.4541 5.75761 12.2141 5.97906 12.0194 6.06413C12.159 5.93442 12.3073 5.72735 12.4472 5.40439C12.7242 4.76495 12.2832 4.34984 12.0281 4.22222C11.94 4.18582 11.7951 4.17059 11.6372 4.23676C11.8728 4.0077 12.125 4.01547 12.2544 4.06896Z"
      fill="white" />
  </g>
  <g filter="url(#filter6_f_1477_23395)">
    <path fill-rule="evenodd" clip-rule="evenodd"
      d="M15.3711 6.28751C15.5736 6.38665 15.9301 6.69627 15.7362 7.14162C15.5827 7.49438 15.4036 7.64385 15.2552 7.69787C15.3593 7.61029 15.4676 7.46801 15.5655 7.24308C15.7593 6.79773 15.4028 6.48811 15.2004 6.38897C15.1307 6.36019 15.0176 6.34457 14.8972 6.38638C15.0726 6.23135 15.2688 6.24522 15.3711 6.28751Z"
      fill="white" />
  </g>
  <g filter="url(#filter7_f_1477_23395)">
    <path fill-rule="evenodd" clip-rule="evenodd"
      d="M10.6895 6.15821C10.8513 6.24024 11.1275 6.51378 10.9383 6.95168C10.7884 7.29858 10.6303 7.45271 10.5037 7.51367C10.5956 7.42341 10.6946 7.28058 10.7901 7.05938C10.9793 6.62149 10.7031 6.34795 10.5414 6.26592C10.4854 6.24279 10.3926 6.23497 10.29 6.28249C10.4454 6.12331 10.6073 6.12422 10.6895 6.15821Z"
      fill="white" />
  </g>
  <path
    d="M10.3284 9.49072C10.1487 9.13611 10.5933 8.52956 10.838 8.27058C10.946 8.15628 10.9743 8.14005 11.2207 7.84478C11.5708 7.42535 12.0124 6.87553 12.6705 6.89647C13.3634 6.91851 14.7545 8.63398 14.8148 9.33051C14.8252 10.3568 13.7897 10.396 13.5107 10.2806C13.3326 10.207 12.3626 9.80601 11.7261 10.0685C11.0897 10.331 10.553 9.93398 10.3284 9.49072Z"
    fill="white" />
  <defs>
    <filter id="filter0_f_1477_23395" x="6.52578" y="9.38882" width="3.43648" height="4.0572"
      filterUnits="userSpaceOnUse" color-interpolation-filters="sRGB">
      <feFlood flood-opacity="0" result="BackgroundImageFix" />
      <feBlend mode="normal" in="SourceGraphic" in2="BackgroundImageFix" result="shape" />
      <feGaussianBlur stdDeviation="0.527027" result="effect1_foregroundBlur_1477_23395" />
    </filter>
    <filter id="filter1_f_1477_23395" x="4.60928" y="9.95046" width="3.45796" height="4.03902"
      filterUnits="userSpaceOnUse" color-interpolation-filters="sRGB">
      <feFlood flood-opacity="0" result="BackgroundImageFix" />
      <feBlend mode="normal" in="SourceGraphic" in2="BackgroundImageFix" result="shape" />
      <feGaussianBlur stdDeviation="0.527027" result="effect1_foregroundBlur_1477_23395" />
    </filter>
    <filter id="filter2_f_1477_23395" x="8.44814" y="10.808" width="3.17525" height="3.45381"
      filterUnits="userSpaceOnUse" color-interpolation-filters="sRGB">
      <feFlood flood-opacity="0" result="BackgroundImageFix" />
      <feBlend mode="normal" in="SourceGraphic" in2="BackgroundImageFix" result="shape" />
      <feGaussianBlur stdDeviation="0.527027" result="effect1_foregroundBlur_1477_23395" />
    </filter>
    <filter id="filter3_f_1477_23395" x="4.15347" y="12.4777" width="2.96602" height="3.43001"
      filterUnits="userSpaceOnUse" color-interpolation-filters="sRGB">
      <feFlood flood-opacity="0" result="BackgroundImageFix" />
      <feBlend mode="normal" in="SourceGraphic" in2="BackgroundImageFix" result="shape" />
      <feGaussianBlur stdDeviation="0.527027" result="effect1_foregroundBlur_1477_23395" />
    </filter>
    <filter id="filter4_f_1477_23395" x="12.5683" y="3.1957" width="3.21358" height="4.14656"
      filterUnits="userSpaceOnUse" color-interpolation-filters="sRGB">
      <feFlood flood-opacity="0" result="BackgroundImageFix" />
      <feBlend mode="normal" in="SourceGraphic" in2="BackgroundImageFix" result="shape" />
      <feGaussianBlur stdDeviation="0.527027" result="effect1_foregroundBlur_1477_23395" />
    </filter>
    <filter id="filter5_f_1477_23395" x="10.5832" y="2.98367" width="3.23262" height="4.13448"
      filterUnits="userSpaceOnUse" color-interpolation-filters="sRGB">
      <feFlood flood-opacity="0" result="BackgroundImageFix" />
      <feBlend mode="normal" in="SourceGraphic" in2="BackgroundImageFix" result="shape" />
      <feGaussianBlur stdDeviation="0.527027" result="effect1_foregroundBlur_1477_23395" />
    </filter>
    <filter id="filter6_f_1477_23395" x="13.8432" y="5.20522" width="3.00313" height="3.54671"
      filterUnits="userSpaceOnUse" color-interpolation-filters="sRGB">
      <feFlood flood-opacity="0" result="BackgroundImageFix" />
      <feBlend mode="normal" in="SourceGraphic" in2="BackgroundImageFix" result="shape" />
      <feGaussianBlur stdDeviation="0.527027" result="effect1_foregroundBlur_1477_23395" />
    </filter>
    <filter id="filter7_f_1477_23395" x="9.23598" y="5.08584" width="2.82027" height="3.48189"
      filterUnits="userSpaceOnUse" color-interpolation-filters="sRGB">
      <feFlood flood-opacity="0" result="BackgroundImageFix" />
      <feBlend mode="normal" in="SourceGraphic" in2="BackgroundImageFix" result="shape" />
      <feGaussianBlur stdDeviation="0.527027" result="effect1_foregroundBlur_1477_23395" />
    </filter>
  </defs>
</svg>
  