<svg width="23" height="23" viewBox="0 0 23 23" fill="none" xmlns="http://www.w3.org/2000/svg">
  <circle cx="11.5" cy="11.5" r="11" fill="#6ABC77" stroke="#4A8C48" />
  <path
    d="M11.8861 10.2914C11.6911 9.85152 12.2664 9.14613 12.5785 8.84839C12.7162 8.71699 12.7513 8.69914 13.0677 8.35763C13.5172 7.87252 14.0854 7.23554 14.8795 7.30203C15.7158 7.37205 17.29 9.53281 17.3193 10.3786C17.2677 11.6198 16.0135 11.6023 15.6834 11.4454C15.4728 11.3453 14.3253 10.7999 13.5395 11.0773C12.7537 11.3548 12.1299 10.8413 11.8861 10.2914Z"
    fill="white" />
  <path
    d="M16.9204 6.20205C17.284 5.46841 16.8067 4.96164 16.5226 4.79995C16.3131 4.70036 15.8017 4.69986 15.432 5.49457C14.97 6.48797 15.5716 7.10082 15.7872 7.15243C16.0027 7.20404 16.4658 7.11911 16.9204 6.20205Z"
    fill="white" />
  <path
    d="M13.293 5.28677C13.4879 4.49193 14.1807 4.40833 14.5027 4.46588C14.7276 4.52339 15.1198 4.84977 14.8901 5.69527C14.603 6.75214 13.7465 6.83762 13.548 6.73948C13.3495 6.64133 13.0495 6.28032 13.293 5.28677Z"
    fill="white" />
  <path
    d="M17.9472 7.43805C17.7815 6.96988 17.3879 6.89856 17.2118 6.92142C16.8758 7.045 16.7431 7.367 16.62 7.72983C16.4969 8.09267 16.8583 8.58412 17.371 8.63892C17.8837 8.69373 18.1544 8.02328 17.9472 7.43805Z"
    fill="white" />
  <path
    d="M12.19 6.64284C12.66 6.47686 12.9631 6.73669 13.0559 6.88736C13.1706 7.22518 13.0024 7.53026 12.7962 7.85363C12.5901 8.177 11.9789 8.20612 11.6138 7.8437C11.2487 7.48129 11.6025 6.85031 12.19 6.64284Z"
    fill="white" />
  <path
    d="M6.39181 17.7502C6.05776 17.4039 6.35634 16.5439 6.54735 16.1572C6.63165 15.9866 6.65855 15.9578 6.83866 15.5285C7.09451 14.9186 7.40979 14.1254 8.17861 13.9155C8.98812 13.6946 11.2079 15.1844 11.5255 15.9688C11.9026 17.1525 10.7185 17.5662 10.3546 17.532C10.1224 17.5102 8.85745 17.3913 8.21446 17.9215C7.57147 18.4516 6.80938 18.1831 6.39181 17.7502Z"
    fill="white" />
  <path
    d="M9.71847 12.1824C9.80849 11.3685 9.18635 11.0562 8.86403 11.0017C8.63307 10.98 8.15247 11.1549 8.07776 12.0282C7.98438 13.1198 8.75971 13.4892 8.97988 13.4638C9.20006 13.4383 9.60596 13.1997 9.71847 12.1824Z"
    fill="white" />
  <path
    d="M5.99719 12.5665C5.90766 11.7531 6.5298 11.437 6.85206 11.3806C7.08297 11.3575 7.56334 11.5296 7.63754 12.4026C7.73028 13.4938 6.95496 13.8679 6.73486 13.8437C6.51477 13.8196 6.10911 13.5834 5.99719 12.5665Z"
    fill="white" />
  <path
    d="M11.1069 12.9913C10.7906 12.6084 10.3965 12.6763 10.2389 12.7582C9.96564 12.9895 9.95146 13.3375 9.96025 13.7205C9.96903 14.1036 10.4771 14.4413 10.9774 14.317C11.4778 14.1926 11.5022 13.47 11.1069 12.9913Z"
    fill="white" />
  <path
    d="M5.4261 14.2186C5.81071 13.9015 6.18454 14.0417 6.32338 14.1514C6.54696 14.4294 6.49354 14.7737 6.41079 15.1481C6.32804 15.5226 5.76389 15.7595 5.29667 15.5443C4.82945 15.329 4.94535 14.615 5.4261 14.2186Z"
    fill="white" />
</svg>
  