<svg width="53" height="63" viewBox="0 0 53 63" fill="none" xmlns="http://www.w3.org/2000/svg">
  <mask id="path-1-outside-1_1477_24686" maskUnits="userSpaceOnUse" x="0.865479" y="0.971313" width="52" height="62" fill="black">
  <rect fill="white" x="0.865479" y="0.971313" width="52" height="62"/>
  <path fill-rule="evenodd" clip-rule="evenodd" d="M32.1966 50.4834C43.0108 47.8985 51.0507 38.1701 51.0507 26.5639C51.0507 12.9818 40.0402 1.97131 26.4581 1.97131C12.876 1.97131 1.86548 12.9818 1.86548 26.5639C1.86548 38.1701 9.90532 47.8984 20.7194 50.4834L26.458 60.423L32.1966 50.4834Z"/>
  </mask>
  <path fill-rule="evenodd" clip-rule="evenodd" d="M32.1966 50.4834C43.0108 47.8985 51.0507 38.1701 51.0507 26.5639C51.0507 12.9818 40.0402 1.97131 26.4581 1.97131C12.876 1.97131 1.86548 12.9818 1.86548 26.5639C1.86548 38.1701 9.90532 47.8984 20.7194 50.4834L26.458 60.423L32.1966 50.4834Z" fill="#91CF9B"/>
  <path d="M32.1966 50.4834L31.9641 49.5108L31.5457 49.6109L31.3306 49.9834L32.1966 50.4834ZM20.7194 50.4834L21.5855 49.9834L21.3704 49.6108L20.9519 49.5108L20.7194 50.4834ZM26.458 60.423L25.592 60.923L26.458 62.423L27.3241 60.923L26.458 60.423ZM50.0507 26.5639C50.0507 37.6969 42.3386 47.031 31.9641 49.5108L32.4291 51.456C43.683 48.766 52.0507 38.6434 52.0507 26.5639H50.0507ZM26.4581 2.97131C39.4879 2.97131 50.0507 13.5341 50.0507 26.5639H52.0507C52.0507 12.4295 40.5925 0.971313 26.4581 0.971313V2.97131ZM2.86548 26.5639C2.86548 13.5341 13.4283 2.97131 26.4581 2.97131V0.971313C12.3237 0.971313 0.865479 12.4295 0.865479 26.5639H2.86548ZM20.9519 49.5108C10.5775 47.0309 2.86548 37.6968 2.86548 26.5639H0.865479C0.865479 38.6433 9.23309 48.7659 20.487 51.456L20.9519 49.5108ZM27.3241 59.923L21.5855 49.9834L19.8534 50.9834L25.592 60.923L27.3241 59.923ZM31.3306 49.9834L25.592 59.923L27.3241 60.923L33.0627 50.9834L31.3306 49.9834Z" fill="white" mask="url(#path-1-outside-1_1477_24686)"/>
  </svg>
  