<svg width="25" height="25" viewBox="0 0 25 25" fill="none" xmlns="http://www.w3.org/2000/svg">
<circle cx="12.5" cy="12.5" r="11.413" fill="#6ABC77"/>
<path d="M12.4131 11.7826C12.2011 11.3044 12.8266 10.5377 13.1657 10.2141C13.3154 10.0712 13.3536 10.0518 13.6975 9.68064C14.1861 9.15335 14.8037 8.46097 15.6669 8.53325C16.5758 8.60935 18.287 10.958 18.3189 11.8773C18.2627 13.2265 16.8995 13.2075 16.5407 13.0369C16.3117 12.9281 15.0644 12.3352 14.2103 12.6368C13.3562 12.9384 12.6781 12.3803 12.4131 11.7826Z" fill="white"/>
<path d="M17.8852 7.33762C18.2805 6.54018 17.7617 5.98934 17.4529 5.8136C17.2251 5.70535 16.6692 5.7048 16.2674 6.56862C15.7652 7.6484 16.4191 8.31454 16.6534 8.37064C16.8877 8.42674 17.3911 8.33442 17.8852 7.33762Z" fill="white"/>
<path d="M13.9424 6.34275C14.1542 5.47879 14.9073 5.38792 15.2573 5.45048C15.5017 5.51298 15.928 5.86775 15.6784 6.78677C15.3663 7.93554 14.4353 8.02845 14.2195 7.92178C14.0038 7.8151 13.6777 7.4227 13.9424 6.34275Z" fill="white"/>
<path d="M19.0013 8.6811C18.8211 8.17221 18.3934 8.09469 18.202 8.11954C17.8367 8.25386 17.6925 8.60387 17.5587 8.99825C17.4249 9.39264 17.8178 9.92682 18.375 9.98639C18.9323 10.046 19.2265 9.31721 19.0013 8.6811Z" fill="white"/>
<path d="M12.7435 7.81673C13.2544 7.63633 13.5838 7.91875 13.6847 8.08251C13.8094 8.44971 13.6265 8.78132 13.4024 9.13281C13.1784 9.4843 12.514 9.51595 12.1172 9.12202C11.7204 8.7281 12.1049 8.04224 12.7435 7.81673Z" fill="white"/>
<path d="M6.94741 19.2937C6.58431 18.9172 6.90886 17.9825 7.11647 17.5622C7.2081 17.3767 7.23735 17.3453 7.43312 16.8787C7.71121 16.2159 8.05391 15.3537 8.88958 15.1256C9.76948 14.8853 12.1823 16.5048 12.5275 17.3574C12.9374 18.644 11.6504 19.0937 11.2548 19.0565C11.0024 19.0328 9.62745 18.9036 8.92855 19.4798C8.22965 20.056 7.40129 19.7642 6.94741 19.2937Z" fill="white"/>
<path d="M10.5633 13.2417C10.6612 12.3571 9.98495 12.0175 9.63461 11.9584C9.38356 11.9348 8.86116 12.1249 8.77996 13.0741C8.67846 14.2606 9.52121 14.6621 9.76053 14.6345C9.99985 14.6068 10.441 14.3475 10.5633 13.2417Z" fill="white"/>
<path d="M6.51848 13.6593C6.42116 12.7751 7.09739 12.4314 7.44768 12.3702C7.69867 12.3451 8.22081 12.5321 8.30146 13.481C8.40227 14.6672 7.55953 15.0737 7.32029 15.0475C7.08106 15.0213 6.64013 14.7645 6.51848 13.6593Z" fill="white"/>
<path d="M12.0725 14.121C11.7287 13.7047 11.3003 13.7786 11.1291 13.8676C10.832 14.119 10.8166 14.4972 10.8261 14.9136C10.8357 15.33 11.3879 15.697 11.9318 15.5619C12.4757 15.4267 12.5022 14.6413 12.0725 14.121Z" fill="white"/>
<path d="M5.89773 15.455C6.31578 15.1103 6.72212 15.2626 6.87303 15.3819C7.11604 15.6841 7.05798 16.0583 6.96804 16.4653C6.87809 16.8723 6.26488 17.1299 5.75703 16.8959C5.24919 16.662 5.37517 15.8858 5.89773 15.455Z" fill="white"/>
</svg>
